G04 #@! TF.GenerationSoftware,KiCad,Pcbnew,(5.0.0)*
G04 #@! TF.CreationDate,2019-07-22T19:17:55-04:00*
G04 #@! TF.ProjectId,7segment,377365676D656E742E6B696361645F70,rev?*
G04 #@! TF.SameCoordinates,Original*
G04 #@! TF.FileFunction,Copper,L2,Bot,Signal*
G04 #@! TF.FilePolarity,Positive*
%FSLAX46Y46*%
G04 Gerber Fmt 4.6, Leading zero omitted, Abs format (unit mm)*
G04 Created by KiCad (PCBNEW (5.0.0)) date 07/22/19 19:17:55*
%MOMM*%
%LPD*%
G01*
G04 APERTURE LIST*
G04 #@! TA.AperFunction,SMDPad,CuDef*
%ADD10R,1.000000X1.500000*%
G04 #@! TD*
G04 #@! TA.AperFunction,Conductor*
%ADD11C,0.100000*%
G04 #@! TD*
G04 #@! TA.AperFunction,SMDPad,CuDef*
%ADD12C,1.150000*%
G04 #@! TD*
G04 #@! TA.AperFunction,ComponentPad*
%ADD13R,1.700000X1.700000*%
G04 #@! TD*
G04 #@! TA.AperFunction,ComponentPad*
%ADD14O,1.700000X1.700000*%
G04 #@! TD*
G04 #@! TA.AperFunction,ComponentPad*
%ADD15C,1.600000*%
G04 #@! TD*
G04 #@! TA.AperFunction,ComponentPad*
%ADD16R,1.600000X1.600000*%
G04 #@! TD*
G04 #@! TA.AperFunction,ViaPad*
%ADD17C,0.600000*%
G04 #@! TD*
G04 #@! TA.AperFunction,ViaPad*
%ADD18C,0.800000*%
G04 #@! TD*
G04 #@! TA.AperFunction,Conductor*
%ADD19C,0.150000*%
G04 #@! TD*
G04 #@! TA.AperFunction,Conductor*
%ADD20C,0.200000*%
G04 #@! TD*
G04 APERTURE END LIST*
D10*
G04 #@! TO.P,JP1,2*
G04 #@! TO.N,GND*
X60295000Y-50165000D03*
G04 #@! TO.P,JP1,1*
G04 #@! TO.N,Net-(JP1-Pad1)*
X61595000Y-50165000D03*
G04 #@! TD*
G04 #@! TO.P,JP2,1*
G04 #@! TO.N,Net-(JP2-Pad1)*
X61610000Y-52705000D03*
G04 #@! TO.P,JP2,2*
G04 #@! TO.N,GND*
X60310000Y-52705000D03*
G04 #@! TD*
D11*
G04 #@! TO.N,VCC*
G04 #@! TO.C,C1*
G36*
X65244505Y-44756204D02*
X65268773Y-44759804D01*
X65292572Y-44765765D01*
X65315671Y-44774030D01*
X65337850Y-44784520D01*
X65358893Y-44797132D01*
X65378599Y-44811747D01*
X65396777Y-44828223D01*
X65413253Y-44846401D01*
X65427868Y-44866107D01*
X65440480Y-44887150D01*
X65450970Y-44909329D01*
X65459235Y-44932428D01*
X65465196Y-44956227D01*
X65468796Y-44980495D01*
X65470000Y-45004999D01*
X65470000Y-45655001D01*
X65468796Y-45679505D01*
X65465196Y-45703773D01*
X65459235Y-45727572D01*
X65450970Y-45750671D01*
X65440480Y-45772850D01*
X65427868Y-45793893D01*
X65413253Y-45813599D01*
X65396777Y-45831777D01*
X65378599Y-45848253D01*
X65358893Y-45862868D01*
X65337850Y-45875480D01*
X65315671Y-45885970D01*
X65292572Y-45894235D01*
X65268773Y-45900196D01*
X65244505Y-45903796D01*
X65220001Y-45905000D01*
X64319999Y-45905000D01*
X64295495Y-45903796D01*
X64271227Y-45900196D01*
X64247428Y-45894235D01*
X64224329Y-45885970D01*
X64202150Y-45875480D01*
X64181107Y-45862868D01*
X64161401Y-45848253D01*
X64143223Y-45831777D01*
X64126747Y-45813599D01*
X64112132Y-45793893D01*
X64099520Y-45772850D01*
X64089030Y-45750671D01*
X64080765Y-45727572D01*
X64074804Y-45703773D01*
X64071204Y-45679505D01*
X64070000Y-45655001D01*
X64070000Y-45004999D01*
X64071204Y-44980495D01*
X64074804Y-44956227D01*
X64080765Y-44932428D01*
X64089030Y-44909329D01*
X64099520Y-44887150D01*
X64112132Y-44866107D01*
X64126747Y-44846401D01*
X64143223Y-44828223D01*
X64161401Y-44811747D01*
X64181107Y-44797132D01*
X64202150Y-44784520D01*
X64224329Y-44774030D01*
X64247428Y-44765765D01*
X64271227Y-44759804D01*
X64295495Y-44756204D01*
X64319999Y-44755000D01*
X65220001Y-44755000D01*
X65244505Y-44756204D01*
X65244505Y-44756204D01*
G37*
D12*
G04 #@! TD*
G04 #@! TO.P,C1,1*
G04 #@! TO.N,VCC*
X64770000Y-45330000D03*
D11*
G04 #@! TO.N,GND*
G04 #@! TO.C,C1*
G36*
X65244505Y-46806204D02*
X65268773Y-46809804D01*
X65292572Y-46815765D01*
X65315671Y-46824030D01*
X65337850Y-46834520D01*
X65358893Y-46847132D01*
X65378599Y-46861747D01*
X65396777Y-46878223D01*
X65413253Y-46896401D01*
X65427868Y-46916107D01*
X65440480Y-46937150D01*
X65450970Y-46959329D01*
X65459235Y-46982428D01*
X65465196Y-47006227D01*
X65468796Y-47030495D01*
X65470000Y-47054999D01*
X65470000Y-47705001D01*
X65468796Y-47729505D01*
X65465196Y-47753773D01*
X65459235Y-47777572D01*
X65450970Y-47800671D01*
X65440480Y-47822850D01*
X65427868Y-47843893D01*
X65413253Y-47863599D01*
X65396777Y-47881777D01*
X65378599Y-47898253D01*
X65358893Y-47912868D01*
X65337850Y-47925480D01*
X65315671Y-47935970D01*
X65292572Y-47944235D01*
X65268773Y-47950196D01*
X65244505Y-47953796D01*
X65220001Y-47955000D01*
X64319999Y-47955000D01*
X64295495Y-47953796D01*
X64271227Y-47950196D01*
X64247428Y-47944235D01*
X64224329Y-47935970D01*
X64202150Y-47925480D01*
X64181107Y-47912868D01*
X64161401Y-47898253D01*
X64143223Y-47881777D01*
X64126747Y-47863599D01*
X64112132Y-47843893D01*
X64099520Y-47822850D01*
X64089030Y-47800671D01*
X64080765Y-47777572D01*
X64074804Y-47753773D01*
X64071204Y-47729505D01*
X64070000Y-47705001D01*
X64070000Y-47054999D01*
X64071204Y-47030495D01*
X64074804Y-47006227D01*
X64080765Y-46982428D01*
X64089030Y-46959329D01*
X64099520Y-46937150D01*
X64112132Y-46916107D01*
X64126747Y-46896401D01*
X64143223Y-46878223D01*
X64161401Y-46861747D01*
X64181107Y-46847132D01*
X64202150Y-46834520D01*
X64224329Y-46824030D01*
X64247428Y-46815765D01*
X64271227Y-46809804D01*
X64295495Y-46806204D01*
X64319999Y-46805000D01*
X65220001Y-46805000D01*
X65244505Y-46806204D01*
X65244505Y-46806204D01*
G37*
D12*
G04 #@! TD*
G04 #@! TO.P,C1,2*
G04 #@! TO.N,GND*
X64770000Y-47380000D03*
D11*
G04 #@! TO.N,VCC*
G04 #@! TO.C,R3*
G36*
X67784505Y-44756204D02*
X67808773Y-44759804D01*
X67832572Y-44765765D01*
X67855671Y-44774030D01*
X67877850Y-44784520D01*
X67898893Y-44797132D01*
X67918599Y-44811747D01*
X67936777Y-44828223D01*
X67953253Y-44846401D01*
X67967868Y-44866107D01*
X67980480Y-44887150D01*
X67990970Y-44909329D01*
X67999235Y-44932428D01*
X68005196Y-44956227D01*
X68008796Y-44980495D01*
X68010000Y-45004999D01*
X68010000Y-45655001D01*
X68008796Y-45679505D01*
X68005196Y-45703773D01*
X67999235Y-45727572D01*
X67990970Y-45750671D01*
X67980480Y-45772850D01*
X67967868Y-45793893D01*
X67953253Y-45813599D01*
X67936777Y-45831777D01*
X67918599Y-45848253D01*
X67898893Y-45862868D01*
X67877850Y-45875480D01*
X67855671Y-45885970D01*
X67832572Y-45894235D01*
X67808773Y-45900196D01*
X67784505Y-45903796D01*
X67760001Y-45905000D01*
X66859999Y-45905000D01*
X66835495Y-45903796D01*
X66811227Y-45900196D01*
X66787428Y-45894235D01*
X66764329Y-45885970D01*
X66742150Y-45875480D01*
X66721107Y-45862868D01*
X66701401Y-45848253D01*
X66683223Y-45831777D01*
X66666747Y-45813599D01*
X66652132Y-45793893D01*
X66639520Y-45772850D01*
X66629030Y-45750671D01*
X66620765Y-45727572D01*
X66614804Y-45703773D01*
X66611204Y-45679505D01*
X66610000Y-45655001D01*
X66610000Y-45004999D01*
X66611204Y-44980495D01*
X66614804Y-44956227D01*
X66620765Y-44932428D01*
X66629030Y-44909329D01*
X66639520Y-44887150D01*
X66652132Y-44866107D01*
X66666747Y-44846401D01*
X66683223Y-44828223D01*
X66701401Y-44811747D01*
X66721107Y-44797132D01*
X66742150Y-44784520D01*
X66764329Y-44774030D01*
X66787428Y-44765765D01*
X66811227Y-44759804D01*
X66835495Y-44756204D01*
X66859999Y-44755000D01*
X67760001Y-44755000D01*
X67784505Y-44756204D01*
X67784505Y-44756204D01*
G37*
D12*
G04 #@! TD*
G04 #@! TO.P,R3,1*
G04 #@! TO.N,VCC*
X67310000Y-45330000D03*
D11*
G04 #@! TO.N,Net-(R3-Pad2)*
G04 #@! TO.C,R3*
G36*
X67784505Y-46806204D02*
X67808773Y-46809804D01*
X67832572Y-46815765D01*
X67855671Y-46824030D01*
X67877850Y-46834520D01*
X67898893Y-46847132D01*
X67918599Y-46861747D01*
X67936777Y-46878223D01*
X67953253Y-46896401D01*
X67967868Y-46916107D01*
X67980480Y-46937150D01*
X67990970Y-46959329D01*
X67999235Y-46982428D01*
X68005196Y-47006227D01*
X68008796Y-47030495D01*
X68010000Y-47054999D01*
X68010000Y-47705001D01*
X68008796Y-47729505D01*
X68005196Y-47753773D01*
X67999235Y-47777572D01*
X67990970Y-47800671D01*
X67980480Y-47822850D01*
X67967868Y-47843893D01*
X67953253Y-47863599D01*
X67936777Y-47881777D01*
X67918599Y-47898253D01*
X67898893Y-47912868D01*
X67877850Y-47925480D01*
X67855671Y-47935970D01*
X67832572Y-47944235D01*
X67808773Y-47950196D01*
X67784505Y-47953796D01*
X67760001Y-47955000D01*
X66859999Y-47955000D01*
X66835495Y-47953796D01*
X66811227Y-47950196D01*
X66787428Y-47944235D01*
X66764329Y-47935970D01*
X66742150Y-47925480D01*
X66721107Y-47912868D01*
X66701401Y-47898253D01*
X66683223Y-47881777D01*
X66666747Y-47863599D01*
X66652132Y-47843893D01*
X66639520Y-47822850D01*
X66629030Y-47800671D01*
X66620765Y-47777572D01*
X66614804Y-47753773D01*
X66611204Y-47729505D01*
X66610000Y-47705001D01*
X66610000Y-47054999D01*
X66611204Y-47030495D01*
X66614804Y-47006227D01*
X66620765Y-46982428D01*
X66629030Y-46959329D01*
X66639520Y-46937150D01*
X66652132Y-46916107D01*
X66666747Y-46896401D01*
X66683223Y-46878223D01*
X66701401Y-46861747D01*
X66721107Y-46847132D01*
X66742150Y-46834520D01*
X66764329Y-46824030D01*
X66787428Y-46815765D01*
X66811227Y-46809804D01*
X66835495Y-46806204D01*
X66859999Y-46805000D01*
X67760001Y-46805000D01*
X67784505Y-46806204D01*
X67784505Y-46806204D01*
G37*
D12*
G04 #@! TD*
G04 #@! TO.P,R3,2*
G04 #@! TO.N,Net-(R3-Pad2)*
X67310000Y-47380000D03*
D13*
G04 #@! TO.P,J4,1*
G04 #@! TO.N,/IN0*
X81280000Y-55880000D03*
D14*
G04 #@! TO.P,J4,2*
G04 #@! TO.N,/IN1*
X78740000Y-55880000D03*
G04 #@! TO.P,J4,3*
G04 #@! TO.N,/IN2*
X76200000Y-55880000D03*
G04 #@! TO.P,J4,4*
G04 #@! TO.N,/IN3*
X73660000Y-55880000D03*
G04 #@! TO.P,J4,5*
G04 #@! TO.N,/IN4*
X71120000Y-55880000D03*
G04 #@! TO.P,J4,6*
G04 #@! TO.N,/IN5*
X68580000Y-55880000D03*
G04 #@! TO.P,J4,7*
G04 #@! TO.N,/IN6*
X66040000Y-55880000D03*
G04 #@! TO.P,J4,8*
G04 #@! TO.N,/IN7*
X63500000Y-55880000D03*
G04 #@! TD*
D13*
G04 #@! TO.P,J3,1*
G04 #@! TO.N,GND*
X86360000Y-55880000D03*
G04 #@! TD*
G04 #@! TO.P,J1,1*
G04 #@! TO.N,VCC*
X63500000Y-38100000D03*
G04 #@! TD*
D15*
G04 #@! TO.P,U1,10*
G04 #@! TO.N,Net-(U1-Pad10)*
X76200000Y-43180000D03*
G04 #@! TO.P,U1,9*
G04 #@! TO.N,Net-(R1-Pad2)*
X78740000Y-43180000D03*
G04 #@! TO.P,U1,8*
G04 #@! TO.N,Net-(U1-Pad8)*
X81280000Y-43180000D03*
G04 #@! TO.P,U1,7*
G04 #@! TO.N,Net-(U1-Pad7)*
X83820000Y-43180000D03*
G04 #@! TO.P,U1,6*
G04 #@! TO.N,Net-(R2-Pad2)*
X86360000Y-43180000D03*
G04 #@! TO.P,U1,5*
G04 #@! TO.N,Net-(U1-Pad5)*
X86360000Y-50800000D03*
G04 #@! TO.P,U1,4*
G04 #@! TO.N,Net-(U1-Pad4)*
X83820000Y-50800000D03*
G04 #@! TO.P,U1,3*
G04 #@! TO.N,Net-(U1-Pad3)*
X81280000Y-50800000D03*
G04 #@! TO.P,U1,2*
G04 #@! TO.N,Net-(U1-Pad2)*
X78740000Y-50800000D03*
D16*
G04 #@! TO.P,U1,1*
G04 #@! TO.N,Net-(U1-Pad1)*
X76200000Y-50800000D03*
G04 #@! TD*
D13*
G04 #@! TO.P,J2,1*
G04 #@! TO.N,/IN0*
X86360000Y-38100000D03*
D14*
G04 #@! TO.P,J2,2*
G04 #@! TO.N,/IN1*
X83820000Y-38100000D03*
G04 #@! TO.P,J2,3*
G04 #@! TO.N,/IN2*
X81280000Y-38100000D03*
G04 #@! TO.P,J2,4*
G04 #@! TO.N,/IN3*
X78740000Y-38100000D03*
G04 #@! TO.P,J2,5*
G04 #@! TO.N,/IN4*
X76200000Y-38100000D03*
G04 #@! TO.P,J2,6*
G04 #@! TO.N,/IN5*
X73660000Y-38100000D03*
G04 #@! TO.P,J2,7*
G04 #@! TO.N,/IN6*
X71120000Y-38100000D03*
G04 #@! TO.P,J2,8*
G04 #@! TO.N,/IN7*
X68580000Y-38100000D03*
G04 #@! TD*
D11*
G04 #@! TO.N,Net-(R2-Pad2)*
G04 #@! TO.C,R2*
G36*
X86834505Y-45391204D02*
X86858773Y-45394804D01*
X86882572Y-45400765D01*
X86905671Y-45409030D01*
X86927850Y-45419520D01*
X86948893Y-45432132D01*
X86968599Y-45446747D01*
X86986777Y-45463223D01*
X87003253Y-45481401D01*
X87017868Y-45501107D01*
X87030480Y-45522150D01*
X87040970Y-45544329D01*
X87049235Y-45567428D01*
X87055196Y-45591227D01*
X87058796Y-45615495D01*
X87060000Y-45639999D01*
X87060000Y-46290001D01*
X87058796Y-46314505D01*
X87055196Y-46338773D01*
X87049235Y-46362572D01*
X87040970Y-46385671D01*
X87030480Y-46407850D01*
X87017868Y-46428893D01*
X87003253Y-46448599D01*
X86986777Y-46466777D01*
X86968599Y-46483253D01*
X86948893Y-46497868D01*
X86927850Y-46510480D01*
X86905671Y-46520970D01*
X86882572Y-46529235D01*
X86858773Y-46535196D01*
X86834505Y-46538796D01*
X86810001Y-46540000D01*
X85909999Y-46540000D01*
X85885495Y-46538796D01*
X85861227Y-46535196D01*
X85837428Y-46529235D01*
X85814329Y-46520970D01*
X85792150Y-46510480D01*
X85771107Y-46497868D01*
X85751401Y-46483253D01*
X85733223Y-46466777D01*
X85716747Y-46448599D01*
X85702132Y-46428893D01*
X85689520Y-46407850D01*
X85679030Y-46385671D01*
X85670765Y-46362572D01*
X85664804Y-46338773D01*
X85661204Y-46314505D01*
X85660000Y-46290001D01*
X85660000Y-45639999D01*
X85661204Y-45615495D01*
X85664804Y-45591227D01*
X85670765Y-45567428D01*
X85679030Y-45544329D01*
X85689520Y-45522150D01*
X85702132Y-45501107D01*
X85716747Y-45481401D01*
X85733223Y-45463223D01*
X85751401Y-45446747D01*
X85771107Y-45432132D01*
X85792150Y-45419520D01*
X85814329Y-45409030D01*
X85837428Y-45400765D01*
X85861227Y-45394804D01*
X85885495Y-45391204D01*
X85909999Y-45390000D01*
X86810001Y-45390000D01*
X86834505Y-45391204D01*
X86834505Y-45391204D01*
G37*
D12*
G04 #@! TD*
G04 #@! TO.P,R2,2*
G04 #@! TO.N,Net-(R2-Pad2)*
X86360000Y-45965000D03*
D11*
G04 #@! TO.N,Net-(R2-Pad1)*
G04 #@! TO.C,R2*
G36*
X86834505Y-47441204D02*
X86858773Y-47444804D01*
X86882572Y-47450765D01*
X86905671Y-47459030D01*
X86927850Y-47469520D01*
X86948893Y-47482132D01*
X86968599Y-47496747D01*
X86986777Y-47513223D01*
X87003253Y-47531401D01*
X87017868Y-47551107D01*
X87030480Y-47572150D01*
X87040970Y-47594329D01*
X87049235Y-47617428D01*
X87055196Y-47641227D01*
X87058796Y-47665495D01*
X87060000Y-47689999D01*
X87060000Y-48340001D01*
X87058796Y-48364505D01*
X87055196Y-48388773D01*
X87049235Y-48412572D01*
X87040970Y-48435671D01*
X87030480Y-48457850D01*
X87017868Y-48478893D01*
X87003253Y-48498599D01*
X86986777Y-48516777D01*
X86968599Y-48533253D01*
X86948893Y-48547868D01*
X86927850Y-48560480D01*
X86905671Y-48570970D01*
X86882572Y-48579235D01*
X86858773Y-48585196D01*
X86834505Y-48588796D01*
X86810001Y-48590000D01*
X85909999Y-48590000D01*
X85885495Y-48588796D01*
X85861227Y-48585196D01*
X85837428Y-48579235D01*
X85814329Y-48570970D01*
X85792150Y-48560480D01*
X85771107Y-48547868D01*
X85751401Y-48533253D01*
X85733223Y-48516777D01*
X85716747Y-48498599D01*
X85702132Y-48478893D01*
X85689520Y-48457850D01*
X85679030Y-48435671D01*
X85670765Y-48412572D01*
X85664804Y-48388773D01*
X85661204Y-48364505D01*
X85660000Y-48340001D01*
X85660000Y-47689999D01*
X85661204Y-47665495D01*
X85664804Y-47641227D01*
X85670765Y-47617428D01*
X85679030Y-47594329D01*
X85689520Y-47572150D01*
X85702132Y-47551107D01*
X85716747Y-47531401D01*
X85733223Y-47513223D01*
X85751401Y-47496747D01*
X85771107Y-47482132D01*
X85792150Y-47469520D01*
X85814329Y-47459030D01*
X85837428Y-47450765D01*
X85861227Y-47444804D01*
X85885495Y-47441204D01*
X85909999Y-47440000D01*
X86810001Y-47440000D01*
X86834505Y-47441204D01*
X86834505Y-47441204D01*
G37*
D12*
G04 #@! TD*
G04 #@! TO.P,R2,1*
G04 #@! TO.N,Net-(R2-Pad1)*
X86360000Y-48015000D03*
D11*
G04 #@! TO.N,Net-(R1-Pad1)*
G04 #@! TO.C,R1*
G36*
X76794505Y-45656204D02*
X76818773Y-45659804D01*
X76842572Y-45665765D01*
X76865671Y-45674030D01*
X76887850Y-45684520D01*
X76908893Y-45697132D01*
X76928599Y-45711747D01*
X76946777Y-45728223D01*
X76963253Y-45746401D01*
X76977868Y-45766107D01*
X76990480Y-45787150D01*
X77000970Y-45809329D01*
X77009235Y-45832428D01*
X77015196Y-45856227D01*
X77018796Y-45880495D01*
X77020000Y-45904999D01*
X77020000Y-46805001D01*
X77018796Y-46829505D01*
X77015196Y-46853773D01*
X77009235Y-46877572D01*
X77000970Y-46900671D01*
X76990480Y-46922850D01*
X76977868Y-46943893D01*
X76963253Y-46963599D01*
X76946777Y-46981777D01*
X76928599Y-46998253D01*
X76908893Y-47012868D01*
X76887850Y-47025480D01*
X76865671Y-47035970D01*
X76842572Y-47044235D01*
X76818773Y-47050196D01*
X76794505Y-47053796D01*
X76770001Y-47055000D01*
X76119999Y-47055000D01*
X76095495Y-47053796D01*
X76071227Y-47050196D01*
X76047428Y-47044235D01*
X76024329Y-47035970D01*
X76002150Y-47025480D01*
X75981107Y-47012868D01*
X75961401Y-46998253D01*
X75943223Y-46981777D01*
X75926747Y-46963599D01*
X75912132Y-46943893D01*
X75899520Y-46922850D01*
X75889030Y-46900671D01*
X75880765Y-46877572D01*
X75874804Y-46853773D01*
X75871204Y-46829505D01*
X75870000Y-46805001D01*
X75870000Y-45904999D01*
X75871204Y-45880495D01*
X75874804Y-45856227D01*
X75880765Y-45832428D01*
X75889030Y-45809329D01*
X75899520Y-45787150D01*
X75912132Y-45766107D01*
X75926747Y-45746401D01*
X75943223Y-45728223D01*
X75961401Y-45711747D01*
X75981107Y-45697132D01*
X76002150Y-45684520D01*
X76024329Y-45674030D01*
X76047428Y-45665765D01*
X76071227Y-45659804D01*
X76095495Y-45656204D01*
X76119999Y-45655000D01*
X76770001Y-45655000D01*
X76794505Y-45656204D01*
X76794505Y-45656204D01*
G37*
D12*
G04 #@! TD*
G04 #@! TO.P,R1,1*
G04 #@! TO.N,Net-(R1-Pad1)*
X76445000Y-46355000D03*
D11*
G04 #@! TO.N,Net-(R1-Pad2)*
G04 #@! TO.C,R1*
G36*
X78844505Y-45656204D02*
X78868773Y-45659804D01*
X78892572Y-45665765D01*
X78915671Y-45674030D01*
X78937850Y-45684520D01*
X78958893Y-45697132D01*
X78978599Y-45711747D01*
X78996777Y-45728223D01*
X79013253Y-45746401D01*
X79027868Y-45766107D01*
X79040480Y-45787150D01*
X79050970Y-45809329D01*
X79059235Y-45832428D01*
X79065196Y-45856227D01*
X79068796Y-45880495D01*
X79070000Y-45904999D01*
X79070000Y-46805001D01*
X79068796Y-46829505D01*
X79065196Y-46853773D01*
X79059235Y-46877572D01*
X79050970Y-46900671D01*
X79040480Y-46922850D01*
X79027868Y-46943893D01*
X79013253Y-46963599D01*
X78996777Y-46981777D01*
X78978599Y-46998253D01*
X78958893Y-47012868D01*
X78937850Y-47025480D01*
X78915671Y-47035970D01*
X78892572Y-47044235D01*
X78868773Y-47050196D01*
X78844505Y-47053796D01*
X78820001Y-47055000D01*
X78169999Y-47055000D01*
X78145495Y-47053796D01*
X78121227Y-47050196D01*
X78097428Y-47044235D01*
X78074329Y-47035970D01*
X78052150Y-47025480D01*
X78031107Y-47012868D01*
X78011401Y-46998253D01*
X77993223Y-46981777D01*
X77976747Y-46963599D01*
X77962132Y-46943893D01*
X77949520Y-46922850D01*
X77939030Y-46900671D01*
X77930765Y-46877572D01*
X77924804Y-46853773D01*
X77921204Y-46829505D01*
X77920000Y-46805001D01*
X77920000Y-45904999D01*
X77921204Y-45880495D01*
X77924804Y-45856227D01*
X77930765Y-45832428D01*
X77939030Y-45809329D01*
X77949520Y-45787150D01*
X77962132Y-45766107D01*
X77976747Y-45746401D01*
X77993223Y-45728223D01*
X78011401Y-45711747D01*
X78031107Y-45697132D01*
X78052150Y-45684520D01*
X78074329Y-45674030D01*
X78097428Y-45665765D01*
X78121227Y-45659804D01*
X78145495Y-45656204D01*
X78169999Y-45655000D01*
X78820001Y-45655000D01*
X78844505Y-45656204D01*
X78844505Y-45656204D01*
G37*
D12*
G04 #@! TD*
G04 #@! TO.P,R1,2*
G04 #@! TO.N,Net-(R1-Pad2)*
X78495000Y-46355000D03*
D17*
G04 #@! TO.N,Net-(U1-Pad4)*
X63500000Y-48895000D03*
X60324984Y-55880000D03*
G04 #@! TO.N,Net-(U1-Pad5)*
X67310000Y-51949935D03*
G04 #@! TO.N,Net-(U1-Pad7)*
X62230000Y-41910000D03*
G04 #@! TO.N,Net-(U1-Pad8)*
X65405000Y-38100008D03*
G04 #@! TO.N,Net-(R1-Pad1)*
X65458739Y-39423739D03*
G04 #@! TO.N,Net-(R2-Pad1)*
X65278000Y-36449000D03*
D18*
G04 #@! TO.N,VCC*
X67310000Y-43815000D03*
X64769992Y-43815000D03*
G04 #@! TO.N,GND*
X60365010Y-46990000D03*
X60959994Y-54610000D03*
X72136000Y-46228000D03*
X72136000Y-51054000D03*
D17*
X70866000Y-41656000D03*
X66040000Y-46101000D03*
X83312000Y-39878000D03*
X80772000Y-39878000D03*
X78486000Y-39878000D03*
G04 #@! TO.N,/IN6*
X66801994Y-49039010D03*
G04 #@! TO.N,/IN7*
X66040000Y-49022000D03*
G04 #@! TO.N,Net-(R3-Pad2)*
X68326000Y-43688004D03*
G04 #@! TO.N,Net-(JP1-Pad1)*
X66040000Y-52070000D03*
G04 #@! TO.N,Net-(JP2-Pad1)*
X65405000Y-52549957D03*
G04 #@! TD*
D19*
G04 #@! TO.N,Net-(U1-Pad4)*
X60024985Y-55580001D02*
X60324984Y-55880000D01*
X59390001Y-54945017D02*
X60024985Y-55580001D01*
X59390001Y-49324997D02*
X59390001Y-54945017D01*
X60454998Y-48260000D02*
X59390001Y-49324997D01*
X63500000Y-48895000D02*
X62865000Y-48260000D01*
X62865000Y-48260000D02*
X60454998Y-48260000D01*
G04 #@! TO.N,Net-(U1-Pad5)*
X85471000Y-51689000D02*
X86360000Y-50800000D01*
X85471000Y-53721000D02*
X85471000Y-51689000D01*
X67310000Y-52494278D02*
X64770000Y-55034278D01*
X67310000Y-51949935D02*
X67310000Y-52494278D01*
X64770000Y-55034278D02*
X64770000Y-56515000D01*
X64770000Y-56515000D02*
X65899979Y-57644979D01*
X65899979Y-57644979D02*
X81547021Y-57644979D01*
X81547021Y-57644979D02*
X85471000Y-53721000D01*
G04 #@! TO.N,Net-(U1-Pad7)*
X84074000Y-43180000D02*
X83820000Y-43180000D01*
X84582000Y-42672000D02*
X84074000Y-43180000D01*
X84582000Y-39453722D02*
X84582000Y-42672000D01*
X85090000Y-38945722D02*
X84582000Y-39453722D01*
X64770000Y-39370000D02*
X64770000Y-37846000D01*
X62230000Y-41910000D02*
X64770000Y-39370000D01*
X64770000Y-37846000D02*
X66247989Y-36368011D01*
X66247989Y-36368011D02*
X84374011Y-36368011D01*
X84374011Y-36368011D02*
X85090000Y-37084000D01*
X85090000Y-37084000D02*
X85090000Y-38945722D01*
G04 #@! TO.N,Net-(U1-Pad8)*
X82042000Y-42418000D02*
X81280000Y-43180000D01*
X81753022Y-36668022D02*
X82550000Y-37465000D01*
X82550000Y-37465000D02*
X82550000Y-38735000D01*
X66836986Y-36668022D02*
X81753022Y-36668022D01*
X82550000Y-38735000D02*
X82042000Y-39243000D01*
X65405000Y-38100008D02*
X66836986Y-36668022D01*
X82042000Y-39243000D02*
X82042000Y-42418000D01*
G04 #@! TO.N,Net-(R1-Pad1)*
X67914445Y-36968033D02*
X65458739Y-39423739D01*
X76973033Y-36968033D02*
X67914445Y-36968033D01*
X76445000Y-45729000D02*
X77225001Y-44948999D01*
X76445000Y-46355000D02*
X76445000Y-45729000D01*
X77225001Y-44948999D02*
X77225001Y-39233999D01*
X77225001Y-39233999D02*
X77470000Y-38989000D01*
X77470000Y-38989000D02*
X77470000Y-37465000D01*
X77470000Y-37465000D02*
X76973033Y-36968033D01*
G04 #@! TO.N,Net-(R1-Pad2)*
X77978000Y-45838000D02*
X78495000Y-46355000D01*
X78740000Y-43180000D02*
X77978000Y-43942000D01*
X77978000Y-43942000D02*
X77978000Y-45838000D01*
G04 #@! TO.N,Net-(R2-Pad2)*
X86360000Y-43561000D02*
X86360000Y-45965000D01*
G04 #@! TO.N,Net-(R2-Pad1)*
X65577999Y-36149001D02*
X65278000Y-36449000D01*
X65659000Y-36068000D02*
X65577999Y-36149001D01*
X87884000Y-47244000D02*
X87884000Y-37518998D01*
X87884000Y-37518998D02*
X87195002Y-36830000D01*
X87113000Y-48015000D02*
X87884000Y-47244000D01*
X87195002Y-36830000D02*
X85281004Y-36830000D01*
X84519004Y-36068000D02*
X65659000Y-36068000D01*
X86360000Y-48015000D02*
X87113000Y-48015000D01*
X85281004Y-36830000D02*
X84519004Y-36068000D01*
G04 #@! TO.N,VCC*
X66675000Y-45085000D02*
X67310000Y-45720000D01*
D20*
X67310000Y-45330000D02*
X67310000Y-43815000D01*
X64770000Y-45330000D02*
X64770000Y-43815008D01*
X64770000Y-43815008D02*
X64769992Y-43815000D01*
X64204307Y-43815000D02*
X64769992Y-43815000D01*
X62934315Y-43815000D02*
X64204307Y-43815000D01*
X61595000Y-42475685D02*
X62934315Y-43815000D01*
X61595000Y-41656000D02*
X61595000Y-42475685D01*
X63500000Y-38100000D02*
X63500000Y-39751000D01*
X63500000Y-39751000D02*
X61595000Y-41656000D01*
G04 #@! TO.N,GND*
X64770000Y-47380000D02*
X62130000Y-47380000D01*
X60295000Y-52690000D02*
X60310000Y-52705000D01*
X60295000Y-50165000D02*
X60295000Y-52690000D01*
X64770000Y-48055000D02*
X64770000Y-47380000D01*
X64770000Y-48513002D02*
X64770000Y-48055000D01*
X63788001Y-49495001D02*
X64770000Y-48513002D01*
X62831997Y-49114999D02*
X63211999Y-49495001D01*
X60395001Y-49114999D02*
X62831997Y-49114999D01*
X60295000Y-49215000D02*
X60395001Y-49114999D01*
X63211999Y-49495001D02*
X63788001Y-49495001D01*
X60295000Y-50165000D02*
X60295000Y-49215000D01*
X64770000Y-47380000D02*
X60755010Y-47380000D01*
X60755010Y-47380000D02*
X60365010Y-46990000D01*
X60310000Y-53960006D02*
X60559995Y-54210001D01*
X60559995Y-54210001D02*
X60959994Y-54610000D01*
X60310000Y-52705000D02*
X60310000Y-53960006D01*
X63804299Y-58019990D02*
X60959994Y-55175685D01*
X60959994Y-55175685D02*
X60959994Y-54610000D01*
X83170010Y-58019990D02*
X63804299Y-58019990D01*
X85310000Y-55880000D02*
X83170010Y-58019990D01*
X86360000Y-55880000D02*
X85310000Y-55880000D01*
X72136000Y-46228000D02*
X72136000Y-51054000D01*
X72136000Y-50419000D02*
X72136000Y-50488315D01*
X72136000Y-50488315D02*
X72136000Y-51054000D01*
D19*
G04 #@! TO.N,/IN0*
X82804000Y-51816000D02*
X82794998Y-51825002D01*
X82794999Y-50307999D02*
X82794999Y-51292001D01*
X82804000Y-51301002D02*
X82804000Y-51816000D01*
X85090000Y-43427002D02*
X82804000Y-45713002D01*
X82804000Y-45713002D02*
X82804000Y-50298998D01*
X85090000Y-39370000D02*
X85090000Y-43427002D01*
X82804000Y-50298998D02*
X82794999Y-50307999D01*
X86360000Y-38100000D02*
X85090000Y-39370000D01*
X82794998Y-51825002D02*
X82794998Y-52333002D01*
X82794999Y-51292001D02*
X82804000Y-51301002D01*
X82794998Y-52333002D02*
X81280000Y-53848000D01*
X81280000Y-53848000D02*
X81280000Y-55880000D01*
G04 #@! TO.N,/IN1*
X79589999Y-55030001D02*
X78740000Y-55880000D01*
X82494988Y-52125012D02*
X79589999Y-55030001D01*
X83820000Y-38100000D02*
X82494988Y-39425012D01*
X82494988Y-39425012D02*
X82494988Y-52125012D01*
G04 #@! TO.N,/IN2*
X80430001Y-38949999D02*
X81280000Y-38100000D01*
X80137000Y-45339000D02*
X80137000Y-39243000D01*
X79765001Y-52314999D02*
X79765001Y-45710999D01*
X76200000Y-55880000D02*
X79765001Y-52314999D01*
X79765001Y-45710999D02*
X80137000Y-45339000D01*
X80137000Y-39243000D02*
X80430001Y-38949999D01*
G04 #@! TO.N,/IN3*
X73660000Y-54610000D02*
X74930000Y-53340000D01*
X73660000Y-55880000D02*
X73660000Y-54610000D01*
X74930000Y-53340000D02*
X74930000Y-49530000D01*
X78740000Y-38735000D02*
X78740000Y-38100000D01*
X74930000Y-49530000D02*
X77597000Y-46863000D01*
X77597000Y-46863000D02*
X77597000Y-39878000D01*
X77597000Y-39878000D02*
X78740000Y-38735000D01*
G04 #@! TO.N,/IN4*
X76708000Y-38608000D02*
X76200000Y-38100000D01*
X76708000Y-39624000D02*
X76708000Y-38608000D01*
X73660000Y-42672000D02*
X76708000Y-39624000D01*
X73660000Y-52832000D02*
X73660000Y-42672000D01*
X71120000Y-55880000D02*
X71120000Y-55372000D01*
X71120000Y-55372000D02*
X73660000Y-52832000D01*
G04 #@! TO.N,/IN5*
X69429999Y-55030001D02*
X68580000Y-55880000D01*
X72898000Y-51562000D02*
X69429999Y-55030001D01*
X73660000Y-38100000D02*
X72898000Y-38862000D01*
X72898000Y-38862000D02*
X72898000Y-51562000D01*
G04 #@! TO.N,/IN6*
X69215001Y-40004999D02*
X69215001Y-47795278D01*
X67988279Y-49022000D02*
X66802000Y-49022000D01*
X71120000Y-38100000D02*
X69215001Y-40004999D01*
X69215001Y-47795278D02*
X67988279Y-49022000D01*
X67101993Y-49339009D02*
X66801994Y-49039010D01*
X67101993Y-50845993D02*
X67101993Y-49339009D01*
X67863747Y-51607747D02*
X67101993Y-50845993D01*
X67863747Y-52532253D02*
X67863747Y-51607747D01*
X66040000Y-55880000D02*
X66040000Y-54356000D01*
X66040000Y-54356000D02*
X67863747Y-52532253D01*
G04 #@! TO.N,/IN7*
X63500000Y-55880000D02*
X66675000Y-52705000D01*
X66675000Y-49657000D02*
X66040000Y-49022000D01*
X66675000Y-52705000D02*
X66675000Y-49657000D01*
X68914990Y-47671010D02*
X68914990Y-38434990D01*
X66421000Y-48514000D02*
X68072000Y-48514000D01*
X68072000Y-48514000D02*
X68914990Y-47671010D01*
X68914990Y-38434990D02*
X68580000Y-38100000D01*
X66040000Y-49022000D02*
X66040000Y-48895000D01*
X66040000Y-48895000D02*
X66421000Y-48514000D01*
G04 #@! TO.N,Net-(R3-Pad2)*
X68326000Y-43815000D02*
X68326000Y-43688004D01*
X68580000Y-44069000D02*
X68326000Y-43815000D01*
X68580000Y-46990000D02*
X68580000Y-44069000D01*
X67310000Y-47380000D02*
X68190000Y-47380000D01*
X68190000Y-47380000D02*
X68580000Y-46990000D01*
G04 #@! TO.N,Net-(JP1-Pad1)*
X64135000Y-50165000D02*
X65740001Y-51770001D01*
X65740001Y-51770001D02*
X66040000Y-52070000D01*
X61595000Y-50165000D02*
X64135000Y-50165000D01*
G04 #@! TO.N,Net-(JP2-Pad1)*
X65249957Y-52705000D02*
X65405000Y-52549957D01*
X61610000Y-52705000D02*
X65249957Y-52705000D01*
G04 #@! TD*
D20*
G04 #@! TO.N,GND*
G36*
X89770001Y-58020000D02*
X81583842Y-58020000D01*
X81583947Y-58019979D01*
X81583952Y-58019979D01*
X81693338Y-57998221D01*
X81817380Y-57915338D01*
X81838301Y-57884028D01*
X83617329Y-56105000D01*
X85010000Y-56105000D01*
X85010000Y-56829456D01*
X85086121Y-57013227D01*
X85226773Y-57153880D01*
X85410544Y-57230000D01*
X86135000Y-57230000D01*
X86260000Y-57105000D01*
X86260000Y-55980000D01*
X86460000Y-55980000D01*
X86460000Y-57105000D01*
X86585000Y-57230000D01*
X87309456Y-57230000D01*
X87493227Y-57153880D01*
X87633879Y-57013227D01*
X87710000Y-56829456D01*
X87710000Y-56105000D01*
X87585000Y-55980000D01*
X86460000Y-55980000D01*
X86260000Y-55980000D01*
X85135000Y-55980000D01*
X85010000Y-56105000D01*
X83617329Y-56105000D01*
X84791785Y-54930544D01*
X85010000Y-54930544D01*
X85010000Y-55655000D01*
X85135000Y-55780000D01*
X86260000Y-55780000D01*
X86260000Y-54655000D01*
X86460000Y-54655000D01*
X86460000Y-55780000D01*
X87585000Y-55780000D01*
X87710000Y-55655000D01*
X87710000Y-54930544D01*
X87633879Y-54746773D01*
X87493227Y-54606120D01*
X87309456Y-54530000D01*
X86585000Y-54530000D01*
X86460000Y-54655000D01*
X86260000Y-54655000D01*
X86135000Y-54530000D01*
X85410544Y-54530000D01*
X85226773Y-54606120D01*
X85086121Y-54746773D01*
X85010000Y-54930544D01*
X84791785Y-54930544D01*
X85710053Y-54012277D01*
X85741359Y-53991359D01*
X85824242Y-53867317D01*
X85846000Y-53757931D01*
X85846000Y-53757927D01*
X85853345Y-53721001D01*
X85846000Y-53684075D01*
X85846000Y-51844329D01*
X85893096Y-51797233D01*
X86141196Y-51900000D01*
X86578804Y-51900000D01*
X86983100Y-51732535D01*
X87292535Y-51423100D01*
X87460000Y-51018804D01*
X87460000Y-50581196D01*
X87292535Y-50176900D01*
X86983100Y-49867465D01*
X86578804Y-49700000D01*
X86141196Y-49700000D01*
X85736900Y-49867465D01*
X85427465Y-50176900D01*
X85260000Y-50581196D01*
X85260000Y-51018804D01*
X85362767Y-51266904D01*
X85231948Y-51397723D01*
X85200642Y-51418641D01*
X85179723Y-51449948D01*
X85179721Y-51449950D01*
X85117759Y-51542682D01*
X85088655Y-51689000D01*
X85096001Y-51725931D01*
X85096000Y-53565670D01*
X82435877Y-56225794D01*
X82435877Y-55030000D01*
X82412593Y-54912946D01*
X82346288Y-54813712D01*
X82247054Y-54747407D01*
X82130000Y-54724123D01*
X81655000Y-54724123D01*
X81655000Y-54003329D01*
X83034050Y-52624280D01*
X83065357Y-52603361D01*
X83088195Y-52569183D01*
X83148239Y-52479320D01*
X83148240Y-52479319D01*
X83169998Y-52369933D01*
X83169998Y-52369928D01*
X83177343Y-52333002D01*
X83169998Y-52296076D01*
X83169998Y-51898188D01*
X83179000Y-51852931D01*
X83179000Y-51852926D01*
X83186345Y-51816000D01*
X83179000Y-51779074D01*
X83179000Y-51714635D01*
X83196900Y-51732535D01*
X83601196Y-51900000D01*
X84038804Y-51900000D01*
X84443100Y-51732535D01*
X84752535Y-51423100D01*
X84920000Y-51018804D01*
X84920000Y-50581196D01*
X84752535Y-50176900D01*
X84443100Y-49867465D01*
X84038804Y-49700000D01*
X83601196Y-49700000D01*
X83196900Y-49867465D01*
X83179000Y-49885365D01*
X83179000Y-45868331D01*
X85329055Y-43718278D01*
X85360359Y-43697361D01*
X85374747Y-43675828D01*
X85427465Y-43803100D01*
X85736900Y-44112535D01*
X85985000Y-44215302D01*
X85985001Y-45084123D01*
X85909999Y-45084123D01*
X85697274Y-45126437D01*
X85516935Y-45246935D01*
X85396437Y-45427274D01*
X85354123Y-45639999D01*
X85354123Y-46290001D01*
X85396437Y-46502726D01*
X85516935Y-46683065D01*
X85697274Y-46803563D01*
X85909999Y-46845877D01*
X86810001Y-46845877D01*
X87022726Y-46803563D01*
X87203065Y-46683065D01*
X87323563Y-46502726D01*
X87365877Y-46290001D01*
X87365877Y-45639999D01*
X87323563Y-45427274D01*
X87203065Y-45246935D01*
X87022726Y-45126437D01*
X86810001Y-45084123D01*
X86735000Y-45084123D01*
X86735000Y-44215301D01*
X86983100Y-44112535D01*
X87292535Y-43803100D01*
X87460000Y-43398804D01*
X87460000Y-42961196D01*
X87292535Y-42556900D01*
X86983100Y-42247465D01*
X86578804Y-42080000D01*
X86141196Y-42080000D01*
X85736900Y-42247465D01*
X85465000Y-42519365D01*
X85465000Y-39525329D01*
X85734453Y-39255877D01*
X87210000Y-39255877D01*
X87327054Y-39232593D01*
X87426288Y-39166288D01*
X87492593Y-39067054D01*
X87509001Y-38984568D01*
X87509000Y-47088670D01*
X87242186Y-47355484D01*
X87203065Y-47296935D01*
X87022726Y-47176437D01*
X86810001Y-47134123D01*
X85909999Y-47134123D01*
X85697274Y-47176437D01*
X85516935Y-47296935D01*
X85396437Y-47477274D01*
X85354123Y-47689999D01*
X85354123Y-48340001D01*
X85396437Y-48552726D01*
X85516935Y-48733065D01*
X85697274Y-48853563D01*
X85909999Y-48895877D01*
X86810001Y-48895877D01*
X87022726Y-48853563D01*
X87203065Y-48733065D01*
X87323563Y-48552726D01*
X87365877Y-48340001D01*
X87365877Y-48297040D01*
X87383359Y-48285359D01*
X87404279Y-48254050D01*
X88123053Y-47535277D01*
X88154359Y-47514359D01*
X88177318Y-47480000D01*
X88237241Y-47390318D01*
X88237242Y-47390317D01*
X88259000Y-47280931D01*
X88259000Y-47280926D01*
X88266345Y-47244000D01*
X88259000Y-47207074D01*
X88259000Y-37555923D01*
X88266345Y-37518997D01*
X88259000Y-37482071D01*
X88259000Y-37482067D01*
X88237242Y-37372681D01*
X88202894Y-37321275D01*
X88175278Y-37279946D01*
X88154359Y-37248639D01*
X88123052Y-37227720D01*
X87486281Y-36590950D01*
X87465361Y-36559641D01*
X87341319Y-36476758D01*
X87231933Y-36455000D01*
X87231928Y-36455000D01*
X87195002Y-36447655D01*
X87158076Y-36455000D01*
X85436334Y-36455000D01*
X84810283Y-35828950D01*
X84789363Y-35797641D01*
X84665321Y-35714758D01*
X84555935Y-35693000D01*
X84555930Y-35693000D01*
X84519004Y-35685655D01*
X84482078Y-35693000D01*
X65695926Y-35693000D01*
X65659000Y-35685655D01*
X65622074Y-35693000D01*
X65622069Y-35693000D01*
X65512683Y-35714758D01*
X65388641Y-35797641D01*
X65367720Y-35828951D01*
X65347671Y-35849000D01*
X65158653Y-35849000D01*
X64938127Y-35940344D01*
X64769344Y-36109127D01*
X64678000Y-36329653D01*
X64678000Y-36568347D01*
X64769344Y-36788873D01*
X64938127Y-36957656D01*
X65072398Y-37013272D01*
X64655877Y-37429794D01*
X64655877Y-37250000D01*
X64632593Y-37132946D01*
X64566288Y-37033712D01*
X64467054Y-36967407D01*
X64350000Y-36944123D01*
X62650000Y-36944123D01*
X62532946Y-36967407D01*
X62433712Y-37033712D01*
X62367407Y-37132946D01*
X62344123Y-37250000D01*
X62344123Y-38950000D01*
X62367407Y-39067054D01*
X62433712Y-39166288D01*
X62532946Y-39232593D01*
X62650000Y-39255877D01*
X63100001Y-39255877D01*
X63100001Y-39585314D01*
X61340019Y-41345297D01*
X61306616Y-41367616D01*
X61218210Y-41499928D01*
X61218209Y-41499929D01*
X61187164Y-41656000D01*
X61195000Y-41695394D01*
X61195001Y-42436287D01*
X61187164Y-42475685D01*
X61218209Y-42631756D01*
X61218210Y-42631757D01*
X61306617Y-42764069D01*
X61340016Y-42786386D01*
X62623615Y-44069986D01*
X62645931Y-44103384D01*
X62778243Y-44191791D01*
X62894921Y-44215000D01*
X62934314Y-44222836D01*
X62973707Y-44215000D01*
X64180042Y-44215000D01*
X64370001Y-44404959D01*
X64370001Y-44449123D01*
X64319999Y-44449123D01*
X64107274Y-44491437D01*
X63926935Y-44611935D01*
X63806437Y-44792274D01*
X63764123Y-45004999D01*
X63764123Y-45655001D01*
X63806437Y-45867726D01*
X63926935Y-46048065D01*
X64107274Y-46168563D01*
X64319999Y-46210877D01*
X65220001Y-46210877D01*
X65432726Y-46168563D01*
X65613065Y-46048065D01*
X65733563Y-45867726D01*
X65775877Y-45655001D01*
X65775877Y-45004999D01*
X65733563Y-44792274D01*
X65613065Y-44611935D01*
X65432726Y-44491437D01*
X65220001Y-44449123D01*
X65170000Y-44449123D01*
X65170000Y-44404942D01*
X65363424Y-44211518D01*
X65469992Y-43954239D01*
X65469992Y-43675761D01*
X65363424Y-43418482D01*
X65166510Y-43221568D01*
X64909231Y-43115000D01*
X64630753Y-43115000D01*
X64373474Y-43221568D01*
X64180042Y-43415000D01*
X63100001Y-43415000D01*
X62194999Y-42510000D01*
X62349347Y-42510000D01*
X62569873Y-42418656D01*
X62738656Y-42249873D01*
X62830000Y-42029347D01*
X62830000Y-41840329D01*
X64937382Y-39732948D01*
X64950083Y-39763612D01*
X65118866Y-39932395D01*
X65339392Y-40023739D01*
X65578086Y-40023739D01*
X65798612Y-39932395D01*
X65967395Y-39763612D01*
X66058739Y-39543086D01*
X66058739Y-39354068D01*
X67430976Y-37981832D01*
X67407471Y-38100000D01*
X67496724Y-38548707D01*
X67750897Y-38929103D01*
X68131293Y-39183276D01*
X68466739Y-39250000D01*
X68539991Y-39250000D01*
X68539990Y-43127206D01*
X68445347Y-43088004D01*
X68206653Y-43088004D01*
X67986127Y-43179348D01*
X67825213Y-43340263D01*
X67706518Y-43221568D01*
X67449239Y-43115000D01*
X67170761Y-43115000D01*
X66913482Y-43221568D01*
X66716568Y-43418482D01*
X66610000Y-43675761D01*
X66610000Y-43954239D01*
X66716568Y-44211518D01*
X66910001Y-44404951D01*
X66910001Y-44449123D01*
X66859999Y-44449123D01*
X66647274Y-44491437D01*
X66466935Y-44611935D01*
X66346437Y-44792274D01*
X66304123Y-45004999D01*
X66304123Y-45027346D01*
X66292655Y-45085000D01*
X66304123Y-45142654D01*
X66304123Y-45655001D01*
X66346437Y-45867726D01*
X66466935Y-46048065D01*
X66647274Y-46168563D01*
X66859999Y-46210877D01*
X67760001Y-46210877D01*
X67972726Y-46168563D01*
X68153065Y-46048065D01*
X68205000Y-45970338D01*
X68205000Y-46739662D01*
X68153065Y-46661935D01*
X67972726Y-46541437D01*
X67760001Y-46499123D01*
X66859999Y-46499123D01*
X66647274Y-46541437D01*
X66466935Y-46661935D01*
X66346437Y-46842274D01*
X66304123Y-47054999D01*
X66304123Y-47705001D01*
X66346437Y-47917726D01*
X66466935Y-48098065D01*
X66528199Y-48139000D01*
X66457925Y-48139000D01*
X66420999Y-48131655D01*
X66384073Y-48139000D01*
X66384069Y-48139000D01*
X66274683Y-48160758D01*
X66274682Y-48160759D01*
X66274681Y-48160759D01*
X66181948Y-48222722D01*
X66150641Y-48243641D01*
X66129722Y-48274948D01*
X65982670Y-48422000D01*
X65920653Y-48422000D01*
X65700127Y-48513344D01*
X65531344Y-48682127D01*
X65440000Y-48902653D01*
X65440000Y-49141347D01*
X65531344Y-49361873D01*
X65700127Y-49530656D01*
X65920653Y-49622000D01*
X66109670Y-49622000D01*
X66300001Y-49812331D01*
X66300000Y-51528260D01*
X66159347Y-51470000D01*
X65970331Y-51470000D01*
X64426279Y-49925950D01*
X64405359Y-49894641D01*
X64281317Y-49811758D01*
X64171931Y-49790000D01*
X64171926Y-49790000D01*
X64135000Y-49782655D01*
X64098074Y-49790000D01*
X62400877Y-49790000D01*
X62400877Y-49415000D01*
X62377593Y-49297946D01*
X62311288Y-49198712D01*
X62212054Y-49132407D01*
X62095000Y-49109123D01*
X61196229Y-49109123D01*
X61078227Y-48991120D01*
X60894456Y-48915000D01*
X60520000Y-48915000D01*
X60395002Y-49039998D01*
X60395002Y-48915000D01*
X60330328Y-48915000D01*
X60610329Y-48635000D01*
X62709671Y-48635000D01*
X62900000Y-48825329D01*
X62900000Y-49014347D01*
X62991344Y-49234873D01*
X63160127Y-49403656D01*
X63380653Y-49495000D01*
X63619347Y-49495000D01*
X63839873Y-49403656D01*
X64008656Y-49234873D01*
X64100000Y-49014347D01*
X64100000Y-48775653D01*
X64008656Y-48555127D01*
X63864677Y-48411148D01*
X63970544Y-48455000D01*
X64545000Y-48455000D01*
X64670000Y-48330000D01*
X64670000Y-47480000D01*
X64870000Y-47480000D01*
X64870000Y-48330000D01*
X64995000Y-48455000D01*
X65569456Y-48455000D01*
X65753227Y-48378879D01*
X65893880Y-48238227D01*
X65970000Y-48054456D01*
X65970000Y-47605000D01*
X65845000Y-47480000D01*
X64870000Y-47480000D01*
X64670000Y-47480000D01*
X63695000Y-47480000D01*
X63570000Y-47605000D01*
X63570000Y-48054456D01*
X63646120Y-48238227D01*
X63761969Y-48354076D01*
X63619347Y-48295000D01*
X63430329Y-48295000D01*
X63156279Y-48020950D01*
X63135359Y-47989641D01*
X63011317Y-47906758D01*
X62901931Y-47885000D01*
X62901926Y-47885000D01*
X62865000Y-47877655D01*
X62828074Y-47885000D01*
X60491923Y-47885000D01*
X60454997Y-47877655D01*
X60418071Y-47885000D01*
X60418067Y-47885000D01*
X60308681Y-47906758D01*
X60308680Y-47906759D01*
X60308679Y-47906759D01*
X60215946Y-47968721D01*
X60215943Y-47968724D01*
X60184639Y-47989641D01*
X60163722Y-48020945D01*
X59150951Y-49033718D01*
X59119642Y-49054638D01*
X59098722Y-49085947D01*
X59043685Y-49168316D01*
X59036759Y-49178681D01*
X59015001Y-49288067D01*
X59015001Y-49288071D01*
X59007656Y-49324997D01*
X59015001Y-49361923D01*
X59015002Y-54908086D01*
X59007656Y-54945017D01*
X59036760Y-55091335D01*
X59098722Y-55184067D01*
X59098724Y-55184069D01*
X59119643Y-55215376D01*
X59150949Y-55236294D01*
X59724984Y-55810330D01*
X59724984Y-55999347D01*
X59816328Y-56219873D01*
X59985111Y-56388656D01*
X60205637Y-56480000D01*
X60444331Y-56480000D01*
X60664857Y-56388656D01*
X60833640Y-56219873D01*
X60924984Y-55999347D01*
X60924984Y-55760653D01*
X60833640Y-55540127D01*
X60664857Y-55371344D01*
X60444331Y-55280000D01*
X60255314Y-55280000D01*
X59765001Y-54789688D01*
X59765001Y-53955000D01*
X60085000Y-53955000D01*
X60210000Y-53830000D01*
X60210000Y-52805000D01*
X60190000Y-52805000D01*
X60190000Y-52605000D01*
X60210000Y-52605000D01*
X60210000Y-51580000D01*
X60085000Y-51455000D01*
X59765001Y-51455000D01*
X59765001Y-51415000D01*
X60070000Y-51415000D01*
X60195000Y-51290000D01*
X60195000Y-50265000D01*
X60175000Y-50265000D01*
X60175000Y-50065000D01*
X60195000Y-50065000D01*
X60195000Y-50045000D01*
X60395000Y-50045000D01*
X60395000Y-50065000D01*
X60415000Y-50065000D01*
X60415000Y-50265000D01*
X60395000Y-50265000D01*
X60395000Y-51290000D01*
X60520000Y-51415000D01*
X60894456Y-51415000D01*
X61078227Y-51338880D01*
X61196229Y-51220877D01*
X62095000Y-51220877D01*
X62212054Y-51197593D01*
X62311288Y-51131288D01*
X62377593Y-51032054D01*
X62400877Y-50915000D01*
X62400877Y-50540000D01*
X63979671Y-50540000D01*
X65389626Y-51949957D01*
X65285653Y-51949957D01*
X65065127Y-52041301D01*
X64896344Y-52210084D01*
X64846674Y-52330000D01*
X62415877Y-52330000D01*
X62415877Y-51955000D01*
X62392593Y-51837946D01*
X62326288Y-51738712D01*
X62227054Y-51672407D01*
X62110000Y-51649123D01*
X61211229Y-51649123D01*
X61093227Y-51531120D01*
X60909456Y-51455000D01*
X60535000Y-51455000D01*
X60410000Y-51580000D01*
X60410000Y-52605000D01*
X60430000Y-52605000D01*
X60430000Y-52805000D01*
X60410000Y-52805000D01*
X60410000Y-53830000D01*
X60535000Y-53955000D01*
X60909456Y-53955000D01*
X61093227Y-53878880D01*
X61211229Y-53760877D01*
X62110000Y-53760877D01*
X62227054Y-53737593D01*
X62326288Y-53671288D01*
X62392593Y-53572054D01*
X62415877Y-53455000D01*
X62415877Y-53080000D01*
X65116760Y-53080000D01*
X65285653Y-53149957D01*
X65524347Y-53149957D01*
X65744873Y-53058613D01*
X65913656Y-52889830D01*
X66004712Y-52670000D01*
X66159347Y-52670000D01*
X66194040Y-52655630D01*
X64011194Y-54838477D01*
X63948707Y-54796724D01*
X63613261Y-54730000D01*
X63386739Y-54730000D01*
X63051293Y-54796724D01*
X62670897Y-55050897D01*
X62416724Y-55431293D01*
X62327471Y-55880000D01*
X62416724Y-56328707D01*
X62670897Y-56709103D01*
X63051293Y-56963276D01*
X63386739Y-57030000D01*
X63613261Y-57030000D01*
X63948707Y-56963276D01*
X64329103Y-56709103D01*
X64403975Y-56597049D01*
X64416759Y-56661318D01*
X64478721Y-56754050D01*
X64478723Y-56754052D01*
X64499642Y-56785359D01*
X64530948Y-56806278D01*
X65608701Y-57884031D01*
X65629620Y-57915338D01*
X65660927Y-57936257D01*
X65660928Y-57936258D01*
X65715043Y-57972416D01*
X65753662Y-57998221D01*
X65863048Y-58019979D01*
X65863053Y-58019979D01*
X65863158Y-58020000D01*
X58820000Y-58020000D01*
X58820000Y-46705544D01*
X63570000Y-46705544D01*
X63570000Y-47155000D01*
X63695000Y-47280000D01*
X64670000Y-47280000D01*
X64670000Y-46430000D01*
X64870000Y-46430000D01*
X64870000Y-47280000D01*
X65845000Y-47280000D01*
X65970000Y-47155000D01*
X65970000Y-46705544D01*
X65893880Y-46521773D01*
X65753227Y-46381121D01*
X65569456Y-46305000D01*
X64995000Y-46305000D01*
X64870000Y-46430000D01*
X64670000Y-46430000D01*
X64545000Y-46305000D01*
X63970544Y-46305000D01*
X63786773Y-46381121D01*
X63646120Y-46521773D01*
X63570000Y-46705544D01*
X58820000Y-46705544D01*
X58820000Y-35452000D01*
X89770000Y-35452000D01*
X89770001Y-58020000D01*
X89770001Y-58020000D01*
G37*
X89770001Y-58020000D02*
X81583842Y-58020000D01*
X81583947Y-58019979D01*
X81583952Y-58019979D01*
X81693338Y-57998221D01*
X81817380Y-57915338D01*
X81838301Y-57884028D01*
X83617329Y-56105000D01*
X85010000Y-56105000D01*
X85010000Y-56829456D01*
X85086121Y-57013227D01*
X85226773Y-57153880D01*
X85410544Y-57230000D01*
X86135000Y-57230000D01*
X86260000Y-57105000D01*
X86260000Y-55980000D01*
X86460000Y-55980000D01*
X86460000Y-57105000D01*
X86585000Y-57230000D01*
X87309456Y-57230000D01*
X87493227Y-57153880D01*
X87633879Y-57013227D01*
X87710000Y-56829456D01*
X87710000Y-56105000D01*
X87585000Y-55980000D01*
X86460000Y-55980000D01*
X86260000Y-55980000D01*
X85135000Y-55980000D01*
X85010000Y-56105000D01*
X83617329Y-56105000D01*
X84791785Y-54930544D01*
X85010000Y-54930544D01*
X85010000Y-55655000D01*
X85135000Y-55780000D01*
X86260000Y-55780000D01*
X86260000Y-54655000D01*
X86460000Y-54655000D01*
X86460000Y-55780000D01*
X87585000Y-55780000D01*
X87710000Y-55655000D01*
X87710000Y-54930544D01*
X87633879Y-54746773D01*
X87493227Y-54606120D01*
X87309456Y-54530000D01*
X86585000Y-54530000D01*
X86460000Y-54655000D01*
X86260000Y-54655000D01*
X86135000Y-54530000D01*
X85410544Y-54530000D01*
X85226773Y-54606120D01*
X85086121Y-54746773D01*
X85010000Y-54930544D01*
X84791785Y-54930544D01*
X85710053Y-54012277D01*
X85741359Y-53991359D01*
X85824242Y-53867317D01*
X85846000Y-53757931D01*
X85846000Y-53757927D01*
X85853345Y-53721001D01*
X85846000Y-53684075D01*
X85846000Y-51844329D01*
X85893096Y-51797233D01*
X86141196Y-51900000D01*
X86578804Y-51900000D01*
X86983100Y-51732535D01*
X87292535Y-51423100D01*
X87460000Y-51018804D01*
X87460000Y-50581196D01*
X87292535Y-50176900D01*
X86983100Y-49867465D01*
X86578804Y-49700000D01*
X86141196Y-49700000D01*
X85736900Y-49867465D01*
X85427465Y-50176900D01*
X85260000Y-50581196D01*
X85260000Y-51018804D01*
X85362767Y-51266904D01*
X85231948Y-51397723D01*
X85200642Y-51418641D01*
X85179723Y-51449948D01*
X85179721Y-51449950D01*
X85117759Y-51542682D01*
X85088655Y-51689000D01*
X85096001Y-51725931D01*
X85096000Y-53565670D01*
X82435877Y-56225794D01*
X82435877Y-55030000D01*
X82412593Y-54912946D01*
X82346288Y-54813712D01*
X82247054Y-54747407D01*
X82130000Y-54724123D01*
X81655000Y-54724123D01*
X81655000Y-54003329D01*
X83034050Y-52624280D01*
X83065357Y-52603361D01*
X83088195Y-52569183D01*
X83148239Y-52479320D01*
X83148240Y-52479319D01*
X83169998Y-52369933D01*
X83169998Y-52369928D01*
X83177343Y-52333002D01*
X83169998Y-52296076D01*
X83169998Y-51898188D01*
X83179000Y-51852931D01*
X83179000Y-51852926D01*
X83186345Y-51816000D01*
X83179000Y-51779074D01*
X83179000Y-51714635D01*
X83196900Y-51732535D01*
X83601196Y-51900000D01*
X84038804Y-51900000D01*
X84443100Y-51732535D01*
X84752535Y-51423100D01*
X84920000Y-51018804D01*
X84920000Y-50581196D01*
X84752535Y-50176900D01*
X84443100Y-49867465D01*
X84038804Y-49700000D01*
X83601196Y-49700000D01*
X83196900Y-49867465D01*
X83179000Y-49885365D01*
X83179000Y-45868331D01*
X85329055Y-43718278D01*
X85360359Y-43697361D01*
X85374747Y-43675828D01*
X85427465Y-43803100D01*
X85736900Y-44112535D01*
X85985000Y-44215302D01*
X85985001Y-45084123D01*
X85909999Y-45084123D01*
X85697274Y-45126437D01*
X85516935Y-45246935D01*
X85396437Y-45427274D01*
X85354123Y-45639999D01*
X85354123Y-46290001D01*
X85396437Y-46502726D01*
X85516935Y-46683065D01*
X85697274Y-46803563D01*
X85909999Y-46845877D01*
X86810001Y-46845877D01*
X87022726Y-46803563D01*
X87203065Y-46683065D01*
X87323563Y-46502726D01*
X87365877Y-46290001D01*
X87365877Y-45639999D01*
X87323563Y-45427274D01*
X87203065Y-45246935D01*
X87022726Y-45126437D01*
X86810001Y-45084123D01*
X86735000Y-45084123D01*
X86735000Y-44215301D01*
X86983100Y-44112535D01*
X87292535Y-43803100D01*
X87460000Y-43398804D01*
X87460000Y-42961196D01*
X87292535Y-42556900D01*
X86983100Y-42247465D01*
X86578804Y-42080000D01*
X86141196Y-42080000D01*
X85736900Y-42247465D01*
X85465000Y-42519365D01*
X85465000Y-39525329D01*
X85734453Y-39255877D01*
X87210000Y-39255877D01*
X87327054Y-39232593D01*
X87426288Y-39166288D01*
X87492593Y-39067054D01*
X87509001Y-38984568D01*
X87509000Y-47088670D01*
X87242186Y-47355484D01*
X87203065Y-47296935D01*
X87022726Y-47176437D01*
X86810001Y-47134123D01*
X85909999Y-47134123D01*
X85697274Y-47176437D01*
X85516935Y-47296935D01*
X85396437Y-47477274D01*
X85354123Y-47689999D01*
X85354123Y-48340001D01*
X85396437Y-48552726D01*
X85516935Y-48733065D01*
X85697274Y-48853563D01*
X85909999Y-48895877D01*
X86810001Y-48895877D01*
X87022726Y-48853563D01*
X87203065Y-48733065D01*
X87323563Y-48552726D01*
X87365877Y-48340001D01*
X87365877Y-48297040D01*
X87383359Y-48285359D01*
X87404279Y-48254050D01*
X88123053Y-47535277D01*
X88154359Y-47514359D01*
X88177318Y-47480000D01*
X88237241Y-47390318D01*
X88237242Y-47390317D01*
X88259000Y-47280931D01*
X88259000Y-47280926D01*
X88266345Y-47244000D01*
X88259000Y-47207074D01*
X88259000Y-37555923D01*
X88266345Y-37518997D01*
X88259000Y-37482071D01*
X88259000Y-37482067D01*
X88237242Y-37372681D01*
X88202894Y-37321275D01*
X88175278Y-37279946D01*
X88154359Y-37248639D01*
X88123052Y-37227720D01*
X87486281Y-36590950D01*
X87465361Y-36559641D01*
X87341319Y-36476758D01*
X87231933Y-36455000D01*
X87231928Y-36455000D01*
X87195002Y-36447655D01*
X87158076Y-36455000D01*
X85436334Y-36455000D01*
X84810283Y-35828950D01*
X84789363Y-35797641D01*
X84665321Y-35714758D01*
X84555935Y-35693000D01*
X84555930Y-35693000D01*
X84519004Y-35685655D01*
X84482078Y-35693000D01*
X65695926Y-35693000D01*
X65659000Y-35685655D01*
X65622074Y-35693000D01*
X65622069Y-35693000D01*
X65512683Y-35714758D01*
X65388641Y-35797641D01*
X65367720Y-35828951D01*
X65347671Y-35849000D01*
X65158653Y-35849000D01*
X64938127Y-35940344D01*
X64769344Y-36109127D01*
X64678000Y-36329653D01*
X64678000Y-36568347D01*
X64769344Y-36788873D01*
X64938127Y-36957656D01*
X65072398Y-37013272D01*
X64655877Y-37429794D01*
X64655877Y-37250000D01*
X64632593Y-37132946D01*
X64566288Y-37033712D01*
X64467054Y-36967407D01*
X64350000Y-36944123D01*
X62650000Y-36944123D01*
X62532946Y-36967407D01*
X62433712Y-37033712D01*
X62367407Y-37132946D01*
X62344123Y-37250000D01*
X62344123Y-38950000D01*
X62367407Y-39067054D01*
X62433712Y-39166288D01*
X62532946Y-39232593D01*
X62650000Y-39255877D01*
X63100001Y-39255877D01*
X63100001Y-39585314D01*
X61340019Y-41345297D01*
X61306616Y-41367616D01*
X61218210Y-41499928D01*
X61218209Y-41499929D01*
X61187164Y-41656000D01*
X61195000Y-41695394D01*
X61195001Y-42436287D01*
X61187164Y-42475685D01*
X61218209Y-42631756D01*
X61218210Y-42631757D01*
X61306617Y-42764069D01*
X61340016Y-42786386D01*
X62623615Y-44069986D01*
X62645931Y-44103384D01*
X62778243Y-44191791D01*
X62894921Y-44215000D01*
X62934314Y-44222836D01*
X62973707Y-44215000D01*
X64180042Y-44215000D01*
X64370001Y-44404959D01*
X64370001Y-44449123D01*
X64319999Y-44449123D01*
X64107274Y-44491437D01*
X63926935Y-44611935D01*
X63806437Y-44792274D01*
X63764123Y-45004999D01*
X63764123Y-45655001D01*
X63806437Y-45867726D01*
X63926935Y-46048065D01*
X64107274Y-46168563D01*
X64319999Y-46210877D01*
X65220001Y-46210877D01*
X65432726Y-46168563D01*
X65613065Y-46048065D01*
X65733563Y-45867726D01*
X65775877Y-45655001D01*
X65775877Y-45004999D01*
X65733563Y-44792274D01*
X65613065Y-44611935D01*
X65432726Y-44491437D01*
X65220001Y-44449123D01*
X65170000Y-44449123D01*
X65170000Y-44404942D01*
X65363424Y-44211518D01*
X65469992Y-43954239D01*
X65469992Y-43675761D01*
X65363424Y-43418482D01*
X65166510Y-43221568D01*
X64909231Y-43115000D01*
X64630753Y-43115000D01*
X64373474Y-43221568D01*
X64180042Y-43415000D01*
X63100001Y-43415000D01*
X62194999Y-42510000D01*
X62349347Y-42510000D01*
X62569873Y-42418656D01*
X62738656Y-42249873D01*
X62830000Y-42029347D01*
X62830000Y-41840329D01*
X64937382Y-39732948D01*
X64950083Y-39763612D01*
X65118866Y-39932395D01*
X65339392Y-40023739D01*
X65578086Y-40023739D01*
X65798612Y-39932395D01*
X65967395Y-39763612D01*
X66058739Y-39543086D01*
X66058739Y-39354068D01*
X67430976Y-37981832D01*
X67407471Y-38100000D01*
X67496724Y-38548707D01*
X67750897Y-38929103D01*
X68131293Y-39183276D01*
X68466739Y-39250000D01*
X68539991Y-39250000D01*
X68539990Y-43127206D01*
X68445347Y-43088004D01*
X68206653Y-43088004D01*
X67986127Y-43179348D01*
X67825213Y-43340263D01*
X67706518Y-43221568D01*
X67449239Y-43115000D01*
X67170761Y-43115000D01*
X66913482Y-43221568D01*
X66716568Y-43418482D01*
X66610000Y-43675761D01*
X66610000Y-43954239D01*
X66716568Y-44211518D01*
X66910001Y-44404951D01*
X66910001Y-44449123D01*
X66859999Y-44449123D01*
X66647274Y-44491437D01*
X66466935Y-44611935D01*
X66346437Y-44792274D01*
X66304123Y-45004999D01*
X66304123Y-45027346D01*
X66292655Y-45085000D01*
X66304123Y-45142654D01*
X66304123Y-45655001D01*
X66346437Y-45867726D01*
X66466935Y-46048065D01*
X66647274Y-46168563D01*
X66859999Y-46210877D01*
X67760001Y-46210877D01*
X67972726Y-46168563D01*
X68153065Y-46048065D01*
X68205000Y-45970338D01*
X68205000Y-46739662D01*
X68153065Y-46661935D01*
X67972726Y-46541437D01*
X67760001Y-46499123D01*
X66859999Y-46499123D01*
X66647274Y-46541437D01*
X66466935Y-46661935D01*
X66346437Y-46842274D01*
X66304123Y-47054999D01*
X66304123Y-47705001D01*
X66346437Y-47917726D01*
X66466935Y-48098065D01*
X66528199Y-48139000D01*
X66457925Y-48139000D01*
X66420999Y-48131655D01*
X66384073Y-48139000D01*
X66384069Y-48139000D01*
X66274683Y-48160758D01*
X66274682Y-48160759D01*
X66274681Y-48160759D01*
X66181948Y-48222722D01*
X66150641Y-48243641D01*
X66129722Y-48274948D01*
X65982670Y-48422000D01*
X65920653Y-48422000D01*
X65700127Y-48513344D01*
X65531344Y-48682127D01*
X65440000Y-48902653D01*
X65440000Y-49141347D01*
X65531344Y-49361873D01*
X65700127Y-49530656D01*
X65920653Y-49622000D01*
X66109670Y-49622000D01*
X66300001Y-49812331D01*
X66300000Y-51528260D01*
X66159347Y-51470000D01*
X65970331Y-51470000D01*
X64426279Y-49925950D01*
X64405359Y-49894641D01*
X64281317Y-49811758D01*
X64171931Y-49790000D01*
X64171926Y-49790000D01*
X64135000Y-49782655D01*
X64098074Y-49790000D01*
X62400877Y-49790000D01*
X62400877Y-49415000D01*
X62377593Y-49297946D01*
X62311288Y-49198712D01*
X62212054Y-49132407D01*
X62095000Y-49109123D01*
X61196229Y-49109123D01*
X61078227Y-48991120D01*
X60894456Y-48915000D01*
X60520000Y-48915000D01*
X60395002Y-49039998D01*
X60395002Y-48915000D01*
X60330328Y-48915000D01*
X60610329Y-48635000D01*
X62709671Y-48635000D01*
X62900000Y-48825329D01*
X62900000Y-49014347D01*
X62991344Y-49234873D01*
X63160127Y-49403656D01*
X63380653Y-49495000D01*
X63619347Y-49495000D01*
X63839873Y-49403656D01*
X64008656Y-49234873D01*
X64100000Y-49014347D01*
X64100000Y-48775653D01*
X64008656Y-48555127D01*
X63864677Y-48411148D01*
X63970544Y-48455000D01*
X64545000Y-48455000D01*
X64670000Y-48330000D01*
X64670000Y-47480000D01*
X64870000Y-47480000D01*
X64870000Y-48330000D01*
X64995000Y-48455000D01*
X65569456Y-48455000D01*
X65753227Y-48378879D01*
X65893880Y-48238227D01*
X65970000Y-48054456D01*
X65970000Y-47605000D01*
X65845000Y-47480000D01*
X64870000Y-47480000D01*
X64670000Y-47480000D01*
X63695000Y-47480000D01*
X63570000Y-47605000D01*
X63570000Y-48054456D01*
X63646120Y-48238227D01*
X63761969Y-48354076D01*
X63619347Y-48295000D01*
X63430329Y-48295000D01*
X63156279Y-48020950D01*
X63135359Y-47989641D01*
X63011317Y-47906758D01*
X62901931Y-47885000D01*
X62901926Y-47885000D01*
X62865000Y-47877655D01*
X62828074Y-47885000D01*
X60491923Y-47885000D01*
X60454997Y-47877655D01*
X60418071Y-47885000D01*
X60418067Y-47885000D01*
X60308681Y-47906758D01*
X60308680Y-47906759D01*
X60308679Y-47906759D01*
X60215946Y-47968721D01*
X60215943Y-47968724D01*
X60184639Y-47989641D01*
X60163722Y-48020945D01*
X59150951Y-49033718D01*
X59119642Y-49054638D01*
X59098722Y-49085947D01*
X59043685Y-49168316D01*
X59036759Y-49178681D01*
X59015001Y-49288067D01*
X59015001Y-49288071D01*
X59007656Y-49324997D01*
X59015001Y-49361923D01*
X59015002Y-54908086D01*
X59007656Y-54945017D01*
X59036760Y-55091335D01*
X59098722Y-55184067D01*
X59098724Y-55184069D01*
X59119643Y-55215376D01*
X59150949Y-55236294D01*
X59724984Y-55810330D01*
X59724984Y-55999347D01*
X59816328Y-56219873D01*
X59985111Y-56388656D01*
X60205637Y-56480000D01*
X60444331Y-56480000D01*
X60664857Y-56388656D01*
X60833640Y-56219873D01*
X60924984Y-55999347D01*
X60924984Y-55760653D01*
X60833640Y-55540127D01*
X60664857Y-55371344D01*
X60444331Y-55280000D01*
X60255314Y-55280000D01*
X59765001Y-54789688D01*
X59765001Y-53955000D01*
X60085000Y-53955000D01*
X60210000Y-53830000D01*
X60210000Y-52805000D01*
X60190000Y-52805000D01*
X60190000Y-52605000D01*
X60210000Y-52605000D01*
X60210000Y-51580000D01*
X60085000Y-51455000D01*
X59765001Y-51455000D01*
X59765001Y-51415000D01*
X60070000Y-51415000D01*
X60195000Y-51290000D01*
X60195000Y-50265000D01*
X60175000Y-50265000D01*
X60175000Y-50065000D01*
X60195000Y-50065000D01*
X60195000Y-50045000D01*
X60395000Y-50045000D01*
X60395000Y-50065000D01*
X60415000Y-50065000D01*
X60415000Y-50265000D01*
X60395000Y-50265000D01*
X60395000Y-51290000D01*
X60520000Y-51415000D01*
X60894456Y-51415000D01*
X61078227Y-51338880D01*
X61196229Y-51220877D01*
X62095000Y-51220877D01*
X62212054Y-51197593D01*
X62311288Y-51131288D01*
X62377593Y-51032054D01*
X62400877Y-50915000D01*
X62400877Y-50540000D01*
X63979671Y-50540000D01*
X65389626Y-51949957D01*
X65285653Y-51949957D01*
X65065127Y-52041301D01*
X64896344Y-52210084D01*
X64846674Y-52330000D01*
X62415877Y-52330000D01*
X62415877Y-51955000D01*
X62392593Y-51837946D01*
X62326288Y-51738712D01*
X62227054Y-51672407D01*
X62110000Y-51649123D01*
X61211229Y-51649123D01*
X61093227Y-51531120D01*
X60909456Y-51455000D01*
X60535000Y-51455000D01*
X60410000Y-51580000D01*
X60410000Y-52605000D01*
X60430000Y-52605000D01*
X60430000Y-52805000D01*
X60410000Y-52805000D01*
X60410000Y-53830000D01*
X60535000Y-53955000D01*
X60909456Y-53955000D01*
X61093227Y-53878880D01*
X61211229Y-53760877D01*
X62110000Y-53760877D01*
X62227054Y-53737593D01*
X62326288Y-53671288D01*
X62392593Y-53572054D01*
X62415877Y-53455000D01*
X62415877Y-53080000D01*
X65116760Y-53080000D01*
X65285653Y-53149957D01*
X65524347Y-53149957D01*
X65744873Y-53058613D01*
X65913656Y-52889830D01*
X66004712Y-52670000D01*
X66159347Y-52670000D01*
X66194040Y-52655630D01*
X64011194Y-54838477D01*
X63948707Y-54796724D01*
X63613261Y-54730000D01*
X63386739Y-54730000D01*
X63051293Y-54796724D01*
X62670897Y-55050897D01*
X62416724Y-55431293D01*
X62327471Y-55880000D01*
X62416724Y-56328707D01*
X62670897Y-56709103D01*
X63051293Y-56963276D01*
X63386739Y-57030000D01*
X63613261Y-57030000D01*
X63948707Y-56963276D01*
X64329103Y-56709103D01*
X64403975Y-56597049D01*
X64416759Y-56661318D01*
X64478721Y-56754050D01*
X64478723Y-56754052D01*
X64499642Y-56785359D01*
X64530948Y-56806278D01*
X65608701Y-57884031D01*
X65629620Y-57915338D01*
X65660927Y-57936257D01*
X65660928Y-57936258D01*
X65715043Y-57972416D01*
X65753662Y-57998221D01*
X65863048Y-58019979D01*
X65863053Y-58019979D01*
X65863158Y-58020000D01*
X58820000Y-58020000D01*
X58820000Y-46705544D01*
X63570000Y-46705544D01*
X63570000Y-47155000D01*
X63695000Y-47280000D01*
X64670000Y-47280000D01*
X64670000Y-46430000D01*
X64870000Y-46430000D01*
X64870000Y-47280000D01*
X65845000Y-47280000D01*
X65970000Y-47155000D01*
X65970000Y-46705544D01*
X65893880Y-46521773D01*
X65753227Y-46381121D01*
X65569456Y-46305000D01*
X64995000Y-46305000D01*
X64870000Y-46430000D01*
X64670000Y-46430000D01*
X64545000Y-46305000D01*
X63970544Y-46305000D01*
X63786773Y-46381121D01*
X63646120Y-46521773D01*
X63570000Y-46705544D01*
X58820000Y-46705544D01*
X58820000Y-35452000D01*
X89770000Y-35452000D01*
X89770001Y-58020000D01*
G36*
X72576724Y-37651293D02*
X72487471Y-38100000D01*
X72576724Y-38548707D01*
X72616526Y-38608275D01*
X72606721Y-38622950D01*
X72551664Y-38705349D01*
X72544758Y-38715684D01*
X72523000Y-38825070D01*
X72523000Y-38825074D01*
X72515655Y-38862000D01*
X72523000Y-38898926D01*
X72523001Y-51406669D01*
X69190951Y-54738720D01*
X69190948Y-54738722D01*
X69091194Y-54838476D01*
X69028707Y-54796724D01*
X68693261Y-54730000D01*
X68466739Y-54730000D01*
X68131293Y-54796724D01*
X67750897Y-55050897D01*
X67496724Y-55431293D01*
X67407471Y-55880000D01*
X67496724Y-56328707D01*
X67750897Y-56709103D01*
X68131293Y-56963276D01*
X68466739Y-57030000D01*
X68693261Y-57030000D01*
X69028707Y-56963276D01*
X69409103Y-56709103D01*
X69663276Y-56328707D01*
X69752529Y-55880000D01*
X69663276Y-55431293D01*
X69621524Y-55368806D01*
X69721278Y-55269052D01*
X69721280Y-55269049D01*
X73137052Y-51853278D01*
X73168359Y-51832359D01*
X73210027Y-51770000D01*
X73251241Y-51708319D01*
X73251241Y-51708318D01*
X73251242Y-51708317D01*
X73273000Y-51598931D01*
X73273000Y-51598927D01*
X73280345Y-51562001D01*
X73273000Y-51525074D01*
X73273000Y-39195550D01*
X73546739Y-39250000D01*
X73773261Y-39250000D01*
X74108707Y-39183276D01*
X74489103Y-38929103D01*
X74743276Y-38548707D01*
X74832529Y-38100000D01*
X74743276Y-37651293D01*
X74537303Y-37343033D01*
X75322697Y-37343033D01*
X75116724Y-37651293D01*
X75027471Y-38100000D01*
X75116724Y-38548707D01*
X75370897Y-38929103D01*
X75751293Y-39183276D01*
X76086739Y-39250000D01*
X76313261Y-39250000D01*
X76333000Y-39246074D01*
X76333000Y-39468670D01*
X73420949Y-42380722D01*
X73389642Y-42401641D01*
X73368723Y-42432948D01*
X73368721Y-42432950D01*
X73306759Y-42525682D01*
X73277655Y-42672000D01*
X73285001Y-42708931D01*
X73285000Y-52676670D01*
X71231671Y-54730000D01*
X71006739Y-54730000D01*
X70671293Y-54796724D01*
X70290897Y-55050897D01*
X70036724Y-55431293D01*
X69947471Y-55880000D01*
X70036724Y-56328707D01*
X70290897Y-56709103D01*
X70671293Y-56963276D01*
X71006739Y-57030000D01*
X71233261Y-57030000D01*
X71568707Y-56963276D01*
X71949103Y-56709103D01*
X72203276Y-56328707D01*
X72292529Y-55880000D01*
X72203276Y-55431293D01*
X71958047Y-55064282D01*
X73899053Y-53123277D01*
X73930359Y-53102359D01*
X73952221Y-53069641D01*
X74013241Y-52978319D01*
X74013241Y-52978318D01*
X74013242Y-52978317D01*
X74035000Y-52868931D01*
X74035000Y-52868927D01*
X74042345Y-52832001D01*
X74035000Y-52795075D01*
X74035000Y-42827329D01*
X76850002Y-40012328D01*
X76850001Y-42274366D01*
X76823100Y-42247465D01*
X76418804Y-42080000D01*
X75981196Y-42080000D01*
X75576900Y-42247465D01*
X75267465Y-42556900D01*
X75100000Y-42961196D01*
X75100000Y-43398804D01*
X75267465Y-43803100D01*
X75576900Y-44112535D01*
X75981196Y-44280000D01*
X76418804Y-44280000D01*
X76823100Y-44112535D01*
X76850001Y-44085634D01*
X76850001Y-44793669D01*
X76294548Y-45349123D01*
X76119999Y-45349123D01*
X75907274Y-45391437D01*
X75726935Y-45511935D01*
X75606437Y-45692274D01*
X75564123Y-45904999D01*
X75564123Y-46805001D01*
X75606437Y-47017726D01*
X75726935Y-47198065D01*
X75907274Y-47318563D01*
X76119999Y-47360877D01*
X76568793Y-47360877D01*
X74690949Y-49238722D01*
X74659642Y-49259641D01*
X74638723Y-49290948D01*
X74638721Y-49290950D01*
X74576759Y-49383682D01*
X74547655Y-49530000D01*
X74555001Y-49566931D01*
X74555000Y-53184669D01*
X73420948Y-54318723D01*
X73389642Y-54339641D01*
X73368723Y-54370948D01*
X73368721Y-54370950D01*
X73306759Y-54463682D01*
X73277655Y-54610000D01*
X73285001Y-54646931D01*
X73285001Y-54782063D01*
X73211293Y-54796724D01*
X72830897Y-55050897D01*
X72576724Y-55431293D01*
X72487471Y-55880000D01*
X72576724Y-56328707D01*
X72830897Y-56709103D01*
X73211293Y-56963276D01*
X73546739Y-57030000D01*
X73773261Y-57030000D01*
X74108707Y-56963276D01*
X74489103Y-56709103D01*
X74743276Y-56328707D01*
X74832529Y-55880000D01*
X74743276Y-55431293D01*
X74489103Y-55050897D01*
X74108707Y-54796724D01*
X74035000Y-54782063D01*
X74035000Y-54765329D01*
X75169056Y-53631275D01*
X75200359Y-53610359D01*
X75221276Y-53579055D01*
X75221279Y-53579052D01*
X75283241Y-53486319D01*
X75283241Y-53486318D01*
X75283242Y-53486317D01*
X75305000Y-53376931D01*
X75305000Y-53376927D01*
X75312345Y-53340001D01*
X75305000Y-53303075D01*
X75305000Y-51886980D01*
X75400000Y-51905877D01*
X77000000Y-51905877D01*
X77117054Y-51882593D01*
X77216288Y-51816288D01*
X77282593Y-51717054D01*
X77305877Y-51600000D01*
X77305877Y-50000000D01*
X77282593Y-49882946D01*
X77216288Y-49783712D01*
X77117054Y-49717407D01*
X77000000Y-49694123D01*
X75400000Y-49694123D01*
X75305000Y-49713020D01*
X75305000Y-49685329D01*
X77786125Y-47204205D01*
X77957274Y-47318563D01*
X78169999Y-47360877D01*
X78820001Y-47360877D01*
X79032726Y-47318563D01*
X79213065Y-47198065D01*
X79333563Y-47017726D01*
X79375877Y-46805001D01*
X79375877Y-45904999D01*
X79333563Y-45692274D01*
X79213065Y-45511935D01*
X79032726Y-45391437D01*
X78820001Y-45349123D01*
X78353000Y-45349123D01*
X78353000Y-44210331D01*
X78521196Y-44280000D01*
X78958804Y-44280000D01*
X79363100Y-44112535D01*
X79672535Y-43803100D01*
X79762000Y-43587112D01*
X79762000Y-45183670D01*
X79525949Y-45419722D01*
X79494643Y-45440640D01*
X79473724Y-45471947D01*
X79473722Y-45471949D01*
X79411760Y-45564681D01*
X79382656Y-45710999D01*
X79390002Y-45747930D01*
X79390001Y-49894366D01*
X79363100Y-49867465D01*
X78958804Y-49700000D01*
X78521196Y-49700000D01*
X78116900Y-49867465D01*
X77807465Y-50176900D01*
X77640000Y-50581196D01*
X77640000Y-51018804D01*
X77807465Y-51423100D01*
X78116900Y-51732535D01*
X78521196Y-51900000D01*
X78958804Y-51900000D01*
X79363100Y-51732535D01*
X79390001Y-51705634D01*
X79390001Y-52159669D01*
X76711194Y-54838477D01*
X76648707Y-54796724D01*
X76313261Y-54730000D01*
X76086739Y-54730000D01*
X75751293Y-54796724D01*
X75370897Y-55050897D01*
X75116724Y-55431293D01*
X75027471Y-55880000D01*
X75116724Y-56328707D01*
X75370897Y-56709103D01*
X75751293Y-56963276D01*
X76086739Y-57030000D01*
X76313261Y-57030000D01*
X76648707Y-56963276D01*
X77029103Y-56709103D01*
X77283276Y-56328707D01*
X77372529Y-55880000D01*
X77283276Y-55431293D01*
X77241523Y-55368806D01*
X80004054Y-52606276D01*
X80035360Y-52585358D01*
X80059015Y-52549957D01*
X80096218Y-52494279D01*
X80118243Y-52461316D01*
X80140001Y-52351930D01*
X80140001Y-52351925D01*
X80147346Y-52314999D01*
X80140001Y-52278073D01*
X80140001Y-45866328D01*
X80376053Y-45630277D01*
X80407359Y-45609359D01*
X80435235Y-45567641D01*
X80490241Y-45485319D01*
X80490241Y-45485318D01*
X80490242Y-45485317D01*
X80512000Y-45375931D01*
X80512000Y-45375927D01*
X80519345Y-45339001D01*
X80512000Y-45302074D01*
X80512000Y-43967635D01*
X80656900Y-44112535D01*
X81061196Y-44280000D01*
X81498804Y-44280000D01*
X81903100Y-44112535D01*
X82119988Y-43895647D01*
X82119989Y-50084354D01*
X81903100Y-49867465D01*
X81498804Y-49700000D01*
X81061196Y-49700000D01*
X80656900Y-49867465D01*
X80347465Y-50176900D01*
X80180000Y-50581196D01*
X80180000Y-51018804D01*
X80347465Y-51423100D01*
X80656900Y-51732535D01*
X81061196Y-51900000D01*
X81498804Y-51900000D01*
X81903100Y-51732535D01*
X82119989Y-51515646D01*
X82119989Y-51969681D01*
X79350951Y-54738720D01*
X79350948Y-54738722D01*
X79251194Y-54838476D01*
X79188707Y-54796724D01*
X78853261Y-54730000D01*
X78626739Y-54730000D01*
X78291293Y-54796724D01*
X77910897Y-55050897D01*
X77656724Y-55431293D01*
X77567471Y-55880000D01*
X77656724Y-56328707D01*
X77910897Y-56709103D01*
X78291293Y-56963276D01*
X78626739Y-57030000D01*
X78853261Y-57030000D01*
X79188707Y-56963276D01*
X79569103Y-56709103D01*
X79823276Y-56328707D01*
X79912529Y-55880000D01*
X79823276Y-55431293D01*
X79781524Y-55368806D01*
X79881278Y-55269052D01*
X79881280Y-55269049D01*
X80125065Y-55025264D01*
X80124123Y-55030000D01*
X80124123Y-56730000D01*
X80147407Y-56847054D01*
X80213712Y-56946288D01*
X80312946Y-57012593D01*
X80430000Y-57035877D01*
X81625794Y-57035877D01*
X81391692Y-57269979D01*
X66055309Y-57269979D01*
X65787667Y-57002337D01*
X65926739Y-57030000D01*
X66153261Y-57030000D01*
X66488707Y-56963276D01*
X66869103Y-56709103D01*
X67123276Y-56328707D01*
X67212529Y-55880000D01*
X67123276Y-55431293D01*
X66869103Y-55050897D01*
X66488707Y-54796724D01*
X66415000Y-54782063D01*
X66415000Y-54511329D01*
X68102800Y-52823530D01*
X68134106Y-52802612D01*
X68159481Y-52764637D01*
X68216988Y-52678571D01*
X68216989Y-52678570D01*
X68238747Y-52569184D01*
X68238747Y-52569179D01*
X68246092Y-52532253D01*
X68238747Y-52495327D01*
X68238747Y-51644673D01*
X68246092Y-51607747D01*
X68238747Y-51570821D01*
X68238747Y-51570816D01*
X68216989Y-51461430D01*
X68185965Y-51415000D01*
X68155026Y-51368696D01*
X68155025Y-51368695D01*
X68134106Y-51337388D01*
X68102799Y-51316469D01*
X67476993Y-50690664D01*
X67476993Y-49397000D01*
X67951353Y-49397000D01*
X67988279Y-49404345D01*
X68025205Y-49397000D01*
X68025210Y-49397000D01*
X68134596Y-49375242D01*
X68258638Y-49292359D01*
X68279559Y-49261050D01*
X69454053Y-48086556D01*
X69485360Y-48065637D01*
X69568243Y-47941595D01*
X69590001Y-47832209D01*
X69590001Y-47832204D01*
X69597346Y-47795278D01*
X69590001Y-47758352D01*
X69590001Y-40160328D01*
X70608806Y-39141523D01*
X70671293Y-39183276D01*
X71006739Y-39250000D01*
X71233261Y-39250000D01*
X71568707Y-39183276D01*
X71949103Y-38929103D01*
X72203276Y-38548707D01*
X72292529Y-38100000D01*
X72203276Y-37651293D01*
X71997303Y-37343033D01*
X72782697Y-37343033D01*
X72576724Y-37651293D01*
X72576724Y-37651293D01*
G37*
X72576724Y-37651293D02*
X72487471Y-38100000D01*
X72576724Y-38548707D01*
X72616526Y-38608275D01*
X72606721Y-38622950D01*
X72551664Y-38705349D01*
X72544758Y-38715684D01*
X72523000Y-38825070D01*
X72523000Y-38825074D01*
X72515655Y-38862000D01*
X72523000Y-38898926D01*
X72523001Y-51406669D01*
X69190951Y-54738720D01*
X69190948Y-54738722D01*
X69091194Y-54838476D01*
X69028707Y-54796724D01*
X68693261Y-54730000D01*
X68466739Y-54730000D01*
X68131293Y-54796724D01*
X67750897Y-55050897D01*
X67496724Y-55431293D01*
X67407471Y-55880000D01*
X67496724Y-56328707D01*
X67750897Y-56709103D01*
X68131293Y-56963276D01*
X68466739Y-57030000D01*
X68693261Y-57030000D01*
X69028707Y-56963276D01*
X69409103Y-56709103D01*
X69663276Y-56328707D01*
X69752529Y-55880000D01*
X69663276Y-55431293D01*
X69621524Y-55368806D01*
X69721278Y-55269052D01*
X69721280Y-55269049D01*
X73137052Y-51853278D01*
X73168359Y-51832359D01*
X73210027Y-51770000D01*
X73251241Y-51708319D01*
X73251241Y-51708318D01*
X73251242Y-51708317D01*
X73273000Y-51598931D01*
X73273000Y-51598927D01*
X73280345Y-51562001D01*
X73273000Y-51525074D01*
X73273000Y-39195550D01*
X73546739Y-39250000D01*
X73773261Y-39250000D01*
X74108707Y-39183276D01*
X74489103Y-38929103D01*
X74743276Y-38548707D01*
X74832529Y-38100000D01*
X74743276Y-37651293D01*
X74537303Y-37343033D01*
X75322697Y-37343033D01*
X75116724Y-37651293D01*
X75027471Y-38100000D01*
X75116724Y-38548707D01*
X75370897Y-38929103D01*
X75751293Y-39183276D01*
X76086739Y-39250000D01*
X76313261Y-39250000D01*
X76333000Y-39246074D01*
X76333000Y-39468670D01*
X73420949Y-42380722D01*
X73389642Y-42401641D01*
X73368723Y-42432948D01*
X73368721Y-42432950D01*
X73306759Y-42525682D01*
X73277655Y-42672000D01*
X73285001Y-42708931D01*
X73285000Y-52676670D01*
X71231671Y-54730000D01*
X71006739Y-54730000D01*
X70671293Y-54796724D01*
X70290897Y-55050897D01*
X70036724Y-55431293D01*
X69947471Y-55880000D01*
X70036724Y-56328707D01*
X70290897Y-56709103D01*
X70671293Y-56963276D01*
X71006739Y-57030000D01*
X71233261Y-57030000D01*
X71568707Y-56963276D01*
X71949103Y-56709103D01*
X72203276Y-56328707D01*
X72292529Y-55880000D01*
X72203276Y-55431293D01*
X71958047Y-55064282D01*
X73899053Y-53123277D01*
X73930359Y-53102359D01*
X73952221Y-53069641D01*
X74013241Y-52978319D01*
X74013241Y-52978318D01*
X74013242Y-52978317D01*
X74035000Y-52868931D01*
X74035000Y-52868927D01*
X74042345Y-52832001D01*
X74035000Y-52795075D01*
X74035000Y-42827329D01*
X76850002Y-40012328D01*
X76850001Y-42274366D01*
X76823100Y-42247465D01*
X76418804Y-42080000D01*
X75981196Y-42080000D01*
X75576900Y-42247465D01*
X75267465Y-42556900D01*
X75100000Y-42961196D01*
X75100000Y-43398804D01*
X75267465Y-43803100D01*
X75576900Y-44112535D01*
X75981196Y-44280000D01*
X76418804Y-44280000D01*
X76823100Y-44112535D01*
X76850001Y-44085634D01*
X76850001Y-44793669D01*
X76294548Y-45349123D01*
X76119999Y-45349123D01*
X75907274Y-45391437D01*
X75726935Y-45511935D01*
X75606437Y-45692274D01*
X75564123Y-45904999D01*
X75564123Y-46805001D01*
X75606437Y-47017726D01*
X75726935Y-47198065D01*
X75907274Y-47318563D01*
X76119999Y-47360877D01*
X76568793Y-47360877D01*
X74690949Y-49238722D01*
X74659642Y-49259641D01*
X74638723Y-49290948D01*
X74638721Y-49290950D01*
X74576759Y-49383682D01*
X74547655Y-49530000D01*
X74555001Y-49566931D01*
X74555000Y-53184669D01*
X73420948Y-54318723D01*
X73389642Y-54339641D01*
X73368723Y-54370948D01*
X73368721Y-54370950D01*
X73306759Y-54463682D01*
X73277655Y-54610000D01*
X73285001Y-54646931D01*
X73285001Y-54782063D01*
X73211293Y-54796724D01*
X72830897Y-55050897D01*
X72576724Y-55431293D01*
X72487471Y-55880000D01*
X72576724Y-56328707D01*
X72830897Y-56709103D01*
X73211293Y-56963276D01*
X73546739Y-57030000D01*
X73773261Y-57030000D01*
X74108707Y-56963276D01*
X74489103Y-56709103D01*
X74743276Y-56328707D01*
X74832529Y-55880000D01*
X74743276Y-55431293D01*
X74489103Y-55050897D01*
X74108707Y-54796724D01*
X74035000Y-54782063D01*
X74035000Y-54765329D01*
X75169056Y-53631275D01*
X75200359Y-53610359D01*
X75221276Y-53579055D01*
X75221279Y-53579052D01*
X75283241Y-53486319D01*
X75283241Y-53486318D01*
X75283242Y-53486317D01*
X75305000Y-53376931D01*
X75305000Y-53376927D01*
X75312345Y-53340001D01*
X75305000Y-53303075D01*
X75305000Y-51886980D01*
X75400000Y-51905877D01*
X77000000Y-51905877D01*
X77117054Y-51882593D01*
X77216288Y-51816288D01*
X77282593Y-51717054D01*
X77305877Y-51600000D01*
X77305877Y-50000000D01*
X77282593Y-49882946D01*
X77216288Y-49783712D01*
X77117054Y-49717407D01*
X77000000Y-49694123D01*
X75400000Y-49694123D01*
X75305000Y-49713020D01*
X75305000Y-49685329D01*
X77786125Y-47204205D01*
X77957274Y-47318563D01*
X78169999Y-47360877D01*
X78820001Y-47360877D01*
X79032726Y-47318563D01*
X79213065Y-47198065D01*
X79333563Y-47017726D01*
X79375877Y-46805001D01*
X79375877Y-45904999D01*
X79333563Y-45692274D01*
X79213065Y-45511935D01*
X79032726Y-45391437D01*
X78820001Y-45349123D01*
X78353000Y-45349123D01*
X78353000Y-44210331D01*
X78521196Y-44280000D01*
X78958804Y-44280000D01*
X79363100Y-44112535D01*
X79672535Y-43803100D01*
X79762000Y-43587112D01*
X79762000Y-45183670D01*
X79525949Y-45419722D01*
X79494643Y-45440640D01*
X79473724Y-45471947D01*
X79473722Y-45471949D01*
X79411760Y-45564681D01*
X79382656Y-45710999D01*
X79390002Y-45747930D01*
X79390001Y-49894366D01*
X79363100Y-49867465D01*
X78958804Y-49700000D01*
X78521196Y-49700000D01*
X78116900Y-49867465D01*
X77807465Y-50176900D01*
X77640000Y-50581196D01*
X77640000Y-51018804D01*
X77807465Y-51423100D01*
X78116900Y-51732535D01*
X78521196Y-51900000D01*
X78958804Y-51900000D01*
X79363100Y-51732535D01*
X79390001Y-51705634D01*
X79390001Y-52159669D01*
X76711194Y-54838477D01*
X76648707Y-54796724D01*
X76313261Y-54730000D01*
X76086739Y-54730000D01*
X75751293Y-54796724D01*
X75370897Y-55050897D01*
X75116724Y-55431293D01*
X75027471Y-55880000D01*
X75116724Y-56328707D01*
X75370897Y-56709103D01*
X75751293Y-56963276D01*
X76086739Y-57030000D01*
X76313261Y-57030000D01*
X76648707Y-56963276D01*
X77029103Y-56709103D01*
X77283276Y-56328707D01*
X77372529Y-55880000D01*
X77283276Y-55431293D01*
X77241523Y-55368806D01*
X80004054Y-52606276D01*
X80035360Y-52585358D01*
X80059015Y-52549957D01*
X80096218Y-52494279D01*
X80118243Y-52461316D01*
X80140001Y-52351930D01*
X80140001Y-52351925D01*
X80147346Y-52314999D01*
X80140001Y-52278073D01*
X80140001Y-45866328D01*
X80376053Y-45630277D01*
X80407359Y-45609359D01*
X80435235Y-45567641D01*
X80490241Y-45485319D01*
X80490241Y-45485318D01*
X80490242Y-45485317D01*
X80512000Y-45375931D01*
X80512000Y-45375927D01*
X80519345Y-45339001D01*
X80512000Y-45302074D01*
X80512000Y-43967635D01*
X80656900Y-44112535D01*
X81061196Y-44280000D01*
X81498804Y-44280000D01*
X81903100Y-44112535D01*
X82119988Y-43895647D01*
X82119989Y-50084354D01*
X81903100Y-49867465D01*
X81498804Y-49700000D01*
X81061196Y-49700000D01*
X80656900Y-49867465D01*
X80347465Y-50176900D01*
X80180000Y-50581196D01*
X80180000Y-51018804D01*
X80347465Y-51423100D01*
X80656900Y-51732535D01*
X81061196Y-51900000D01*
X81498804Y-51900000D01*
X81903100Y-51732535D01*
X82119989Y-51515646D01*
X82119989Y-51969681D01*
X79350951Y-54738720D01*
X79350948Y-54738722D01*
X79251194Y-54838476D01*
X79188707Y-54796724D01*
X78853261Y-54730000D01*
X78626739Y-54730000D01*
X78291293Y-54796724D01*
X77910897Y-55050897D01*
X77656724Y-55431293D01*
X77567471Y-55880000D01*
X77656724Y-56328707D01*
X77910897Y-56709103D01*
X78291293Y-56963276D01*
X78626739Y-57030000D01*
X78853261Y-57030000D01*
X79188707Y-56963276D01*
X79569103Y-56709103D01*
X79823276Y-56328707D01*
X79912529Y-55880000D01*
X79823276Y-55431293D01*
X79781524Y-55368806D01*
X79881278Y-55269052D01*
X79881280Y-55269049D01*
X80125065Y-55025264D01*
X80124123Y-55030000D01*
X80124123Y-56730000D01*
X80147407Y-56847054D01*
X80213712Y-56946288D01*
X80312946Y-57012593D01*
X80430000Y-57035877D01*
X81625794Y-57035877D01*
X81391692Y-57269979D01*
X66055309Y-57269979D01*
X65787667Y-57002337D01*
X65926739Y-57030000D01*
X66153261Y-57030000D01*
X66488707Y-56963276D01*
X66869103Y-56709103D01*
X67123276Y-56328707D01*
X67212529Y-55880000D01*
X67123276Y-55431293D01*
X66869103Y-55050897D01*
X66488707Y-54796724D01*
X66415000Y-54782063D01*
X66415000Y-54511329D01*
X68102800Y-52823530D01*
X68134106Y-52802612D01*
X68159481Y-52764637D01*
X68216988Y-52678571D01*
X68216989Y-52678570D01*
X68238747Y-52569184D01*
X68238747Y-52569179D01*
X68246092Y-52532253D01*
X68238747Y-52495327D01*
X68238747Y-51644673D01*
X68246092Y-51607747D01*
X68238747Y-51570821D01*
X68238747Y-51570816D01*
X68216989Y-51461430D01*
X68185965Y-51415000D01*
X68155026Y-51368696D01*
X68155025Y-51368695D01*
X68134106Y-51337388D01*
X68102799Y-51316469D01*
X67476993Y-50690664D01*
X67476993Y-49397000D01*
X67951353Y-49397000D01*
X67988279Y-49404345D01*
X68025205Y-49397000D01*
X68025210Y-49397000D01*
X68134596Y-49375242D01*
X68258638Y-49292359D01*
X68279559Y-49261050D01*
X69454053Y-48086556D01*
X69485360Y-48065637D01*
X69568243Y-47941595D01*
X69590001Y-47832209D01*
X69590001Y-47832204D01*
X69597346Y-47795278D01*
X69590001Y-47758352D01*
X69590001Y-40160328D01*
X70608806Y-39141523D01*
X70671293Y-39183276D01*
X71006739Y-39250000D01*
X71233261Y-39250000D01*
X71568707Y-39183276D01*
X71949103Y-38929103D01*
X72203276Y-38548707D01*
X72292529Y-38100000D01*
X72203276Y-37651293D01*
X71997303Y-37343033D01*
X72782697Y-37343033D01*
X72576724Y-37651293D01*
G36*
X80450897Y-37270897D02*
X80196724Y-37651293D01*
X80107471Y-38100000D01*
X80196724Y-38548707D01*
X80238477Y-38611194D01*
X80190953Y-38658718D01*
X80190950Y-38658720D01*
X79897948Y-38951723D01*
X79866642Y-38972641D01*
X79845723Y-39003948D01*
X79845721Y-39003950D01*
X79783759Y-39096682D01*
X79754655Y-39243000D01*
X79762001Y-39279931D01*
X79762000Y-42772888D01*
X79672535Y-42556900D01*
X79363100Y-42247465D01*
X78958804Y-42080000D01*
X78521196Y-42080000D01*
X78116900Y-42247465D01*
X77972000Y-42392365D01*
X77972000Y-40033329D01*
X78755330Y-39250000D01*
X78853261Y-39250000D01*
X79188707Y-39183276D01*
X79569103Y-38929103D01*
X79823276Y-38548707D01*
X79912529Y-38100000D01*
X79823276Y-37651293D01*
X79569103Y-37270897D01*
X79228065Y-37043022D01*
X80791935Y-37043022D01*
X80450897Y-37270897D01*
X80450897Y-37270897D01*
G37*
X80450897Y-37270897D02*
X80196724Y-37651293D01*
X80107471Y-38100000D01*
X80196724Y-38548707D01*
X80238477Y-38611194D01*
X80190953Y-38658718D01*
X80190950Y-38658720D01*
X79897948Y-38951723D01*
X79866642Y-38972641D01*
X79845723Y-39003948D01*
X79845721Y-39003950D01*
X79783759Y-39096682D01*
X79754655Y-39243000D01*
X79762001Y-39279931D01*
X79762000Y-42772888D01*
X79672535Y-42556900D01*
X79363100Y-42247465D01*
X78958804Y-42080000D01*
X78521196Y-42080000D01*
X78116900Y-42247465D01*
X77972000Y-42392365D01*
X77972000Y-40033329D01*
X78755330Y-39250000D01*
X78853261Y-39250000D01*
X79188707Y-39183276D01*
X79569103Y-38929103D01*
X79823276Y-38548707D01*
X79912529Y-38100000D01*
X79823276Y-37651293D01*
X79569103Y-37270897D01*
X79228065Y-37043022D01*
X80791935Y-37043022D01*
X80450897Y-37270897D01*
G36*
X84342950Y-39162443D02*
X84311641Y-39183363D01*
X84290721Y-39214672D01*
X84231542Y-39303240D01*
X84228758Y-39307406D01*
X84207000Y-39416792D01*
X84207000Y-39416796D01*
X84199655Y-39453722D01*
X84207000Y-39490649D01*
X84207001Y-42149669D01*
X84038804Y-42080000D01*
X83601196Y-42080000D01*
X83196900Y-42247465D01*
X82887465Y-42556900D01*
X82869988Y-42599093D01*
X82869988Y-39580341D01*
X83308806Y-39141523D01*
X83371293Y-39183276D01*
X83706739Y-39250000D01*
X83933261Y-39250000D01*
X84268707Y-39183276D01*
X84429667Y-39075726D01*
X84342950Y-39162443D01*
X84342950Y-39162443D01*
G37*
X84342950Y-39162443D02*
X84311641Y-39183363D01*
X84290721Y-39214672D01*
X84231542Y-39303240D01*
X84228758Y-39307406D01*
X84207000Y-39416792D01*
X84207000Y-39416796D01*
X84199655Y-39453722D01*
X84207000Y-39490649D01*
X84207001Y-42149669D01*
X84038804Y-42080000D01*
X83601196Y-42080000D01*
X83196900Y-42247465D01*
X82887465Y-42556900D01*
X82869988Y-42599093D01*
X82869988Y-39580341D01*
X83308806Y-39141523D01*
X83371293Y-39183276D01*
X83706739Y-39250000D01*
X83933261Y-39250000D01*
X84268707Y-39183276D01*
X84429667Y-39075726D01*
X84342950Y-39162443D01*
G36*
X80831293Y-39183276D02*
X81166739Y-39250000D01*
X81393261Y-39250000D01*
X81669179Y-39195117D01*
X81667000Y-39206070D01*
X81667000Y-39206074D01*
X81659655Y-39243000D01*
X81667000Y-39279927D01*
X81667001Y-42149669D01*
X81498804Y-42080000D01*
X81061196Y-42080000D01*
X80656900Y-42247465D01*
X80512000Y-42392365D01*
X80512000Y-39398329D01*
X80721280Y-39189050D01*
X80721282Y-39189047D01*
X80768806Y-39141523D01*
X80831293Y-39183276D01*
X80831293Y-39183276D01*
G37*
X80831293Y-39183276D02*
X81166739Y-39250000D01*
X81393261Y-39250000D01*
X81669179Y-39195117D01*
X81667000Y-39206070D01*
X81667000Y-39206074D01*
X81659655Y-39243000D01*
X81667000Y-39279927D01*
X81667001Y-42149669D01*
X81498804Y-42080000D01*
X81061196Y-42080000D01*
X80656900Y-42247465D01*
X80512000Y-42392365D01*
X80512000Y-39398329D01*
X80721280Y-39189050D01*
X80721282Y-39189047D01*
X80768806Y-39141523D01*
X80831293Y-39183276D01*
G04 #@! TD*
M02*
