G04 #@! TF.GenerationSoftware,KiCad,Pcbnew,(5.0.0)*
G04 #@! TF.CreationDate,2019-08-19T15:41:53-04:00*
G04 #@! TF.ProjectId,7segment,377365676D656E742E6B696361645F70,B*
G04 #@! TF.SameCoordinates,Original*
G04 #@! TF.FileFunction,Soldermask,Bot*
G04 #@! TF.FilePolarity,Negative*
%FSLAX46Y46*%
G04 Gerber Fmt 4.6, Leading zero omitted, Abs format (unit mm)*
G04 Created by KiCad (PCBNEW (5.0.0)) date 08/19/19 15:41:53*
%MOMM*%
%LPD*%
G01*
G04 APERTURE LIST*
%ADD10C,1.800000*%
%ADD11R,1.800000X1.800000*%
%ADD12R,1.900000X1.900000*%
%ADD13C,0.100000*%
%ADD14C,1.350000*%
%ADD15R,1.100000X1.400000*%
%ADD16O,1.900000X1.900000*%
%ADD17R,0.700000X1.000000*%
%ADD18R,0.600000X1.000000*%
G04 APERTURE END LIST*
D10*
G04 #@! TO.C,U1*
X76200000Y-41910000D03*
X78740000Y-41910000D03*
X81280000Y-41910000D03*
X83820000Y-41910000D03*
X86360000Y-41910000D03*
X86360000Y-49530000D03*
X83820000Y-49530000D03*
X81280000Y-49530000D03*
X78740000Y-49530000D03*
D11*
X76200000Y-49530000D03*
G04 #@! TD*
D12*
G04 #@! TO.C,J5*
X71120000Y-40640000D03*
G04 #@! TD*
D13*
G04 #@! TO.C,C3*
G36*
X71655289Y-50271413D02*
X71683778Y-50275639D01*
X71711715Y-50282637D01*
X71738832Y-50292340D01*
X71764867Y-50304653D01*
X71789570Y-50319460D01*
X71812703Y-50336616D01*
X71834043Y-50355957D01*
X71853384Y-50377297D01*
X71870540Y-50400430D01*
X71885347Y-50425133D01*
X71897660Y-50451168D01*
X71907363Y-50478285D01*
X71914361Y-50506222D01*
X71918587Y-50534711D01*
X71920000Y-50563477D01*
X71920000Y-51326523D01*
X71918587Y-51355289D01*
X71914361Y-51383778D01*
X71907363Y-51411715D01*
X71897660Y-51438832D01*
X71885347Y-51464867D01*
X71870540Y-51489570D01*
X71853384Y-51512703D01*
X71834043Y-51534043D01*
X71812703Y-51553384D01*
X71789570Y-51570540D01*
X71764867Y-51585347D01*
X71738832Y-51597660D01*
X71711715Y-51607363D01*
X71683778Y-51614361D01*
X71655289Y-51618587D01*
X71626523Y-51620000D01*
X70613477Y-51620000D01*
X70584711Y-51618587D01*
X70556222Y-51614361D01*
X70528285Y-51607363D01*
X70501168Y-51597660D01*
X70475133Y-51585347D01*
X70450430Y-51570540D01*
X70427297Y-51553384D01*
X70405957Y-51534043D01*
X70386616Y-51512703D01*
X70369460Y-51489570D01*
X70354653Y-51464867D01*
X70342340Y-51438832D01*
X70332637Y-51411715D01*
X70325639Y-51383778D01*
X70321413Y-51355289D01*
X70320000Y-51326523D01*
X70320000Y-50563477D01*
X70321413Y-50534711D01*
X70325639Y-50506222D01*
X70332637Y-50478285D01*
X70342340Y-50451168D01*
X70354653Y-50425133D01*
X70369460Y-50400430D01*
X70386616Y-50377297D01*
X70405957Y-50355957D01*
X70427297Y-50336616D01*
X70450430Y-50319460D01*
X70475133Y-50304653D01*
X70501168Y-50292340D01*
X70528285Y-50282637D01*
X70556222Y-50275639D01*
X70584711Y-50271413D01*
X70613477Y-50270000D01*
X71626523Y-50270000D01*
X71655289Y-50271413D01*
X71655289Y-50271413D01*
G37*
D14*
X71120000Y-50945000D03*
D13*
G36*
X71655289Y-48221413D02*
X71683778Y-48225639D01*
X71711715Y-48232637D01*
X71738832Y-48242340D01*
X71764867Y-48254653D01*
X71789570Y-48269460D01*
X71812703Y-48286616D01*
X71834043Y-48305957D01*
X71853384Y-48327297D01*
X71870540Y-48350430D01*
X71885347Y-48375133D01*
X71897660Y-48401168D01*
X71907363Y-48428285D01*
X71914361Y-48456222D01*
X71918587Y-48484711D01*
X71920000Y-48513477D01*
X71920000Y-49276523D01*
X71918587Y-49305289D01*
X71914361Y-49333778D01*
X71907363Y-49361715D01*
X71897660Y-49388832D01*
X71885347Y-49414867D01*
X71870540Y-49439570D01*
X71853384Y-49462703D01*
X71834043Y-49484043D01*
X71812703Y-49503384D01*
X71789570Y-49520540D01*
X71764867Y-49535347D01*
X71738832Y-49547660D01*
X71711715Y-49557363D01*
X71683778Y-49564361D01*
X71655289Y-49568587D01*
X71626523Y-49570000D01*
X70613477Y-49570000D01*
X70584711Y-49568587D01*
X70556222Y-49564361D01*
X70528285Y-49557363D01*
X70501168Y-49547660D01*
X70475133Y-49535347D01*
X70450430Y-49520540D01*
X70427297Y-49503384D01*
X70405957Y-49484043D01*
X70386616Y-49462703D01*
X70369460Y-49439570D01*
X70354653Y-49414867D01*
X70342340Y-49388832D01*
X70332637Y-49361715D01*
X70325639Y-49333778D01*
X70321413Y-49305289D01*
X70320000Y-49276523D01*
X70320000Y-48513477D01*
X70321413Y-48484711D01*
X70325639Y-48456222D01*
X70332637Y-48428285D01*
X70342340Y-48401168D01*
X70354653Y-48375133D01*
X70369460Y-48350430D01*
X70386616Y-48327297D01*
X70405957Y-48305957D01*
X70427297Y-48286616D01*
X70450430Y-48269460D01*
X70475133Y-48254653D01*
X70501168Y-48242340D01*
X70528285Y-48232637D01*
X70556222Y-48225639D01*
X70584711Y-48221413D01*
X70613477Y-48220000D01*
X71626523Y-48220000D01*
X71655289Y-48221413D01*
X71655289Y-48221413D01*
G37*
D14*
X71120000Y-48895000D03*
G04 #@! TD*
D15*
G04 #@! TO.C,D1*
X73153000Y-38100000D03*
X76453000Y-38100000D03*
G04 #@! TD*
D12*
G04 #@! TO.C,JP2*
X63500000Y-40640000D03*
D16*
X66040000Y-40640000D03*
X68580000Y-40640000D03*
G04 #@! TD*
D17*
G04 #@! TO.C,RN3*
X67380000Y-42915000D03*
D18*
X68980000Y-42915000D03*
X68180000Y-42915000D03*
D17*
X69780000Y-42915000D03*
D18*
X68180000Y-44715000D03*
D17*
X67380000Y-44715000D03*
D18*
X68980000Y-44715000D03*
D17*
X69780000Y-44715000D03*
G04 #@! TD*
D12*
G04 #@! TO.C,J6*
X81280000Y-38100000D03*
G04 #@! TD*
G04 #@! TO.C,J7*
X81280000Y-53340000D03*
G04 #@! TD*
D13*
G04 #@! TO.C,C1*
G36*
X65940289Y-50516413D02*
X65968778Y-50520639D01*
X65996715Y-50527637D01*
X66023832Y-50537340D01*
X66049867Y-50549653D01*
X66074570Y-50564460D01*
X66097703Y-50581616D01*
X66119043Y-50600957D01*
X66138384Y-50622297D01*
X66155540Y-50645430D01*
X66170347Y-50670133D01*
X66182660Y-50696168D01*
X66192363Y-50723285D01*
X66199361Y-50751222D01*
X66203587Y-50779711D01*
X66205000Y-50808477D01*
X66205000Y-51571523D01*
X66203587Y-51600289D01*
X66199361Y-51628778D01*
X66192363Y-51656715D01*
X66182660Y-51683832D01*
X66170347Y-51709867D01*
X66155540Y-51734570D01*
X66138384Y-51757703D01*
X66119043Y-51779043D01*
X66097703Y-51798384D01*
X66074570Y-51815540D01*
X66049867Y-51830347D01*
X66023832Y-51842660D01*
X65996715Y-51852363D01*
X65968778Y-51859361D01*
X65940289Y-51863587D01*
X65911523Y-51865000D01*
X64898477Y-51865000D01*
X64869711Y-51863587D01*
X64841222Y-51859361D01*
X64813285Y-51852363D01*
X64786168Y-51842660D01*
X64760133Y-51830347D01*
X64735430Y-51815540D01*
X64712297Y-51798384D01*
X64690957Y-51779043D01*
X64671616Y-51757703D01*
X64654460Y-51734570D01*
X64639653Y-51709867D01*
X64627340Y-51683832D01*
X64617637Y-51656715D01*
X64610639Y-51628778D01*
X64606413Y-51600289D01*
X64605000Y-51571523D01*
X64605000Y-50808477D01*
X64606413Y-50779711D01*
X64610639Y-50751222D01*
X64617637Y-50723285D01*
X64627340Y-50696168D01*
X64639653Y-50670133D01*
X64654460Y-50645430D01*
X64671616Y-50622297D01*
X64690957Y-50600957D01*
X64712297Y-50581616D01*
X64735430Y-50564460D01*
X64760133Y-50549653D01*
X64786168Y-50537340D01*
X64813285Y-50527637D01*
X64841222Y-50520639D01*
X64869711Y-50516413D01*
X64898477Y-50515000D01*
X65911523Y-50515000D01*
X65940289Y-50516413D01*
X65940289Y-50516413D01*
G37*
D14*
X65405000Y-51190000D03*
D13*
G36*
X65940289Y-48466413D02*
X65968778Y-48470639D01*
X65996715Y-48477637D01*
X66023832Y-48487340D01*
X66049867Y-48499653D01*
X66074570Y-48514460D01*
X66097703Y-48531616D01*
X66119043Y-48550957D01*
X66138384Y-48572297D01*
X66155540Y-48595430D01*
X66170347Y-48620133D01*
X66182660Y-48646168D01*
X66192363Y-48673285D01*
X66199361Y-48701222D01*
X66203587Y-48729711D01*
X66205000Y-48758477D01*
X66205000Y-49521523D01*
X66203587Y-49550289D01*
X66199361Y-49578778D01*
X66192363Y-49606715D01*
X66182660Y-49633832D01*
X66170347Y-49659867D01*
X66155540Y-49684570D01*
X66138384Y-49707703D01*
X66119043Y-49729043D01*
X66097703Y-49748384D01*
X66074570Y-49765540D01*
X66049867Y-49780347D01*
X66023832Y-49792660D01*
X65996715Y-49802363D01*
X65968778Y-49809361D01*
X65940289Y-49813587D01*
X65911523Y-49815000D01*
X64898477Y-49815000D01*
X64869711Y-49813587D01*
X64841222Y-49809361D01*
X64813285Y-49802363D01*
X64786168Y-49792660D01*
X64760133Y-49780347D01*
X64735430Y-49765540D01*
X64712297Y-49748384D01*
X64690957Y-49729043D01*
X64671616Y-49707703D01*
X64654460Y-49684570D01*
X64639653Y-49659867D01*
X64627340Y-49633832D01*
X64617637Y-49606715D01*
X64610639Y-49578778D01*
X64606413Y-49550289D01*
X64605000Y-49521523D01*
X64605000Y-48758477D01*
X64606413Y-48729711D01*
X64610639Y-48701222D01*
X64617637Y-48673285D01*
X64627340Y-48646168D01*
X64639653Y-48620133D01*
X64654460Y-48595430D01*
X64671616Y-48572297D01*
X64690957Y-48550957D01*
X64712297Y-48531616D01*
X64735430Y-48514460D01*
X64760133Y-48499653D01*
X64786168Y-48487340D01*
X64813285Y-48477637D01*
X64841222Y-48470639D01*
X64869711Y-48466413D01*
X64898477Y-48465000D01*
X65911523Y-48465000D01*
X65940289Y-48466413D01*
X65940289Y-48466413D01*
G37*
D14*
X65405000Y-49140000D03*
G04 #@! TD*
D12*
G04 #@! TO.C,J4*
X101600000Y-53340000D03*
D16*
X99060000Y-53340000D03*
X96520000Y-53340000D03*
X93980000Y-53340000D03*
X91440000Y-53340000D03*
X88900000Y-53340000D03*
X86360000Y-53340000D03*
X83820000Y-53340000D03*
G04 #@! TD*
D12*
G04 #@! TO.C,J3*
X78740000Y-53340000D03*
G04 #@! TD*
G04 #@! TO.C,J1*
X78740000Y-38100000D03*
G04 #@! TD*
D13*
G04 #@! TO.C,C2*
G36*
X64035289Y-50516413D02*
X64063778Y-50520639D01*
X64091715Y-50527637D01*
X64118832Y-50537340D01*
X64144867Y-50549653D01*
X64169570Y-50564460D01*
X64192703Y-50581616D01*
X64214043Y-50600957D01*
X64233384Y-50622297D01*
X64250540Y-50645430D01*
X64265347Y-50670133D01*
X64277660Y-50696168D01*
X64287363Y-50723285D01*
X64294361Y-50751222D01*
X64298587Y-50779711D01*
X64300000Y-50808477D01*
X64300000Y-51571523D01*
X64298587Y-51600289D01*
X64294361Y-51628778D01*
X64287363Y-51656715D01*
X64277660Y-51683832D01*
X64265347Y-51709867D01*
X64250540Y-51734570D01*
X64233384Y-51757703D01*
X64214043Y-51779043D01*
X64192703Y-51798384D01*
X64169570Y-51815540D01*
X64144867Y-51830347D01*
X64118832Y-51842660D01*
X64091715Y-51852363D01*
X64063778Y-51859361D01*
X64035289Y-51863587D01*
X64006523Y-51865000D01*
X62993477Y-51865000D01*
X62964711Y-51863587D01*
X62936222Y-51859361D01*
X62908285Y-51852363D01*
X62881168Y-51842660D01*
X62855133Y-51830347D01*
X62830430Y-51815540D01*
X62807297Y-51798384D01*
X62785957Y-51779043D01*
X62766616Y-51757703D01*
X62749460Y-51734570D01*
X62734653Y-51709867D01*
X62722340Y-51683832D01*
X62712637Y-51656715D01*
X62705639Y-51628778D01*
X62701413Y-51600289D01*
X62700000Y-51571523D01*
X62700000Y-50808477D01*
X62701413Y-50779711D01*
X62705639Y-50751222D01*
X62712637Y-50723285D01*
X62722340Y-50696168D01*
X62734653Y-50670133D01*
X62749460Y-50645430D01*
X62766616Y-50622297D01*
X62785957Y-50600957D01*
X62807297Y-50581616D01*
X62830430Y-50564460D01*
X62855133Y-50549653D01*
X62881168Y-50537340D01*
X62908285Y-50527637D01*
X62936222Y-50520639D01*
X62964711Y-50516413D01*
X62993477Y-50515000D01*
X64006523Y-50515000D01*
X64035289Y-50516413D01*
X64035289Y-50516413D01*
G37*
D14*
X63500000Y-51190000D03*
D13*
G36*
X64035289Y-48466413D02*
X64063778Y-48470639D01*
X64091715Y-48477637D01*
X64118832Y-48487340D01*
X64144867Y-48499653D01*
X64169570Y-48514460D01*
X64192703Y-48531616D01*
X64214043Y-48550957D01*
X64233384Y-48572297D01*
X64250540Y-48595430D01*
X64265347Y-48620133D01*
X64277660Y-48646168D01*
X64287363Y-48673285D01*
X64294361Y-48701222D01*
X64298587Y-48729711D01*
X64300000Y-48758477D01*
X64300000Y-49521523D01*
X64298587Y-49550289D01*
X64294361Y-49578778D01*
X64287363Y-49606715D01*
X64277660Y-49633832D01*
X64265347Y-49659867D01*
X64250540Y-49684570D01*
X64233384Y-49707703D01*
X64214043Y-49729043D01*
X64192703Y-49748384D01*
X64169570Y-49765540D01*
X64144867Y-49780347D01*
X64118832Y-49792660D01*
X64091715Y-49802363D01*
X64063778Y-49809361D01*
X64035289Y-49813587D01*
X64006523Y-49815000D01*
X62993477Y-49815000D01*
X62964711Y-49813587D01*
X62936222Y-49809361D01*
X62908285Y-49802363D01*
X62881168Y-49792660D01*
X62855133Y-49780347D01*
X62830430Y-49765540D01*
X62807297Y-49748384D01*
X62785957Y-49729043D01*
X62766616Y-49707703D01*
X62749460Y-49684570D01*
X62734653Y-49659867D01*
X62722340Y-49633832D01*
X62712637Y-49606715D01*
X62705639Y-49578778D01*
X62701413Y-49550289D01*
X62700000Y-49521523D01*
X62700000Y-48758477D01*
X62701413Y-48729711D01*
X62705639Y-48701222D01*
X62712637Y-48673285D01*
X62722340Y-48646168D01*
X62734653Y-48620133D01*
X62749460Y-48595430D01*
X62766616Y-48572297D01*
X62785957Y-48550957D01*
X62807297Y-48531616D01*
X62830430Y-48514460D01*
X62855133Y-48499653D01*
X62881168Y-48487340D01*
X62908285Y-48477637D01*
X62936222Y-48470639D01*
X62964711Y-48466413D01*
X62993477Y-48465000D01*
X64006523Y-48465000D01*
X64035289Y-48466413D01*
X64035289Y-48466413D01*
G37*
D14*
X63500000Y-49140000D03*
G04 #@! TD*
D12*
G04 #@! TO.C,J2*
X101600000Y-38100000D03*
D16*
X99060000Y-38100000D03*
X96520000Y-38100000D03*
X93980000Y-38100000D03*
X91440000Y-38100000D03*
X88900000Y-38100000D03*
X86360000Y-38100000D03*
X83820000Y-38100000D03*
G04 #@! TD*
D13*
G04 #@! TO.C,R3*
G36*
X64035289Y-42116413D02*
X64063778Y-42120639D01*
X64091715Y-42127637D01*
X64118832Y-42137340D01*
X64144867Y-42149653D01*
X64169570Y-42164460D01*
X64192703Y-42181616D01*
X64214043Y-42200957D01*
X64233384Y-42222297D01*
X64250540Y-42245430D01*
X64265347Y-42270133D01*
X64277660Y-42296168D01*
X64287363Y-42323285D01*
X64294361Y-42351222D01*
X64298587Y-42379711D01*
X64300000Y-42408477D01*
X64300000Y-43171523D01*
X64298587Y-43200289D01*
X64294361Y-43228778D01*
X64287363Y-43256715D01*
X64277660Y-43283832D01*
X64265347Y-43309867D01*
X64250540Y-43334570D01*
X64233384Y-43357703D01*
X64214043Y-43379043D01*
X64192703Y-43398384D01*
X64169570Y-43415540D01*
X64144867Y-43430347D01*
X64118832Y-43442660D01*
X64091715Y-43452363D01*
X64063778Y-43459361D01*
X64035289Y-43463587D01*
X64006523Y-43465000D01*
X62993477Y-43465000D01*
X62964711Y-43463587D01*
X62936222Y-43459361D01*
X62908285Y-43452363D01*
X62881168Y-43442660D01*
X62855133Y-43430347D01*
X62830430Y-43415540D01*
X62807297Y-43398384D01*
X62785957Y-43379043D01*
X62766616Y-43357703D01*
X62749460Y-43334570D01*
X62734653Y-43309867D01*
X62722340Y-43283832D01*
X62712637Y-43256715D01*
X62705639Y-43228778D01*
X62701413Y-43200289D01*
X62700000Y-43171523D01*
X62700000Y-42408477D01*
X62701413Y-42379711D01*
X62705639Y-42351222D01*
X62712637Y-42323285D01*
X62722340Y-42296168D01*
X62734653Y-42270133D01*
X62749460Y-42245430D01*
X62766616Y-42222297D01*
X62785957Y-42200957D01*
X62807297Y-42181616D01*
X62830430Y-42164460D01*
X62855133Y-42149653D01*
X62881168Y-42137340D01*
X62908285Y-42127637D01*
X62936222Y-42120639D01*
X62964711Y-42116413D01*
X62993477Y-42115000D01*
X64006523Y-42115000D01*
X64035289Y-42116413D01*
X64035289Y-42116413D01*
G37*
D14*
X63500000Y-42790000D03*
D13*
G36*
X64035289Y-44166413D02*
X64063778Y-44170639D01*
X64091715Y-44177637D01*
X64118832Y-44187340D01*
X64144867Y-44199653D01*
X64169570Y-44214460D01*
X64192703Y-44231616D01*
X64214043Y-44250957D01*
X64233384Y-44272297D01*
X64250540Y-44295430D01*
X64265347Y-44320133D01*
X64277660Y-44346168D01*
X64287363Y-44373285D01*
X64294361Y-44401222D01*
X64298587Y-44429711D01*
X64300000Y-44458477D01*
X64300000Y-45221523D01*
X64298587Y-45250289D01*
X64294361Y-45278778D01*
X64287363Y-45306715D01*
X64277660Y-45333832D01*
X64265347Y-45359867D01*
X64250540Y-45384570D01*
X64233384Y-45407703D01*
X64214043Y-45429043D01*
X64192703Y-45448384D01*
X64169570Y-45465540D01*
X64144867Y-45480347D01*
X64118832Y-45492660D01*
X64091715Y-45502363D01*
X64063778Y-45509361D01*
X64035289Y-45513587D01*
X64006523Y-45515000D01*
X62993477Y-45515000D01*
X62964711Y-45513587D01*
X62936222Y-45509361D01*
X62908285Y-45502363D01*
X62881168Y-45492660D01*
X62855133Y-45480347D01*
X62830430Y-45465540D01*
X62807297Y-45448384D01*
X62785957Y-45429043D01*
X62766616Y-45407703D01*
X62749460Y-45384570D01*
X62734653Y-45359867D01*
X62722340Y-45333832D01*
X62712637Y-45306715D01*
X62705639Y-45278778D01*
X62701413Y-45250289D01*
X62700000Y-45221523D01*
X62700000Y-44458477D01*
X62701413Y-44429711D01*
X62705639Y-44401222D01*
X62712637Y-44373285D01*
X62722340Y-44346168D01*
X62734653Y-44320133D01*
X62749460Y-44295430D01*
X62766616Y-44272297D01*
X62785957Y-44250957D01*
X62807297Y-44231616D01*
X62830430Y-44214460D01*
X62855133Y-44199653D01*
X62881168Y-44187340D01*
X62908285Y-44177637D01*
X62936222Y-44170639D01*
X62964711Y-44166413D01*
X62993477Y-44165000D01*
X64006523Y-44165000D01*
X64035289Y-44166413D01*
X64035289Y-44166413D01*
G37*
D14*
X63500000Y-44840000D03*
G04 #@! TD*
D12*
G04 #@! TO.C,JP1*
X63500000Y-38100000D03*
D16*
X66040000Y-38100000D03*
X68580000Y-38100000D03*
G04 #@! TD*
D11*
G04 #@! TO.C,U3*
X91440000Y-49530000D03*
D10*
X93980000Y-49530000D03*
X96520000Y-49530000D03*
X99060000Y-49530000D03*
X101600000Y-49530000D03*
X101600000Y-41910000D03*
X99060000Y-41910000D03*
X96520000Y-41910000D03*
X93980000Y-41910000D03*
X91440000Y-41910000D03*
G04 #@! TD*
M02*
