G04 #@! TF.GenerationSoftware,KiCad,Pcbnew,(5.0.0)*
G04 #@! TF.CreationDate,2019-07-22T19:17:55-04:00*
G04 #@! TF.ProjectId,7segment,377365676D656E742E6B696361645F70,rev?*
G04 #@! TF.SameCoordinates,Original*
G04 #@! TF.FileFunction,Soldermask,Top*
G04 #@! TF.FilePolarity,Negative*
%FSLAX46Y46*%
G04 Gerber Fmt 4.6, Leading zero omitted, Abs format (unit mm)*
G04 Created by KiCad (PCBNEW (5.0.0)) date 07/22/19 19:17:55*
%MOMM*%
%LPD*%
G01*
G04 APERTURE LIST*
%ADD10R,1.940000X1.940000*%
%ADD11O,1.940000X1.940000*%
%ADD12C,1.840000*%
%ADD13R,1.840000X1.840000*%
%ADD14R,1.840000X0.790000*%
%ADD15R,0.790000X1.840000*%
G04 APERTURE END LIST*
D10*
G04 #@! TO.C,J4*
X81280000Y-55880000D03*
D11*
X78740000Y-55880000D03*
X76200000Y-55880000D03*
X73660000Y-55880000D03*
X71120000Y-55880000D03*
X68580000Y-55880000D03*
X66040000Y-55880000D03*
X63500000Y-55880000D03*
G04 #@! TD*
D10*
G04 #@! TO.C,J3*
X86360000Y-55880000D03*
G04 #@! TD*
G04 #@! TO.C,J1*
X63500000Y-38100000D03*
G04 #@! TD*
D12*
G04 #@! TO.C,U1*
X76200000Y-43180000D03*
X78740000Y-43180000D03*
X81280000Y-43180000D03*
X83820000Y-43180000D03*
X86360000Y-43180000D03*
X86360000Y-50800000D03*
X83820000Y-50800000D03*
X81280000Y-50800000D03*
X78740000Y-50800000D03*
D13*
X76200000Y-50800000D03*
G04 #@! TD*
D10*
G04 #@! TO.C,J2*
X86360000Y-38100000D03*
D11*
X83820000Y-38100000D03*
X81280000Y-38100000D03*
X78740000Y-38100000D03*
X76200000Y-38100000D03*
X73660000Y-38100000D03*
X71120000Y-38100000D03*
X68580000Y-38100000D03*
G04 #@! TD*
D14*
G04 #@! TO.C,U2*
X61790000Y-43555000D03*
X61790000Y-44355000D03*
X61790000Y-45155000D03*
X61790000Y-45955000D03*
X61790000Y-46755000D03*
X61790000Y-47555000D03*
X61790000Y-48355000D03*
X61790000Y-49155000D03*
D15*
X63240000Y-50605000D03*
X64040000Y-50605000D03*
X64840000Y-50605000D03*
X65640000Y-50605000D03*
X66440000Y-50605000D03*
X67240000Y-50605000D03*
X68040000Y-50605000D03*
X68840000Y-50605000D03*
D14*
X70290000Y-49155000D03*
X70290000Y-48355000D03*
X70290000Y-47555000D03*
X70290000Y-46755000D03*
X70290000Y-45955000D03*
X70290000Y-45155000D03*
X70290000Y-44355000D03*
X70290000Y-43555000D03*
D15*
X68840000Y-42105000D03*
X68040000Y-42105000D03*
X67240000Y-42105000D03*
X66440000Y-42105000D03*
X65640000Y-42105000D03*
X64840000Y-42105000D03*
X64040000Y-42105000D03*
X63240000Y-42105000D03*
G04 #@! TD*
M02*
