G04 #@! TF.GenerationSoftware,KiCad,Pcbnew,(5.0.0)*
G04 #@! TF.CreationDate,2019-08-19T15:41:53-04:00*
G04 #@! TF.ProjectId,7segment,377365676D656E742E6B696361645F70,B*
G04 #@! TF.SameCoordinates,Original*
G04 #@! TF.FileFunction,Copper,L2,Bot,Signal*
G04 #@! TF.FilePolarity,Positive*
%FSLAX46Y46*%
G04 Gerber Fmt 4.6, Leading zero omitted, Abs format (unit mm)*
G04 Created by KiCad (PCBNEW (5.0.0)) date 08/19/19 15:41:53*
%MOMM*%
%LPD*%
G01*
G04 APERTURE LIST*
G04 #@! TA.AperFunction,ComponentPad*
%ADD10C,1.600000*%
G04 #@! TD*
G04 #@! TA.AperFunction,ComponentPad*
%ADD11R,1.600000X1.600000*%
G04 #@! TD*
G04 #@! TA.AperFunction,ComponentPad*
%ADD12R,1.700000X1.700000*%
G04 #@! TD*
G04 #@! TA.AperFunction,Conductor*
%ADD13C,0.100000*%
G04 #@! TD*
G04 #@! TA.AperFunction,SMDPad,CuDef*
%ADD14C,1.150000*%
G04 #@! TD*
G04 #@! TA.AperFunction,SMDPad,CuDef*
%ADD15R,0.900000X1.200000*%
G04 #@! TD*
G04 #@! TA.AperFunction,ComponentPad*
%ADD16O,1.700000X1.700000*%
G04 #@! TD*
G04 #@! TA.AperFunction,SMDPad,CuDef*
%ADD17R,0.500000X0.800000*%
G04 #@! TD*
G04 #@! TA.AperFunction,SMDPad,CuDef*
%ADD18R,0.400000X0.800000*%
G04 #@! TD*
G04 #@! TA.AperFunction,ViaPad*
%ADD19C,0.800000*%
G04 #@! TD*
G04 #@! TA.AperFunction,ViaPad*
%ADD20C,0.600000*%
G04 #@! TD*
G04 #@! TA.AperFunction,Conductor*
%ADD21C,0.200000*%
G04 #@! TD*
G04 #@! TA.AperFunction,Conductor*
%ADD22C,0.150000*%
G04 #@! TD*
G04 APERTURE END LIST*
D10*
G04 #@! TO.P,U1,10*
G04 #@! TO.N,SEG_F*
X76200000Y-41910000D03*
G04 #@! TO.P,U1,9*
G04 #@! TO.N,D0*
X78740000Y-41910000D03*
G04 #@! TO.P,U1,8*
G04 #@! TO.N,SEG_B*
X81280000Y-41910000D03*
G04 #@! TO.P,U1,7*
G04 #@! TO.N,SEG_A*
X83820000Y-41910000D03*
G04 #@! TO.P,U1,6*
G04 #@! TO.N,D1*
X86360000Y-41910000D03*
G04 #@! TO.P,U1,5*
G04 #@! TO.N,SEG_DP*
X86360000Y-49530000D03*
G04 #@! TO.P,U1,4*
G04 #@! TO.N,SEG_G*
X83820000Y-49530000D03*
G04 #@! TO.P,U1,3*
G04 #@! TO.N,SEG_C*
X81280000Y-49530000D03*
G04 #@! TO.P,U1,2*
G04 #@! TO.N,SEG_D*
X78740000Y-49530000D03*
D11*
G04 #@! TO.P,U1,1*
G04 #@! TO.N,SEG_E*
X76200000Y-49530000D03*
G04 #@! TD*
D12*
G04 #@! TO.P,J5,1*
G04 #@! TO.N,~RESET*
X71120000Y-40640000D03*
G04 #@! TD*
D13*
G04 #@! TO.N,GND*
G04 #@! TO.C,C3*
G36*
X71594505Y-50371204D02*
X71618773Y-50374804D01*
X71642572Y-50380765D01*
X71665671Y-50389030D01*
X71687850Y-50399520D01*
X71708893Y-50412132D01*
X71728599Y-50426747D01*
X71746777Y-50443223D01*
X71763253Y-50461401D01*
X71777868Y-50481107D01*
X71790480Y-50502150D01*
X71800970Y-50524329D01*
X71809235Y-50547428D01*
X71815196Y-50571227D01*
X71818796Y-50595495D01*
X71820000Y-50619999D01*
X71820000Y-51270001D01*
X71818796Y-51294505D01*
X71815196Y-51318773D01*
X71809235Y-51342572D01*
X71800970Y-51365671D01*
X71790480Y-51387850D01*
X71777868Y-51408893D01*
X71763253Y-51428599D01*
X71746777Y-51446777D01*
X71728599Y-51463253D01*
X71708893Y-51477868D01*
X71687850Y-51490480D01*
X71665671Y-51500970D01*
X71642572Y-51509235D01*
X71618773Y-51515196D01*
X71594505Y-51518796D01*
X71570001Y-51520000D01*
X70669999Y-51520000D01*
X70645495Y-51518796D01*
X70621227Y-51515196D01*
X70597428Y-51509235D01*
X70574329Y-51500970D01*
X70552150Y-51490480D01*
X70531107Y-51477868D01*
X70511401Y-51463253D01*
X70493223Y-51446777D01*
X70476747Y-51428599D01*
X70462132Y-51408893D01*
X70449520Y-51387850D01*
X70439030Y-51365671D01*
X70430765Y-51342572D01*
X70424804Y-51318773D01*
X70421204Y-51294505D01*
X70420000Y-51270001D01*
X70420000Y-50619999D01*
X70421204Y-50595495D01*
X70424804Y-50571227D01*
X70430765Y-50547428D01*
X70439030Y-50524329D01*
X70449520Y-50502150D01*
X70462132Y-50481107D01*
X70476747Y-50461401D01*
X70493223Y-50443223D01*
X70511401Y-50426747D01*
X70531107Y-50412132D01*
X70552150Y-50399520D01*
X70574329Y-50389030D01*
X70597428Y-50380765D01*
X70621227Y-50374804D01*
X70645495Y-50371204D01*
X70669999Y-50370000D01*
X71570001Y-50370000D01*
X71594505Y-50371204D01*
X71594505Y-50371204D01*
G37*
D14*
G04 #@! TD*
G04 #@! TO.P,C3,1*
G04 #@! TO.N,GND*
X71120000Y-50945000D03*
D13*
G04 #@! TO.N,Net-(C3-Pad2)*
G04 #@! TO.C,C3*
G36*
X71594505Y-48321204D02*
X71618773Y-48324804D01*
X71642572Y-48330765D01*
X71665671Y-48339030D01*
X71687850Y-48349520D01*
X71708893Y-48362132D01*
X71728599Y-48376747D01*
X71746777Y-48393223D01*
X71763253Y-48411401D01*
X71777868Y-48431107D01*
X71790480Y-48452150D01*
X71800970Y-48474329D01*
X71809235Y-48497428D01*
X71815196Y-48521227D01*
X71818796Y-48545495D01*
X71820000Y-48569999D01*
X71820000Y-49220001D01*
X71818796Y-49244505D01*
X71815196Y-49268773D01*
X71809235Y-49292572D01*
X71800970Y-49315671D01*
X71790480Y-49337850D01*
X71777868Y-49358893D01*
X71763253Y-49378599D01*
X71746777Y-49396777D01*
X71728599Y-49413253D01*
X71708893Y-49427868D01*
X71687850Y-49440480D01*
X71665671Y-49450970D01*
X71642572Y-49459235D01*
X71618773Y-49465196D01*
X71594505Y-49468796D01*
X71570001Y-49470000D01*
X70669999Y-49470000D01*
X70645495Y-49468796D01*
X70621227Y-49465196D01*
X70597428Y-49459235D01*
X70574329Y-49450970D01*
X70552150Y-49440480D01*
X70531107Y-49427868D01*
X70511401Y-49413253D01*
X70493223Y-49396777D01*
X70476747Y-49378599D01*
X70462132Y-49358893D01*
X70449520Y-49337850D01*
X70439030Y-49315671D01*
X70430765Y-49292572D01*
X70424804Y-49268773D01*
X70421204Y-49244505D01*
X70420000Y-49220001D01*
X70420000Y-48569999D01*
X70421204Y-48545495D01*
X70424804Y-48521227D01*
X70430765Y-48497428D01*
X70439030Y-48474329D01*
X70449520Y-48452150D01*
X70462132Y-48431107D01*
X70476747Y-48411401D01*
X70493223Y-48393223D01*
X70511401Y-48376747D01*
X70531107Y-48362132D01*
X70552150Y-48349520D01*
X70574329Y-48339030D01*
X70597428Y-48330765D01*
X70621227Y-48324804D01*
X70645495Y-48321204D01*
X70669999Y-48320000D01*
X71570001Y-48320000D01*
X71594505Y-48321204D01*
X71594505Y-48321204D01*
G37*
D14*
G04 #@! TD*
G04 #@! TO.P,C3,2*
G04 #@! TO.N,Net-(C3-Pad2)*
X71120000Y-48895000D03*
D15*
G04 #@! TO.P,D1,1*
G04 #@! TO.N,VCC*
X73153000Y-38100000D03*
G04 #@! TO.P,D1,2*
G04 #@! TO.N,/VIN*
X76453000Y-38100000D03*
G04 #@! TD*
D12*
G04 #@! TO.P,JP2,1*
G04 #@! TO.N,VCC*
X63500000Y-40640000D03*
D16*
G04 #@! TO.P,JP2,2*
G04 #@! TO.N,SEL_LATCHMODE*
X66040000Y-40640000D03*
G04 #@! TO.P,JP2,3*
G04 #@! TO.N,GND*
X68580000Y-40640000D03*
G04 #@! TD*
D17*
G04 #@! TO.P,RN3,1*
G04 #@! TO.N,SEL_LATCHMODE*
X67380000Y-42915000D03*
D18*
G04 #@! TO.P,RN3,3*
G04 #@! TO.N,SEL_NUMBERBASE*
X68980000Y-42915000D03*
G04 #@! TO.P,RN3,2*
G04 #@! TO.N,SEL_LATCHMODE*
X68180000Y-42915000D03*
D17*
G04 #@! TO.P,RN3,4*
G04 #@! TO.N,SEL_NUMBERBASE*
X69780000Y-42915000D03*
D18*
G04 #@! TO.P,RN3,7*
G04 #@! TO.N,VCC*
X68180000Y-44715000D03*
D17*
G04 #@! TO.P,RN3,8*
G04 #@! TO.N,GND*
X67380000Y-44715000D03*
D18*
G04 #@! TO.P,RN3,6*
X68980000Y-44715000D03*
D17*
G04 #@! TO.P,RN3,5*
G04 #@! TO.N,VCC*
X69780000Y-44715000D03*
G04 #@! TD*
D12*
G04 #@! TO.P,J6,1*
G04 #@! TO.N,Net-(J6-Pad1)*
X81280000Y-38100000D03*
G04 #@! TD*
G04 #@! TO.P,J7,1*
G04 #@! TO.N,Net-(J6-Pad1)*
X81280000Y-53340000D03*
G04 #@! TD*
D13*
G04 #@! TO.N,VCC*
G04 #@! TO.C,C1*
G36*
X65879505Y-50616204D02*
X65903773Y-50619804D01*
X65927572Y-50625765D01*
X65950671Y-50634030D01*
X65972850Y-50644520D01*
X65993893Y-50657132D01*
X66013599Y-50671747D01*
X66031777Y-50688223D01*
X66048253Y-50706401D01*
X66062868Y-50726107D01*
X66075480Y-50747150D01*
X66085970Y-50769329D01*
X66094235Y-50792428D01*
X66100196Y-50816227D01*
X66103796Y-50840495D01*
X66105000Y-50864999D01*
X66105000Y-51515001D01*
X66103796Y-51539505D01*
X66100196Y-51563773D01*
X66094235Y-51587572D01*
X66085970Y-51610671D01*
X66075480Y-51632850D01*
X66062868Y-51653893D01*
X66048253Y-51673599D01*
X66031777Y-51691777D01*
X66013599Y-51708253D01*
X65993893Y-51722868D01*
X65972850Y-51735480D01*
X65950671Y-51745970D01*
X65927572Y-51754235D01*
X65903773Y-51760196D01*
X65879505Y-51763796D01*
X65855001Y-51765000D01*
X64954999Y-51765000D01*
X64930495Y-51763796D01*
X64906227Y-51760196D01*
X64882428Y-51754235D01*
X64859329Y-51745970D01*
X64837150Y-51735480D01*
X64816107Y-51722868D01*
X64796401Y-51708253D01*
X64778223Y-51691777D01*
X64761747Y-51673599D01*
X64747132Y-51653893D01*
X64734520Y-51632850D01*
X64724030Y-51610671D01*
X64715765Y-51587572D01*
X64709804Y-51563773D01*
X64706204Y-51539505D01*
X64705000Y-51515001D01*
X64705000Y-50864999D01*
X64706204Y-50840495D01*
X64709804Y-50816227D01*
X64715765Y-50792428D01*
X64724030Y-50769329D01*
X64734520Y-50747150D01*
X64747132Y-50726107D01*
X64761747Y-50706401D01*
X64778223Y-50688223D01*
X64796401Y-50671747D01*
X64816107Y-50657132D01*
X64837150Y-50644520D01*
X64859329Y-50634030D01*
X64882428Y-50625765D01*
X64906227Y-50619804D01*
X64930495Y-50616204D01*
X64954999Y-50615000D01*
X65855001Y-50615000D01*
X65879505Y-50616204D01*
X65879505Y-50616204D01*
G37*
D14*
G04 #@! TD*
G04 #@! TO.P,C1,1*
G04 #@! TO.N,VCC*
X65405000Y-51190000D03*
D13*
G04 #@! TO.N,GND*
G04 #@! TO.C,C1*
G36*
X65879505Y-48566204D02*
X65903773Y-48569804D01*
X65927572Y-48575765D01*
X65950671Y-48584030D01*
X65972850Y-48594520D01*
X65993893Y-48607132D01*
X66013599Y-48621747D01*
X66031777Y-48638223D01*
X66048253Y-48656401D01*
X66062868Y-48676107D01*
X66075480Y-48697150D01*
X66085970Y-48719329D01*
X66094235Y-48742428D01*
X66100196Y-48766227D01*
X66103796Y-48790495D01*
X66105000Y-48814999D01*
X66105000Y-49465001D01*
X66103796Y-49489505D01*
X66100196Y-49513773D01*
X66094235Y-49537572D01*
X66085970Y-49560671D01*
X66075480Y-49582850D01*
X66062868Y-49603893D01*
X66048253Y-49623599D01*
X66031777Y-49641777D01*
X66013599Y-49658253D01*
X65993893Y-49672868D01*
X65972850Y-49685480D01*
X65950671Y-49695970D01*
X65927572Y-49704235D01*
X65903773Y-49710196D01*
X65879505Y-49713796D01*
X65855001Y-49715000D01*
X64954999Y-49715000D01*
X64930495Y-49713796D01*
X64906227Y-49710196D01*
X64882428Y-49704235D01*
X64859329Y-49695970D01*
X64837150Y-49685480D01*
X64816107Y-49672868D01*
X64796401Y-49658253D01*
X64778223Y-49641777D01*
X64761747Y-49623599D01*
X64747132Y-49603893D01*
X64734520Y-49582850D01*
X64724030Y-49560671D01*
X64715765Y-49537572D01*
X64709804Y-49513773D01*
X64706204Y-49489505D01*
X64705000Y-49465001D01*
X64705000Y-48814999D01*
X64706204Y-48790495D01*
X64709804Y-48766227D01*
X64715765Y-48742428D01*
X64724030Y-48719329D01*
X64734520Y-48697150D01*
X64747132Y-48676107D01*
X64761747Y-48656401D01*
X64778223Y-48638223D01*
X64796401Y-48621747D01*
X64816107Y-48607132D01*
X64837150Y-48594520D01*
X64859329Y-48584030D01*
X64882428Y-48575765D01*
X64906227Y-48569804D01*
X64930495Y-48566204D01*
X64954999Y-48565000D01*
X65855001Y-48565000D01*
X65879505Y-48566204D01*
X65879505Y-48566204D01*
G37*
D14*
G04 #@! TD*
G04 #@! TO.P,C1,2*
G04 #@! TO.N,GND*
X65405000Y-49140000D03*
D12*
G04 #@! TO.P,J4,1*
G04 #@! TO.N,/IN0*
X101600000Y-53340000D03*
D16*
G04 #@! TO.P,J4,2*
G04 #@! TO.N,/IN1*
X99060000Y-53340000D03*
G04 #@! TO.P,J4,3*
G04 #@! TO.N,/IN2*
X96520000Y-53340000D03*
G04 #@! TO.P,J4,4*
G04 #@! TO.N,MOSI*
X93980000Y-53340000D03*
G04 #@! TO.P,J4,5*
G04 #@! TO.N,MISO*
X91440000Y-53340000D03*
G04 #@! TO.P,J4,6*
G04 #@! TO.N,SCK*
X88900000Y-53340000D03*
G04 #@! TO.P,J4,7*
G04 #@! TO.N,/IN6*
X86360000Y-53340000D03*
G04 #@! TO.P,J4,8*
G04 #@! TO.N,/IN7*
X83820000Y-53340000D03*
G04 #@! TD*
D12*
G04 #@! TO.P,J3,1*
G04 #@! TO.N,GND*
X78740000Y-53340000D03*
G04 #@! TD*
G04 #@! TO.P,J1,1*
G04 #@! TO.N,/VIN*
X78740000Y-38100000D03*
G04 #@! TD*
D13*
G04 #@! TO.N,VCC*
G04 #@! TO.C,C2*
G36*
X63974505Y-50616204D02*
X63998773Y-50619804D01*
X64022572Y-50625765D01*
X64045671Y-50634030D01*
X64067850Y-50644520D01*
X64088893Y-50657132D01*
X64108599Y-50671747D01*
X64126777Y-50688223D01*
X64143253Y-50706401D01*
X64157868Y-50726107D01*
X64170480Y-50747150D01*
X64180970Y-50769329D01*
X64189235Y-50792428D01*
X64195196Y-50816227D01*
X64198796Y-50840495D01*
X64200000Y-50864999D01*
X64200000Y-51515001D01*
X64198796Y-51539505D01*
X64195196Y-51563773D01*
X64189235Y-51587572D01*
X64180970Y-51610671D01*
X64170480Y-51632850D01*
X64157868Y-51653893D01*
X64143253Y-51673599D01*
X64126777Y-51691777D01*
X64108599Y-51708253D01*
X64088893Y-51722868D01*
X64067850Y-51735480D01*
X64045671Y-51745970D01*
X64022572Y-51754235D01*
X63998773Y-51760196D01*
X63974505Y-51763796D01*
X63950001Y-51765000D01*
X63049999Y-51765000D01*
X63025495Y-51763796D01*
X63001227Y-51760196D01*
X62977428Y-51754235D01*
X62954329Y-51745970D01*
X62932150Y-51735480D01*
X62911107Y-51722868D01*
X62891401Y-51708253D01*
X62873223Y-51691777D01*
X62856747Y-51673599D01*
X62842132Y-51653893D01*
X62829520Y-51632850D01*
X62819030Y-51610671D01*
X62810765Y-51587572D01*
X62804804Y-51563773D01*
X62801204Y-51539505D01*
X62800000Y-51515001D01*
X62800000Y-50864999D01*
X62801204Y-50840495D01*
X62804804Y-50816227D01*
X62810765Y-50792428D01*
X62819030Y-50769329D01*
X62829520Y-50747150D01*
X62842132Y-50726107D01*
X62856747Y-50706401D01*
X62873223Y-50688223D01*
X62891401Y-50671747D01*
X62911107Y-50657132D01*
X62932150Y-50644520D01*
X62954329Y-50634030D01*
X62977428Y-50625765D01*
X63001227Y-50619804D01*
X63025495Y-50616204D01*
X63049999Y-50615000D01*
X63950001Y-50615000D01*
X63974505Y-50616204D01*
X63974505Y-50616204D01*
G37*
D14*
G04 #@! TD*
G04 #@! TO.P,C2,1*
G04 #@! TO.N,VCC*
X63500000Y-51190000D03*
D13*
G04 #@! TO.N,GND*
G04 #@! TO.C,C2*
G36*
X63974505Y-48566204D02*
X63998773Y-48569804D01*
X64022572Y-48575765D01*
X64045671Y-48584030D01*
X64067850Y-48594520D01*
X64088893Y-48607132D01*
X64108599Y-48621747D01*
X64126777Y-48638223D01*
X64143253Y-48656401D01*
X64157868Y-48676107D01*
X64170480Y-48697150D01*
X64180970Y-48719329D01*
X64189235Y-48742428D01*
X64195196Y-48766227D01*
X64198796Y-48790495D01*
X64200000Y-48814999D01*
X64200000Y-49465001D01*
X64198796Y-49489505D01*
X64195196Y-49513773D01*
X64189235Y-49537572D01*
X64180970Y-49560671D01*
X64170480Y-49582850D01*
X64157868Y-49603893D01*
X64143253Y-49623599D01*
X64126777Y-49641777D01*
X64108599Y-49658253D01*
X64088893Y-49672868D01*
X64067850Y-49685480D01*
X64045671Y-49695970D01*
X64022572Y-49704235D01*
X63998773Y-49710196D01*
X63974505Y-49713796D01*
X63950001Y-49715000D01*
X63049999Y-49715000D01*
X63025495Y-49713796D01*
X63001227Y-49710196D01*
X62977428Y-49704235D01*
X62954329Y-49695970D01*
X62932150Y-49685480D01*
X62911107Y-49672868D01*
X62891401Y-49658253D01*
X62873223Y-49641777D01*
X62856747Y-49623599D01*
X62842132Y-49603893D01*
X62829520Y-49582850D01*
X62819030Y-49560671D01*
X62810765Y-49537572D01*
X62804804Y-49513773D01*
X62801204Y-49489505D01*
X62800000Y-49465001D01*
X62800000Y-48814999D01*
X62801204Y-48790495D01*
X62804804Y-48766227D01*
X62810765Y-48742428D01*
X62819030Y-48719329D01*
X62829520Y-48697150D01*
X62842132Y-48676107D01*
X62856747Y-48656401D01*
X62873223Y-48638223D01*
X62891401Y-48621747D01*
X62911107Y-48607132D01*
X62932150Y-48594520D01*
X62954329Y-48584030D01*
X62977428Y-48575765D01*
X63001227Y-48569804D01*
X63025495Y-48566204D01*
X63049999Y-48565000D01*
X63950001Y-48565000D01*
X63974505Y-48566204D01*
X63974505Y-48566204D01*
G37*
D14*
G04 #@! TD*
G04 #@! TO.P,C2,2*
G04 #@! TO.N,GND*
X63500000Y-49140000D03*
D12*
G04 #@! TO.P,J2,1*
G04 #@! TO.N,/IN0*
X101600000Y-38100000D03*
D16*
G04 #@! TO.P,J2,2*
G04 #@! TO.N,/IN1*
X99060000Y-38100000D03*
G04 #@! TO.P,J2,3*
G04 #@! TO.N,/IN2*
X96520000Y-38100000D03*
G04 #@! TO.P,J2,4*
G04 #@! TO.N,MOSI*
X93980000Y-38100000D03*
G04 #@! TO.P,J2,5*
G04 #@! TO.N,MISO*
X91440000Y-38100000D03*
G04 #@! TO.P,J2,6*
G04 #@! TO.N,SCK*
X88900000Y-38100000D03*
G04 #@! TO.P,J2,7*
G04 #@! TO.N,/IN6*
X86360000Y-38100000D03*
G04 #@! TO.P,J2,8*
G04 #@! TO.N,/IN7*
X83820000Y-38100000D03*
G04 #@! TD*
D13*
G04 #@! TO.N,VCC*
G04 #@! TO.C,R3*
G36*
X63974505Y-42216204D02*
X63998773Y-42219804D01*
X64022572Y-42225765D01*
X64045671Y-42234030D01*
X64067850Y-42244520D01*
X64088893Y-42257132D01*
X64108599Y-42271747D01*
X64126777Y-42288223D01*
X64143253Y-42306401D01*
X64157868Y-42326107D01*
X64170480Y-42347150D01*
X64180970Y-42369329D01*
X64189235Y-42392428D01*
X64195196Y-42416227D01*
X64198796Y-42440495D01*
X64200000Y-42464999D01*
X64200000Y-43115001D01*
X64198796Y-43139505D01*
X64195196Y-43163773D01*
X64189235Y-43187572D01*
X64180970Y-43210671D01*
X64170480Y-43232850D01*
X64157868Y-43253893D01*
X64143253Y-43273599D01*
X64126777Y-43291777D01*
X64108599Y-43308253D01*
X64088893Y-43322868D01*
X64067850Y-43335480D01*
X64045671Y-43345970D01*
X64022572Y-43354235D01*
X63998773Y-43360196D01*
X63974505Y-43363796D01*
X63950001Y-43365000D01*
X63049999Y-43365000D01*
X63025495Y-43363796D01*
X63001227Y-43360196D01*
X62977428Y-43354235D01*
X62954329Y-43345970D01*
X62932150Y-43335480D01*
X62911107Y-43322868D01*
X62891401Y-43308253D01*
X62873223Y-43291777D01*
X62856747Y-43273599D01*
X62842132Y-43253893D01*
X62829520Y-43232850D01*
X62819030Y-43210671D01*
X62810765Y-43187572D01*
X62804804Y-43163773D01*
X62801204Y-43139505D01*
X62800000Y-43115001D01*
X62800000Y-42464999D01*
X62801204Y-42440495D01*
X62804804Y-42416227D01*
X62810765Y-42392428D01*
X62819030Y-42369329D01*
X62829520Y-42347150D01*
X62842132Y-42326107D01*
X62856747Y-42306401D01*
X62873223Y-42288223D01*
X62891401Y-42271747D01*
X62911107Y-42257132D01*
X62932150Y-42244520D01*
X62954329Y-42234030D01*
X62977428Y-42225765D01*
X63001227Y-42219804D01*
X63025495Y-42216204D01*
X63049999Y-42215000D01*
X63950001Y-42215000D01*
X63974505Y-42216204D01*
X63974505Y-42216204D01*
G37*
D14*
G04 #@! TD*
G04 #@! TO.P,R3,1*
G04 #@! TO.N,VCC*
X63500000Y-42790000D03*
D13*
G04 #@! TO.N,~RESET*
G04 #@! TO.C,R3*
G36*
X63974505Y-44266204D02*
X63998773Y-44269804D01*
X64022572Y-44275765D01*
X64045671Y-44284030D01*
X64067850Y-44294520D01*
X64088893Y-44307132D01*
X64108599Y-44321747D01*
X64126777Y-44338223D01*
X64143253Y-44356401D01*
X64157868Y-44376107D01*
X64170480Y-44397150D01*
X64180970Y-44419329D01*
X64189235Y-44442428D01*
X64195196Y-44466227D01*
X64198796Y-44490495D01*
X64200000Y-44514999D01*
X64200000Y-45165001D01*
X64198796Y-45189505D01*
X64195196Y-45213773D01*
X64189235Y-45237572D01*
X64180970Y-45260671D01*
X64170480Y-45282850D01*
X64157868Y-45303893D01*
X64143253Y-45323599D01*
X64126777Y-45341777D01*
X64108599Y-45358253D01*
X64088893Y-45372868D01*
X64067850Y-45385480D01*
X64045671Y-45395970D01*
X64022572Y-45404235D01*
X63998773Y-45410196D01*
X63974505Y-45413796D01*
X63950001Y-45415000D01*
X63049999Y-45415000D01*
X63025495Y-45413796D01*
X63001227Y-45410196D01*
X62977428Y-45404235D01*
X62954329Y-45395970D01*
X62932150Y-45385480D01*
X62911107Y-45372868D01*
X62891401Y-45358253D01*
X62873223Y-45341777D01*
X62856747Y-45323599D01*
X62842132Y-45303893D01*
X62829520Y-45282850D01*
X62819030Y-45260671D01*
X62810765Y-45237572D01*
X62804804Y-45213773D01*
X62801204Y-45189505D01*
X62800000Y-45165001D01*
X62800000Y-44514999D01*
X62801204Y-44490495D01*
X62804804Y-44466227D01*
X62810765Y-44442428D01*
X62819030Y-44419329D01*
X62829520Y-44397150D01*
X62842132Y-44376107D01*
X62856747Y-44356401D01*
X62873223Y-44338223D01*
X62891401Y-44321747D01*
X62911107Y-44307132D01*
X62932150Y-44294520D01*
X62954329Y-44284030D01*
X62977428Y-44275765D01*
X63001227Y-44269804D01*
X63025495Y-44266204D01*
X63049999Y-44265000D01*
X63950001Y-44265000D01*
X63974505Y-44266204D01*
X63974505Y-44266204D01*
G37*
D14*
G04 #@! TD*
G04 #@! TO.P,R3,2*
G04 #@! TO.N,~RESET*
X63500000Y-44840000D03*
D12*
G04 #@! TO.P,JP1,1*
G04 #@! TO.N,VCC*
X63500000Y-38100000D03*
D16*
G04 #@! TO.P,JP1,2*
G04 #@! TO.N,SEL_NUMBERBASE*
X66040000Y-38100000D03*
G04 #@! TO.P,JP1,3*
G04 #@! TO.N,GND*
X68580000Y-38100000D03*
G04 #@! TD*
D11*
G04 #@! TO.P,U3,1*
G04 #@! TO.N,SEG_E*
X91440000Y-49530000D03*
D10*
G04 #@! TO.P,U3,2*
G04 #@! TO.N,SEG_D*
X93980000Y-49530000D03*
G04 #@! TO.P,U3,3*
G04 #@! TO.N,SEG_C*
X96520000Y-49530000D03*
G04 #@! TO.P,U3,4*
G04 #@! TO.N,SEG_G*
X99060000Y-49530000D03*
G04 #@! TO.P,U3,5*
G04 #@! TO.N,SEG_DP*
X101600000Y-49530000D03*
G04 #@! TO.P,U3,6*
G04 #@! TO.N,D3*
X101600000Y-41910000D03*
G04 #@! TO.P,U3,7*
G04 #@! TO.N,SEG_A*
X99060000Y-41910000D03*
G04 #@! TO.P,U3,8*
G04 #@! TO.N,SEG_B*
X96520000Y-41910000D03*
G04 #@! TO.P,U3,9*
G04 #@! TO.N,D2*
X93980000Y-41910000D03*
G04 #@! TO.P,U3,10*
G04 #@! TO.N,SEG_F*
X91440000Y-41910000D03*
G04 #@! TD*
D19*
G04 #@! TO.N,VCC*
X66802000Y-51181000D03*
X63373000Y-52578000D03*
X72434551Y-45042559D03*
G04 #@! TO.N,GND*
X61914010Y-48260000D03*
X68199000Y-51244500D03*
X71130207Y-43885954D03*
D20*
X88392000Y-49657000D03*
X83947000Y-51054000D03*
X80010000Y-48006000D03*
X89281000Y-41783000D03*
X86995000Y-44894500D03*
X93535500Y-47371000D03*
X96266000Y-45910500D03*
X81280000Y-51435000D03*
X74246656Y-50993344D03*
G04 #@! TO.N,/IN0*
X75057000Y-52958996D03*
G04 #@! TO.N,~RESET*
X62512510Y-43688000D03*
G04 #@! TO.N,Net-(RN1-Pad1)*
X75593043Y-45720000D03*
X67021010Y-47082010D03*
G04 #@! TO.N,Net-(RN1-Pad3)*
X76835000Y-47752000D03*
X68444556Y-48105627D03*
G04 #@! TO.N,Net-(RN1-Pad2)*
X76343056Y-45720000D03*
X67614182Y-47540992D03*
G04 #@! TO.N,Net-(RN1-Pad4)*
X68671448Y-48820496D03*
X75819000Y-48006000D03*
G04 #@! TO.N,Net-(RN2-Pad8)*
X68199000Y-49403000D03*
X81661000Y-48260000D03*
G04 #@! TO.N,D0*
X71909766Y-43436166D03*
G04 #@! TO.N,D1*
X72269935Y-42778294D03*
G04 #@! TO.N,SEG_D*
X78740000Y-45321990D03*
G04 #@! TO.N,SEG_E*
X82677000Y-44958000D03*
X85729744Y-50655990D03*
G04 #@! TO.N,SEG_F*
X84772500Y-41021002D03*
X85598000Y-47752000D03*
G04 #@! TO.N,SEG_A*
X82296000Y-43036000D03*
G04 #@! TO.N,SEL_LATCHMODE*
X66167000Y-45529500D03*
G04 #@! TO.N,SEL_NUMBERBASE*
X66712724Y-42253284D03*
G04 #@! TO.N,Net-(C3-Pad2)*
X69871459Y-48895000D03*
G04 #@! TD*
D21*
G04 #@! TO.N,VCC*
X65414000Y-51181000D02*
X65405000Y-51190000D01*
X66802000Y-51181000D02*
X65414000Y-51181000D01*
X63373000Y-51317000D02*
X63500000Y-51190000D01*
X63373000Y-52578000D02*
X63373000Y-51317000D01*
X63500000Y-38100000D02*
X63500000Y-40640000D01*
X63500000Y-40640000D02*
X63500000Y-42790000D01*
X69780000Y-45315000D02*
X69780000Y-44715000D01*
X63500000Y-51190000D02*
X62700000Y-51190000D01*
X68331000Y-45466000D02*
X68180000Y-45315000D01*
X69780000Y-45315000D02*
X69629000Y-45466000D01*
X69629000Y-45466000D02*
X68331000Y-45466000D01*
X62274664Y-36599990D02*
X61912500Y-36962154D01*
X71628000Y-38100000D02*
X70127990Y-36599990D01*
X70127990Y-36599990D02*
X62274664Y-36599990D01*
X73153000Y-38100000D02*
X71628000Y-38100000D01*
X62747000Y-51190000D02*
X63500000Y-51190000D01*
X61214000Y-49657000D02*
X62747000Y-51190000D01*
X61214000Y-47879000D02*
X61214000Y-49657000D01*
X61912500Y-47180500D02*
X61214000Y-47879000D01*
X68180000Y-44715000D02*
X68180000Y-45315000D01*
X61912500Y-45113501D02*
X61912500Y-45466000D01*
X61912500Y-45466000D02*
X61912500Y-47180500D01*
X68180000Y-45315000D02*
X67013000Y-46482000D01*
X67013000Y-46482000D02*
X66516408Y-46482000D01*
X66516408Y-46482000D02*
X66421000Y-46577408D01*
X66421000Y-50174000D02*
X65405000Y-51190000D01*
X66405010Y-48133000D02*
X66421000Y-48148990D01*
X66421000Y-48148990D02*
X66421000Y-50174000D01*
X62822176Y-45715010D02*
X63431510Y-45715010D01*
X63431510Y-45715010D02*
X64574510Y-45715010D01*
X65468500Y-46609000D02*
X66421000Y-47561500D01*
X66421000Y-47561500D02*
X66421000Y-48117010D01*
X66421000Y-46577408D02*
X66421000Y-47561500D01*
X65468500Y-46609000D02*
X65595500Y-46736000D01*
X64574510Y-45715010D02*
X65468500Y-46609000D01*
X69780000Y-44715000D02*
X72106992Y-44715000D01*
X72106992Y-44715000D02*
X72434551Y-45042559D01*
X61912500Y-44805334D02*
X62700166Y-45593000D01*
X61912500Y-44069000D02*
X61912500Y-44805334D01*
X62700166Y-45593000D02*
X62822176Y-45715010D01*
X62573166Y-45466000D02*
X62700166Y-45593000D01*
X61912500Y-44069000D02*
X61912500Y-45113501D01*
X61912500Y-36962154D02*
X61912500Y-44069000D01*
X63436500Y-45720000D02*
X63431510Y-45715010D01*
X64389000Y-45720000D02*
X63436500Y-45720000D01*
X64516000Y-45593000D02*
X64389000Y-45720000D01*
X64516000Y-44259500D02*
X64516000Y-45593000D01*
X63500000Y-42790000D02*
X63500000Y-43243500D01*
X63500000Y-43243500D02*
X64516000Y-44259500D01*
G04 #@! TO.N,GND*
X69080001Y-44014999D02*
X68980000Y-44115000D01*
X69870003Y-44014999D02*
X69080001Y-44014999D01*
X70330001Y-43555001D02*
X69870003Y-44014999D01*
X68580000Y-40524998D02*
X70330001Y-42274999D01*
X68580000Y-38100000D02*
X68580000Y-40524998D01*
X68980000Y-44115000D02*
X68980000Y-44715000D01*
X68879999Y-44014999D02*
X68980000Y-44115000D01*
X67480001Y-44014999D02*
X68879999Y-44014999D01*
X67380000Y-44115000D02*
X67480001Y-44014999D01*
X67380000Y-44715000D02*
X67380000Y-44115000D01*
X63500000Y-49140000D02*
X65405000Y-49140000D01*
X70330001Y-42274999D02*
X70330001Y-43053000D01*
X70330001Y-43053000D02*
X70330001Y-43555001D01*
X62620000Y-48260000D02*
X61914010Y-48260000D01*
X63500000Y-49140000D02*
X62620000Y-48260000D01*
X71120000Y-50945000D02*
X68498500Y-50945000D01*
X68498500Y-50945000D02*
X68199000Y-51244500D01*
X70330001Y-43085748D02*
X70730208Y-43485955D01*
X70730208Y-43485955D02*
X71130207Y-43885954D01*
X70330001Y-43053000D02*
X70330001Y-43085748D01*
X71120000Y-50945000D02*
X74198312Y-50945000D01*
X74198312Y-50945000D02*
X74246656Y-50993344D01*
X74546655Y-51293343D02*
X74246656Y-50993344D01*
X76593312Y-53340000D02*
X74546655Y-51293343D01*
X78740000Y-53340000D02*
X76593312Y-53340000D01*
D22*
G04 #@! TO.N,/IN0*
X101600000Y-52340000D02*
X101600000Y-53340000D01*
X100574999Y-51314999D02*
X101600000Y-52340000D01*
X100574999Y-38125001D02*
X100574999Y-51314999D01*
X100600000Y-38100000D02*
X100574999Y-38125001D01*
X101600000Y-38100000D02*
X100600000Y-38100000D01*
X75356999Y-53258995D02*
X75057000Y-52958996D01*
X75610995Y-53258995D02*
X75356999Y-53258995D01*
X77216000Y-54864000D02*
X75610995Y-53258995D01*
X99076000Y-54864000D02*
X77216000Y-54864000D01*
X101600000Y-53340000D02*
X100600000Y-53340000D01*
X100600000Y-53340000D02*
X99076000Y-54864000D01*
G04 #@! TO.N,/IN1*
X97917000Y-52197000D02*
X98210001Y-52490001D01*
X98210001Y-52490001D02*
X99060000Y-53340000D01*
X99060000Y-38100000D02*
X97917000Y-39243000D01*
X97917000Y-39243000D02*
X97917000Y-52197000D01*
G04 #@! TO.N,/IN2*
X97369999Y-52490001D02*
X96520000Y-53340000D01*
X97616989Y-39196989D02*
X97616989Y-52243011D01*
X96520000Y-38100000D02*
X97616989Y-39196989D01*
X97616989Y-52243011D02*
X97369999Y-52490001D01*
G04 #@! TO.N,/IN6*
X86360000Y-38100000D02*
X87884000Y-39624000D01*
X86360000Y-38100000D02*
X88392000Y-40132000D01*
X91179002Y-40132000D02*
X92583000Y-41535998D01*
X88392000Y-40132000D02*
X91179002Y-40132000D01*
X92583000Y-41535998D02*
X92583000Y-48006000D01*
X92583000Y-48006000D02*
X92583000Y-48514000D01*
X92583000Y-48006000D02*
X92583000Y-50392002D01*
X91430491Y-51544511D02*
X88155489Y-51544511D01*
X88155489Y-51544511D02*
X87209999Y-52490001D01*
X87209999Y-52490001D02*
X86360000Y-53340000D01*
X92583000Y-50392002D02*
X91430491Y-51544511D01*
G04 #@! TO.N,/IN7*
X84669999Y-38949999D02*
X83820000Y-38100000D01*
X82740500Y-52260500D02*
X82740500Y-47117000D01*
X83820000Y-53340000D02*
X82740500Y-52260500D01*
X82740500Y-47117000D02*
X87503000Y-42354500D01*
X87503000Y-42354500D02*
X87503000Y-41497352D01*
X87503000Y-41497352D02*
X84955647Y-38949999D01*
X84955647Y-38949999D02*
X84669999Y-38949999D01*
G04 #@! TO.N,~RESET*
X71120000Y-40640000D02*
X71120000Y-38122344D01*
X62429999Y-36974999D02*
X62287511Y-37117487D01*
X62287511Y-43038737D02*
X62512510Y-43263736D01*
X62287511Y-37117487D02*
X62287511Y-43038737D01*
X62512510Y-43852510D02*
X62512510Y-43688000D01*
X69972655Y-36974999D02*
X62429999Y-36974999D01*
X71120000Y-38122344D02*
X69972655Y-36974999D01*
X62512510Y-43263736D02*
X62512510Y-43688000D01*
X63500000Y-44840000D02*
X62512510Y-43852510D01*
G04 #@! TO.N,Net-(RN1-Pad1)*
X74450043Y-46863000D02*
X75593043Y-45720000D01*
X67021010Y-47082010D02*
X67240020Y-46863000D01*
X67240020Y-46863000D02*
X74450043Y-46863000D01*
G04 #@! TO.N,Net-(RN1-Pad3)*
X76410736Y-47752000D02*
X76139247Y-47480511D01*
X68744555Y-47805628D02*
X68444556Y-48105627D01*
X69069672Y-47480511D02*
X68744555Y-47805628D01*
X76139247Y-47480511D02*
X69069672Y-47480511D01*
X76835000Y-47752000D02*
X76410736Y-47752000D01*
G04 #@! TO.N,Net-(RN1-Pad2)*
X74882556Y-47180500D02*
X67974674Y-47180500D01*
X76343056Y-45720000D02*
X74882556Y-47180500D01*
X67914181Y-47240993D02*
X67614182Y-47540992D01*
X67974674Y-47180500D02*
X67914181Y-47240993D01*
G04 #@! TO.N,Net-(RN1-Pad4)*
X75169258Y-47780522D02*
X75394736Y-48006000D01*
X68671448Y-48820496D02*
X69711422Y-47780522D01*
X69711422Y-47780522D02*
X75169258Y-47780522D01*
X75394736Y-48006000D02*
X75819000Y-48006000D01*
G04 #@! TO.N,Net-(RN2-Pad8)*
X69196449Y-49072497D02*
X69196449Y-48793008D01*
X80157236Y-49149000D02*
X81046236Y-48260000D01*
X81236736Y-48260000D02*
X81661000Y-48260000D01*
X68199000Y-49403000D02*
X68865946Y-49403000D01*
X81046236Y-48260000D02*
X81236736Y-48260000D01*
X75247500Y-51181000D02*
X78606002Y-51181000D01*
X69196449Y-48793008D02*
X69908924Y-48080533D01*
X69908924Y-48080533D02*
X72147033Y-48080533D01*
X68865946Y-49403000D02*
X69196449Y-49072497D01*
X80157236Y-49629766D02*
X80157236Y-49149000D01*
X72147033Y-48080533D02*
X75247500Y-51181000D01*
X78606002Y-51181000D02*
X80157236Y-49629766D01*
G04 #@! TO.N,D0*
X77213834Y-43436166D02*
X72334030Y-43436166D01*
X72334030Y-43436166D02*
X71909766Y-43436166D01*
X78740000Y-41910000D02*
X77213834Y-43436166D01*
G04 #@! TO.N,D1*
X83219978Y-39277978D02*
X82550000Y-38608000D01*
X82550000Y-38608000D02*
X82550000Y-37264998D01*
X86360000Y-41910000D02*
X86360000Y-40778630D01*
X86360000Y-40778630D02*
X84859348Y-39277978D01*
X75269502Y-37188998D02*
X75269502Y-39778727D01*
X84859348Y-39277978D02*
X83219978Y-39277978D01*
X72569934Y-42478295D02*
X72269935Y-42778294D01*
X75269502Y-39778727D02*
X72569934Y-42478295D01*
X75946000Y-36512500D02*
X75269502Y-37188998D01*
X82550000Y-37264998D02*
X81797502Y-36512500D01*
X81797502Y-36512500D02*
X75946000Y-36512500D01*
G04 #@! TO.N,SEG_D*
X78740000Y-49530000D02*
X78740000Y-45321990D01*
G04 #@! TO.N,SEG_E*
X86318254Y-51244500D02*
X85729744Y-50655990D01*
X91249500Y-51244500D02*
X86318254Y-51244500D01*
X91440000Y-49530000D02*
X91440000Y-51054000D01*
X91440000Y-51054000D02*
X91249500Y-51244500D01*
X76200000Y-48580000D02*
X76329500Y-48450500D01*
X76329500Y-48450500D02*
X76913502Y-48450500D01*
X81851500Y-44132500D02*
X82677000Y-44958000D01*
X76913502Y-48450500D02*
X77360001Y-48004001D01*
X76200000Y-49530000D02*
X76200000Y-48580000D01*
X77360001Y-48004001D02*
X77360001Y-45131499D01*
X78359000Y-44132500D02*
X81851500Y-44132500D01*
X77360001Y-45131499D02*
X78359000Y-44132500D01*
G04 #@! TO.N,SEG_F*
X83629498Y-39878000D02*
X84772500Y-41021002D01*
X76200000Y-41910000D02*
X78232000Y-39878000D01*
X78232000Y-39878000D02*
X83629498Y-39878000D01*
X91440000Y-41910000D02*
X85598000Y-47752000D01*
G04 #@! TO.N,SEG_A*
X83820000Y-41910000D02*
X82694000Y-43036000D01*
X82694000Y-43036000D02*
X82296000Y-43036000D01*
G04 #@! TO.N,MOSI*
X94829999Y-38949999D02*
X93980000Y-38100000D01*
X95377000Y-39497000D02*
X94829999Y-38949999D01*
X93980000Y-53340000D02*
X95377000Y-51943000D01*
X95377000Y-51943000D02*
X95377000Y-39497000D01*
G04 #@! TO.N,MISO*
X92289999Y-52490001D02*
X91440000Y-53340000D01*
X92537001Y-52490001D02*
X92289999Y-52490001D01*
X95005001Y-50022001D02*
X92537001Y-52490001D01*
X95005001Y-41030001D02*
X95005001Y-50022001D01*
X91440000Y-39302081D02*
X91694000Y-39556081D01*
X91440000Y-38100000D02*
X91440000Y-39302081D01*
X91694000Y-39556081D02*
X91694000Y-39560500D01*
X92964000Y-40830500D02*
X94805500Y-40830500D01*
X91694000Y-39560500D02*
X92964000Y-40830500D01*
X94805500Y-40830500D02*
X95005001Y-41030001D01*
G04 #@! TO.N,SCK*
X88900000Y-53340000D02*
X90395478Y-51844522D01*
X90511999Y-38949999D02*
X89749999Y-38949999D01*
X89749999Y-38949999D02*
X88900000Y-38100000D01*
X92883010Y-41321010D02*
X90511999Y-38949999D01*
X92883010Y-50753990D02*
X92883010Y-41321010D01*
X91792478Y-51844522D02*
X92883010Y-50753990D01*
X90395478Y-51844522D02*
X91792478Y-51844522D01*
G04 #@! TO.N,Net-(J6-Pad1)*
X81280000Y-39100000D02*
X81280000Y-38100000D01*
X81757989Y-39577989D02*
X81280000Y-39100000D01*
X81280000Y-53340000D02*
X82423000Y-52197000D01*
X82423000Y-46990000D02*
X85334999Y-44078001D01*
X85334999Y-44078001D02*
X85334999Y-40249999D01*
X82423000Y-52197000D02*
X82423000Y-46990000D01*
X85334999Y-40249999D02*
X84662989Y-39577989D01*
X84662989Y-39577989D02*
X81757989Y-39577989D01*
G04 #@! TO.N,SEL_LATCHMODE*
X67380000Y-42915000D02*
X68180000Y-42915000D01*
X66597384Y-42915000D02*
X67380000Y-42915000D01*
X66040000Y-42357616D02*
X66597384Y-42915000D01*
X66040000Y-40640000D02*
X66040000Y-42357616D01*
X66040000Y-40640000D02*
X66040000Y-45402500D01*
X66040000Y-45402500D02*
X66167000Y-45529500D01*
G04 #@! TO.N,SEL_NUMBERBASE*
X68980000Y-42915000D02*
X69780000Y-42915000D01*
X66040000Y-38100000D02*
X67284744Y-39344744D01*
X68518284Y-42253284D02*
X66712724Y-42253284D01*
X67284744Y-39344744D02*
X67284744Y-41681264D01*
X68980000Y-42715000D02*
X68518284Y-42253284D01*
X68980000Y-42915000D02*
X68980000Y-42715000D01*
X67284744Y-41681264D02*
X66712724Y-42253284D01*
D21*
G04 #@! TO.N,/VIN*
X76453000Y-38100000D02*
X78740000Y-38100000D01*
D22*
G04 #@! TO.N,Net-(C3-Pad2)*
X71120000Y-48895000D02*
X69871459Y-48895000D01*
G04 #@! TD*
G04 #@! TO.N,GND*
G36*
X102283471Y-36186683D02*
X102804979Y-36393162D01*
X103258753Y-36722848D01*
X103616281Y-37155025D01*
X103855100Y-37662540D01*
X103962878Y-38227533D01*
X103967000Y-38358714D01*
X103967001Y-53067120D01*
X103894317Y-53642470D01*
X103687838Y-54163978D01*
X103358152Y-54617752D01*
X102925974Y-54975281D01*
X102418460Y-55214100D01*
X101853468Y-55321878D01*
X101722287Y-55326000D01*
X62883872Y-55326000D01*
X62308530Y-55253317D01*
X61787022Y-55046838D01*
X61333248Y-54717152D01*
X60975719Y-54284974D01*
X60736900Y-53777460D01*
X60629122Y-53212468D01*
X60625000Y-53081287D01*
X60625000Y-38372871D01*
X60697683Y-37797529D01*
X60904162Y-37276021D01*
X61233848Y-36822247D01*
X61666025Y-36464719D01*
X62126228Y-36248163D01*
X62035612Y-36308711D01*
X62035609Y-36308714D01*
X62004305Y-36329631D01*
X61983388Y-36360935D01*
X61673450Y-36670875D01*
X61642141Y-36691795D01*
X61621221Y-36723104D01*
X61568657Y-36801772D01*
X61559258Y-36815838D01*
X61537500Y-36925224D01*
X61537500Y-36925228D01*
X61530155Y-36962154D01*
X61537500Y-36999080D01*
X61537501Y-44032065D01*
X61537500Y-44032070D01*
X61537501Y-44768404D01*
X61530155Y-44805334D01*
X61537501Y-44842264D01*
X61537501Y-45076566D01*
X61537500Y-45076571D01*
X61537500Y-45429070D01*
X61537501Y-47025168D01*
X60974950Y-47587721D01*
X60943641Y-47608641D01*
X60922721Y-47639950D01*
X60866776Y-47723678D01*
X60860758Y-47732684D01*
X60839000Y-47842070D01*
X60839000Y-47842074D01*
X60831655Y-47879000D01*
X60839000Y-47915927D01*
X60839001Y-49620069D01*
X60831655Y-49657000D01*
X60860759Y-49803318D01*
X60922721Y-49896050D01*
X60922723Y-49896052D01*
X60943642Y-49927359D01*
X60974948Y-49948278D01*
X62342728Y-51316058D01*
X62346758Y-51336317D01*
X62429641Y-51460359D01*
X62520869Y-51521316D01*
X62559986Y-51717971D01*
X62674959Y-51890041D01*
X62847029Y-52005014D01*
X62967441Y-52028965D01*
X62800763Y-52195643D01*
X62698000Y-52443734D01*
X62698000Y-52712266D01*
X62800763Y-52960357D01*
X62990643Y-53150237D01*
X63238734Y-53253000D01*
X63507266Y-53253000D01*
X63755357Y-53150237D01*
X63945237Y-52960357D01*
X63993176Y-52844621D01*
X74482000Y-52844621D01*
X74482000Y-53073371D01*
X74569538Y-53284707D01*
X74731289Y-53446458D01*
X74942625Y-53533996D01*
X75138585Y-53533996D01*
X75220436Y-53588687D01*
X75322531Y-53608995D01*
X75322535Y-53608995D01*
X75356999Y-53615850D01*
X75391463Y-53608995D01*
X75466022Y-53608995D01*
X76944142Y-55087117D01*
X76963665Y-55116335D01*
X76992883Y-55135858D01*
X76992885Y-55135860D01*
X77023431Y-55156270D01*
X77079437Y-55193692D01*
X77181532Y-55214000D01*
X77181536Y-55214000D01*
X77216000Y-55220855D01*
X77250464Y-55214000D01*
X99041536Y-55214000D01*
X99076000Y-55220855D01*
X99110464Y-55214000D01*
X99110468Y-55214000D01*
X99212563Y-55193692D01*
X99328335Y-55116335D01*
X99347862Y-55087111D01*
X100469613Y-53965361D01*
X100469613Y-54190000D01*
X100490956Y-54297299D01*
X100551736Y-54388264D01*
X100642701Y-54449044D01*
X100750000Y-54470387D01*
X102450000Y-54470387D01*
X102557299Y-54449044D01*
X102648264Y-54388264D01*
X102709044Y-54297299D01*
X102730387Y-54190000D01*
X102730387Y-52490000D01*
X102709044Y-52382701D01*
X102648264Y-52291736D01*
X102557299Y-52230956D01*
X102450000Y-52209613D01*
X101930920Y-52209613D01*
X101929692Y-52203437D01*
X101916088Y-52183077D01*
X101871859Y-52116884D01*
X101871856Y-52116881D01*
X101852334Y-52087665D01*
X101823119Y-52068144D01*
X100924999Y-51170026D01*
X100924999Y-50375278D01*
X100991062Y-50441341D01*
X101386169Y-50605000D01*
X101813831Y-50605000D01*
X102208938Y-50441341D01*
X102511341Y-50138938D01*
X102675000Y-49743831D01*
X102675000Y-49316169D01*
X102511341Y-48921062D01*
X102208938Y-48618659D01*
X101813831Y-48455000D01*
X101386169Y-48455000D01*
X100991062Y-48618659D01*
X100924999Y-48684722D01*
X100924999Y-42755278D01*
X100991062Y-42821341D01*
X101386169Y-42985000D01*
X101813831Y-42985000D01*
X102208938Y-42821341D01*
X102511341Y-42518938D01*
X102675000Y-42123831D01*
X102675000Y-41696169D01*
X102511341Y-41301062D01*
X102208938Y-40998659D01*
X101813831Y-40835000D01*
X101386169Y-40835000D01*
X100991062Y-40998659D01*
X100924999Y-41064722D01*
X100924999Y-39230387D01*
X102450000Y-39230387D01*
X102557299Y-39209044D01*
X102648264Y-39148264D01*
X102709044Y-39057299D01*
X102730387Y-38950000D01*
X102730387Y-37250000D01*
X102709044Y-37142701D01*
X102648264Y-37051736D01*
X102557299Y-36990956D01*
X102450000Y-36969613D01*
X100750000Y-36969613D01*
X100642701Y-36990956D01*
X100551736Y-37051736D01*
X100490956Y-37142701D01*
X100469613Y-37250000D01*
X100469613Y-37769080D01*
X100463437Y-37770308D01*
X100347665Y-37847665D01*
X100337650Y-37862654D01*
X100322664Y-37872667D01*
X100245307Y-37988439D01*
X100224999Y-38090534D01*
X100224999Y-38090537D01*
X100218144Y-38125001D01*
X100224999Y-38159465D01*
X100225000Y-51280530D01*
X100218144Y-51314999D01*
X100245307Y-51451561D01*
X100251186Y-51460359D01*
X100322665Y-51567334D01*
X100351886Y-51586859D01*
X100974639Y-52209613D01*
X100750000Y-52209613D01*
X100642701Y-52230956D01*
X100551736Y-52291736D01*
X100490956Y-52382701D01*
X100469613Y-52490000D01*
X100469613Y-53009080D01*
X100463437Y-53010308D01*
X100347665Y-53087665D01*
X100328142Y-53116883D01*
X100190115Y-53254911D01*
X100119727Y-52901047D01*
X99871080Y-52528920D01*
X99498953Y-52280273D01*
X99170803Y-52215000D01*
X98949197Y-52215000D01*
X98621047Y-52280273D01*
X98545635Y-52330662D01*
X98481862Y-52266889D01*
X98481860Y-52266886D01*
X98267000Y-52052027D01*
X98267000Y-50257279D01*
X98451062Y-50441341D01*
X98846169Y-50605000D01*
X99273831Y-50605000D01*
X99668938Y-50441341D01*
X99971341Y-50138938D01*
X100135000Y-49743831D01*
X100135000Y-49316169D01*
X99971341Y-48921062D01*
X99668938Y-48618659D01*
X99273831Y-48455000D01*
X98846169Y-48455000D01*
X98451062Y-48618659D01*
X98267000Y-48802721D01*
X98267000Y-42637279D01*
X98451062Y-42821341D01*
X98846169Y-42985000D01*
X99273831Y-42985000D01*
X99668938Y-42821341D01*
X99971341Y-42518938D01*
X100135000Y-42123831D01*
X100135000Y-41696169D01*
X99971341Y-41301062D01*
X99668938Y-40998659D01*
X99273831Y-40835000D01*
X98846169Y-40835000D01*
X98451062Y-40998659D01*
X98267000Y-41182721D01*
X98267000Y-39387973D01*
X98545635Y-39109338D01*
X98621047Y-39159727D01*
X98949197Y-39225000D01*
X99170803Y-39225000D01*
X99498953Y-39159727D01*
X99871080Y-38911080D01*
X100119727Y-38538953D01*
X100207040Y-38100000D01*
X100119727Y-37661047D01*
X99871080Y-37288920D01*
X99498953Y-37040273D01*
X99170803Y-36975000D01*
X98949197Y-36975000D01*
X98621047Y-37040273D01*
X98248920Y-37288920D01*
X98000273Y-37661047D01*
X97912960Y-38100000D01*
X98000273Y-38538953D01*
X98050662Y-38614365D01*
X97790001Y-38875026D01*
X97529339Y-38614364D01*
X97579727Y-38538953D01*
X97667040Y-38100000D01*
X97579727Y-37661047D01*
X97331080Y-37288920D01*
X96958953Y-37040273D01*
X96630803Y-36975000D01*
X96409197Y-36975000D01*
X96081047Y-37040273D01*
X95708920Y-37288920D01*
X95460273Y-37661047D01*
X95372960Y-38100000D01*
X95460273Y-38538953D01*
X95708920Y-38911080D01*
X96081047Y-39159727D01*
X96409197Y-39225000D01*
X96630803Y-39225000D01*
X96958953Y-39159727D01*
X97034364Y-39109339D01*
X97266989Y-39341964D01*
X97266989Y-41136710D01*
X97128938Y-40998659D01*
X96733831Y-40835000D01*
X96306169Y-40835000D01*
X95911062Y-40998659D01*
X95727000Y-41182721D01*
X95727000Y-39531462D01*
X95733855Y-39496999D01*
X95727000Y-39462537D01*
X95727000Y-39462532D01*
X95706692Y-39360437D01*
X95629335Y-39244665D01*
X95600114Y-39225140D01*
X95101860Y-38726887D01*
X95101858Y-38726884D01*
X94989339Y-38614365D01*
X95039727Y-38538953D01*
X95127040Y-38100000D01*
X95039727Y-37661047D01*
X94791080Y-37288920D01*
X94418953Y-37040273D01*
X94090803Y-36975000D01*
X93869197Y-36975000D01*
X93541047Y-37040273D01*
X93168920Y-37288920D01*
X92920273Y-37661047D01*
X92832960Y-38100000D01*
X92920273Y-38538953D01*
X93168920Y-38911080D01*
X93541047Y-39159727D01*
X93869197Y-39225000D01*
X94090803Y-39225000D01*
X94418953Y-39159727D01*
X94494365Y-39109339D01*
X94606884Y-39221858D01*
X94606887Y-39221860D01*
X95027001Y-39641975D01*
X95027001Y-40557562D01*
X94942063Y-40500808D01*
X94839968Y-40480500D01*
X94839964Y-40480500D01*
X94805500Y-40473645D01*
X94771036Y-40480500D01*
X93108974Y-40480500D01*
X91974759Y-39346286D01*
X91968253Y-39336549D01*
X91965859Y-39332966D01*
X91965858Y-39332965D01*
X91946334Y-39303746D01*
X91917116Y-39284223D01*
X91806943Y-39174051D01*
X91878953Y-39159727D01*
X92251080Y-38911080D01*
X92499727Y-38538953D01*
X92587040Y-38100000D01*
X92499727Y-37661047D01*
X92251080Y-37288920D01*
X91878953Y-37040273D01*
X91550803Y-36975000D01*
X91329197Y-36975000D01*
X91001047Y-37040273D01*
X90628920Y-37288920D01*
X90380273Y-37661047D01*
X90292960Y-38100000D01*
X90380273Y-38538953D01*
X90421063Y-38599999D01*
X89918937Y-38599999D01*
X89959727Y-38538953D01*
X90047040Y-38100000D01*
X89959727Y-37661047D01*
X89711080Y-37288920D01*
X89338953Y-37040273D01*
X89010803Y-36975000D01*
X88789197Y-36975000D01*
X88461047Y-37040273D01*
X88088920Y-37288920D01*
X87840273Y-37661047D01*
X87752960Y-38100000D01*
X87840273Y-38538953D01*
X88088920Y-38911080D01*
X88461047Y-39159727D01*
X88789197Y-39225000D01*
X89010803Y-39225000D01*
X89338953Y-39159727D01*
X89414365Y-39109339D01*
X89478139Y-39173113D01*
X89497664Y-39202334D01*
X89613436Y-39279691D01*
X89715531Y-39299999D01*
X89715536Y-39299999D01*
X89749998Y-39306854D01*
X89784461Y-39299999D01*
X90367026Y-39299999D01*
X90849027Y-39782000D01*
X88536974Y-39782000D01*
X88155862Y-39400888D01*
X88155859Y-39400884D01*
X87369339Y-38614365D01*
X87419727Y-38538953D01*
X87507040Y-38100000D01*
X87419727Y-37661047D01*
X87171080Y-37288920D01*
X86798953Y-37040273D01*
X86470803Y-36975000D01*
X86249197Y-36975000D01*
X85921047Y-37040273D01*
X85548920Y-37288920D01*
X85300273Y-37661047D01*
X85212960Y-38100000D01*
X85300273Y-38538953D01*
X85548920Y-38911080D01*
X85921047Y-39159727D01*
X86249197Y-39225000D01*
X86470803Y-39225000D01*
X86798953Y-39159727D01*
X86874365Y-39109339D01*
X87660884Y-39895859D01*
X87660888Y-39895862D01*
X88120140Y-40355114D01*
X88139665Y-40384335D01*
X88255437Y-40461692D01*
X88357532Y-40482000D01*
X88357536Y-40482000D01*
X88392000Y-40488855D01*
X88426464Y-40482000D01*
X91034029Y-40482000D01*
X91387029Y-40835000D01*
X91226169Y-40835000D01*
X90831062Y-40998659D01*
X90528659Y-41301062D01*
X90365000Y-41696169D01*
X90365000Y-42123831D01*
X90472256Y-42382769D01*
X85678027Y-47177000D01*
X85483625Y-47177000D01*
X85272289Y-47264538D01*
X85110538Y-47426289D01*
X85023000Y-47637625D01*
X85023000Y-47866375D01*
X85110538Y-48077711D01*
X85272289Y-48239462D01*
X85483625Y-48327000D01*
X85712375Y-48327000D01*
X85923711Y-48239462D01*
X86085462Y-48077711D01*
X86173000Y-47866375D01*
X86173000Y-47671973D01*
X90967231Y-42877744D01*
X91226169Y-42985000D01*
X91653831Y-42985000D01*
X92048938Y-42821341D01*
X92233000Y-42637279D01*
X92233001Y-47971528D01*
X92233000Y-47971533D01*
X92233000Y-48449613D01*
X90640000Y-48449613D01*
X90532701Y-48470956D01*
X90441736Y-48531736D01*
X90380956Y-48622701D01*
X90359613Y-48730000D01*
X90359613Y-50330000D01*
X90380956Y-50437299D01*
X90441736Y-50528264D01*
X90532701Y-50589044D01*
X90640000Y-50610387D01*
X91090001Y-50610387D01*
X91090001Y-50894500D01*
X86463229Y-50894500D01*
X86304744Y-50736016D01*
X86304744Y-50605000D01*
X86573831Y-50605000D01*
X86968938Y-50441341D01*
X87271341Y-50138938D01*
X87435000Y-49743831D01*
X87435000Y-49316169D01*
X87271341Y-48921062D01*
X86968938Y-48618659D01*
X86573831Y-48455000D01*
X86146169Y-48455000D01*
X85751062Y-48618659D01*
X85448659Y-48921062D01*
X85285000Y-49316169D01*
X85285000Y-49743831D01*
X85448659Y-50138938D01*
X85456512Y-50146791D01*
X85404033Y-50168528D01*
X85242282Y-50330279D01*
X85154744Y-50541615D01*
X85154744Y-50770365D01*
X85242282Y-50981701D01*
X85404033Y-51143452D01*
X85615369Y-51230990D01*
X85809770Y-51230990D01*
X86046396Y-51467617D01*
X86065919Y-51496835D01*
X86095137Y-51516358D01*
X86095139Y-51516360D01*
X86154465Y-51556000D01*
X86181691Y-51574192D01*
X86283786Y-51594500D01*
X86283790Y-51594500D01*
X86318254Y-51601355D01*
X86352718Y-51594500D01*
X87610526Y-51594500D01*
X86986887Y-52218140D01*
X86986884Y-52218142D01*
X86874365Y-52330661D01*
X86798953Y-52280273D01*
X86470803Y-52215000D01*
X86249197Y-52215000D01*
X85921047Y-52280273D01*
X85548920Y-52528920D01*
X85300273Y-52901047D01*
X85212960Y-53340000D01*
X85300273Y-53778953D01*
X85548920Y-54151080D01*
X85921047Y-54399727D01*
X86249197Y-54465000D01*
X86470803Y-54465000D01*
X86798953Y-54399727D01*
X87171080Y-54151080D01*
X87419727Y-53778953D01*
X87507040Y-53340000D01*
X87419727Y-52901047D01*
X87369339Y-52825635D01*
X87481858Y-52713116D01*
X87481860Y-52713113D01*
X88300464Y-51894511D01*
X89850514Y-51894511D01*
X89414365Y-52330661D01*
X89338953Y-52280273D01*
X89010803Y-52215000D01*
X88789197Y-52215000D01*
X88461047Y-52280273D01*
X88088920Y-52528920D01*
X87840273Y-52901047D01*
X87752960Y-53340000D01*
X87840273Y-53778953D01*
X88088920Y-54151080D01*
X88461047Y-54399727D01*
X88789197Y-54465000D01*
X89010803Y-54465000D01*
X89338953Y-54399727D01*
X89711080Y-54151080D01*
X89959727Y-53778953D01*
X90047040Y-53340000D01*
X89959727Y-52901047D01*
X89909339Y-52825635D01*
X90540453Y-52194522D01*
X91758014Y-52194522D01*
X91792478Y-52201377D01*
X91826942Y-52194522D01*
X91826946Y-52194522D01*
X91929041Y-52174214D01*
X92044813Y-52096857D01*
X92064340Y-52067633D01*
X93106126Y-51025848D01*
X93135344Y-51006325D01*
X93212702Y-50890553D01*
X93233010Y-50788458D01*
X93233010Y-50788453D01*
X93239865Y-50753991D01*
X93233010Y-50719528D01*
X93233010Y-50303289D01*
X93371062Y-50441341D01*
X93766169Y-50605000D01*
X93927028Y-50605000D01*
X92392028Y-52140001D01*
X92324461Y-52140001D01*
X92289998Y-52133146D01*
X92255536Y-52140001D01*
X92255531Y-52140001D01*
X92153436Y-52160309D01*
X92037664Y-52237666D01*
X92018140Y-52266886D01*
X91954365Y-52330661D01*
X91878953Y-52280273D01*
X91550803Y-52215000D01*
X91329197Y-52215000D01*
X91001047Y-52280273D01*
X90628920Y-52528920D01*
X90380273Y-52901047D01*
X90292960Y-53340000D01*
X90380273Y-53778953D01*
X90628920Y-54151080D01*
X91001047Y-54399727D01*
X91329197Y-54465000D01*
X91550803Y-54465000D01*
X91878953Y-54399727D01*
X92251080Y-54151080D01*
X92499727Y-53778953D01*
X92587040Y-53340000D01*
X92499727Y-52901047D01*
X92458937Y-52840001D01*
X92502537Y-52840001D01*
X92537001Y-52846856D01*
X92571465Y-52840001D01*
X92571469Y-52840001D01*
X92673564Y-52819693D01*
X92789336Y-52742336D01*
X92808863Y-52713112D01*
X95027000Y-50494976D01*
X95027000Y-51798025D01*
X94494365Y-52330661D01*
X94418953Y-52280273D01*
X94090803Y-52215000D01*
X93869197Y-52215000D01*
X93541047Y-52280273D01*
X93168920Y-52528920D01*
X92920273Y-52901047D01*
X92832960Y-53340000D01*
X92920273Y-53778953D01*
X93168920Y-54151080D01*
X93541047Y-54399727D01*
X93869197Y-54465000D01*
X94090803Y-54465000D01*
X94418953Y-54399727D01*
X94791080Y-54151080D01*
X95039727Y-53778953D01*
X95127040Y-53340000D01*
X95039727Y-52901047D01*
X94989339Y-52825635D01*
X95600119Y-52214856D01*
X95629334Y-52195335D01*
X95648856Y-52166119D01*
X95648859Y-52166116D01*
X95695136Y-52096857D01*
X95706692Y-52079563D01*
X95727000Y-51977468D01*
X95727000Y-51977464D01*
X95733855Y-51943001D01*
X95727000Y-51908538D01*
X95727000Y-50257279D01*
X95911062Y-50441341D01*
X96306169Y-50605000D01*
X96733831Y-50605000D01*
X97128938Y-50441341D01*
X97266990Y-50303289D01*
X97266990Y-52098036D01*
X97146886Y-52218141D01*
X97146884Y-52218142D01*
X97034365Y-52330661D01*
X96958953Y-52280273D01*
X96630803Y-52215000D01*
X96409197Y-52215000D01*
X96081047Y-52280273D01*
X95708920Y-52528920D01*
X95460273Y-52901047D01*
X95372960Y-53340000D01*
X95460273Y-53778953D01*
X95708920Y-54151080D01*
X96081047Y-54399727D01*
X96409197Y-54465000D01*
X96630803Y-54465000D01*
X96958953Y-54399727D01*
X97331080Y-54151080D01*
X97579727Y-53778953D01*
X97667040Y-53340000D01*
X97579727Y-52901047D01*
X97529339Y-52825635D01*
X97641858Y-52713116D01*
X97641859Y-52713114D01*
X97790000Y-52564974D01*
X97986886Y-52761860D01*
X97986889Y-52761862D01*
X98050662Y-52825635D01*
X98000273Y-52901047D01*
X97912960Y-53340000D01*
X98000273Y-53778953D01*
X98248920Y-54151080D01*
X98621047Y-54399727D01*
X98949197Y-54465000D01*
X98980027Y-54465000D01*
X98931027Y-54514000D01*
X79787717Y-54514000D01*
X79802420Y-54507910D01*
X79907910Y-54402421D01*
X79965000Y-54264592D01*
X79965000Y-53508750D01*
X79871250Y-53415000D01*
X78815000Y-53415000D01*
X78815000Y-53435000D01*
X78665000Y-53435000D01*
X78665000Y-53415000D01*
X77608750Y-53415000D01*
X77515000Y-53508750D01*
X77515000Y-54264592D01*
X77572090Y-54402421D01*
X77677580Y-54507910D01*
X77692283Y-54514000D01*
X77360975Y-54514000D01*
X75882857Y-53035884D01*
X75863330Y-53006660D01*
X75747558Y-52929303D01*
X75645463Y-52908995D01*
X75645459Y-52908995D01*
X75632000Y-52906318D01*
X75632000Y-52844621D01*
X75544462Y-52633285D01*
X75382711Y-52471534D01*
X75247211Y-52415408D01*
X77515000Y-52415408D01*
X77515000Y-53171250D01*
X77608750Y-53265000D01*
X78665000Y-53265000D01*
X78665000Y-52208750D01*
X78815000Y-52208750D01*
X78815000Y-53265000D01*
X79871250Y-53265000D01*
X79965000Y-53171250D01*
X79965000Y-52415408D01*
X79907910Y-52277579D01*
X79802420Y-52172090D01*
X79664592Y-52115000D01*
X78908750Y-52115000D01*
X78815000Y-52208750D01*
X78665000Y-52208750D01*
X78571250Y-52115000D01*
X77815408Y-52115000D01*
X77677580Y-52172090D01*
X77572090Y-52277579D01*
X77515000Y-52415408D01*
X75247211Y-52415408D01*
X75171375Y-52383996D01*
X74942625Y-52383996D01*
X74731289Y-52471534D01*
X74569538Y-52633285D01*
X74482000Y-52844621D01*
X63993176Y-52844621D01*
X64048000Y-52712266D01*
X64048000Y-52443734D01*
X63945237Y-52195643D01*
X63794981Y-52045387D01*
X63950001Y-52045387D01*
X64152971Y-52005014D01*
X64325041Y-51890041D01*
X64440014Y-51717971D01*
X64452500Y-51655199D01*
X64464986Y-51717971D01*
X64579959Y-51890041D01*
X64752029Y-52005014D01*
X64954999Y-52045387D01*
X65855001Y-52045387D01*
X66057971Y-52005014D01*
X66230041Y-51890041D01*
X66345014Y-51717971D01*
X66351545Y-51685139D01*
X66419643Y-51753237D01*
X66667734Y-51856000D01*
X66936266Y-51856000D01*
X67184357Y-51753237D01*
X67374237Y-51563357D01*
X67477000Y-51315266D01*
X67477000Y-51113750D01*
X70045000Y-51113750D01*
X70045000Y-51594592D01*
X70102090Y-51732420D01*
X70207579Y-51837910D01*
X70345408Y-51895000D01*
X70951250Y-51895000D01*
X71045000Y-51801250D01*
X71045000Y-51020000D01*
X71195000Y-51020000D01*
X71195000Y-51801250D01*
X71288750Y-51895000D01*
X71894592Y-51895000D01*
X72032421Y-51837910D01*
X72137910Y-51732420D01*
X72195000Y-51594592D01*
X72195000Y-51113750D01*
X72101250Y-51020000D01*
X71195000Y-51020000D01*
X71045000Y-51020000D01*
X70138750Y-51020000D01*
X70045000Y-51113750D01*
X67477000Y-51113750D01*
X67477000Y-51046734D01*
X67374237Y-50798643D01*
X67184357Y-50608763D01*
X66936266Y-50506000D01*
X66667734Y-50506000D01*
X66585103Y-50540227D01*
X66660052Y-50465278D01*
X66691359Y-50444359D01*
X66722914Y-50397135D01*
X66774241Y-50320319D01*
X66774241Y-50320318D01*
X66774242Y-50320317D01*
X66779196Y-50295408D01*
X70045000Y-50295408D01*
X70045000Y-50776250D01*
X70138750Y-50870000D01*
X71045000Y-50870000D01*
X71045000Y-50088750D01*
X71195000Y-50088750D01*
X71195000Y-50870000D01*
X72101250Y-50870000D01*
X72195000Y-50776250D01*
X72195000Y-50295408D01*
X72137910Y-50157580D01*
X72032421Y-50052090D01*
X71894592Y-49995000D01*
X71288750Y-49995000D01*
X71195000Y-50088750D01*
X71045000Y-50088750D01*
X70951250Y-49995000D01*
X70345408Y-49995000D01*
X70207579Y-50052090D01*
X70102090Y-50157580D01*
X70045000Y-50295408D01*
X66779196Y-50295408D01*
X66796000Y-50210931D01*
X66796000Y-50210927D01*
X66803345Y-50174000D01*
X66796000Y-50137074D01*
X66796000Y-48185915D01*
X66803345Y-48148989D01*
X66796000Y-48112063D01*
X66796000Y-47611184D01*
X66906635Y-47657010D01*
X67039863Y-47657010D01*
X67126720Y-47866703D01*
X67288471Y-48028454D01*
X67499807Y-48115992D01*
X67728557Y-48115992D01*
X67869556Y-48057588D01*
X67869556Y-48220002D01*
X67957094Y-48431338D01*
X68118845Y-48593089D01*
X68139691Y-48601724D01*
X68096448Y-48706121D01*
X68096448Y-48828000D01*
X68084625Y-48828000D01*
X67873289Y-48915538D01*
X67711538Y-49077289D01*
X67624000Y-49288625D01*
X67624000Y-49517375D01*
X67711538Y-49728711D01*
X67873289Y-49890462D01*
X68084625Y-49978000D01*
X68313375Y-49978000D01*
X68524711Y-49890462D01*
X68662173Y-49753000D01*
X68831482Y-49753000D01*
X68865946Y-49759855D01*
X68900410Y-49753000D01*
X68900414Y-49753000D01*
X69002509Y-49732692D01*
X69118281Y-49655335D01*
X69137808Y-49626112D01*
X69419567Y-49344354D01*
X69448783Y-49324832D01*
X69464539Y-49301253D01*
X69545748Y-49382462D01*
X69757084Y-49470000D01*
X69985834Y-49470000D01*
X70173850Y-49392122D01*
X70179986Y-49422971D01*
X70294959Y-49595041D01*
X70467029Y-49710014D01*
X70669999Y-49750387D01*
X71570001Y-49750387D01*
X71772971Y-49710014D01*
X71945041Y-49595041D01*
X72060014Y-49422971D01*
X72100387Y-49220001D01*
X72100387Y-48569999D01*
X72090172Y-48518645D01*
X74975642Y-51404117D01*
X74995165Y-51433335D01*
X75110937Y-51510692D01*
X75213032Y-51531000D01*
X75213036Y-51531000D01*
X75247499Y-51537855D01*
X75281962Y-51531000D01*
X78571538Y-51531000D01*
X78606002Y-51537855D01*
X78640466Y-51531000D01*
X78640470Y-51531000D01*
X78742565Y-51510692D01*
X78858337Y-51433335D01*
X78877864Y-51404111D01*
X80302576Y-49979400D01*
X80368659Y-50138938D01*
X80671062Y-50441341D01*
X81066169Y-50605000D01*
X81493831Y-50605000D01*
X81888938Y-50441341D01*
X82073000Y-50257279D01*
X82073000Y-52052026D01*
X81915413Y-52209613D01*
X80430000Y-52209613D01*
X80322701Y-52230956D01*
X80231736Y-52291736D01*
X80170956Y-52382701D01*
X80149613Y-52490000D01*
X80149613Y-54190000D01*
X80170956Y-54297299D01*
X80231736Y-54388264D01*
X80322701Y-54449044D01*
X80430000Y-54470387D01*
X82130000Y-54470387D01*
X82237299Y-54449044D01*
X82328264Y-54388264D01*
X82389044Y-54297299D01*
X82410387Y-54190000D01*
X82410387Y-52704587D01*
X82550000Y-52564974D01*
X82810662Y-52825635D01*
X82760273Y-52901047D01*
X82672960Y-53340000D01*
X82760273Y-53778953D01*
X83008920Y-54151080D01*
X83381047Y-54399727D01*
X83709197Y-54465000D01*
X83930803Y-54465000D01*
X84258953Y-54399727D01*
X84631080Y-54151080D01*
X84879727Y-53778953D01*
X84967040Y-53340000D01*
X84879727Y-52901047D01*
X84631080Y-52528920D01*
X84258953Y-52280273D01*
X83930803Y-52215000D01*
X83709197Y-52215000D01*
X83381047Y-52280273D01*
X83305635Y-52330662D01*
X83090500Y-52115527D01*
X83090500Y-50320779D01*
X83211062Y-50441341D01*
X83606169Y-50605000D01*
X84033831Y-50605000D01*
X84428938Y-50441341D01*
X84731341Y-50138938D01*
X84895000Y-49743831D01*
X84895000Y-49316169D01*
X84731341Y-48921062D01*
X84428938Y-48618659D01*
X84033831Y-48455000D01*
X83606169Y-48455000D01*
X83211062Y-48618659D01*
X83090500Y-48739221D01*
X83090500Y-47261973D01*
X87726116Y-42626358D01*
X87755334Y-42606835D01*
X87789850Y-42555180D01*
X87832692Y-42491063D01*
X87843494Y-42436758D01*
X87853000Y-42388968D01*
X87853000Y-42388965D01*
X87859855Y-42354501D01*
X87853000Y-42320037D01*
X87853000Y-41531814D01*
X87859855Y-41497351D01*
X87853000Y-41462889D01*
X87853000Y-41462884D01*
X87832692Y-41360789D01*
X87755335Y-41245017D01*
X87726114Y-41225492D01*
X85227509Y-38726888D01*
X85207982Y-38697664D01*
X85092210Y-38620307D01*
X84990115Y-38599999D01*
X84990111Y-38599999D01*
X84955647Y-38593144D01*
X84921183Y-38599999D01*
X84838937Y-38599999D01*
X84879727Y-38538953D01*
X84967040Y-38100000D01*
X84879727Y-37661047D01*
X84631080Y-37288920D01*
X84258953Y-37040273D01*
X83930803Y-36975000D01*
X83709197Y-36975000D01*
X83381047Y-37040273D01*
X83008920Y-37288920D01*
X82900000Y-37451931D01*
X82900000Y-37299462D01*
X82906855Y-37264998D01*
X82900000Y-37230534D01*
X82900000Y-37230530D01*
X82879692Y-37128435D01*
X82872377Y-37117487D01*
X82821860Y-37041883D01*
X82821858Y-37041881D01*
X82802335Y-37012663D01*
X82773117Y-36993140D01*
X82069364Y-36289389D01*
X82049837Y-36260165D01*
X81934065Y-36182808D01*
X81831970Y-36162500D01*
X81831966Y-36162500D01*
X81797502Y-36155645D01*
X81763038Y-36162500D01*
X75980464Y-36162500D01*
X75946000Y-36155645D01*
X75911536Y-36162500D01*
X75911532Y-36162500D01*
X75809437Y-36182808D01*
X75722885Y-36240640D01*
X75722884Y-36240641D01*
X75693665Y-36260165D01*
X75674142Y-36289383D01*
X75046388Y-36917138D01*
X75017167Y-36936664D01*
X74939810Y-37052436D01*
X74919502Y-37154531D01*
X74919502Y-37154534D01*
X74912647Y-37188998D01*
X74919502Y-37223462D01*
X74919503Y-39633751D01*
X72349962Y-42203294D01*
X72155560Y-42203294D01*
X71944224Y-42290832D01*
X71782473Y-42452583D01*
X71694935Y-42663919D01*
X71694935Y-42892669D01*
X71698508Y-42901296D01*
X71584055Y-42948704D01*
X71422304Y-43110455D01*
X71334766Y-43321791D01*
X71334766Y-43550541D01*
X71422304Y-43761877D01*
X71584055Y-43923628D01*
X71795391Y-44011166D01*
X72024141Y-44011166D01*
X72235477Y-43923628D01*
X72372939Y-43786166D01*
X77179370Y-43786166D01*
X77213834Y-43793021D01*
X77248298Y-43786166D01*
X77248302Y-43786166D01*
X77350397Y-43765858D01*
X77466169Y-43688501D01*
X77485696Y-43659277D01*
X78267230Y-42877744D01*
X78526169Y-42985000D01*
X78953831Y-42985000D01*
X79348938Y-42821341D01*
X79651341Y-42518938D01*
X79815000Y-42123831D01*
X79815000Y-41696169D01*
X79651341Y-41301062D01*
X79348938Y-40998659D01*
X78953831Y-40835000D01*
X78526169Y-40835000D01*
X78131062Y-40998659D01*
X77828659Y-41301062D01*
X77665000Y-41696169D01*
X77665000Y-42123831D01*
X77772256Y-42382770D01*
X77068861Y-43086166D01*
X72764786Y-43086166D01*
X72844935Y-42892669D01*
X72844935Y-42698267D01*
X75492619Y-40050585D01*
X75521837Y-40031062D01*
X75541360Y-40001844D01*
X75541362Y-40001842D01*
X75599194Y-39915290D01*
X75600468Y-39908885D01*
X75619502Y-39813195D01*
X75619502Y-39813191D01*
X75626357Y-39778727D01*
X75619502Y-39744263D01*
X75619502Y-37500000D01*
X75722613Y-37500000D01*
X75722613Y-38700000D01*
X75743956Y-38807299D01*
X75804736Y-38898264D01*
X75895701Y-38959044D01*
X76003000Y-38980387D01*
X76903000Y-38980387D01*
X77010299Y-38959044D01*
X77101264Y-38898264D01*
X77162044Y-38807299D01*
X77183387Y-38700000D01*
X77183387Y-38475000D01*
X77609613Y-38475000D01*
X77609613Y-38950000D01*
X77630956Y-39057299D01*
X77691736Y-39148264D01*
X77782701Y-39209044D01*
X77890000Y-39230387D01*
X79590000Y-39230387D01*
X79697299Y-39209044D01*
X79788264Y-39148264D01*
X79849044Y-39057299D01*
X79870387Y-38950000D01*
X79870387Y-37250000D01*
X79849044Y-37142701D01*
X79788264Y-37051736D01*
X79697299Y-36990956D01*
X79590000Y-36969613D01*
X77890000Y-36969613D01*
X77782701Y-36990956D01*
X77691736Y-37051736D01*
X77630956Y-37142701D01*
X77609613Y-37250000D01*
X77609613Y-37725000D01*
X77183387Y-37725000D01*
X77183387Y-37500000D01*
X77162044Y-37392701D01*
X77101264Y-37301736D01*
X77010299Y-37240956D01*
X76903000Y-37219613D01*
X76003000Y-37219613D01*
X75895701Y-37240956D01*
X75804736Y-37301736D01*
X75743956Y-37392701D01*
X75722613Y-37500000D01*
X75619502Y-37500000D01*
X75619502Y-37333971D01*
X76090975Y-36862500D01*
X81652529Y-36862500D01*
X81759641Y-36969613D01*
X80430000Y-36969613D01*
X80322701Y-36990956D01*
X80231736Y-37051736D01*
X80170956Y-37142701D01*
X80149613Y-37250000D01*
X80149613Y-38950000D01*
X80170956Y-39057299D01*
X80231736Y-39148264D01*
X80322701Y-39209044D01*
X80430000Y-39230387D01*
X80949080Y-39230387D01*
X80950308Y-39236562D01*
X81027665Y-39352334D01*
X81056886Y-39371859D01*
X81213026Y-39528000D01*
X78266464Y-39528000D01*
X78232000Y-39521145D01*
X78197536Y-39528000D01*
X78197532Y-39528000D01*
X78095437Y-39548308D01*
X77979665Y-39625665D01*
X77960140Y-39654886D01*
X76672770Y-40942256D01*
X76413831Y-40835000D01*
X75986169Y-40835000D01*
X75591062Y-40998659D01*
X75288659Y-41301062D01*
X75125000Y-41696169D01*
X75125000Y-42123831D01*
X75288659Y-42518938D01*
X75591062Y-42821341D01*
X75986169Y-42985000D01*
X76413831Y-42985000D01*
X76808938Y-42821341D01*
X77111341Y-42518938D01*
X77275000Y-42123831D01*
X77275000Y-41696169D01*
X77167744Y-41437230D01*
X78376974Y-40228000D01*
X83484525Y-40228000D01*
X84132320Y-40875795D01*
X84033831Y-40835000D01*
X83606169Y-40835000D01*
X83211062Y-40998659D01*
X82908659Y-41301062D01*
X82745000Y-41696169D01*
X82745000Y-42123831D01*
X82852256Y-42382770D01*
X82654100Y-42580927D01*
X82621711Y-42548538D01*
X82410375Y-42461000D01*
X82215340Y-42461000D01*
X82355000Y-42123831D01*
X82355000Y-41696169D01*
X82191341Y-41301062D01*
X81888938Y-40998659D01*
X81493831Y-40835000D01*
X81066169Y-40835000D01*
X80671062Y-40998659D01*
X80368659Y-41301062D01*
X80205000Y-41696169D01*
X80205000Y-42123831D01*
X80368659Y-42518938D01*
X80671062Y-42821341D01*
X81066169Y-42985000D01*
X81493831Y-42985000D01*
X81736361Y-42884541D01*
X81721000Y-42921625D01*
X81721000Y-43150375D01*
X81808538Y-43361711D01*
X81970289Y-43523462D01*
X82181625Y-43611000D01*
X82410375Y-43611000D01*
X82621711Y-43523462D01*
X82766797Y-43378376D01*
X82830563Y-43365692D01*
X82946335Y-43288335D01*
X82965862Y-43259111D01*
X83347230Y-42877744D01*
X83606169Y-42985000D01*
X84033831Y-42985000D01*
X84428938Y-42821341D01*
X84731341Y-42518938D01*
X84895000Y-42123831D01*
X84895000Y-41696169D01*
X84853509Y-41596002D01*
X84886875Y-41596002D01*
X84985000Y-41555358D01*
X84984999Y-43933026D01*
X82199887Y-46718140D01*
X82170666Y-46737665D01*
X82151141Y-46766886D01*
X82093308Y-46853438D01*
X82066145Y-46990000D01*
X82073001Y-47024468D01*
X82073001Y-47858828D01*
X81986711Y-47772538D01*
X81775375Y-47685000D01*
X81546625Y-47685000D01*
X81335289Y-47772538D01*
X81197827Y-47910000D01*
X81080700Y-47910000D01*
X81046236Y-47903145D01*
X81011772Y-47910000D01*
X81011768Y-47910000D01*
X80909673Y-47930308D01*
X80823121Y-47988140D01*
X80823119Y-47988142D01*
X80793901Y-48007665D01*
X80774378Y-48036883D01*
X79934123Y-48877140D01*
X79904902Y-48896665D01*
X79885377Y-48925886D01*
X79827544Y-49012438D01*
X79800381Y-49149000D01*
X79807237Y-49183468D01*
X79807237Y-49297427D01*
X79651341Y-48921062D01*
X79348938Y-48618659D01*
X79090000Y-48511403D01*
X79090000Y-45785163D01*
X79227462Y-45647701D01*
X79315000Y-45436365D01*
X79315000Y-45207615D01*
X79227462Y-44996279D01*
X79065711Y-44834528D01*
X78854375Y-44746990D01*
X78625625Y-44746990D01*
X78414289Y-44834528D01*
X78252538Y-44996279D01*
X78165000Y-45207615D01*
X78165000Y-45436365D01*
X78252538Y-45647701D01*
X78390001Y-45785164D01*
X78390000Y-48511403D01*
X78131062Y-48618659D01*
X77828659Y-48921062D01*
X77665000Y-49316169D01*
X77665000Y-49743831D01*
X77828659Y-50138938D01*
X78131062Y-50441341D01*
X78526169Y-50605000D01*
X78687029Y-50605000D01*
X78461029Y-50831000D01*
X75392475Y-50831000D01*
X72691995Y-48130522D01*
X75024285Y-48130522D01*
X75122876Y-48229113D01*
X75142401Y-48258335D01*
X75258173Y-48335692D01*
X75354724Y-48354897D01*
X75449440Y-48449613D01*
X75400000Y-48449613D01*
X75292701Y-48470956D01*
X75201736Y-48531736D01*
X75140956Y-48622701D01*
X75119613Y-48730000D01*
X75119613Y-50330000D01*
X75140956Y-50437299D01*
X75201736Y-50528264D01*
X75292701Y-50589044D01*
X75400000Y-50610387D01*
X77000000Y-50610387D01*
X77107299Y-50589044D01*
X77198264Y-50528264D01*
X77259044Y-50437299D01*
X77280387Y-50330000D01*
X77280387Y-48730000D01*
X77259044Y-48622701D01*
X77249924Y-48609051D01*
X77583117Y-48275859D01*
X77612335Y-48256336D01*
X77651205Y-48198165D01*
X77689693Y-48140564D01*
X77691690Y-48130522D01*
X77710001Y-48038469D01*
X77710001Y-48038465D01*
X77716856Y-48004001D01*
X77710001Y-47969537D01*
X77710001Y-45276472D01*
X78503974Y-44482500D01*
X81706527Y-44482500D01*
X82102000Y-44877974D01*
X82102000Y-45072375D01*
X82189538Y-45283711D01*
X82351289Y-45445462D01*
X82562625Y-45533000D01*
X82791375Y-45533000D01*
X83002711Y-45445462D01*
X83164462Y-45283711D01*
X83252000Y-45072375D01*
X83252000Y-44843625D01*
X83164462Y-44632289D01*
X83002711Y-44470538D01*
X82791375Y-44383000D01*
X82596974Y-44383000D01*
X82123362Y-43909389D01*
X82103835Y-43880165D01*
X81988063Y-43802808D01*
X81885968Y-43782500D01*
X81885964Y-43782500D01*
X81851500Y-43775645D01*
X81817036Y-43782500D01*
X78393464Y-43782500D01*
X78359000Y-43775645D01*
X78324536Y-43782500D01*
X78324532Y-43782500D01*
X78222437Y-43802808D01*
X78106665Y-43880165D01*
X78087140Y-43909386D01*
X77136888Y-44859639D01*
X77107667Y-44879164D01*
X77088142Y-44908385D01*
X77030309Y-44994937D01*
X77003146Y-45131499D01*
X77010002Y-45165967D01*
X77010001Y-47202112D01*
X76949375Y-47177000D01*
X76720625Y-47177000D01*
X76509289Y-47264538D01*
X76463768Y-47310059D01*
X76411108Y-47257399D01*
X76391582Y-47228176D01*
X76275810Y-47150819D01*
X76173715Y-47130511D01*
X76173711Y-47130511D01*
X76139247Y-47123656D01*
X76104783Y-47130511D01*
X75427518Y-47130511D01*
X76263030Y-46295000D01*
X76457431Y-46295000D01*
X76668767Y-46207462D01*
X76830518Y-46045711D01*
X76918056Y-45834375D01*
X76918056Y-45605625D01*
X76830518Y-45394289D01*
X76668767Y-45232538D01*
X76457431Y-45145000D01*
X76228681Y-45145000D01*
X76017345Y-45232538D01*
X75968050Y-45281834D01*
X75918754Y-45232538D01*
X75707418Y-45145000D01*
X75478668Y-45145000D01*
X75267332Y-45232538D01*
X75105581Y-45394289D01*
X75018043Y-45605625D01*
X75018043Y-45800026D01*
X74305070Y-46513000D01*
X67512329Y-46513000D01*
X68202537Y-45822793D01*
X68294069Y-45841000D01*
X68294073Y-45841000D01*
X68330999Y-45848345D01*
X68367925Y-45841000D01*
X69592074Y-45841000D01*
X69629000Y-45848345D01*
X69665926Y-45841000D01*
X69665931Y-45841000D01*
X69775317Y-45819242D01*
X69899359Y-45736359D01*
X69920279Y-45705050D01*
X70019052Y-45606278D01*
X70050359Y-45585359D01*
X70071280Y-45554050D01*
X70133241Y-45461319D01*
X70133241Y-45461318D01*
X70133242Y-45461317D01*
X70152640Y-45363793D01*
X70228264Y-45313264D01*
X70289044Y-45222299D01*
X70310387Y-45115000D01*
X70310387Y-45090000D01*
X71759551Y-45090000D01*
X71759551Y-45176825D01*
X71862314Y-45424916D01*
X72052194Y-45614796D01*
X72300285Y-45717559D01*
X72568817Y-45717559D01*
X72816908Y-45614796D01*
X73006788Y-45424916D01*
X73109551Y-45176825D01*
X73109551Y-44908293D01*
X73006788Y-44660202D01*
X72816908Y-44470322D01*
X72568817Y-44367559D01*
X72300285Y-44367559D01*
X72276645Y-44377351D01*
X72253309Y-44361758D01*
X72143923Y-44340000D01*
X72143918Y-44340000D01*
X72106992Y-44332655D01*
X72070066Y-44340000D01*
X70310387Y-44340000D01*
X70310387Y-44315000D01*
X70289044Y-44207701D01*
X70228264Y-44116736D01*
X70137299Y-44055956D01*
X70030000Y-44034613D01*
X69530000Y-44034613D01*
X69446544Y-44051213D01*
X69392421Y-43997090D01*
X69254592Y-43940000D01*
X69148750Y-43940000D01*
X69055000Y-44033750D01*
X69055000Y-44640000D01*
X69075000Y-44640000D01*
X69075000Y-44790000D01*
X69055000Y-44790000D01*
X69055000Y-44810000D01*
X68905000Y-44810000D01*
X68905000Y-44790000D01*
X68885000Y-44790000D01*
X68885000Y-44640000D01*
X68905000Y-44640000D01*
X68905000Y-44033750D01*
X68811250Y-43940000D01*
X68705408Y-43940000D01*
X68567579Y-43997090D01*
X68500136Y-44064533D01*
X68487299Y-44055956D01*
X68380000Y-44034613D01*
X67980000Y-44034613D01*
X67896544Y-44051213D01*
X67842421Y-43997090D01*
X67704592Y-43940000D01*
X67548750Y-43940000D01*
X67455000Y-44033750D01*
X67455000Y-44640000D01*
X67475000Y-44640000D01*
X67475000Y-44790000D01*
X67455000Y-44790000D01*
X67455000Y-45396250D01*
X67511710Y-45452960D01*
X66857671Y-46107000D01*
X66553333Y-46107000D01*
X66516407Y-46099655D01*
X66479481Y-46107000D01*
X66479477Y-46107000D01*
X66370091Y-46128758D01*
X66370089Y-46128759D01*
X66370090Y-46128759D01*
X66277357Y-46190721D01*
X66277356Y-46190722D01*
X66246049Y-46211641D01*
X66225130Y-46242949D01*
X66181950Y-46286129D01*
X66150641Y-46307049D01*
X66129721Y-46338358D01*
X66108613Y-46369949D01*
X66067758Y-46431092D01*
X66046000Y-46540478D01*
X66046000Y-46540482D01*
X66038655Y-46577408D01*
X66046000Y-46614335D01*
X66046000Y-46656171D01*
X65759781Y-46369952D01*
X65759779Y-46369949D01*
X64891000Y-45501171D01*
X64891000Y-44296426D01*
X64898345Y-44259500D01*
X64891000Y-44222573D01*
X64891000Y-44222569D01*
X64869242Y-44113183D01*
X64868765Y-44112469D01*
X64807279Y-44020449D01*
X64807278Y-44020448D01*
X64786359Y-43989141D01*
X64755053Y-43968223D01*
X64296165Y-43509335D01*
X64325041Y-43490041D01*
X64440014Y-43317971D01*
X64480387Y-43115001D01*
X64480387Y-42464999D01*
X64440014Y-42262029D01*
X64325041Y-42089959D01*
X64152971Y-41974986D01*
X63950001Y-41934613D01*
X63875000Y-41934613D01*
X63875000Y-41770387D01*
X64350000Y-41770387D01*
X64457299Y-41749044D01*
X64548264Y-41688264D01*
X64609044Y-41597299D01*
X64630387Y-41490000D01*
X64630387Y-39790000D01*
X64609044Y-39682701D01*
X64548264Y-39591736D01*
X64457299Y-39530956D01*
X64350000Y-39509613D01*
X63875000Y-39509613D01*
X63875000Y-39230387D01*
X64350000Y-39230387D01*
X64457299Y-39209044D01*
X64548264Y-39148264D01*
X64609044Y-39057299D01*
X64630387Y-38950000D01*
X64630387Y-37324999D01*
X65204813Y-37324999D01*
X64980273Y-37661047D01*
X64892960Y-38100000D01*
X64980273Y-38538953D01*
X65228920Y-38911080D01*
X65601047Y-39159727D01*
X65929197Y-39225000D01*
X66150803Y-39225000D01*
X66478953Y-39159727D01*
X66554364Y-39109339D01*
X66934744Y-39489719D01*
X66934744Y-39954133D01*
X66851080Y-39828920D01*
X66478953Y-39580273D01*
X66150803Y-39515000D01*
X65929197Y-39515000D01*
X65601047Y-39580273D01*
X65228920Y-39828920D01*
X64980273Y-40201047D01*
X64892960Y-40640000D01*
X64980273Y-41078953D01*
X65228920Y-41451080D01*
X65601047Y-41699727D01*
X65690000Y-41717421D01*
X65690000Y-42323151D01*
X65683145Y-42357616D01*
X65690000Y-42392081D01*
X65690001Y-45193326D01*
X65679538Y-45203789D01*
X65592000Y-45415125D01*
X65592000Y-45643875D01*
X65679538Y-45855211D01*
X65841289Y-46016962D01*
X66052625Y-46104500D01*
X66281375Y-46104500D01*
X66492711Y-46016962D01*
X66654462Y-45855211D01*
X66742000Y-45643875D01*
X66742000Y-45415125D01*
X66654462Y-45203789D01*
X66492711Y-45042038D01*
X66390000Y-44999494D01*
X66390000Y-44883750D01*
X66755000Y-44883750D01*
X66755000Y-45189592D01*
X66812090Y-45327420D01*
X66917579Y-45432910D01*
X67055408Y-45490000D01*
X67211250Y-45490000D01*
X67305000Y-45396250D01*
X67305000Y-44790000D01*
X66848750Y-44790000D01*
X66755000Y-44883750D01*
X66390000Y-44883750D01*
X66390000Y-44240408D01*
X66755000Y-44240408D01*
X66755000Y-44546250D01*
X66848750Y-44640000D01*
X67305000Y-44640000D01*
X67305000Y-44033750D01*
X67211250Y-43940000D01*
X67055408Y-43940000D01*
X66917579Y-43997090D01*
X66812090Y-44102580D01*
X66755000Y-44240408D01*
X66390000Y-44240408D01*
X66390000Y-43197371D01*
X66460821Y-43244692D01*
X66562916Y-43265000D01*
X66562919Y-43265000D01*
X66597383Y-43271855D01*
X66631847Y-43265000D01*
X66849613Y-43265000D01*
X66849613Y-43315000D01*
X66870956Y-43422299D01*
X66931736Y-43513264D01*
X67022701Y-43574044D01*
X67130000Y-43595387D01*
X67630000Y-43595387D01*
X67737299Y-43574044D01*
X67805000Y-43528808D01*
X67872701Y-43574044D01*
X67980000Y-43595387D01*
X68380000Y-43595387D01*
X68487299Y-43574044D01*
X68578264Y-43513264D01*
X68580000Y-43510666D01*
X68581736Y-43513264D01*
X68672701Y-43574044D01*
X68780000Y-43595387D01*
X69180000Y-43595387D01*
X69287299Y-43574044D01*
X69355000Y-43528808D01*
X69422701Y-43574044D01*
X69530000Y-43595387D01*
X70030000Y-43595387D01*
X70137299Y-43574044D01*
X70228264Y-43513264D01*
X70289044Y-43422299D01*
X70310387Y-43315000D01*
X70310387Y-42515000D01*
X70289044Y-42407701D01*
X70228264Y-42316736D01*
X70137299Y-42255956D01*
X70030000Y-42234613D01*
X69530000Y-42234613D01*
X69422701Y-42255956D01*
X69355000Y-42301192D01*
X69287299Y-42255956D01*
X69180000Y-42234613D01*
X68994586Y-42234613D01*
X68790146Y-42030173D01*
X68770619Y-42000949D01*
X68654847Y-41923592D01*
X68552752Y-41903284D01*
X68552748Y-41903284D01*
X68518284Y-41896429D01*
X68483820Y-41903284D01*
X67557335Y-41903284D01*
X67561916Y-41896429D01*
X67614435Y-41817828D01*
X67614436Y-41817827D01*
X67634744Y-41715732D01*
X67634744Y-41715728D01*
X67641599Y-41681265D01*
X67634744Y-41646802D01*
X67634744Y-41398399D01*
X67921985Y-41673276D01*
X68314651Y-41835916D01*
X68505000Y-41768761D01*
X68505000Y-40715000D01*
X68655000Y-40715000D01*
X68655000Y-41768761D01*
X68845349Y-41835916D01*
X69238015Y-41673276D01*
X69583344Y-41342811D01*
X69775923Y-40905350D01*
X69708959Y-40715000D01*
X68655000Y-40715000D01*
X68505000Y-40715000D01*
X68485000Y-40715000D01*
X68485000Y-40565000D01*
X68505000Y-40565000D01*
X68505000Y-39511239D01*
X68655000Y-39511239D01*
X68655000Y-40565000D01*
X69708959Y-40565000D01*
X69775923Y-40374650D01*
X69583344Y-39937189D01*
X69238015Y-39606724D01*
X68845349Y-39444084D01*
X68655000Y-39511239D01*
X68505000Y-39511239D01*
X68314651Y-39444084D01*
X67921985Y-39606724D01*
X67634744Y-39881601D01*
X67634744Y-39379208D01*
X67641599Y-39344744D01*
X67634744Y-39310280D01*
X67634744Y-39310276D01*
X67614436Y-39208181D01*
X67591004Y-39173113D01*
X67556604Y-39121629D01*
X67556600Y-39121625D01*
X67537078Y-39092409D01*
X67507863Y-39072888D01*
X67049339Y-38614364D01*
X67099727Y-38538953D01*
X67134258Y-38365350D01*
X67384077Y-38365350D01*
X67576656Y-38802811D01*
X67921985Y-39133276D01*
X68314651Y-39295916D01*
X68505000Y-39228761D01*
X68505000Y-38175000D01*
X68655000Y-38175000D01*
X68655000Y-39228761D01*
X68845349Y-39295916D01*
X69238015Y-39133276D01*
X69583344Y-38802811D01*
X69775923Y-38365350D01*
X69708959Y-38175000D01*
X68655000Y-38175000D01*
X68505000Y-38175000D01*
X67451041Y-38175000D01*
X67384077Y-38365350D01*
X67134258Y-38365350D01*
X67187040Y-38100000D01*
X67099727Y-37661047D01*
X66875187Y-37324999D01*
X67652093Y-37324999D01*
X67576656Y-37397189D01*
X67384077Y-37834650D01*
X67451041Y-38025000D01*
X68505000Y-38025000D01*
X68505000Y-38005000D01*
X68655000Y-38005000D01*
X68655000Y-38025000D01*
X69708959Y-38025000D01*
X69775923Y-37834650D01*
X69583344Y-37397189D01*
X69507907Y-37324999D01*
X69827682Y-37324999D01*
X70770001Y-38267320D01*
X70770000Y-39509613D01*
X70270000Y-39509613D01*
X70162701Y-39530956D01*
X70071736Y-39591736D01*
X70010956Y-39682701D01*
X69989613Y-39790000D01*
X69989613Y-41490000D01*
X70010956Y-41597299D01*
X70071736Y-41688264D01*
X70162701Y-41749044D01*
X70270000Y-41770387D01*
X71970000Y-41770387D01*
X72077299Y-41749044D01*
X72168264Y-41688264D01*
X72229044Y-41597299D01*
X72250387Y-41490000D01*
X72250387Y-39790000D01*
X72229044Y-39682701D01*
X72168264Y-39591736D01*
X72077299Y-39530956D01*
X71970000Y-39509613D01*
X71470000Y-39509613D01*
X71470000Y-38445436D01*
X71481681Y-38453241D01*
X71481682Y-38453241D01*
X71481683Y-38453242D01*
X71591069Y-38475000D01*
X71591073Y-38475000D01*
X71627999Y-38482345D01*
X71664925Y-38475000D01*
X72422613Y-38475000D01*
X72422613Y-38700000D01*
X72443956Y-38807299D01*
X72504736Y-38898264D01*
X72595701Y-38959044D01*
X72703000Y-38980387D01*
X73603000Y-38980387D01*
X73710299Y-38959044D01*
X73801264Y-38898264D01*
X73862044Y-38807299D01*
X73883387Y-38700000D01*
X73883387Y-37500000D01*
X73862044Y-37392701D01*
X73801264Y-37301736D01*
X73710299Y-37240956D01*
X73603000Y-37219613D01*
X72703000Y-37219613D01*
X72595701Y-37240956D01*
X72504736Y-37301736D01*
X72443956Y-37392701D01*
X72422613Y-37500000D01*
X72422613Y-37725000D01*
X71783330Y-37725000D01*
X70419270Y-36360941D01*
X70398349Y-36329631D01*
X70274307Y-36246748D01*
X70164921Y-36224990D01*
X70164916Y-36224990D01*
X70127990Y-36217645D01*
X70091064Y-36224990D01*
X62311589Y-36224990D01*
X62274663Y-36217645D01*
X62237737Y-36224990D01*
X62237733Y-36224990D01*
X62129887Y-36246442D01*
X62173540Y-36225900D01*
X62738533Y-36118122D01*
X62869713Y-36114000D01*
X101708129Y-36114000D01*
X102283471Y-36186683D01*
X102283471Y-36186683D01*
G37*
X102283471Y-36186683D02*
X102804979Y-36393162D01*
X103258753Y-36722848D01*
X103616281Y-37155025D01*
X103855100Y-37662540D01*
X103962878Y-38227533D01*
X103967000Y-38358714D01*
X103967001Y-53067120D01*
X103894317Y-53642470D01*
X103687838Y-54163978D01*
X103358152Y-54617752D01*
X102925974Y-54975281D01*
X102418460Y-55214100D01*
X101853468Y-55321878D01*
X101722287Y-55326000D01*
X62883872Y-55326000D01*
X62308530Y-55253317D01*
X61787022Y-55046838D01*
X61333248Y-54717152D01*
X60975719Y-54284974D01*
X60736900Y-53777460D01*
X60629122Y-53212468D01*
X60625000Y-53081287D01*
X60625000Y-38372871D01*
X60697683Y-37797529D01*
X60904162Y-37276021D01*
X61233848Y-36822247D01*
X61666025Y-36464719D01*
X62126228Y-36248163D01*
X62035612Y-36308711D01*
X62035609Y-36308714D01*
X62004305Y-36329631D01*
X61983388Y-36360935D01*
X61673450Y-36670875D01*
X61642141Y-36691795D01*
X61621221Y-36723104D01*
X61568657Y-36801772D01*
X61559258Y-36815838D01*
X61537500Y-36925224D01*
X61537500Y-36925228D01*
X61530155Y-36962154D01*
X61537500Y-36999080D01*
X61537501Y-44032065D01*
X61537500Y-44032070D01*
X61537501Y-44768404D01*
X61530155Y-44805334D01*
X61537501Y-44842264D01*
X61537501Y-45076566D01*
X61537500Y-45076571D01*
X61537500Y-45429070D01*
X61537501Y-47025168D01*
X60974950Y-47587721D01*
X60943641Y-47608641D01*
X60922721Y-47639950D01*
X60866776Y-47723678D01*
X60860758Y-47732684D01*
X60839000Y-47842070D01*
X60839000Y-47842074D01*
X60831655Y-47879000D01*
X60839000Y-47915927D01*
X60839001Y-49620069D01*
X60831655Y-49657000D01*
X60860759Y-49803318D01*
X60922721Y-49896050D01*
X60922723Y-49896052D01*
X60943642Y-49927359D01*
X60974948Y-49948278D01*
X62342728Y-51316058D01*
X62346758Y-51336317D01*
X62429641Y-51460359D01*
X62520869Y-51521316D01*
X62559986Y-51717971D01*
X62674959Y-51890041D01*
X62847029Y-52005014D01*
X62967441Y-52028965D01*
X62800763Y-52195643D01*
X62698000Y-52443734D01*
X62698000Y-52712266D01*
X62800763Y-52960357D01*
X62990643Y-53150237D01*
X63238734Y-53253000D01*
X63507266Y-53253000D01*
X63755357Y-53150237D01*
X63945237Y-52960357D01*
X63993176Y-52844621D01*
X74482000Y-52844621D01*
X74482000Y-53073371D01*
X74569538Y-53284707D01*
X74731289Y-53446458D01*
X74942625Y-53533996D01*
X75138585Y-53533996D01*
X75220436Y-53588687D01*
X75322531Y-53608995D01*
X75322535Y-53608995D01*
X75356999Y-53615850D01*
X75391463Y-53608995D01*
X75466022Y-53608995D01*
X76944142Y-55087117D01*
X76963665Y-55116335D01*
X76992883Y-55135858D01*
X76992885Y-55135860D01*
X77023431Y-55156270D01*
X77079437Y-55193692D01*
X77181532Y-55214000D01*
X77181536Y-55214000D01*
X77216000Y-55220855D01*
X77250464Y-55214000D01*
X99041536Y-55214000D01*
X99076000Y-55220855D01*
X99110464Y-55214000D01*
X99110468Y-55214000D01*
X99212563Y-55193692D01*
X99328335Y-55116335D01*
X99347862Y-55087111D01*
X100469613Y-53965361D01*
X100469613Y-54190000D01*
X100490956Y-54297299D01*
X100551736Y-54388264D01*
X100642701Y-54449044D01*
X100750000Y-54470387D01*
X102450000Y-54470387D01*
X102557299Y-54449044D01*
X102648264Y-54388264D01*
X102709044Y-54297299D01*
X102730387Y-54190000D01*
X102730387Y-52490000D01*
X102709044Y-52382701D01*
X102648264Y-52291736D01*
X102557299Y-52230956D01*
X102450000Y-52209613D01*
X101930920Y-52209613D01*
X101929692Y-52203437D01*
X101916088Y-52183077D01*
X101871859Y-52116884D01*
X101871856Y-52116881D01*
X101852334Y-52087665D01*
X101823119Y-52068144D01*
X100924999Y-51170026D01*
X100924999Y-50375278D01*
X100991062Y-50441341D01*
X101386169Y-50605000D01*
X101813831Y-50605000D01*
X102208938Y-50441341D01*
X102511341Y-50138938D01*
X102675000Y-49743831D01*
X102675000Y-49316169D01*
X102511341Y-48921062D01*
X102208938Y-48618659D01*
X101813831Y-48455000D01*
X101386169Y-48455000D01*
X100991062Y-48618659D01*
X100924999Y-48684722D01*
X100924999Y-42755278D01*
X100991062Y-42821341D01*
X101386169Y-42985000D01*
X101813831Y-42985000D01*
X102208938Y-42821341D01*
X102511341Y-42518938D01*
X102675000Y-42123831D01*
X102675000Y-41696169D01*
X102511341Y-41301062D01*
X102208938Y-40998659D01*
X101813831Y-40835000D01*
X101386169Y-40835000D01*
X100991062Y-40998659D01*
X100924999Y-41064722D01*
X100924999Y-39230387D01*
X102450000Y-39230387D01*
X102557299Y-39209044D01*
X102648264Y-39148264D01*
X102709044Y-39057299D01*
X102730387Y-38950000D01*
X102730387Y-37250000D01*
X102709044Y-37142701D01*
X102648264Y-37051736D01*
X102557299Y-36990956D01*
X102450000Y-36969613D01*
X100750000Y-36969613D01*
X100642701Y-36990956D01*
X100551736Y-37051736D01*
X100490956Y-37142701D01*
X100469613Y-37250000D01*
X100469613Y-37769080D01*
X100463437Y-37770308D01*
X100347665Y-37847665D01*
X100337650Y-37862654D01*
X100322664Y-37872667D01*
X100245307Y-37988439D01*
X100224999Y-38090534D01*
X100224999Y-38090537D01*
X100218144Y-38125001D01*
X100224999Y-38159465D01*
X100225000Y-51280530D01*
X100218144Y-51314999D01*
X100245307Y-51451561D01*
X100251186Y-51460359D01*
X100322665Y-51567334D01*
X100351886Y-51586859D01*
X100974639Y-52209613D01*
X100750000Y-52209613D01*
X100642701Y-52230956D01*
X100551736Y-52291736D01*
X100490956Y-52382701D01*
X100469613Y-52490000D01*
X100469613Y-53009080D01*
X100463437Y-53010308D01*
X100347665Y-53087665D01*
X100328142Y-53116883D01*
X100190115Y-53254911D01*
X100119727Y-52901047D01*
X99871080Y-52528920D01*
X99498953Y-52280273D01*
X99170803Y-52215000D01*
X98949197Y-52215000D01*
X98621047Y-52280273D01*
X98545635Y-52330662D01*
X98481862Y-52266889D01*
X98481860Y-52266886D01*
X98267000Y-52052027D01*
X98267000Y-50257279D01*
X98451062Y-50441341D01*
X98846169Y-50605000D01*
X99273831Y-50605000D01*
X99668938Y-50441341D01*
X99971341Y-50138938D01*
X100135000Y-49743831D01*
X100135000Y-49316169D01*
X99971341Y-48921062D01*
X99668938Y-48618659D01*
X99273831Y-48455000D01*
X98846169Y-48455000D01*
X98451062Y-48618659D01*
X98267000Y-48802721D01*
X98267000Y-42637279D01*
X98451062Y-42821341D01*
X98846169Y-42985000D01*
X99273831Y-42985000D01*
X99668938Y-42821341D01*
X99971341Y-42518938D01*
X100135000Y-42123831D01*
X100135000Y-41696169D01*
X99971341Y-41301062D01*
X99668938Y-40998659D01*
X99273831Y-40835000D01*
X98846169Y-40835000D01*
X98451062Y-40998659D01*
X98267000Y-41182721D01*
X98267000Y-39387973D01*
X98545635Y-39109338D01*
X98621047Y-39159727D01*
X98949197Y-39225000D01*
X99170803Y-39225000D01*
X99498953Y-39159727D01*
X99871080Y-38911080D01*
X100119727Y-38538953D01*
X100207040Y-38100000D01*
X100119727Y-37661047D01*
X99871080Y-37288920D01*
X99498953Y-37040273D01*
X99170803Y-36975000D01*
X98949197Y-36975000D01*
X98621047Y-37040273D01*
X98248920Y-37288920D01*
X98000273Y-37661047D01*
X97912960Y-38100000D01*
X98000273Y-38538953D01*
X98050662Y-38614365D01*
X97790001Y-38875026D01*
X97529339Y-38614364D01*
X97579727Y-38538953D01*
X97667040Y-38100000D01*
X97579727Y-37661047D01*
X97331080Y-37288920D01*
X96958953Y-37040273D01*
X96630803Y-36975000D01*
X96409197Y-36975000D01*
X96081047Y-37040273D01*
X95708920Y-37288920D01*
X95460273Y-37661047D01*
X95372960Y-38100000D01*
X95460273Y-38538953D01*
X95708920Y-38911080D01*
X96081047Y-39159727D01*
X96409197Y-39225000D01*
X96630803Y-39225000D01*
X96958953Y-39159727D01*
X97034364Y-39109339D01*
X97266989Y-39341964D01*
X97266989Y-41136710D01*
X97128938Y-40998659D01*
X96733831Y-40835000D01*
X96306169Y-40835000D01*
X95911062Y-40998659D01*
X95727000Y-41182721D01*
X95727000Y-39531462D01*
X95733855Y-39496999D01*
X95727000Y-39462537D01*
X95727000Y-39462532D01*
X95706692Y-39360437D01*
X95629335Y-39244665D01*
X95600114Y-39225140D01*
X95101860Y-38726887D01*
X95101858Y-38726884D01*
X94989339Y-38614365D01*
X95039727Y-38538953D01*
X95127040Y-38100000D01*
X95039727Y-37661047D01*
X94791080Y-37288920D01*
X94418953Y-37040273D01*
X94090803Y-36975000D01*
X93869197Y-36975000D01*
X93541047Y-37040273D01*
X93168920Y-37288920D01*
X92920273Y-37661047D01*
X92832960Y-38100000D01*
X92920273Y-38538953D01*
X93168920Y-38911080D01*
X93541047Y-39159727D01*
X93869197Y-39225000D01*
X94090803Y-39225000D01*
X94418953Y-39159727D01*
X94494365Y-39109339D01*
X94606884Y-39221858D01*
X94606887Y-39221860D01*
X95027001Y-39641975D01*
X95027001Y-40557562D01*
X94942063Y-40500808D01*
X94839968Y-40480500D01*
X94839964Y-40480500D01*
X94805500Y-40473645D01*
X94771036Y-40480500D01*
X93108974Y-40480500D01*
X91974759Y-39346286D01*
X91968253Y-39336549D01*
X91965859Y-39332966D01*
X91965858Y-39332965D01*
X91946334Y-39303746D01*
X91917116Y-39284223D01*
X91806943Y-39174051D01*
X91878953Y-39159727D01*
X92251080Y-38911080D01*
X92499727Y-38538953D01*
X92587040Y-38100000D01*
X92499727Y-37661047D01*
X92251080Y-37288920D01*
X91878953Y-37040273D01*
X91550803Y-36975000D01*
X91329197Y-36975000D01*
X91001047Y-37040273D01*
X90628920Y-37288920D01*
X90380273Y-37661047D01*
X90292960Y-38100000D01*
X90380273Y-38538953D01*
X90421063Y-38599999D01*
X89918937Y-38599999D01*
X89959727Y-38538953D01*
X90047040Y-38100000D01*
X89959727Y-37661047D01*
X89711080Y-37288920D01*
X89338953Y-37040273D01*
X89010803Y-36975000D01*
X88789197Y-36975000D01*
X88461047Y-37040273D01*
X88088920Y-37288920D01*
X87840273Y-37661047D01*
X87752960Y-38100000D01*
X87840273Y-38538953D01*
X88088920Y-38911080D01*
X88461047Y-39159727D01*
X88789197Y-39225000D01*
X89010803Y-39225000D01*
X89338953Y-39159727D01*
X89414365Y-39109339D01*
X89478139Y-39173113D01*
X89497664Y-39202334D01*
X89613436Y-39279691D01*
X89715531Y-39299999D01*
X89715536Y-39299999D01*
X89749998Y-39306854D01*
X89784461Y-39299999D01*
X90367026Y-39299999D01*
X90849027Y-39782000D01*
X88536974Y-39782000D01*
X88155862Y-39400888D01*
X88155859Y-39400884D01*
X87369339Y-38614365D01*
X87419727Y-38538953D01*
X87507040Y-38100000D01*
X87419727Y-37661047D01*
X87171080Y-37288920D01*
X86798953Y-37040273D01*
X86470803Y-36975000D01*
X86249197Y-36975000D01*
X85921047Y-37040273D01*
X85548920Y-37288920D01*
X85300273Y-37661047D01*
X85212960Y-38100000D01*
X85300273Y-38538953D01*
X85548920Y-38911080D01*
X85921047Y-39159727D01*
X86249197Y-39225000D01*
X86470803Y-39225000D01*
X86798953Y-39159727D01*
X86874365Y-39109339D01*
X87660884Y-39895859D01*
X87660888Y-39895862D01*
X88120140Y-40355114D01*
X88139665Y-40384335D01*
X88255437Y-40461692D01*
X88357532Y-40482000D01*
X88357536Y-40482000D01*
X88392000Y-40488855D01*
X88426464Y-40482000D01*
X91034029Y-40482000D01*
X91387029Y-40835000D01*
X91226169Y-40835000D01*
X90831062Y-40998659D01*
X90528659Y-41301062D01*
X90365000Y-41696169D01*
X90365000Y-42123831D01*
X90472256Y-42382769D01*
X85678027Y-47177000D01*
X85483625Y-47177000D01*
X85272289Y-47264538D01*
X85110538Y-47426289D01*
X85023000Y-47637625D01*
X85023000Y-47866375D01*
X85110538Y-48077711D01*
X85272289Y-48239462D01*
X85483625Y-48327000D01*
X85712375Y-48327000D01*
X85923711Y-48239462D01*
X86085462Y-48077711D01*
X86173000Y-47866375D01*
X86173000Y-47671973D01*
X90967231Y-42877744D01*
X91226169Y-42985000D01*
X91653831Y-42985000D01*
X92048938Y-42821341D01*
X92233000Y-42637279D01*
X92233001Y-47971528D01*
X92233000Y-47971533D01*
X92233000Y-48449613D01*
X90640000Y-48449613D01*
X90532701Y-48470956D01*
X90441736Y-48531736D01*
X90380956Y-48622701D01*
X90359613Y-48730000D01*
X90359613Y-50330000D01*
X90380956Y-50437299D01*
X90441736Y-50528264D01*
X90532701Y-50589044D01*
X90640000Y-50610387D01*
X91090001Y-50610387D01*
X91090001Y-50894500D01*
X86463229Y-50894500D01*
X86304744Y-50736016D01*
X86304744Y-50605000D01*
X86573831Y-50605000D01*
X86968938Y-50441341D01*
X87271341Y-50138938D01*
X87435000Y-49743831D01*
X87435000Y-49316169D01*
X87271341Y-48921062D01*
X86968938Y-48618659D01*
X86573831Y-48455000D01*
X86146169Y-48455000D01*
X85751062Y-48618659D01*
X85448659Y-48921062D01*
X85285000Y-49316169D01*
X85285000Y-49743831D01*
X85448659Y-50138938D01*
X85456512Y-50146791D01*
X85404033Y-50168528D01*
X85242282Y-50330279D01*
X85154744Y-50541615D01*
X85154744Y-50770365D01*
X85242282Y-50981701D01*
X85404033Y-51143452D01*
X85615369Y-51230990D01*
X85809770Y-51230990D01*
X86046396Y-51467617D01*
X86065919Y-51496835D01*
X86095137Y-51516358D01*
X86095139Y-51516360D01*
X86154465Y-51556000D01*
X86181691Y-51574192D01*
X86283786Y-51594500D01*
X86283790Y-51594500D01*
X86318254Y-51601355D01*
X86352718Y-51594500D01*
X87610526Y-51594500D01*
X86986887Y-52218140D01*
X86986884Y-52218142D01*
X86874365Y-52330661D01*
X86798953Y-52280273D01*
X86470803Y-52215000D01*
X86249197Y-52215000D01*
X85921047Y-52280273D01*
X85548920Y-52528920D01*
X85300273Y-52901047D01*
X85212960Y-53340000D01*
X85300273Y-53778953D01*
X85548920Y-54151080D01*
X85921047Y-54399727D01*
X86249197Y-54465000D01*
X86470803Y-54465000D01*
X86798953Y-54399727D01*
X87171080Y-54151080D01*
X87419727Y-53778953D01*
X87507040Y-53340000D01*
X87419727Y-52901047D01*
X87369339Y-52825635D01*
X87481858Y-52713116D01*
X87481860Y-52713113D01*
X88300464Y-51894511D01*
X89850514Y-51894511D01*
X89414365Y-52330661D01*
X89338953Y-52280273D01*
X89010803Y-52215000D01*
X88789197Y-52215000D01*
X88461047Y-52280273D01*
X88088920Y-52528920D01*
X87840273Y-52901047D01*
X87752960Y-53340000D01*
X87840273Y-53778953D01*
X88088920Y-54151080D01*
X88461047Y-54399727D01*
X88789197Y-54465000D01*
X89010803Y-54465000D01*
X89338953Y-54399727D01*
X89711080Y-54151080D01*
X89959727Y-53778953D01*
X90047040Y-53340000D01*
X89959727Y-52901047D01*
X89909339Y-52825635D01*
X90540453Y-52194522D01*
X91758014Y-52194522D01*
X91792478Y-52201377D01*
X91826942Y-52194522D01*
X91826946Y-52194522D01*
X91929041Y-52174214D01*
X92044813Y-52096857D01*
X92064340Y-52067633D01*
X93106126Y-51025848D01*
X93135344Y-51006325D01*
X93212702Y-50890553D01*
X93233010Y-50788458D01*
X93233010Y-50788453D01*
X93239865Y-50753991D01*
X93233010Y-50719528D01*
X93233010Y-50303289D01*
X93371062Y-50441341D01*
X93766169Y-50605000D01*
X93927028Y-50605000D01*
X92392028Y-52140001D01*
X92324461Y-52140001D01*
X92289998Y-52133146D01*
X92255536Y-52140001D01*
X92255531Y-52140001D01*
X92153436Y-52160309D01*
X92037664Y-52237666D01*
X92018140Y-52266886D01*
X91954365Y-52330661D01*
X91878953Y-52280273D01*
X91550803Y-52215000D01*
X91329197Y-52215000D01*
X91001047Y-52280273D01*
X90628920Y-52528920D01*
X90380273Y-52901047D01*
X90292960Y-53340000D01*
X90380273Y-53778953D01*
X90628920Y-54151080D01*
X91001047Y-54399727D01*
X91329197Y-54465000D01*
X91550803Y-54465000D01*
X91878953Y-54399727D01*
X92251080Y-54151080D01*
X92499727Y-53778953D01*
X92587040Y-53340000D01*
X92499727Y-52901047D01*
X92458937Y-52840001D01*
X92502537Y-52840001D01*
X92537001Y-52846856D01*
X92571465Y-52840001D01*
X92571469Y-52840001D01*
X92673564Y-52819693D01*
X92789336Y-52742336D01*
X92808863Y-52713112D01*
X95027000Y-50494976D01*
X95027000Y-51798025D01*
X94494365Y-52330661D01*
X94418953Y-52280273D01*
X94090803Y-52215000D01*
X93869197Y-52215000D01*
X93541047Y-52280273D01*
X93168920Y-52528920D01*
X92920273Y-52901047D01*
X92832960Y-53340000D01*
X92920273Y-53778953D01*
X93168920Y-54151080D01*
X93541047Y-54399727D01*
X93869197Y-54465000D01*
X94090803Y-54465000D01*
X94418953Y-54399727D01*
X94791080Y-54151080D01*
X95039727Y-53778953D01*
X95127040Y-53340000D01*
X95039727Y-52901047D01*
X94989339Y-52825635D01*
X95600119Y-52214856D01*
X95629334Y-52195335D01*
X95648856Y-52166119D01*
X95648859Y-52166116D01*
X95695136Y-52096857D01*
X95706692Y-52079563D01*
X95727000Y-51977468D01*
X95727000Y-51977464D01*
X95733855Y-51943001D01*
X95727000Y-51908538D01*
X95727000Y-50257279D01*
X95911062Y-50441341D01*
X96306169Y-50605000D01*
X96733831Y-50605000D01*
X97128938Y-50441341D01*
X97266990Y-50303289D01*
X97266990Y-52098036D01*
X97146886Y-52218141D01*
X97146884Y-52218142D01*
X97034365Y-52330661D01*
X96958953Y-52280273D01*
X96630803Y-52215000D01*
X96409197Y-52215000D01*
X96081047Y-52280273D01*
X95708920Y-52528920D01*
X95460273Y-52901047D01*
X95372960Y-53340000D01*
X95460273Y-53778953D01*
X95708920Y-54151080D01*
X96081047Y-54399727D01*
X96409197Y-54465000D01*
X96630803Y-54465000D01*
X96958953Y-54399727D01*
X97331080Y-54151080D01*
X97579727Y-53778953D01*
X97667040Y-53340000D01*
X97579727Y-52901047D01*
X97529339Y-52825635D01*
X97641858Y-52713116D01*
X97641859Y-52713114D01*
X97790000Y-52564974D01*
X97986886Y-52761860D01*
X97986889Y-52761862D01*
X98050662Y-52825635D01*
X98000273Y-52901047D01*
X97912960Y-53340000D01*
X98000273Y-53778953D01*
X98248920Y-54151080D01*
X98621047Y-54399727D01*
X98949197Y-54465000D01*
X98980027Y-54465000D01*
X98931027Y-54514000D01*
X79787717Y-54514000D01*
X79802420Y-54507910D01*
X79907910Y-54402421D01*
X79965000Y-54264592D01*
X79965000Y-53508750D01*
X79871250Y-53415000D01*
X78815000Y-53415000D01*
X78815000Y-53435000D01*
X78665000Y-53435000D01*
X78665000Y-53415000D01*
X77608750Y-53415000D01*
X77515000Y-53508750D01*
X77515000Y-54264592D01*
X77572090Y-54402421D01*
X77677580Y-54507910D01*
X77692283Y-54514000D01*
X77360975Y-54514000D01*
X75882857Y-53035884D01*
X75863330Y-53006660D01*
X75747558Y-52929303D01*
X75645463Y-52908995D01*
X75645459Y-52908995D01*
X75632000Y-52906318D01*
X75632000Y-52844621D01*
X75544462Y-52633285D01*
X75382711Y-52471534D01*
X75247211Y-52415408D01*
X77515000Y-52415408D01*
X77515000Y-53171250D01*
X77608750Y-53265000D01*
X78665000Y-53265000D01*
X78665000Y-52208750D01*
X78815000Y-52208750D01*
X78815000Y-53265000D01*
X79871250Y-53265000D01*
X79965000Y-53171250D01*
X79965000Y-52415408D01*
X79907910Y-52277579D01*
X79802420Y-52172090D01*
X79664592Y-52115000D01*
X78908750Y-52115000D01*
X78815000Y-52208750D01*
X78665000Y-52208750D01*
X78571250Y-52115000D01*
X77815408Y-52115000D01*
X77677580Y-52172090D01*
X77572090Y-52277579D01*
X77515000Y-52415408D01*
X75247211Y-52415408D01*
X75171375Y-52383996D01*
X74942625Y-52383996D01*
X74731289Y-52471534D01*
X74569538Y-52633285D01*
X74482000Y-52844621D01*
X63993176Y-52844621D01*
X64048000Y-52712266D01*
X64048000Y-52443734D01*
X63945237Y-52195643D01*
X63794981Y-52045387D01*
X63950001Y-52045387D01*
X64152971Y-52005014D01*
X64325041Y-51890041D01*
X64440014Y-51717971D01*
X64452500Y-51655199D01*
X64464986Y-51717971D01*
X64579959Y-51890041D01*
X64752029Y-52005014D01*
X64954999Y-52045387D01*
X65855001Y-52045387D01*
X66057971Y-52005014D01*
X66230041Y-51890041D01*
X66345014Y-51717971D01*
X66351545Y-51685139D01*
X66419643Y-51753237D01*
X66667734Y-51856000D01*
X66936266Y-51856000D01*
X67184357Y-51753237D01*
X67374237Y-51563357D01*
X67477000Y-51315266D01*
X67477000Y-51113750D01*
X70045000Y-51113750D01*
X70045000Y-51594592D01*
X70102090Y-51732420D01*
X70207579Y-51837910D01*
X70345408Y-51895000D01*
X70951250Y-51895000D01*
X71045000Y-51801250D01*
X71045000Y-51020000D01*
X71195000Y-51020000D01*
X71195000Y-51801250D01*
X71288750Y-51895000D01*
X71894592Y-51895000D01*
X72032421Y-51837910D01*
X72137910Y-51732420D01*
X72195000Y-51594592D01*
X72195000Y-51113750D01*
X72101250Y-51020000D01*
X71195000Y-51020000D01*
X71045000Y-51020000D01*
X70138750Y-51020000D01*
X70045000Y-51113750D01*
X67477000Y-51113750D01*
X67477000Y-51046734D01*
X67374237Y-50798643D01*
X67184357Y-50608763D01*
X66936266Y-50506000D01*
X66667734Y-50506000D01*
X66585103Y-50540227D01*
X66660052Y-50465278D01*
X66691359Y-50444359D01*
X66722914Y-50397135D01*
X66774241Y-50320319D01*
X66774241Y-50320318D01*
X66774242Y-50320317D01*
X66779196Y-50295408D01*
X70045000Y-50295408D01*
X70045000Y-50776250D01*
X70138750Y-50870000D01*
X71045000Y-50870000D01*
X71045000Y-50088750D01*
X71195000Y-50088750D01*
X71195000Y-50870000D01*
X72101250Y-50870000D01*
X72195000Y-50776250D01*
X72195000Y-50295408D01*
X72137910Y-50157580D01*
X72032421Y-50052090D01*
X71894592Y-49995000D01*
X71288750Y-49995000D01*
X71195000Y-50088750D01*
X71045000Y-50088750D01*
X70951250Y-49995000D01*
X70345408Y-49995000D01*
X70207579Y-50052090D01*
X70102090Y-50157580D01*
X70045000Y-50295408D01*
X66779196Y-50295408D01*
X66796000Y-50210931D01*
X66796000Y-50210927D01*
X66803345Y-50174000D01*
X66796000Y-50137074D01*
X66796000Y-48185915D01*
X66803345Y-48148989D01*
X66796000Y-48112063D01*
X66796000Y-47611184D01*
X66906635Y-47657010D01*
X67039863Y-47657010D01*
X67126720Y-47866703D01*
X67288471Y-48028454D01*
X67499807Y-48115992D01*
X67728557Y-48115992D01*
X67869556Y-48057588D01*
X67869556Y-48220002D01*
X67957094Y-48431338D01*
X68118845Y-48593089D01*
X68139691Y-48601724D01*
X68096448Y-48706121D01*
X68096448Y-48828000D01*
X68084625Y-48828000D01*
X67873289Y-48915538D01*
X67711538Y-49077289D01*
X67624000Y-49288625D01*
X67624000Y-49517375D01*
X67711538Y-49728711D01*
X67873289Y-49890462D01*
X68084625Y-49978000D01*
X68313375Y-49978000D01*
X68524711Y-49890462D01*
X68662173Y-49753000D01*
X68831482Y-49753000D01*
X68865946Y-49759855D01*
X68900410Y-49753000D01*
X68900414Y-49753000D01*
X69002509Y-49732692D01*
X69118281Y-49655335D01*
X69137808Y-49626112D01*
X69419567Y-49344354D01*
X69448783Y-49324832D01*
X69464539Y-49301253D01*
X69545748Y-49382462D01*
X69757084Y-49470000D01*
X69985834Y-49470000D01*
X70173850Y-49392122D01*
X70179986Y-49422971D01*
X70294959Y-49595041D01*
X70467029Y-49710014D01*
X70669999Y-49750387D01*
X71570001Y-49750387D01*
X71772971Y-49710014D01*
X71945041Y-49595041D01*
X72060014Y-49422971D01*
X72100387Y-49220001D01*
X72100387Y-48569999D01*
X72090172Y-48518645D01*
X74975642Y-51404117D01*
X74995165Y-51433335D01*
X75110937Y-51510692D01*
X75213032Y-51531000D01*
X75213036Y-51531000D01*
X75247499Y-51537855D01*
X75281962Y-51531000D01*
X78571538Y-51531000D01*
X78606002Y-51537855D01*
X78640466Y-51531000D01*
X78640470Y-51531000D01*
X78742565Y-51510692D01*
X78858337Y-51433335D01*
X78877864Y-51404111D01*
X80302576Y-49979400D01*
X80368659Y-50138938D01*
X80671062Y-50441341D01*
X81066169Y-50605000D01*
X81493831Y-50605000D01*
X81888938Y-50441341D01*
X82073000Y-50257279D01*
X82073000Y-52052026D01*
X81915413Y-52209613D01*
X80430000Y-52209613D01*
X80322701Y-52230956D01*
X80231736Y-52291736D01*
X80170956Y-52382701D01*
X80149613Y-52490000D01*
X80149613Y-54190000D01*
X80170956Y-54297299D01*
X80231736Y-54388264D01*
X80322701Y-54449044D01*
X80430000Y-54470387D01*
X82130000Y-54470387D01*
X82237299Y-54449044D01*
X82328264Y-54388264D01*
X82389044Y-54297299D01*
X82410387Y-54190000D01*
X82410387Y-52704587D01*
X82550000Y-52564974D01*
X82810662Y-52825635D01*
X82760273Y-52901047D01*
X82672960Y-53340000D01*
X82760273Y-53778953D01*
X83008920Y-54151080D01*
X83381047Y-54399727D01*
X83709197Y-54465000D01*
X83930803Y-54465000D01*
X84258953Y-54399727D01*
X84631080Y-54151080D01*
X84879727Y-53778953D01*
X84967040Y-53340000D01*
X84879727Y-52901047D01*
X84631080Y-52528920D01*
X84258953Y-52280273D01*
X83930803Y-52215000D01*
X83709197Y-52215000D01*
X83381047Y-52280273D01*
X83305635Y-52330662D01*
X83090500Y-52115527D01*
X83090500Y-50320779D01*
X83211062Y-50441341D01*
X83606169Y-50605000D01*
X84033831Y-50605000D01*
X84428938Y-50441341D01*
X84731341Y-50138938D01*
X84895000Y-49743831D01*
X84895000Y-49316169D01*
X84731341Y-48921062D01*
X84428938Y-48618659D01*
X84033831Y-48455000D01*
X83606169Y-48455000D01*
X83211062Y-48618659D01*
X83090500Y-48739221D01*
X83090500Y-47261973D01*
X87726116Y-42626358D01*
X87755334Y-42606835D01*
X87789850Y-42555180D01*
X87832692Y-42491063D01*
X87843494Y-42436758D01*
X87853000Y-42388968D01*
X87853000Y-42388965D01*
X87859855Y-42354501D01*
X87853000Y-42320037D01*
X87853000Y-41531814D01*
X87859855Y-41497351D01*
X87853000Y-41462889D01*
X87853000Y-41462884D01*
X87832692Y-41360789D01*
X87755335Y-41245017D01*
X87726114Y-41225492D01*
X85227509Y-38726888D01*
X85207982Y-38697664D01*
X85092210Y-38620307D01*
X84990115Y-38599999D01*
X84990111Y-38599999D01*
X84955647Y-38593144D01*
X84921183Y-38599999D01*
X84838937Y-38599999D01*
X84879727Y-38538953D01*
X84967040Y-38100000D01*
X84879727Y-37661047D01*
X84631080Y-37288920D01*
X84258953Y-37040273D01*
X83930803Y-36975000D01*
X83709197Y-36975000D01*
X83381047Y-37040273D01*
X83008920Y-37288920D01*
X82900000Y-37451931D01*
X82900000Y-37299462D01*
X82906855Y-37264998D01*
X82900000Y-37230534D01*
X82900000Y-37230530D01*
X82879692Y-37128435D01*
X82872377Y-37117487D01*
X82821860Y-37041883D01*
X82821858Y-37041881D01*
X82802335Y-37012663D01*
X82773117Y-36993140D01*
X82069364Y-36289389D01*
X82049837Y-36260165D01*
X81934065Y-36182808D01*
X81831970Y-36162500D01*
X81831966Y-36162500D01*
X81797502Y-36155645D01*
X81763038Y-36162500D01*
X75980464Y-36162500D01*
X75946000Y-36155645D01*
X75911536Y-36162500D01*
X75911532Y-36162500D01*
X75809437Y-36182808D01*
X75722885Y-36240640D01*
X75722884Y-36240641D01*
X75693665Y-36260165D01*
X75674142Y-36289383D01*
X75046388Y-36917138D01*
X75017167Y-36936664D01*
X74939810Y-37052436D01*
X74919502Y-37154531D01*
X74919502Y-37154534D01*
X74912647Y-37188998D01*
X74919502Y-37223462D01*
X74919503Y-39633751D01*
X72349962Y-42203294D01*
X72155560Y-42203294D01*
X71944224Y-42290832D01*
X71782473Y-42452583D01*
X71694935Y-42663919D01*
X71694935Y-42892669D01*
X71698508Y-42901296D01*
X71584055Y-42948704D01*
X71422304Y-43110455D01*
X71334766Y-43321791D01*
X71334766Y-43550541D01*
X71422304Y-43761877D01*
X71584055Y-43923628D01*
X71795391Y-44011166D01*
X72024141Y-44011166D01*
X72235477Y-43923628D01*
X72372939Y-43786166D01*
X77179370Y-43786166D01*
X77213834Y-43793021D01*
X77248298Y-43786166D01*
X77248302Y-43786166D01*
X77350397Y-43765858D01*
X77466169Y-43688501D01*
X77485696Y-43659277D01*
X78267230Y-42877744D01*
X78526169Y-42985000D01*
X78953831Y-42985000D01*
X79348938Y-42821341D01*
X79651341Y-42518938D01*
X79815000Y-42123831D01*
X79815000Y-41696169D01*
X79651341Y-41301062D01*
X79348938Y-40998659D01*
X78953831Y-40835000D01*
X78526169Y-40835000D01*
X78131062Y-40998659D01*
X77828659Y-41301062D01*
X77665000Y-41696169D01*
X77665000Y-42123831D01*
X77772256Y-42382770D01*
X77068861Y-43086166D01*
X72764786Y-43086166D01*
X72844935Y-42892669D01*
X72844935Y-42698267D01*
X75492619Y-40050585D01*
X75521837Y-40031062D01*
X75541360Y-40001844D01*
X75541362Y-40001842D01*
X75599194Y-39915290D01*
X75600468Y-39908885D01*
X75619502Y-39813195D01*
X75619502Y-39813191D01*
X75626357Y-39778727D01*
X75619502Y-39744263D01*
X75619502Y-37500000D01*
X75722613Y-37500000D01*
X75722613Y-38700000D01*
X75743956Y-38807299D01*
X75804736Y-38898264D01*
X75895701Y-38959044D01*
X76003000Y-38980387D01*
X76903000Y-38980387D01*
X77010299Y-38959044D01*
X77101264Y-38898264D01*
X77162044Y-38807299D01*
X77183387Y-38700000D01*
X77183387Y-38475000D01*
X77609613Y-38475000D01*
X77609613Y-38950000D01*
X77630956Y-39057299D01*
X77691736Y-39148264D01*
X77782701Y-39209044D01*
X77890000Y-39230387D01*
X79590000Y-39230387D01*
X79697299Y-39209044D01*
X79788264Y-39148264D01*
X79849044Y-39057299D01*
X79870387Y-38950000D01*
X79870387Y-37250000D01*
X79849044Y-37142701D01*
X79788264Y-37051736D01*
X79697299Y-36990956D01*
X79590000Y-36969613D01*
X77890000Y-36969613D01*
X77782701Y-36990956D01*
X77691736Y-37051736D01*
X77630956Y-37142701D01*
X77609613Y-37250000D01*
X77609613Y-37725000D01*
X77183387Y-37725000D01*
X77183387Y-37500000D01*
X77162044Y-37392701D01*
X77101264Y-37301736D01*
X77010299Y-37240956D01*
X76903000Y-37219613D01*
X76003000Y-37219613D01*
X75895701Y-37240956D01*
X75804736Y-37301736D01*
X75743956Y-37392701D01*
X75722613Y-37500000D01*
X75619502Y-37500000D01*
X75619502Y-37333971D01*
X76090975Y-36862500D01*
X81652529Y-36862500D01*
X81759641Y-36969613D01*
X80430000Y-36969613D01*
X80322701Y-36990956D01*
X80231736Y-37051736D01*
X80170956Y-37142701D01*
X80149613Y-37250000D01*
X80149613Y-38950000D01*
X80170956Y-39057299D01*
X80231736Y-39148264D01*
X80322701Y-39209044D01*
X80430000Y-39230387D01*
X80949080Y-39230387D01*
X80950308Y-39236562D01*
X81027665Y-39352334D01*
X81056886Y-39371859D01*
X81213026Y-39528000D01*
X78266464Y-39528000D01*
X78232000Y-39521145D01*
X78197536Y-39528000D01*
X78197532Y-39528000D01*
X78095437Y-39548308D01*
X77979665Y-39625665D01*
X77960140Y-39654886D01*
X76672770Y-40942256D01*
X76413831Y-40835000D01*
X75986169Y-40835000D01*
X75591062Y-40998659D01*
X75288659Y-41301062D01*
X75125000Y-41696169D01*
X75125000Y-42123831D01*
X75288659Y-42518938D01*
X75591062Y-42821341D01*
X75986169Y-42985000D01*
X76413831Y-42985000D01*
X76808938Y-42821341D01*
X77111341Y-42518938D01*
X77275000Y-42123831D01*
X77275000Y-41696169D01*
X77167744Y-41437230D01*
X78376974Y-40228000D01*
X83484525Y-40228000D01*
X84132320Y-40875795D01*
X84033831Y-40835000D01*
X83606169Y-40835000D01*
X83211062Y-40998659D01*
X82908659Y-41301062D01*
X82745000Y-41696169D01*
X82745000Y-42123831D01*
X82852256Y-42382770D01*
X82654100Y-42580927D01*
X82621711Y-42548538D01*
X82410375Y-42461000D01*
X82215340Y-42461000D01*
X82355000Y-42123831D01*
X82355000Y-41696169D01*
X82191341Y-41301062D01*
X81888938Y-40998659D01*
X81493831Y-40835000D01*
X81066169Y-40835000D01*
X80671062Y-40998659D01*
X80368659Y-41301062D01*
X80205000Y-41696169D01*
X80205000Y-42123831D01*
X80368659Y-42518938D01*
X80671062Y-42821341D01*
X81066169Y-42985000D01*
X81493831Y-42985000D01*
X81736361Y-42884541D01*
X81721000Y-42921625D01*
X81721000Y-43150375D01*
X81808538Y-43361711D01*
X81970289Y-43523462D01*
X82181625Y-43611000D01*
X82410375Y-43611000D01*
X82621711Y-43523462D01*
X82766797Y-43378376D01*
X82830563Y-43365692D01*
X82946335Y-43288335D01*
X82965862Y-43259111D01*
X83347230Y-42877744D01*
X83606169Y-42985000D01*
X84033831Y-42985000D01*
X84428938Y-42821341D01*
X84731341Y-42518938D01*
X84895000Y-42123831D01*
X84895000Y-41696169D01*
X84853509Y-41596002D01*
X84886875Y-41596002D01*
X84985000Y-41555358D01*
X84984999Y-43933026D01*
X82199887Y-46718140D01*
X82170666Y-46737665D01*
X82151141Y-46766886D01*
X82093308Y-46853438D01*
X82066145Y-46990000D01*
X82073001Y-47024468D01*
X82073001Y-47858828D01*
X81986711Y-47772538D01*
X81775375Y-47685000D01*
X81546625Y-47685000D01*
X81335289Y-47772538D01*
X81197827Y-47910000D01*
X81080700Y-47910000D01*
X81046236Y-47903145D01*
X81011772Y-47910000D01*
X81011768Y-47910000D01*
X80909673Y-47930308D01*
X80823121Y-47988140D01*
X80823119Y-47988142D01*
X80793901Y-48007665D01*
X80774378Y-48036883D01*
X79934123Y-48877140D01*
X79904902Y-48896665D01*
X79885377Y-48925886D01*
X79827544Y-49012438D01*
X79800381Y-49149000D01*
X79807237Y-49183468D01*
X79807237Y-49297427D01*
X79651341Y-48921062D01*
X79348938Y-48618659D01*
X79090000Y-48511403D01*
X79090000Y-45785163D01*
X79227462Y-45647701D01*
X79315000Y-45436365D01*
X79315000Y-45207615D01*
X79227462Y-44996279D01*
X79065711Y-44834528D01*
X78854375Y-44746990D01*
X78625625Y-44746990D01*
X78414289Y-44834528D01*
X78252538Y-44996279D01*
X78165000Y-45207615D01*
X78165000Y-45436365D01*
X78252538Y-45647701D01*
X78390001Y-45785164D01*
X78390000Y-48511403D01*
X78131062Y-48618659D01*
X77828659Y-48921062D01*
X77665000Y-49316169D01*
X77665000Y-49743831D01*
X77828659Y-50138938D01*
X78131062Y-50441341D01*
X78526169Y-50605000D01*
X78687029Y-50605000D01*
X78461029Y-50831000D01*
X75392475Y-50831000D01*
X72691995Y-48130522D01*
X75024285Y-48130522D01*
X75122876Y-48229113D01*
X75142401Y-48258335D01*
X75258173Y-48335692D01*
X75354724Y-48354897D01*
X75449440Y-48449613D01*
X75400000Y-48449613D01*
X75292701Y-48470956D01*
X75201736Y-48531736D01*
X75140956Y-48622701D01*
X75119613Y-48730000D01*
X75119613Y-50330000D01*
X75140956Y-50437299D01*
X75201736Y-50528264D01*
X75292701Y-50589044D01*
X75400000Y-50610387D01*
X77000000Y-50610387D01*
X77107299Y-50589044D01*
X77198264Y-50528264D01*
X77259044Y-50437299D01*
X77280387Y-50330000D01*
X77280387Y-48730000D01*
X77259044Y-48622701D01*
X77249924Y-48609051D01*
X77583117Y-48275859D01*
X77612335Y-48256336D01*
X77651205Y-48198165D01*
X77689693Y-48140564D01*
X77691690Y-48130522D01*
X77710001Y-48038469D01*
X77710001Y-48038465D01*
X77716856Y-48004001D01*
X77710001Y-47969537D01*
X77710001Y-45276472D01*
X78503974Y-44482500D01*
X81706527Y-44482500D01*
X82102000Y-44877974D01*
X82102000Y-45072375D01*
X82189538Y-45283711D01*
X82351289Y-45445462D01*
X82562625Y-45533000D01*
X82791375Y-45533000D01*
X83002711Y-45445462D01*
X83164462Y-45283711D01*
X83252000Y-45072375D01*
X83252000Y-44843625D01*
X83164462Y-44632289D01*
X83002711Y-44470538D01*
X82791375Y-44383000D01*
X82596974Y-44383000D01*
X82123362Y-43909389D01*
X82103835Y-43880165D01*
X81988063Y-43802808D01*
X81885968Y-43782500D01*
X81885964Y-43782500D01*
X81851500Y-43775645D01*
X81817036Y-43782500D01*
X78393464Y-43782500D01*
X78359000Y-43775645D01*
X78324536Y-43782500D01*
X78324532Y-43782500D01*
X78222437Y-43802808D01*
X78106665Y-43880165D01*
X78087140Y-43909386D01*
X77136888Y-44859639D01*
X77107667Y-44879164D01*
X77088142Y-44908385D01*
X77030309Y-44994937D01*
X77003146Y-45131499D01*
X77010002Y-45165967D01*
X77010001Y-47202112D01*
X76949375Y-47177000D01*
X76720625Y-47177000D01*
X76509289Y-47264538D01*
X76463768Y-47310059D01*
X76411108Y-47257399D01*
X76391582Y-47228176D01*
X76275810Y-47150819D01*
X76173715Y-47130511D01*
X76173711Y-47130511D01*
X76139247Y-47123656D01*
X76104783Y-47130511D01*
X75427518Y-47130511D01*
X76263030Y-46295000D01*
X76457431Y-46295000D01*
X76668767Y-46207462D01*
X76830518Y-46045711D01*
X76918056Y-45834375D01*
X76918056Y-45605625D01*
X76830518Y-45394289D01*
X76668767Y-45232538D01*
X76457431Y-45145000D01*
X76228681Y-45145000D01*
X76017345Y-45232538D01*
X75968050Y-45281834D01*
X75918754Y-45232538D01*
X75707418Y-45145000D01*
X75478668Y-45145000D01*
X75267332Y-45232538D01*
X75105581Y-45394289D01*
X75018043Y-45605625D01*
X75018043Y-45800026D01*
X74305070Y-46513000D01*
X67512329Y-46513000D01*
X68202537Y-45822793D01*
X68294069Y-45841000D01*
X68294073Y-45841000D01*
X68330999Y-45848345D01*
X68367925Y-45841000D01*
X69592074Y-45841000D01*
X69629000Y-45848345D01*
X69665926Y-45841000D01*
X69665931Y-45841000D01*
X69775317Y-45819242D01*
X69899359Y-45736359D01*
X69920279Y-45705050D01*
X70019052Y-45606278D01*
X70050359Y-45585359D01*
X70071280Y-45554050D01*
X70133241Y-45461319D01*
X70133241Y-45461318D01*
X70133242Y-45461317D01*
X70152640Y-45363793D01*
X70228264Y-45313264D01*
X70289044Y-45222299D01*
X70310387Y-45115000D01*
X70310387Y-45090000D01*
X71759551Y-45090000D01*
X71759551Y-45176825D01*
X71862314Y-45424916D01*
X72052194Y-45614796D01*
X72300285Y-45717559D01*
X72568817Y-45717559D01*
X72816908Y-45614796D01*
X73006788Y-45424916D01*
X73109551Y-45176825D01*
X73109551Y-44908293D01*
X73006788Y-44660202D01*
X72816908Y-44470322D01*
X72568817Y-44367559D01*
X72300285Y-44367559D01*
X72276645Y-44377351D01*
X72253309Y-44361758D01*
X72143923Y-44340000D01*
X72143918Y-44340000D01*
X72106992Y-44332655D01*
X72070066Y-44340000D01*
X70310387Y-44340000D01*
X70310387Y-44315000D01*
X70289044Y-44207701D01*
X70228264Y-44116736D01*
X70137299Y-44055956D01*
X70030000Y-44034613D01*
X69530000Y-44034613D01*
X69446544Y-44051213D01*
X69392421Y-43997090D01*
X69254592Y-43940000D01*
X69148750Y-43940000D01*
X69055000Y-44033750D01*
X69055000Y-44640000D01*
X69075000Y-44640000D01*
X69075000Y-44790000D01*
X69055000Y-44790000D01*
X69055000Y-44810000D01*
X68905000Y-44810000D01*
X68905000Y-44790000D01*
X68885000Y-44790000D01*
X68885000Y-44640000D01*
X68905000Y-44640000D01*
X68905000Y-44033750D01*
X68811250Y-43940000D01*
X68705408Y-43940000D01*
X68567579Y-43997090D01*
X68500136Y-44064533D01*
X68487299Y-44055956D01*
X68380000Y-44034613D01*
X67980000Y-44034613D01*
X67896544Y-44051213D01*
X67842421Y-43997090D01*
X67704592Y-43940000D01*
X67548750Y-43940000D01*
X67455000Y-44033750D01*
X67455000Y-44640000D01*
X67475000Y-44640000D01*
X67475000Y-44790000D01*
X67455000Y-44790000D01*
X67455000Y-45396250D01*
X67511710Y-45452960D01*
X66857671Y-46107000D01*
X66553333Y-46107000D01*
X66516407Y-46099655D01*
X66479481Y-46107000D01*
X66479477Y-46107000D01*
X66370091Y-46128758D01*
X66370089Y-46128759D01*
X66370090Y-46128759D01*
X66277357Y-46190721D01*
X66277356Y-46190722D01*
X66246049Y-46211641D01*
X66225130Y-46242949D01*
X66181950Y-46286129D01*
X66150641Y-46307049D01*
X66129721Y-46338358D01*
X66108613Y-46369949D01*
X66067758Y-46431092D01*
X66046000Y-46540478D01*
X66046000Y-46540482D01*
X66038655Y-46577408D01*
X66046000Y-46614335D01*
X66046000Y-46656171D01*
X65759781Y-46369952D01*
X65759779Y-46369949D01*
X64891000Y-45501171D01*
X64891000Y-44296426D01*
X64898345Y-44259500D01*
X64891000Y-44222573D01*
X64891000Y-44222569D01*
X64869242Y-44113183D01*
X64868765Y-44112469D01*
X64807279Y-44020449D01*
X64807278Y-44020448D01*
X64786359Y-43989141D01*
X64755053Y-43968223D01*
X64296165Y-43509335D01*
X64325041Y-43490041D01*
X64440014Y-43317971D01*
X64480387Y-43115001D01*
X64480387Y-42464999D01*
X64440014Y-42262029D01*
X64325041Y-42089959D01*
X64152971Y-41974986D01*
X63950001Y-41934613D01*
X63875000Y-41934613D01*
X63875000Y-41770387D01*
X64350000Y-41770387D01*
X64457299Y-41749044D01*
X64548264Y-41688264D01*
X64609044Y-41597299D01*
X64630387Y-41490000D01*
X64630387Y-39790000D01*
X64609044Y-39682701D01*
X64548264Y-39591736D01*
X64457299Y-39530956D01*
X64350000Y-39509613D01*
X63875000Y-39509613D01*
X63875000Y-39230387D01*
X64350000Y-39230387D01*
X64457299Y-39209044D01*
X64548264Y-39148264D01*
X64609044Y-39057299D01*
X64630387Y-38950000D01*
X64630387Y-37324999D01*
X65204813Y-37324999D01*
X64980273Y-37661047D01*
X64892960Y-38100000D01*
X64980273Y-38538953D01*
X65228920Y-38911080D01*
X65601047Y-39159727D01*
X65929197Y-39225000D01*
X66150803Y-39225000D01*
X66478953Y-39159727D01*
X66554364Y-39109339D01*
X66934744Y-39489719D01*
X66934744Y-39954133D01*
X66851080Y-39828920D01*
X66478953Y-39580273D01*
X66150803Y-39515000D01*
X65929197Y-39515000D01*
X65601047Y-39580273D01*
X65228920Y-39828920D01*
X64980273Y-40201047D01*
X64892960Y-40640000D01*
X64980273Y-41078953D01*
X65228920Y-41451080D01*
X65601047Y-41699727D01*
X65690000Y-41717421D01*
X65690000Y-42323151D01*
X65683145Y-42357616D01*
X65690000Y-42392081D01*
X65690001Y-45193326D01*
X65679538Y-45203789D01*
X65592000Y-45415125D01*
X65592000Y-45643875D01*
X65679538Y-45855211D01*
X65841289Y-46016962D01*
X66052625Y-46104500D01*
X66281375Y-46104500D01*
X66492711Y-46016962D01*
X66654462Y-45855211D01*
X66742000Y-45643875D01*
X66742000Y-45415125D01*
X66654462Y-45203789D01*
X66492711Y-45042038D01*
X66390000Y-44999494D01*
X66390000Y-44883750D01*
X66755000Y-44883750D01*
X66755000Y-45189592D01*
X66812090Y-45327420D01*
X66917579Y-45432910D01*
X67055408Y-45490000D01*
X67211250Y-45490000D01*
X67305000Y-45396250D01*
X67305000Y-44790000D01*
X66848750Y-44790000D01*
X66755000Y-44883750D01*
X66390000Y-44883750D01*
X66390000Y-44240408D01*
X66755000Y-44240408D01*
X66755000Y-44546250D01*
X66848750Y-44640000D01*
X67305000Y-44640000D01*
X67305000Y-44033750D01*
X67211250Y-43940000D01*
X67055408Y-43940000D01*
X66917579Y-43997090D01*
X66812090Y-44102580D01*
X66755000Y-44240408D01*
X66390000Y-44240408D01*
X66390000Y-43197371D01*
X66460821Y-43244692D01*
X66562916Y-43265000D01*
X66562919Y-43265000D01*
X66597383Y-43271855D01*
X66631847Y-43265000D01*
X66849613Y-43265000D01*
X66849613Y-43315000D01*
X66870956Y-43422299D01*
X66931736Y-43513264D01*
X67022701Y-43574044D01*
X67130000Y-43595387D01*
X67630000Y-43595387D01*
X67737299Y-43574044D01*
X67805000Y-43528808D01*
X67872701Y-43574044D01*
X67980000Y-43595387D01*
X68380000Y-43595387D01*
X68487299Y-43574044D01*
X68578264Y-43513264D01*
X68580000Y-43510666D01*
X68581736Y-43513264D01*
X68672701Y-43574044D01*
X68780000Y-43595387D01*
X69180000Y-43595387D01*
X69287299Y-43574044D01*
X69355000Y-43528808D01*
X69422701Y-43574044D01*
X69530000Y-43595387D01*
X70030000Y-43595387D01*
X70137299Y-43574044D01*
X70228264Y-43513264D01*
X70289044Y-43422299D01*
X70310387Y-43315000D01*
X70310387Y-42515000D01*
X70289044Y-42407701D01*
X70228264Y-42316736D01*
X70137299Y-42255956D01*
X70030000Y-42234613D01*
X69530000Y-42234613D01*
X69422701Y-42255956D01*
X69355000Y-42301192D01*
X69287299Y-42255956D01*
X69180000Y-42234613D01*
X68994586Y-42234613D01*
X68790146Y-42030173D01*
X68770619Y-42000949D01*
X68654847Y-41923592D01*
X68552752Y-41903284D01*
X68552748Y-41903284D01*
X68518284Y-41896429D01*
X68483820Y-41903284D01*
X67557335Y-41903284D01*
X67561916Y-41896429D01*
X67614435Y-41817828D01*
X67614436Y-41817827D01*
X67634744Y-41715732D01*
X67634744Y-41715728D01*
X67641599Y-41681265D01*
X67634744Y-41646802D01*
X67634744Y-41398399D01*
X67921985Y-41673276D01*
X68314651Y-41835916D01*
X68505000Y-41768761D01*
X68505000Y-40715000D01*
X68655000Y-40715000D01*
X68655000Y-41768761D01*
X68845349Y-41835916D01*
X69238015Y-41673276D01*
X69583344Y-41342811D01*
X69775923Y-40905350D01*
X69708959Y-40715000D01*
X68655000Y-40715000D01*
X68505000Y-40715000D01*
X68485000Y-40715000D01*
X68485000Y-40565000D01*
X68505000Y-40565000D01*
X68505000Y-39511239D01*
X68655000Y-39511239D01*
X68655000Y-40565000D01*
X69708959Y-40565000D01*
X69775923Y-40374650D01*
X69583344Y-39937189D01*
X69238015Y-39606724D01*
X68845349Y-39444084D01*
X68655000Y-39511239D01*
X68505000Y-39511239D01*
X68314651Y-39444084D01*
X67921985Y-39606724D01*
X67634744Y-39881601D01*
X67634744Y-39379208D01*
X67641599Y-39344744D01*
X67634744Y-39310280D01*
X67634744Y-39310276D01*
X67614436Y-39208181D01*
X67591004Y-39173113D01*
X67556604Y-39121629D01*
X67556600Y-39121625D01*
X67537078Y-39092409D01*
X67507863Y-39072888D01*
X67049339Y-38614364D01*
X67099727Y-38538953D01*
X67134258Y-38365350D01*
X67384077Y-38365350D01*
X67576656Y-38802811D01*
X67921985Y-39133276D01*
X68314651Y-39295916D01*
X68505000Y-39228761D01*
X68505000Y-38175000D01*
X68655000Y-38175000D01*
X68655000Y-39228761D01*
X68845349Y-39295916D01*
X69238015Y-39133276D01*
X69583344Y-38802811D01*
X69775923Y-38365350D01*
X69708959Y-38175000D01*
X68655000Y-38175000D01*
X68505000Y-38175000D01*
X67451041Y-38175000D01*
X67384077Y-38365350D01*
X67134258Y-38365350D01*
X67187040Y-38100000D01*
X67099727Y-37661047D01*
X66875187Y-37324999D01*
X67652093Y-37324999D01*
X67576656Y-37397189D01*
X67384077Y-37834650D01*
X67451041Y-38025000D01*
X68505000Y-38025000D01*
X68505000Y-38005000D01*
X68655000Y-38005000D01*
X68655000Y-38025000D01*
X69708959Y-38025000D01*
X69775923Y-37834650D01*
X69583344Y-37397189D01*
X69507907Y-37324999D01*
X69827682Y-37324999D01*
X70770001Y-38267320D01*
X70770000Y-39509613D01*
X70270000Y-39509613D01*
X70162701Y-39530956D01*
X70071736Y-39591736D01*
X70010956Y-39682701D01*
X69989613Y-39790000D01*
X69989613Y-41490000D01*
X70010956Y-41597299D01*
X70071736Y-41688264D01*
X70162701Y-41749044D01*
X70270000Y-41770387D01*
X71970000Y-41770387D01*
X72077299Y-41749044D01*
X72168264Y-41688264D01*
X72229044Y-41597299D01*
X72250387Y-41490000D01*
X72250387Y-39790000D01*
X72229044Y-39682701D01*
X72168264Y-39591736D01*
X72077299Y-39530956D01*
X71970000Y-39509613D01*
X71470000Y-39509613D01*
X71470000Y-38445436D01*
X71481681Y-38453241D01*
X71481682Y-38453241D01*
X71481683Y-38453242D01*
X71591069Y-38475000D01*
X71591073Y-38475000D01*
X71627999Y-38482345D01*
X71664925Y-38475000D01*
X72422613Y-38475000D01*
X72422613Y-38700000D01*
X72443956Y-38807299D01*
X72504736Y-38898264D01*
X72595701Y-38959044D01*
X72703000Y-38980387D01*
X73603000Y-38980387D01*
X73710299Y-38959044D01*
X73801264Y-38898264D01*
X73862044Y-38807299D01*
X73883387Y-38700000D01*
X73883387Y-37500000D01*
X73862044Y-37392701D01*
X73801264Y-37301736D01*
X73710299Y-37240956D01*
X73603000Y-37219613D01*
X72703000Y-37219613D01*
X72595701Y-37240956D01*
X72504736Y-37301736D01*
X72443956Y-37392701D01*
X72422613Y-37500000D01*
X72422613Y-37725000D01*
X71783330Y-37725000D01*
X70419270Y-36360941D01*
X70398349Y-36329631D01*
X70274307Y-36246748D01*
X70164921Y-36224990D01*
X70164916Y-36224990D01*
X70127990Y-36217645D01*
X70091064Y-36224990D01*
X62311589Y-36224990D01*
X62274663Y-36217645D01*
X62237737Y-36224990D01*
X62237733Y-36224990D01*
X62129887Y-36246442D01*
X62173540Y-36225900D01*
X62738533Y-36118122D01*
X62869713Y-36114000D01*
X101708129Y-36114000D01*
X102283471Y-36186683D01*
G36*
X95911062Y-42821341D02*
X96306169Y-42985000D01*
X96733831Y-42985000D01*
X97128938Y-42821341D01*
X97266989Y-42683290D01*
X97266990Y-48756711D01*
X97128938Y-48618659D01*
X96733831Y-48455000D01*
X96306169Y-48455000D01*
X95911062Y-48618659D01*
X95727000Y-48802721D01*
X95727000Y-42637279D01*
X95911062Y-42821341D01*
X95911062Y-42821341D01*
G37*
X95911062Y-42821341D02*
X96306169Y-42985000D01*
X96733831Y-42985000D01*
X97128938Y-42821341D01*
X97266989Y-42683290D01*
X97266990Y-48756711D01*
X97128938Y-48618659D01*
X96733831Y-48455000D01*
X96306169Y-48455000D01*
X95911062Y-48618659D01*
X95727000Y-48802721D01*
X95727000Y-42637279D01*
X95911062Y-42821341D01*
G36*
X93371062Y-42821341D02*
X93766169Y-42985000D01*
X94193831Y-42985000D01*
X94588938Y-42821341D01*
X94655001Y-42755278D01*
X94655002Y-48684723D01*
X94588938Y-48618659D01*
X94193831Y-48455000D01*
X93766169Y-48455000D01*
X93371062Y-48618659D01*
X93233010Y-48756711D01*
X93233010Y-42683289D01*
X93371062Y-42821341D01*
X93371062Y-42821341D01*
G37*
X93371062Y-42821341D02*
X93766169Y-42985000D01*
X94193831Y-42985000D01*
X94588938Y-42821341D01*
X94655001Y-42755278D01*
X94655002Y-48684723D01*
X94588938Y-48618659D01*
X94193831Y-48455000D01*
X93766169Y-48455000D01*
X93371062Y-48618659D01*
X93233010Y-48756711D01*
X93233010Y-42683289D01*
X93371062Y-42821341D01*
G36*
X62461115Y-45884279D02*
X62461117Y-45884280D01*
X62530898Y-45954061D01*
X62551817Y-45985369D01*
X62583124Y-46006288D01*
X62583125Y-46006289D01*
X62637240Y-46042447D01*
X62675859Y-46068252D01*
X62785245Y-46090010D01*
X62785249Y-46090010D01*
X62822175Y-46097355D01*
X62859101Y-46090010D01*
X63374482Y-46090010D01*
X63399569Y-46095000D01*
X63399574Y-46095000D01*
X63436500Y-46102345D01*
X63473426Y-46095000D01*
X64352074Y-46095000D01*
X64389000Y-46102345D01*
X64424462Y-46095291D01*
X65229449Y-46900279D01*
X65229452Y-46900281D01*
X66046000Y-47716830D01*
X66046001Y-48015681D01*
X66022665Y-48133000D01*
X66034003Y-48190000D01*
X65573750Y-48190000D01*
X65480000Y-48283750D01*
X65480000Y-49065000D01*
X65500000Y-49065000D01*
X65500000Y-49215000D01*
X65480000Y-49215000D01*
X65480000Y-49996250D01*
X65573750Y-50090000D01*
X65974670Y-50090000D01*
X65730057Y-50334613D01*
X64954999Y-50334613D01*
X64752029Y-50374986D01*
X64579959Y-50489959D01*
X64464986Y-50662029D01*
X64452500Y-50724801D01*
X64440014Y-50662029D01*
X64325041Y-50489959D01*
X64152971Y-50374986D01*
X63950001Y-50334613D01*
X63049999Y-50334613D01*
X62847029Y-50374986D01*
X62674959Y-50489959D01*
X62635838Y-50548508D01*
X61589000Y-49501671D01*
X61589000Y-49308750D01*
X62425000Y-49308750D01*
X62425000Y-49789592D01*
X62482090Y-49927420D01*
X62587579Y-50032910D01*
X62725408Y-50090000D01*
X63331250Y-50090000D01*
X63425000Y-49996250D01*
X63425000Y-49215000D01*
X63575000Y-49215000D01*
X63575000Y-49996250D01*
X63668750Y-50090000D01*
X64274592Y-50090000D01*
X64412421Y-50032910D01*
X64452500Y-49992831D01*
X64492579Y-50032910D01*
X64630408Y-50090000D01*
X65236250Y-50090000D01*
X65330000Y-49996250D01*
X65330000Y-49215000D01*
X63575000Y-49215000D01*
X63425000Y-49215000D01*
X62518750Y-49215000D01*
X62425000Y-49308750D01*
X61589000Y-49308750D01*
X61589000Y-48490408D01*
X62425000Y-48490408D01*
X62425000Y-48971250D01*
X62518750Y-49065000D01*
X63425000Y-49065000D01*
X63425000Y-48283750D01*
X63575000Y-48283750D01*
X63575000Y-49065000D01*
X65330000Y-49065000D01*
X65330000Y-48283750D01*
X65236250Y-48190000D01*
X64630408Y-48190000D01*
X64492579Y-48247090D01*
X64452500Y-48287169D01*
X64412421Y-48247090D01*
X64274592Y-48190000D01*
X63668750Y-48190000D01*
X63575000Y-48283750D01*
X63425000Y-48283750D01*
X63331250Y-48190000D01*
X62725408Y-48190000D01*
X62587579Y-48247090D01*
X62482090Y-48352580D01*
X62425000Y-48490408D01*
X61589000Y-48490408D01*
X61589000Y-48034329D01*
X62151555Y-47471776D01*
X62182859Y-47450859D01*
X62203776Y-47419555D01*
X62203779Y-47419552D01*
X62265741Y-47326819D01*
X62265741Y-47326818D01*
X62265742Y-47326817D01*
X62287500Y-47217431D01*
X62287500Y-47217427D01*
X62294845Y-47180501D01*
X62287500Y-47143575D01*
X62287500Y-45710664D01*
X62461115Y-45884279D01*
X62461115Y-45884279D01*
G37*
X62461115Y-45884279D02*
X62461117Y-45884280D01*
X62530898Y-45954061D01*
X62551817Y-45985369D01*
X62583124Y-46006288D01*
X62583125Y-46006289D01*
X62637240Y-46042447D01*
X62675859Y-46068252D01*
X62785245Y-46090010D01*
X62785249Y-46090010D01*
X62822175Y-46097355D01*
X62859101Y-46090010D01*
X63374482Y-46090010D01*
X63399569Y-46095000D01*
X63399574Y-46095000D01*
X63436500Y-46102345D01*
X63473426Y-46095000D01*
X64352074Y-46095000D01*
X64389000Y-46102345D01*
X64424462Y-46095291D01*
X65229449Y-46900279D01*
X65229452Y-46900281D01*
X66046000Y-47716830D01*
X66046001Y-48015681D01*
X66022665Y-48133000D01*
X66034003Y-48190000D01*
X65573750Y-48190000D01*
X65480000Y-48283750D01*
X65480000Y-49065000D01*
X65500000Y-49065000D01*
X65500000Y-49215000D01*
X65480000Y-49215000D01*
X65480000Y-49996250D01*
X65573750Y-50090000D01*
X65974670Y-50090000D01*
X65730057Y-50334613D01*
X64954999Y-50334613D01*
X64752029Y-50374986D01*
X64579959Y-50489959D01*
X64464986Y-50662029D01*
X64452500Y-50724801D01*
X64440014Y-50662029D01*
X64325041Y-50489959D01*
X64152971Y-50374986D01*
X63950001Y-50334613D01*
X63049999Y-50334613D01*
X62847029Y-50374986D01*
X62674959Y-50489959D01*
X62635838Y-50548508D01*
X61589000Y-49501671D01*
X61589000Y-49308750D01*
X62425000Y-49308750D01*
X62425000Y-49789592D01*
X62482090Y-49927420D01*
X62587579Y-50032910D01*
X62725408Y-50090000D01*
X63331250Y-50090000D01*
X63425000Y-49996250D01*
X63425000Y-49215000D01*
X63575000Y-49215000D01*
X63575000Y-49996250D01*
X63668750Y-50090000D01*
X64274592Y-50090000D01*
X64412421Y-50032910D01*
X64452500Y-49992831D01*
X64492579Y-50032910D01*
X64630408Y-50090000D01*
X65236250Y-50090000D01*
X65330000Y-49996250D01*
X65330000Y-49215000D01*
X63575000Y-49215000D01*
X63425000Y-49215000D01*
X62518750Y-49215000D01*
X62425000Y-49308750D01*
X61589000Y-49308750D01*
X61589000Y-48490408D01*
X62425000Y-48490408D01*
X62425000Y-48971250D01*
X62518750Y-49065000D01*
X63425000Y-49065000D01*
X63425000Y-48283750D01*
X63575000Y-48283750D01*
X63575000Y-49065000D01*
X65330000Y-49065000D01*
X65330000Y-48283750D01*
X65236250Y-48190000D01*
X64630408Y-48190000D01*
X64492579Y-48247090D01*
X64452500Y-48287169D01*
X64412421Y-48247090D01*
X64274592Y-48190000D01*
X63668750Y-48190000D01*
X63575000Y-48283750D01*
X63425000Y-48283750D01*
X63331250Y-48190000D01*
X62725408Y-48190000D01*
X62587579Y-48247090D01*
X62482090Y-48352580D01*
X62425000Y-48490408D01*
X61589000Y-48490408D01*
X61589000Y-48034329D01*
X62151555Y-47471776D01*
X62182859Y-47450859D01*
X62203776Y-47419555D01*
X62203779Y-47419552D01*
X62265741Y-47326819D01*
X62265741Y-47326818D01*
X62265742Y-47326817D01*
X62287500Y-47217431D01*
X62287500Y-47217427D01*
X62294845Y-47180501D01*
X62287500Y-47143575D01*
X62287500Y-45710664D01*
X62461115Y-45884279D01*
G04 #@! TD*
M02*
