G04 #@! TF.GenerationSoftware,KiCad,Pcbnew,(5.0.0)*
G04 #@! TF.CreationDate,2019-07-22T19:17:55-04:00*
G04 #@! TF.ProjectId,7segment,377365676D656E742E6B696361645F70,rev?*
G04 #@! TF.SameCoordinates,Original*
G04 #@! TF.FileFunction,Legend,Bot*
G04 #@! TF.FilePolarity,Positive*
%FSLAX46Y46*%
G04 Gerber Fmt 4.6, Leading zero omitted, Abs format (unit mm)*
G04 Created by KiCad (PCBNEW (5.0.0)) date 07/22/19 19:17:55*
%MOMM*%
%LPD*%
G01*
G04 APERTURE LIST*
%ADD10C,0.100000*%
%ADD11C,0.140000*%
%ADD12C,0.120000*%
%ADD13C,0.150000*%
G04 APERTURE END LIST*
D10*
X59126571Y-35599571D02*
X59098000Y-35542428D01*
X59069428Y-35513857D01*
X59012285Y-35485285D01*
X58983714Y-35485285D01*
X58926571Y-35513857D01*
X58898000Y-35542428D01*
X58869428Y-35599571D01*
X58869428Y-35713857D01*
X58898000Y-35771000D01*
X58926571Y-35799571D01*
X58983714Y-35828142D01*
X59012285Y-35828142D01*
X59069428Y-35799571D01*
X59098000Y-35771000D01*
X59126571Y-35713857D01*
X59126571Y-35599571D01*
X59155142Y-35542428D01*
X59183714Y-35513857D01*
X59240857Y-35485285D01*
X59355142Y-35485285D01*
X59412285Y-35513857D01*
X59440857Y-35542428D01*
X59469428Y-35599571D01*
X59469428Y-35713857D01*
X59440857Y-35771000D01*
X59412285Y-35799571D01*
X59355142Y-35828142D01*
X59240857Y-35828142D01*
X59183714Y-35799571D01*
X59155142Y-35771000D01*
X59126571Y-35713857D01*
X59469428Y-36542428D02*
X58869428Y-36542428D01*
X59098000Y-36542428D02*
X59069428Y-36599571D01*
X59069428Y-36713857D01*
X59098000Y-36771000D01*
X59126571Y-36799571D01*
X59183714Y-36828142D01*
X59355142Y-36828142D01*
X59412285Y-36799571D01*
X59440857Y-36771000D01*
X59469428Y-36713857D01*
X59469428Y-36599571D01*
X59440857Y-36542428D01*
X59469428Y-37085285D02*
X59069428Y-37085285D01*
X58869428Y-37085285D02*
X58898000Y-37056714D01*
X58926571Y-37085285D01*
X58898000Y-37113857D01*
X58869428Y-37085285D01*
X58926571Y-37085285D01*
X59069428Y-37285285D02*
X59069428Y-37513857D01*
X58869428Y-37371000D02*
X59383714Y-37371000D01*
X59440857Y-37399571D01*
X59469428Y-37456714D01*
X59469428Y-37513857D01*
X59469428Y-38171000D02*
X58869428Y-38171000D01*
X59155142Y-38171000D02*
X59155142Y-38513857D01*
X59469428Y-38513857D02*
X58869428Y-38513857D01*
X59155142Y-38799571D02*
X59155142Y-38999571D01*
X59469428Y-39085285D02*
X59469428Y-38799571D01*
X58869428Y-38799571D01*
X58869428Y-39085285D01*
X58869428Y-39285285D02*
X59469428Y-39685285D01*
X58869428Y-39685285D02*
X59469428Y-39285285D01*
X59469428Y-40371000D02*
X58869428Y-40371000D01*
X58869428Y-40513857D01*
X58898000Y-40599571D01*
X58955142Y-40656714D01*
X59012285Y-40685285D01*
X59126571Y-40713857D01*
X59212285Y-40713857D01*
X59326571Y-40685285D01*
X59383714Y-40656714D01*
X59440857Y-40599571D01*
X59469428Y-40513857D01*
X59469428Y-40371000D01*
X59469428Y-40971000D02*
X59069428Y-40971000D01*
X58869428Y-40971000D02*
X58898000Y-40942428D01*
X58926571Y-40971000D01*
X58898000Y-40999571D01*
X58869428Y-40971000D01*
X58926571Y-40971000D01*
X59440857Y-41228142D02*
X59469428Y-41285285D01*
X59469428Y-41399571D01*
X59440857Y-41456714D01*
X59383714Y-41485285D01*
X59355142Y-41485285D01*
X59298000Y-41456714D01*
X59269428Y-41399571D01*
X59269428Y-41313857D01*
X59240857Y-41256714D01*
X59183714Y-41228142D01*
X59155142Y-41228142D01*
X59098000Y-41256714D01*
X59069428Y-41313857D01*
X59069428Y-41399571D01*
X59098000Y-41456714D01*
X59069428Y-41742428D02*
X59669428Y-41742428D01*
X59098000Y-41742428D02*
X59069428Y-41799571D01*
X59069428Y-41913857D01*
X59098000Y-41971000D01*
X59126571Y-41999571D01*
X59183714Y-42028142D01*
X59355142Y-42028142D01*
X59412285Y-41999571D01*
X59440857Y-41971000D01*
X59469428Y-41913857D01*
X59469428Y-41799571D01*
X59440857Y-41742428D01*
X59469428Y-42371000D02*
X59440857Y-42313857D01*
X59383714Y-42285285D01*
X58869428Y-42285285D01*
X59469428Y-42856714D02*
X59155142Y-42856714D01*
X59098000Y-42828142D01*
X59069428Y-42771000D01*
X59069428Y-42656714D01*
X59098000Y-42599571D01*
X59440857Y-42856714D02*
X59469428Y-42799571D01*
X59469428Y-42656714D01*
X59440857Y-42599571D01*
X59383714Y-42571000D01*
X59326571Y-42571000D01*
X59269428Y-42599571D01*
X59240857Y-42656714D01*
X59240857Y-42799571D01*
X59212285Y-42856714D01*
X59069428Y-43085285D02*
X59469428Y-43228142D01*
X59069428Y-43371000D02*
X59469428Y-43228142D01*
X59612285Y-43171000D01*
X59640857Y-43142428D01*
X59669428Y-43085285D01*
X59469428Y-44399571D02*
X59183714Y-44199571D01*
X59469428Y-44056714D02*
X58869428Y-44056714D01*
X58869428Y-44285285D01*
X58898000Y-44342428D01*
X58926571Y-44371000D01*
X58983714Y-44399571D01*
X59069428Y-44399571D01*
X59126571Y-44371000D01*
X59155142Y-44342428D01*
X59183714Y-44285285D01*
X59183714Y-44056714D01*
X59440857Y-44885285D02*
X59469428Y-44828142D01*
X59469428Y-44713857D01*
X59440857Y-44656714D01*
X59383714Y-44628142D01*
X59155142Y-44628142D01*
X59098000Y-44656714D01*
X59069428Y-44713857D01*
X59069428Y-44828142D01*
X59098000Y-44885285D01*
X59155142Y-44913857D01*
X59212285Y-44913857D01*
X59269428Y-44628142D01*
X59069428Y-45113857D02*
X59469428Y-45256714D01*
X59069428Y-45399571D01*
X59298000Y-45599571D02*
X59298000Y-45885285D01*
X59469428Y-45542428D02*
X58869428Y-45742428D01*
X59469428Y-45942428D01*
X59926571Y-35485285D02*
X59898000Y-35513857D01*
X59869428Y-35571000D01*
X59869428Y-35713857D01*
X59898000Y-35771000D01*
X59926571Y-35799571D01*
X59983714Y-35828142D01*
X60040857Y-35828142D01*
X60126571Y-35799571D01*
X60469428Y-35456714D01*
X60469428Y-35828142D01*
X59869428Y-36199571D02*
X59869428Y-36256714D01*
X59898000Y-36313857D01*
X59926571Y-36342428D01*
X59983714Y-36371000D01*
X60098000Y-36399571D01*
X60240857Y-36399571D01*
X60355142Y-36371000D01*
X60412285Y-36342428D01*
X60440857Y-36313857D01*
X60469428Y-36256714D01*
X60469428Y-36199571D01*
X60440857Y-36142428D01*
X60412285Y-36113857D01*
X60355142Y-36085285D01*
X60240857Y-36056714D01*
X60098000Y-36056714D01*
X59983714Y-36085285D01*
X59926571Y-36113857D01*
X59898000Y-36142428D01*
X59869428Y-36199571D01*
X59869428Y-36771000D02*
X59869428Y-36828142D01*
X59898000Y-36885285D01*
X59926571Y-36913857D01*
X59983714Y-36942428D01*
X60098000Y-36971000D01*
X60240857Y-36971000D01*
X60355142Y-36942428D01*
X60412285Y-36913857D01*
X60440857Y-36885285D01*
X60469428Y-36828142D01*
X60469428Y-36771000D01*
X60440857Y-36713857D01*
X60412285Y-36685285D01*
X60355142Y-36656714D01*
X60240857Y-36628142D01*
X60098000Y-36628142D01*
X59983714Y-36656714D01*
X59926571Y-36685285D01*
X59898000Y-36713857D01*
X59869428Y-36771000D01*
X60469428Y-37256714D02*
X60469428Y-37371000D01*
X60440857Y-37428142D01*
X60412285Y-37456714D01*
X60326571Y-37513857D01*
X60212285Y-37542428D01*
X59983714Y-37542428D01*
X59926571Y-37513857D01*
X59898000Y-37485285D01*
X59869428Y-37428142D01*
X59869428Y-37313857D01*
X59898000Y-37256714D01*
X59926571Y-37228142D01*
X59983714Y-37199571D01*
X60126571Y-37199571D01*
X60183714Y-37228142D01*
X60212285Y-37256714D01*
X60240857Y-37313857D01*
X60240857Y-37428142D01*
X60212285Y-37485285D01*
X60183714Y-37513857D01*
X60126571Y-37542428D01*
X60469428Y-38256714D02*
X59869428Y-38256714D01*
X59869428Y-38399571D01*
X59898000Y-38485285D01*
X59955142Y-38542428D01*
X60012285Y-38570999D01*
X60126571Y-38599571D01*
X60212285Y-38599571D01*
X60326571Y-38570999D01*
X60383714Y-38542428D01*
X60440857Y-38485285D01*
X60469428Y-38399571D01*
X60469428Y-38256714D01*
X60469428Y-38942428D02*
X60440857Y-38885285D01*
X60412285Y-38856714D01*
X60355142Y-38828142D01*
X60183714Y-38828142D01*
X60126571Y-38856714D01*
X60098000Y-38885285D01*
X60069428Y-38942428D01*
X60069428Y-39028142D01*
X60098000Y-39085285D01*
X60126571Y-39113857D01*
X60183714Y-39142428D01*
X60355142Y-39142428D01*
X60412285Y-39113857D01*
X60440857Y-39085285D01*
X60469428Y-39028142D01*
X60469428Y-38942428D01*
X60469428Y-39399571D02*
X60069428Y-39399571D01*
X60126571Y-39399571D02*
X60098000Y-39428142D01*
X60069428Y-39485285D01*
X60069428Y-39570999D01*
X60098000Y-39628142D01*
X60155142Y-39656714D01*
X60469428Y-39656714D01*
X60155142Y-39656714D02*
X60098000Y-39685285D01*
X60069428Y-39742428D01*
X60069428Y-39828142D01*
X60098000Y-39885285D01*
X60155142Y-39913857D01*
X60469428Y-39913857D01*
X60469428Y-40199571D02*
X60069428Y-40199571D01*
X59869428Y-40199571D02*
X59898000Y-40170999D01*
X59926571Y-40199571D01*
X59898000Y-40228142D01*
X59869428Y-40199571D01*
X59926571Y-40199571D01*
X60069428Y-40485285D02*
X60469428Y-40485285D01*
X60126571Y-40485285D02*
X60098000Y-40513857D01*
X60069428Y-40570999D01*
X60069428Y-40656714D01*
X60098000Y-40713857D01*
X60155142Y-40742428D01*
X60469428Y-40742428D01*
X60469428Y-41028142D02*
X60069428Y-41028142D01*
X59869428Y-41028142D02*
X59898000Y-40999571D01*
X59926571Y-41028142D01*
X59898000Y-41056714D01*
X59869428Y-41028142D01*
X59926571Y-41028142D01*
X60440857Y-41570999D02*
X60469428Y-41513857D01*
X60469428Y-41399571D01*
X60440857Y-41342428D01*
X60412285Y-41313857D01*
X60355142Y-41285285D01*
X60183714Y-41285285D01*
X60126571Y-41313857D01*
X60098000Y-41342428D01*
X60069428Y-41399571D01*
X60069428Y-41513857D01*
X60098000Y-41570999D01*
X59869428Y-42199571D02*
X59869428Y-42542428D01*
X60469428Y-42370999D02*
X59869428Y-42370999D01*
X60469428Y-42742428D02*
X59869428Y-42742428D01*
X60469428Y-42999571D02*
X60155142Y-42999571D01*
X60098000Y-42970999D01*
X60069428Y-42913857D01*
X60069428Y-42828142D01*
X60098000Y-42770999D01*
X60126571Y-42742428D01*
X60469428Y-43285285D02*
X60069428Y-43285285D01*
X59869428Y-43285285D02*
X59898000Y-43256714D01*
X59926571Y-43285285D01*
X59898000Y-43313857D01*
X59869428Y-43285285D01*
X59926571Y-43285285D01*
X60469428Y-43570999D02*
X59869428Y-43570999D01*
X60098000Y-43570999D02*
X60069428Y-43628142D01*
X60069428Y-43742428D01*
X60098000Y-43799571D01*
X60126571Y-43828142D01*
X60183714Y-43856714D01*
X60355142Y-43856714D01*
X60412285Y-43828142D01*
X60440857Y-43799571D01*
X60469428Y-43742428D01*
X60469428Y-43628142D01*
X60440857Y-43570999D01*
X60469428Y-44199571D02*
X60440857Y-44142428D01*
X60412285Y-44113857D01*
X60355142Y-44085285D01*
X60183714Y-44085285D01*
X60126571Y-44113857D01*
X60098000Y-44142428D01*
X60069428Y-44199571D01*
X60069428Y-44285285D01*
X60098000Y-44342428D01*
X60126571Y-44370999D01*
X60183714Y-44399571D01*
X60355142Y-44399571D01*
X60412285Y-44370999D01*
X60440857Y-44342428D01*
X60469428Y-44285285D01*
X60469428Y-44199571D01*
X60469428Y-44913857D02*
X59869428Y-44913857D01*
X60440857Y-44913857D02*
X60469428Y-44856714D01*
X60469428Y-44742428D01*
X60440857Y-44685285D01*
X60412285Y-44656714D01*
X60355142Y-44628142D01*
X60183714Y-44628142D01*
X60126571Y-44656714D01*
X60098000Y-44685285D01*
X60069428Y-44742428D01*
X60069428Y-44856714D01*
X60098000Y-44913857D01*
X60440857Y-45428142D02*
X60469428Y-45370999D01*
X60469428Y-45256714D01*
X60440857Y-45199571D01*
X60383714Y-45170999D01*
X60155142Y-45170999D01*
X60098000Y-45199571D01*
X60069428Y-45256714D01*
X60069428Y-45370999D01*
X60098000Y-45428142D01*
X60155142Y-45456714D01*
X60212285Y-45456714D01*
X60269428Y-45170999D01*
X60469428Y-45970999D02*
X60155142Y-45970999D01*
X60098000Y-45942428D01*
X60069428Y-45885285D01*
X60069428Y-45770999D01*
X60098000Y-45713857D01*
X60440857Y-45970999D02*
X60469428Y-45913857D01*
X60469428Y-45770999D01*
X60440857Y-45713857D01*
X60383714Y-45685285D01*
X60326571Y-45685285D01*
X60269428Y-45713857D01*
X60240857Y-45770999D01*
X60240857Y-45913857D01*
X60212285Y-45970999D01*
X60069428Y-46513857D02*
X60469428Y-46513857D01*
X60069428Y-46256714D02*
X60383714Y-46256714D01*
X60440857Y-46285285D01*
X60469428Y-46342428D01*
X60469428Y-46428142D01*
X60440857Y-46485285D01*
X60412285Y-46513857D01*
X61469428Y-35771000D02*
X60869428Y-35771000D01*
X61440857Y-35771000D02*
X61469428Y-35713857D01*
X61469428Y-35599571D01*
X61440857Y-35542428D01*
X61412285Y-35513857D01*
X61355142Y-35485285D01*
X61183714Y-35485285D01*
X61126571Y-35513857D01*
X61098000Y-35542428D01*
X61069428Y-35599571D01*
X61069428Y-35713857D01*
X61098000Y-35771000D01*
X61440857Y-36285285D02*
X61469428Y-36228142D01*
X61469428Y-36113857D01*
X61440857Y-36056714D01*
X61383714Y-36028142D01*
X61155142Y-36028142D01*
X61098000Y-36056714D01*
X61069428Y-36113857D01*
X61069428Y-36228142D01*
X61098000Y-36285285D01*
X61155142Y-36313857D01*
X61212285Y-36313857D01*
X61269428Y-36028142D01*
X61069428Y-36513857D02*
X61469428Y-36656714D01*
X61069428Y-36799571D01*
X61183714Y-37399571D02*
X61155142Y-37371000D01*
X61126571Y-37313857D01*
X61126571Y-37256714D01*
X61155142Y-37199571D01*
X61183714Y-37171000D01*
X61240857Y-37142428D01*
X61298000Y-37142428D01*
X61355142Y-37171000D01*
X61383714Y-37199571D01*
X61412285Y-37256714D01*
X61412285Y-37313857D01*
X61383714Y-37371000D01*
X61355142Y-37399571D01*
X61126571Y-37399571D02*
X61355142Y-37399571D01*
X61383714Y-37428142D01*
X61383714Y-37456714D01*
X61355142Y-37513857D01*
X61298000Y-37542428D01*
X61155142Y-37542428D01*
X61069428Y-37485285D01*
X61012285Y-37399571D01*
X60983714Y-37285285D01*
X61012285Y-37171000D01*
X61069428Y-37085285D01*
X61155142Y-37028142D01*
X61269428Y-36999571D01*
X61383714Y-37028142D01*
X61469428Y-37085285D01*
X61526571Y-37171000D01*
X61555142Y-37285285D01*
X61526571Y-37399571D01*
X61469428Y-37485285D01*
X61469428Y-37799571D02*
X60869428Y-37799571D01*
X61469428Y-38056714D02*
X61155142Y-38056714D01*
X61098000Y-38028142D01*
X61069428Y-37971000D01*
X61069428Y-37885285D01*
X61098000Y-37828142D01*
X61126571Y-37799571D01*
X61469428Y-38428142D02*
X61440857Y-38371000D01*
X61412285Y-38342428D01*
X61355142Y-38313857D01*
X61183714Y-38313857D01*
X61126571Y-38342428D01*
X61098000Y-38371000D01*
X61069428Y-38428142D01*
X61069428Y-38513857D01*
X61098000Y-38571000D01*
X61126571Y-38599571D01*
X61183714Y-38628142D01*
X61355142Y-38628142D01*
X61412285Y-38599571D01*
X61440857Y-38571000D01*
X61469428Y-38513857D01*
X61469428Y-38428142D01*
X61069428Y-38799571D02*
X61069428Y-39028142D01*
X60869428Y-38885285D02*
X61383714Y-38885285D01*
X61440857Y-38913857D01*
X61469428Y-38970999D01*
X61469428Y-39028142D01*
X61469428Y-39228142D02*
X60869428Y-39228142D01*
X61240857Y-39285285D02*
X61469428Y-39456714D01*
X61069428Y-39456714D02*
X61298000Y-39228142D01*
X61440857Y-39942428D02*
X61469428Y-39885285D01*
X61469428Y-39770999D01*
X61440857Y-39713857D01*
X61383714Y-39685285D01*
X61155142Y-39685285D01*
X61098000Y-39713857D01*
X61069428Y-39770999D01*
X61069428Y-39885285D01*
X61098000Y-39942428D01*
X61155142Y-39970999D01*
X61212285Y-39970999D01*
X61269428Y-39685285D01*
X61069428Y-40170999D02*
X61469428Y-40313857D01*
X61069428Y-40456714D02*
X61469428Y-40313857D01*
X61612285Y-40256714D01*
X61640857Y-40228142D01*
X61669428Y-40170999D01*
X61440857Y-40656714D02*
X61469428Y-40713857D01*
X61469428Y-40828142D01*
X61440857Y-40885285D01*
X61383714Y-40913857D01*
X61355142Y-40913857D01*
X61298000Y-40885285D01*
X61269428Y-40828142D01*
X61269428Y-40742428D01*
X61240857Y-40685285D01*
X61183714Y-40656714D01*
X61155142Y-40656714D01*
X61098000Y-40685285D01*
X61069428Y-40742428D01*
X61069428Y-40828142D01*
X61098000Y-40885285D01*
X61469428Y-41256714D02*
X61440857Y-41199571D01*
X61412285Y-41170999D01*
X61355142Y-41142428D01*
X61183714Y-41142428D01*
X61126571Y-41170999D01*
X61098000Y-41199571D01*
X61069428Y-41256714D01*
X61069428Y-41342428D01*
X61098000Y-41399571D01*
X61126571Y-41428142D01*
X61183714Y-41456714D01*
X61355142Y-41456714D01*
X61412285Y-41428142D01*
X61440857Y-41399571D01*
X61469428Y-41342428D01*
X61469428Y-41256714D01*
X61069428Y-41628142D02*
X61069428Y-41856714D01*
X61469428Y-41713857D02*
X60955142Y-41713857D01*
X60898000Y-41742428D01*
X60869428Y-41799571D01*
X60869428Y-41856714D01*
X61069428Y-41970999D02*
X61069428Y-42199571D01*
X60869428Y-42056714D02*
X61383714Y-42056714D01*
X61440857Y-42085285D01*
X61469428Y-42142428D01*
X61469428Y-42199571D01*
X61412285Y-42399571D02*
X61440857Y-42428142D01*
X61469428Y-42399571D01*
X61440857Y-42370999D01*
X61412285Y-42399571D01*
X61469428Y-42399571D01*
X61069428Y-42685285D02*
X61469428Y-42685285D01*
X61126571Y-42685285D02*
X61098000Y-42713857D01*
X61069428Y-42770999D01*
X61069428Y-42856714D01*
X61098000Y-42913857D01*
X61155142Y-42942428D01*
X61469428Y-42942428D01*
X61440857Y-43456714D02*
X61469428Y-43399571D01*
X61469428Y-43285285D01*
X61440857Y-43228142D01*
X61383714Y-43199571D01*
X61155142Y-43199571D01*
X61098000Y-43228142D01*
X61069428Y-43285285D01*
X61069428Y-43399571D01*
X61098000Y-43456714D01*
X61155142Y-43485285D01*
X61212285Y-43485285D01*
X61269428Y-43199571D01*
X61069428Y-43656714D02*
X61069428Y-43885285D01*
X60869428Y-43742428D02*
X61383714Y-43742428D01*
X61440857Y-43770999D01*
X61469428Y-43828142D01*
X61469428Y-43885285D01*
D11*
X66230285Y-53611428D02*
X66230285Y-53011428D01*
X66087428Y-53011428D01*
X66001714Y-53040000D01*
X65944571Y-53097142D01*
X65916000Y-53154285D01*
X65887428Y-53268571D01*
X65887428Y-53354285D01*
X65916000Y-53468571D01*
X65944571Y-53525714D01*
X66001714Y-53582857D01*
X66087428Y-53611428D01*
X66230285Y-53611428D01*
X65630285Y-53297142D02*
X65430285Y-53297142D01*
X65344571Y-53611428D02*
X65630285Y-53611428D01*
X65630285Y-53011428D01*
X65344571Y-53011428D01*
X64744571Y-53554285D02*
X64773142Y-53582857D01*
X64858857Y-53611428D01*
X64916000Y-53611428D01*
X65001714Y-53582857D01*
X65058857Y-53525714D01*
X65087428Y-53468571D01*
X65116000Y-53354285D01*
X65116000Y-53268571D01*
X65087428Y-53154285D01*
X65058857Y-53097142D01*
X65001714Y-53040000D01*
X64916000Y-53011428D01*
X64858857Y-53011428D01*
X64773142Y-53040000D01*
X64744571Y-53068571D01*
X64487428Y-53611428D02*
X64487428Y-53011428D01*
X64201714Y-53611428D02*
X64201714Y-53011428D01*
X64001714Y-53440000D01*
X63801714Y-53011428D01*
X63801714Y-53611428D01*
X63544571Y-53440000D02*
X63258857Y-53440000D01*
X63601714Y-53611428D02*
X63401714Y-53011428D01*
X63201714Y-53611428D01*
X62716000Y-53611428D02*
X63001714Y-53611428D01*
X63001714Y-53011428D01*
X63888857Y-51071428D02*
X63888857Y-50471428D01*
X63746000Y-50471428D01*
X63660285Y-50500000D01*
X63603142Y-50557142D01*
X63574571Y-50614285D01*
X63546000Y-50728571D01*
X63546000Y-50814285D01*
X63574571Y-50928571D01*
X63603142Y-50985714D01*
X63660285Y-51042857D01*
X63746000Y-51071428D01*
X63888857Y-51071428D01*
X63288857Y-51071428D02*
X63288857Y-50471428D01*
X63003142Y-51071428D02*
X63003142Y-50471428D01*
X62803142Y-50900000D01*
X62603142Y-50471428D01*
X62603142Y-51071428D01*
D12*
G04 #@! TO.C,JP1*
X62345000Y-51165000D02*
X62345000Y-49165000D01*
X59545000Y-51165000D02*
X62345000Y-51165000D01*
X59545000Y-49165000D02*
X59545000Y-51165000D01*
X62345000Y-49165000D02*
X59545000Y-49165000D01*
G04 #@! TO.C,JP2*
X62360000Y-51705000D02*
X59560000Y-51705000D01*
X59560000Y-51705000D02*
X59560000Y-53705000D01*
X59560000Y-53705000D02*
X62360000Y-53705000D01*
X62360000Y-53705000D02*
X62360000Y-51705000D01*
G04 #@! TO.C,C1*
X64060000Y-46093748D02*
X64060000Y-46616252D01*
X65480000Y-46093748D02*
X65480000Y-46616252D01*
G04 #@! TO.C,R3*
X66600000Y-46093748D02*
X66600000Y-46616252D01*
X68020000Y-46093748D02*
X68020000Y-46616252D01*
G04 #@! TO.C,J4*
X62170000Y-57210000D02*
X62170000Y-54550000D01*
X80010000Y-57210000D02*
X62170000Y-57210000D01*
X80010000Y-54550000D02*
X62170000Y-54550000D01*
X80010000Y-57210000D02*
X80010000Y-54550000D01*
X81280000Y-57210000D02*
X82610000Y-57210000D01*
X82610000Y-57210000D02*
X82610000Y-55880000D01*
G04 #@! TO.C,J3*
X85030000Y-57210000D02*
X86360000Y-57210000D01*
X85030000Y-55880000D02*
X85030000Y-57210000D01*
X85030000Y-54610000D02*
X87690000Y-54610000D01*
X87690000Y-54610000D02*
X87690000Y-54550000D01*
X85030000Y-54610000D02*
X85030000Y-54550000D01*
X85030000Y-54550000D02*
X87690000Y-54550000D01*
G04 #@! TO.C,J1*
X62170000Y-36770000D02*
X64830000Y-36770000D01*
X62170000Y-36830000D02*
X62170000Y-36770000D01*
X64830000Y-36830000D02*
X64830000Y-36770000D01*
X62170000Y-36830000D02*
X64830000Y-36830000D01*
X62170000Y-38100000D02*
X62170000Y-39430000D01*
X62170000Y-39430000D02*
X63500000Y-39430000D01*
G04 #@! TO.C,J2*
X67250000Y-39430000D02*
X67250000Y-36770000D01*
X85090000Y-39430000D02*
X67250000Y-39430000D01*
X85090000Y-36770000D02*
X67250000Y-36770000D01*
X85090000Y-39430000D02*
X85090000Y-36770000D01*
X86360000Y-39430000D02*
X87690000Y-39430000D01*
X87690000Y-39430000D02*
X87690000Y-38100000D01*
G04 #@! TO.C,R2*
X85650000Y-47251252D02*
X85650000Y-46728748D01*
X87070000Y-47251252D02*
X87070000Y-46728748D01*
G04 #@! TO.C,R1*
X77208748Y-47065000D02*
X77731252Y-47065000D01*
X77208748Y-45645000D02*
X77731252Y-45645000D01*
G04 #@! TO.C,C1*
D13*
X63031666Y-46712142D02*
X63079285Y-46759761D01*
X63222142Y-46807380D01*
X63317380Y-46807380D01*
X63460238Y-46759761D01*
X63555476Y-46664523D01*
X63603095Y-46569285D01*
X63650714Y-46378809D01*
X63650714Y-46235952D01*
X63603095Y-46045476D01*
X63555476Y-45950238D01*
X63460238Y-45855000D01*
X63317380Y-45807380D01*
X63222142Y-45807380D01*
X63079285Y-45855000D01*
X63031666Y-45902619D01*
X62079285Y-46807380D02*
X62650714Y-46807380D01*
X62365000Y-46807380D02*
X62365000Y-45807380D01*
X62460238Y-45950238D01*
X62555476Y-46045476D01*
X62650714Y-46093095D01*
G04 #@! TO.C,R3*
X70651666Y-46807380D02*
X70985000Y-46331190D01*
X71223095Y-46807380D02*
X71223095Y-45807380D01*
X70842142Y-45807380D01*
X70746904Y-45855000D01*
X70699285Y-45902619D01*
X70651666Y-45997857D01*
X70651666Y-46140714D01*
X70699285Y-46235952D01*
X70746904Y-46283571D01*
X70842142Y-46331190D01*
X71223095Y-46331190D01*
X70318333Y-45807380D02*
X69699285Y-45807380D01*
X70032619Y-46188333D01*
X69889761Y-46188333D01*
X69794523Y-46235952D01*
X69746904Y-46283571D01*
X69699285Y-46378809D01*
X69699285Y-46616904D01*
X69746904Y-46712142D01*
X69794523Y-46759761D01*
X69889761Y-46807380D01*
X70175476Y-46807380D01*
X70270714Y-46759761D01*
X70318333Y-46712142D01*
G04 #@! TO.C,J4*
X83943333Y-55332380D02*
X83943333Y-56046666D01*
X83990952Y-56189523D01*
X84086190Y-56284761D01*
X84229047Y-56332380D01*
X84324285Y-56332380D01*
X83038571Y-55665714D02*
X83038571Y-56332380D01*
X83276666Y-55284761D02*
X83514761Y-55999047D01*
X82895714Y-55999047D01*
G04 #@! TO.C,J3*
X89233333Y-55332380D02*
X89233333Y-56046666D01*
X89280952Y-56189523D01*
X89376190Y-56284761D01*
X89519047Y-56332380D01*
X89614285Y-56332380D01*
X88852380Y-55332380D02*
X88233333Y-55332380D01*
X88566666Y-55713333D01*
X88423809Y-55713333D01*
X88328571Y-55760952D01*
X88280952Y-55808571D01*
X88233333Y-55903809D01*
X88233333Y-56141904D01*
X88280952Y-56237142D01*
X88328571Y-56284761D01*
X88423809Y-56332380D01*
X88709523Y-56332380D01*
X88804761Y-56284761D01*
X88852380Y-56237142D01*
G04 #@! TO.C,J1*
X63833333Y-39882380D02*
X63833333Y-40596666D01*
X63880952Y-40739523D01*
X63976190Y-40834761D01*
X64119047Y-40882380D01*
X64214285Y-40882380D01*
X62833333Y-40882380D02*
X63404761Y-40882380D01*
X63119047Y-40882380D02*
X63119047Y-39882380D01*
X63214285Y-40025238D01*
X63309523Y-40120476D01*
X63404761Y-40168095D01*
G04 #@! TO.C,J2*
X86693333Y-40092380D02*
X86693333Y-40806666D01*
X86740952Y-40949523D01*
X86836190Y-41044761D01*
X86979047Y-41092380D01*
X87074285Y-41092380D01*
X86264761Y-40187619D02*
X86217142Y-40140000D01*
X86121904Y-40092380D01*
X85883809Y-40092380D01*
X85788571Y-40140000D01*
X85740952Y-40187619D01*
X85693333Y-40282857D01*
X85693333Y-40378095D01*
X85740952Y-40520952D01*
X86312380Y-41092380D01*
X85693333Y-41092380D01*
G04 #@! TO.C,R2*
X84494666Y-46807380D02*
X84828000Y-46331190D01*
X85066095Y-46807380D02*
X85066095Y-45807380D01*
X84685142Y-45807380D01*
X84589904Y-45855000D01*
X84542285Y-45902619D01*
X84494666Y-45997857D01*
X84494666Y-46140714D01*
X84542285Y-46235952D01*
X84589904Y-46283571D01*
X84685142Y-46331190D01*
X85066095Y-46331190D01*
X84113714Y-45902619D02*
X84066095Y-45855000D01*
X83970857Y-45807380D01*
X83732761Y-45807380D01*
X83637523Y-45855000D01*
X83589904Y-45902619D01*
X83542285Y-45997857D01*
X83542285Y-46093095D01*
X83589904Y-46235952D01*
X84161333Y-46807380D01*
X83542285Y-46807380D01*
G04 #@! TO.C,R1*
X75096666Y-46807380D02*
X75430000Y-46331190D01*
X75668095Y-46807380D02*
X75668095Y-45807380D01*
X75287142Y-45807380D01*
X75191904Y-45855000D01*
X75144285Y-45902619D01*
X75096666Y-45997857D01*
X75096666Y-46140714D01*
X75144285Y-46235952D01*
X75191904Y-46283571D01*
X75287142Y-46331190D01*
X75668095Y-46331190D01*
X74144285Y-46807380D02*
X74715714Y-46807380D01*
X74430000Y-46807380D02*
X74430000Y-45807380D01*
X74525238Y-45950238D01*
X74620476Y-46045476D01*
X74715714Y-46093095D01*
G04 #@! TD*
M02*
