M48
;DRILL file {KiCad (5.0.0)} date 08/19/19 15:41:51
;FORMAT={-:-/ absolute / inch / decimal}
FMAT,2
INCH,TZ
T1C0.0118
T2C0.0157
T3C0.0315
T4C0.0394
%
G90
G05
M72
T1
X2.4611Y-1.72
X2.605Y-1.7925
X2.6265Y-1.6635
X2.6386Y-1.8536
X2.662Y-1.8717
X2.685Y-1.945
X2.6947Y-1.8939
X2.7036Y-1.9221
X2.7508Y-1.925
X2.8311Y-1.7101
X2.8453Y-1.6842
X2.9231Y-2.0076
X2.955Y-2.085
X2.9761Y-1.8
X2.985Y-1.89
X3.0056Y-1.8
X3.025Y-1.88
X3.1Y-1.7843
X3.15Y-1.89
X3.2Y-2.025
X3.215Y-1.9
X3.24Y-1.6943
X3.255Y-1.77
X3.305Y-2.01
X3.3375Y-1.615
X3.37Y-1.88
X3.3752Y-1.9943
X3.425Y-1.7675
X3.48Y-1.955
X3.515Y-1.645
X3.6825Y-1.865
X3.79Y-1.8075
T2
X2.4376Y-1.9
X2.495Y-2.07
X2.63Y-2.015
X2.685Y-2.0175
X2.8004Y-1.7278
X2.8518Y-1.7733
T3
X3.6Y-1.65
X3.6Y-1.95
X3.7Y-1.65
X3.7Y-1.95
X3.8Y-1.65
X3.8Y-1.95
X3.9Y-1.65
X3.9Y-1.95
X4.Y-1.65
X4.Y-1.95
X3.Y-1.65
X3.Y-1.95
X3.1Y-1.65
X3.1Y-1.95
X3.2Y-1.65
X3.2Y-1.95
X3.3Y-1.65
X3.3Y-1.95
X3.4Y-1.65
X3.4Y-1.95
T4
X3.1Y-1.5
X3.1Y-2.1
X3.2Y-2.1
X3.2Y-1.5
X3.3Y-1.5
X3.4Y-1.5
X3.5Y-1.5
X3.6Y-1.5
X3.7Y-1.5
X3.8Y-1.5
X3.9Y-1.5
X4.Y-1.5
X2.8Y-1.6
X2.5Y-1.6
X2.6Y-1.6
X2.7Y-1.6
X2.5Y-1.5
X2.6Y-1.5
X2.7Y-1.5
X3.3Y-2.1
X3.4Y-2.1
X3.5Y-2.1
X3.6Y-2.1
X3.7Y-2.1
X3.8Y-2.1
X3.9Y-2.1
X4.Y-2.1
T0
M30
