M48
;DRILL file {KiCad (5.0.0)} date 08/14/19 19:46:52
;FORMAT={-:-/ absolute / inch / decimal}
FMAT,2
INCH,TZ
T1C0.0118
T2C0.0157
T3C0.0236
T4C0.0315
T5C0.0394
%
G90
G05
M72
T1
X2.6105Y-1.4608
X2.635Y-1.5775
X2.6378Y-1.9124
X2.64Y-1.46
X2.7021Y-1.6921
X2.71Y-1.725
X2.71Y-1.91
X2.74Y-1.7343
X2.745Y-1.7826
X2.81Y-1.97
X2.845Y-1.66
X2.88Y-1.615
X2.9Y-1.735
X2.9Y-2.025
X2.91Y-1.695
X3.045Y-2.055
X3.05Y-1.48
X3.15Y-1.475
X3.15Y-1.62
X3.15Y-2.025
X3.225Y-1.5575
X3.45Y-1.9
X3.465Y-1.795
T2
X2.4213Y-1.752
X2.4232Y-1.8465
X2.6339Y-1.7815
X2.88Y-1.7804
T3
X2.9781Y-1.8
X3.0274Y-1.8
X3.0766Y-1.8
X3.1258Y-1.8
X3.175Y-1.8
X3.2242Y-1.8
T4
X3.Y-1.65
X3.Y-1.95
X3.1Y-1.65
X3.1Y-1.95
X3.2Y-1.65
X3.2Y-1.95
X3.3Y-1.65
X3.3Y-1.95
X3.4Y-1.65
X3.4Y-1.95
T5
X2.5Y-1.5
X2.5Y-2.1
X2.6Y-2.1
X2.7Y-2.1
X2.8Y-2.1
X2.9Y-2.1
X3.Y-2.1
X3.1Y-2.1
X3.2Y-2.1
X3.4Y-2.1
X2.7Y-1.5
X2.8Y-1.5
X2.9Y-1.5
X3.Y-1.5
X3.1Y-1.5
X3.2Y-1.5
X3.3Y-1.5
X3.4Y-1.5
T0
M30
