G04 #@! TF.GenerationSoftware,KiCad,Pcbnew,(5.0.0)*
G04 #@! TF.CreationDate,2019-07-22T19:17:55-04:00*
G04 #@! TF.ProjectId,7segment,377365676D656E742E6B696361645F70,rev?*
G04 #@! TF.SameCoordinates,Original*
G04 #@! TF.FileFunction,Copper,L1,Top,Signal*
G04 #@! TF.FilePolarity,Positive*
%FSLAX46Y46*%
G04 Gerber Fmt 4.6, Leading zero omitted, Abs format (unit mm)*
G04 Created by KiCad (PCBNEW (5.0.0)) date 07/22/19 19:17:55*
%MOMM*%
%LPD*%
G01*
G04 APERTURE LIST*
G04 #@! TA.AperFunction,ComponentPad*
%ADD10R,1.700000X1.700000*%
G04 #@! TD*
G04 #@! TA.AperFunction,ComponentPad*
%ADD11O,1.700000X1.700000*%
G04 #@! TD*
G04 #@! TA.AperFunction,ComponentPad*
%ADD12C,1.600000*%
G04 #@! TD*
G04 #@! TA.AperFunction,ComponentPad*
%ADD13R,1.600000X1.600000*%
G04 #@! TD*
G04 #@! TA.AperFunction,SMDPad,CuDef*
%ADD14R,1.600000X0.550000*%
G04 #@! TD*
G04 #@! TA.AperFunction,SMDPad,CuDef*
%ADD15R,0.550000X1.600000*%
G04 #@! TD*
G04 #@! TA.AperFunction,ViaPad*
%ADD16C,0.600000*%
G04 #@! TD*
G04 #@! TA.AperFunction,ViaPad*
%ADD17C,0.800000*%
G04 #@! TD*
G04 #@! TA.AperFunction,Conductor*
%ADD18C,0.150000*%
G04 #@! TD*
G04 #@! TA.AperFunction,Conductor*
%ADD19C,0.200000*%
G04 #@! TD*
G04 APERTURE END LIST*
D10*
G04 #@! TO.P,J4,1*
G04 #@! TO.N,/IN0*
X81280000Y-55880000D03*
D11*
G04 #@! TO.P,J4,2*
G04 #@! TO.N,/IN1*
X78740000Y-55880000D03*
G04 #@! TO.P,J4,3*
G04 #@! TO.N,/IN2*
X76200000Y-55880000D03*
G04 #@! TO.P,J4,4*
G04 #@! TO.N,/IN3*
X73660000Y-55880000D03*
G04 #@! TO.P,J4,5*
G04 #@! TO.N,/IN4*
X71120000Y-55880000D03*
G04 #@! TO.P,J4,6*
G04 #@! TO.N,/IN5*
X68580000Y-55880000D03*
G04 #@! TO.P,J4,7*
G04 #@! TO.N,/IN6*
X66040000Y-55880000D03*
G04 #@! TO.P,J4,8*
G04 #@! TO.N,/IN7*
X63500000Y-55880000D03*
G04 #@! TD*
D10*
G04 #@! TO.P,J3,1*
G04 #@! TO.N,GND*
X86360000Y-55880000D03*
G04 #@! TD*
G04 #@! TO.P,J1,1*
G04 #@! TO.N,VCC*
X63500000Y-38100000D03*
G04 #@! TD*
D12*
G04 #@! TO.P,U1,10*
G04 #@! TO.N,Net-(U1-Pad10)*
X76200000Y-43180000D03*
G04 #@! TO.P,U1,9*
G04 #@! TO.N,Net-(R1-Pad2)*
X78740000Y-43180000D03*
G04 #@! TO.P,U1,8*
G04 #@! TO.N,Net-(U1-Pad8)*
X81280000Y-43180000D03*
G04 #@! TO.P,U1,7*
G04 #@! TO.N,Net-(U1-Pad7)*
X83820000Y-43180000D03*
G04 #@! TO.P,U1,6*
G04 #@! TO.N,Net-(R2-Pad2)*
X86360000Y-43180000D03*
G04 #@! TO.P,U1,5*
G04 #@! TO.N,Net-(U1-Pad5)*
X86360000Y-50800000D03*
G04 #@! TO.P,U1,4*
G04 #@! TO.N,Net-(U1-Pad4)*
X83820000Y-50800000D03*
G04 #@! TO.P,U1,3*
G04 #@! TO.N,Net-(U1-Pad3)*
X81280000Y-50800000D03*
G04 #@! TO.P,U1,2*
G04 #@! TO.N,Net-(U1-Pad2)*
X78740000Y-50800000D03*
D13*
G04 #@! TO.P,U1,1*
G04 #@! TO.N,Net-(U1-Pad1)*
X76200000Y-50800000D03*
G04 #@! TD*
D10*
G04 #@! TO.P,J2,1*
G04 #@! TO.N,/IN0*
X86360000Y-38100000D03*
D11*
G04 #@! TO.P,J2,2*
G04 #@! TO.N,/IN1*
X83820000Y-38100000D03*
G04 #@! TO.P,J2,3*
G04 #@! TO.N,/IN2*
X81280000Y-38100000D03*
G04 #@! TO.P,J2,4*
G04 #@! TO.N,/IN3*
X78740000Y-38100000D03*
G04 #@! TO.P,J2,5*
G04 #@! TO.N,/IN4*
X76200000Y-38100000D03*
G04 #@! TO.P,J2,6*
G04 #@! TO.N,/IN5*
X73660000Y-38100000D03*
G04 #@! TO.P,J2,7*
G04 #@! TO.N,/IN6*
X71120000Y-38100000D03*
G04 #@! TO.P,J2,8*
G04 #@! TO.N,/IN7*
X68580000Y-38100000D03*
G04 #@! TD*
D14*
G04 #@! TO.P,U2,1*
G04 #@! TO.N,Net-(U1-Pad8)*
X61790000Y-43555000D03*
G04 #@! TO.P,U2,2*
G04 #@! TO.N,Net-(U1-Pad3)*
X61790000Y-44355000D03*
G04 #@! TO.P,U2,3*
G04 #@! TO.N,GND*
X61790000Y-45155000D03*
G04 #@! TO.P,U2,4*
G04 #@! TO.N,VCC*
X61790000Y-45955000D03*
G04 #@! TO.P,U2,5*
G04 #@! TO.N,GND*
X61790000Y-46755000D03*
G04 #@! TO.P,U2,6*
G04 #@! TO.N,VCC*
X61790000Y-47555000D03*
G04 #@! TO.P,U2,7*
G04 #@! TO.N,Net-(U2-Pad7)*
X61790000Y-48355000D03*
G04 #@! TO.P,U2,8*
G04 #@! TO.N,Net-(U2-Pad8)*
X61790000Y-49155000D03*
D15*
G04 #@! TO.P,U2,9*
G04 #@! TO.N,Net-(U1-Pad2)*
X63240000Y-50605000D03*
G04 #@! TO.P,U2,10*
G04 #@! TO.N,Net-(U1-Pad1)*
X64040000Y-50605000D03*
G04 #@! TO.P,U2,11*
G04 #@! TO.N,Net-(U1-Pad10)*
X64840000Y-50605000D03*
G04 #@! TO.P,U2,12*
G04 #@! TO.N,Net-(U1-Pad4)*
X65640000Y-50605000D03*
G04 #@! TO.P,U2,13*
G04 #@! TO.N,Net-(U1-Pad5)*
X66440000Y-50605000D03*
G04 #@! TO.P,U2,14*
G04 #@! TO.N,/IN6*
X67240000Y-50605000D03*
G04 #@! TO.P,U2,15*
G04 #@! TO.N,/IN7*
X68040000Y-50605000D03*
G04 #@! TO.P,U2,16*
G04 #@! TO.N,Net-(JP1-Pad1)*
X68840000Y-50605000D03*
D14*
G04 #@! TO.P,U2,17*
G04 #@! TO.N,Net-(JP2-Pad1)*
X70290000Y-49155000D03*
G04 #@! TO.P,U2,18*
G04 #@! TO.N,VCC*
X70290000Y-48355000D03*
G04 #@! TO.P,U2,19*
G04 #@! TO.N,Net-(U2-Pad19)*
X70290000Y-47555000D03*
G04 #@! TO.P,U2,20*
G04 #@! TO.N,VCC*
X70290000Y-46755000D03*
G04 #@! TO.P,U2,21*
G04 #@! TO.N,GND*
X70290000Y-45955000D03*
G04 #@! TO.P,U2,22*
G04 #@! TO.N,Net-(U2-Pad22)*
X70290000Y-45155000D03*
G04 #@! TO.P,U2,23*
G04 #@! TO.N,/IN0*
X70290000Y-44355000D03*
G04 #@! TO.P,U2,24*
G04 #@! TO.N,/IN1*
X70290000Y-43555000D03*
D15*
G04 #@! TO.P,U2,25*
G04 #@! TO.N,/IN2*
X68840000Y-42105000D03*
G04 #@! TO.P,U2,26*
G04 #@! TO.N,/IN3*
X68040000Y-42105000D03*
G04 #@! TO.P,U2,27*
G04 #@! TO.N,/IN4*
X67240000Y-42105000D03*
G04 #@! TO.P,U2,28*
G04 #@! TO.N,/IN5*
X66440000Y-42105000D03*
G04 #@! TO.P,U2,29*
G04 #@! TO.N,Net-(R3-Pad2)*
X65640000Y-42105000D03*
G04 #@! TO.P,U2,30*
G04 #@! TO.N,Net-(R2-Pad1)*
X64840000Y-42105000D03*
G04 #@! TO.P,U2,31*
G04 #@! TO.N,Net-(R1-Pad1)*
X64040000Y-42105000D03*
G04 #@! TO.P,U2,32*
G04 #@! TO.N,Net-(U1-Pad7)*
X63240000Y-42105000D03*
G04 #@! TD*
D16*
G04 #@! TO.N,Net-(U1-Pad4)*
X63500000Y-48895000D03*
X60324984Y-55880000D03*
G04 #@! TO.N,Net-(U1-Pad5)*
X67310000Y-51949935D03*
G04 #@! TO.N,Net-(U1-Pad7)*
X62230000Y-41910000D03*
G04 #@! TO.N,Net-(U1-Pad8)*
X65405000Y-38100008D03*
G04 #@! TO.N,Net-(R1-Pad1)*
X65458739Y-39423739D03*
G04 #@! TO.N,Net-(R2-Pad1)*
X65278000Y-36449000D03*
D17*
G04 #@! TO.N,VCC*
X67310000Y-43815000D03*
X64769992Y-43815000D03*
G04 #@! TO.N,GND*
X60365010Y-46990000D03*
X60959994Y-54610000D03*
X72136000Y-46228000D03*
X72136000Y-51054000D03*
D16*
X70866000Y-41656000D03*
X66040000Y-46101000D03*
X83312000Y-39878000D03*
X80772000Y-39878000D03*
X78486000Y-39878000D03*
G04 #@! TO.N,/IN6*
X66801994Y-49039010D03*
G04 #@! TO.N,/IN7*
X66040000Y-49022000D03*
G04 #@! TO.N,Net-(R3-Pad2)*
X68326000Y-43688004D03*
G04 #@! TO.N,Net-(JP1-Pad1)*
X66040000Y-52070000D03*
G04 #@! TO.N,Net-(JP2-Pad1)*
X65405000Y-52549957D03*
G04 #@! TD*
D18*
G04 #@! TO.N,Net-(U1-Pad1)*
X64040000Y-53245000D02*
X64040000Y-50605000D01*
X64169978Y-53374978D02*
X64040000Y-53245000D01*
X76200000Y-50800000D02*
X73625022Y-53374978D01*
X73625022Y-53374978D02*
X64169978Y-53374978D01*
G04 #@! TO.N,Net-(U1-Pad2)*
X63240000Y-50605000D02*
X63240000Y-51130000D01*
X78740000Y-51435000D02*
X76500011Y-53674989D01*
X78740000Y-50800000D02*
X78740000Y-51435000D01*
X76500011Y-53674989D02*
X63834989Y-53674989D01*
X63834989Y-53674989D02*
X63240000Y-53080000D01*
X63240000Y-53080000D02*
X63240000Y-50605000D01*
G04 #@! TO.N,Net-(U1-Pad3)*
X60840000Y-44355000D02*
X61790000Y-44355000D01*
X59690000Y-45505000D02*
X60840000Y-44355000D01*
X78105000Y-53975000D02*
X63229002Y-53975000D01*
X81280000Y-50800000D02*
X78105000Y-53975000D01*
X63229002Y-53975000D02*
X61919001Y-55285001D01*
X61919001Y-55285001D02*
X60000991Y-55285001D01*
X60000991Y-55285001D02*
X59690000Y-54974010D01*
X59690000Y-54974010D02*
X59690000Y-45505000D01*
G04 #@! TO.N,Net-(U1-Pad4)*
X64880000Y-48895000D02*
X63500000Y-48895000D01*
X65640000Y-50605000D02*
X65640000Y-49655000D01*
X65640000Y-49655000D02*
X64880000Y-48895000D01*
X61748281Y-55880000D02*
X60749248Y-55880000D01*
X83820000Y-50800000D02*
X80344990Y-54275010D01*
X63353271Y-54275010D02*
X61748281Y-55880000D01*
X80344990Y-54275010D02*
X63353271Y-54275010D01*
X60749248Y-55880000D02*
X60324984Y-55880000D01*
G04 #@! TO.N,Net-(U1-Pad5)*
X66440000Y-51555000D02*
X66834935Y-51949935D01*
X66885736Y-51949935D02*
X67310000Y-51949935D01*
X66834935Y-51949935D02*
X66885736Y-51949935D01*
X66440000Y-50605000D02*
X66440000Y-51555000D01*
G04 #@! TO.N,Net-(U1-Pad7)*
X63240000Y-42105000D02*
X62425000Y-42105000D01*
X62425000Y-42105000D02*
X62230000Y-41910000D01*
G04 #@! TO.N,Net-(U1-Pad8)*
X61790000Y-43130000D02*
X61790000Y-43555000D01*
X65405000Y-38100008D02*
X65405000Y-38735000D01*
X65405000Y-38735000D02*
X63500000Y-40640000D01*
X63500000Y-40640000D02*
X62722998Y-40640000D01*
X62722998Y-40640000D02*
X61595000Y-41767998D01*
X61595000Y-41767998D02*
X61595000Y-42935000D01*
X61595000Y-42935000D02*
X61790000Y-43130000D01*
G04 #@! TO.N,Net-(U1-Pad10)*
X76200000Y-45466000D02*
X76200000Y-43180000D01*
X68591033Y-53074967D02*
X76200000Y-45466000D01*
X64840000Y-50605000D02*
X64840000Y-53074967D01*
X64840000Y-53074967D02*
X68591033Y-53074967D01*
G04 #@! TO.N,Net-(R1-Pad1)*
X64040000Y-40842478D02*
X65158740Y-39723738D01*
X65158740Y-39723738D02*
X65458739Y-39423739D01*
X64040000Y-42105000D02*
X64040000Y-40842478D01*
G04 #@! TO.N,Net-(R2-Pad1)*
X64840000Y-42105000D02*
X64840000Y-41155000D01*
X64840000Y-41155000D02*
X66802000Y-39193000D01*
X66802000Y-39193000D02*
X66802000Y-37973000D01*
X65577999Y-36748999D02*
X65278000Y-36449000D01*
X66802000Y-37973000D02*
X65577999Y-36748999D01*
D19*
G04 #@! TO.N,VCC*
X62790000Y-45955000D02*
X61790000Y-45955000D01*
X71290000Y-46755000D02*
X70290000Y-46755000D01*
X71390001Y-46855001D02*
X71290000Y-46755000D01*
X71390001Y-48254999D02*
X71390001Y-46855001D01*
X71290000Y-48355000D02*
X71390001Y-48254999D01*
X70290000Y-48355000D02*
X71290000Y-48355000D01*
X67310000Y-43815000D02*
X64769992Y-43815000D01*
X62890001Y-46055001D02*
X62890001Y-47454999D01*
X62790000Y-45955000D02*
X62890001Y-46055001D01*
X62890001Y-47454999D02*
X62790000Y-47555000D01*
X62790000Y-47555000D02*
X61790000Y-47555000D01*
X62890001Y-45694991D02*
X64769992Y-43815000D01*
X62890001Y-46055001D02*
X62890001Y-45694991D01*
X70250000Y-46755000D02*
X70290000Y-46755000D01*
X70025001Y-46530001D02*
X70250000Y-46755000D01*
X69249999Y-46530001D02*
X70025001Y-46530001D01*
X69189999Y-46470001D02*
X69249999Y-46530001D01*
X67310000Y-43815000D02*
X69189999Y-45694999D01*
X69189999Y-45694999D02*
X69189999Y-46470001D01*
G04 #@! TO.N,GND*
X61790000Y-46755000D02*
X60974998Y-46755000D01*
X60960000Y-45155000D02*
X61790000Y-45155000D01*
X61790000Y-45155000D02*
X60790000Y-45155000D01*
X60790000Y-45155000D02*
X60365010Y-45579990D01*
X61790000Y-46755000D02*
X60600010Y-46755000D01*
X60365010Y-46424315D02*
X60365010Y-46990000D01*
X60365010Y-45579990D02*
X60365010Y-46424315D01*
X60600010Y-46755000D02*
X60365010Y-46990000D01*
X60365010Y-54015016D02*
X60559995Y-54210001D01*
X60559995Y-54210001D02*
X60959994Y-54610000D01*
X60365010Y-46990000D02*
X60365010Y-54015016D01*
X71863000Y-45955000D02*
X72136000Y-46228000D01*
X70290000Y-45955000D02*
X71863000Y-45955000D01*
X85090000Y-53560000D02*
X85090000Y-50165000D01*
X86360000Y-55880000D02*
X86360000Y-54830000D01*
X72535999Y-50654001D02*
X72136000Y-51054000D01*
X74930000Y-48260000D02*
X72535999Y-50654001D01*
X85090000Y-50165000D02*
X83185000Y-48260000D01*
X83185000Y-48260000D02*
X74930000Y-48260000D01*
X86360000Y-54830000D02*
X85090000Y-53560000D01*
D18*
G04 #@! TO.N,/IN0*
X86360000Y-38735000D02*
X86360000Y-38100000D01*
X83820000Y-41275000D02*
X86360000Y-38735000D01*
X74320000Y-41275000D02*
X83820000Y-41275000D01*
X70290000Y-44355000D02*
X71240000Y-44355000D01*
X71240000Y-44355000D02*
X74320000Y-41275000D01*
G04 #@! TO.N,/IN1*
X73994990Y-40940010D02*
X80979990Y-40940010D01*
X71380000Y-43555000D02*
X73994990Y-40940010D01*
X80979990Y-40940010D02*
X83820000Y-38100000D01*
X70290000Y-43555000D02*
X71380000Y-43555000D01*
G04 #@! TO.N,/IN2*
X78740000Y-40640000D02*
X69215000Y-40640000D01*
X69215000Y-40640000D02*
X68840000Y-41015000D01*
X81280000Y-38100000D02*
X78740000Y-40640000D01*
X68840000Y-41015000D02*
X68840000Y-42105000D01*
G04 #@! TO.N,/IN3*
X68040000Y-41155000D02*
X68040000Y-42105000D01*
X76534990Y-40305010D02*
X68889990Y-40305010D01*
X78740000Y-38100000D02*
X76534990Y-40305010D01*
X68889990Y-40305010D02*
X68040000Y-41155000D01*
G04 #@! TO.N,/IN4*
X68390000Y-40005000D02*
X67240000Y-41155000D01*
X73346002Y-40005000D02*
X68390000Y-40005000D01*
X67240000Y-41155000D02*
X67240000Y-42105000D01*
X76200000Y-38100000D02*
X75251002Y-38100000D01*
X75251002Y-38100000D02*
X73346002Y-40005000D01*
G04 #@! TO.N,/IN5*
X72390000Y-39370000D02*
X68225000Y-39370000D01*
X73660000Y-38100000D02*
X72390000Y-39370000D01*
X68225000Y-39370000D02*
X66440000Y-41155000D01*
X66440000Y-41155000D02*
X66440000Y-42105000D01*
G04 #@! TO.N,/IN6*
X67240000Y-49477016D02*
X67101993Y-49339009D01*
X67101993Y-49339009D02*
X66801994Y-49039010D01*
X67240000Y-50605000D02*
X67240000Y-49477016D01*
G04 #@! TO.N,/IN7*
X68040000Y-50605000D02*
X68040000Y-49355996D01*
X67181002Y-48496998D02*
X66438002Y-48496998D01*
X68040000Y-49355996D02*
X67181002Y-48496998D01*
X66438002Y-48496998D02*
X66339999Y-48595001D01*
X66339999Y-48595001D02*
X66040000Y-48895000D01*
G04 #@! TO.N,Net-(R3-Pad2)*
X65724999Y-43139999D02*
X67777995Y-43139999D01*
X67777995Y-43139999D02*
X68026001Y-43388005D01*
X68026001Y-43388005D02*
X68326000Y-43688004D01*
X65640000Y-43055000D02*
X65724999Y-43139999D01*
X65640000Y-42105000D02*
X65640000Y-43055000D01*
G04 #@! TO.N,Net-(JP1-Pad1)*
X68840000Y-51555000D02*
X68840000Y-50605000D01*
X67920055Y-52474945D02*
X68840000Y-51555000D01*
X66040000Y-52070000D02*
X66444945Y-52474945D01*
X66444945Y-52474945D02*
X67920055Y-52474945D01*
G04 #@! TO.N,Net-(JP2-Pad1)*
X65405000Y-52705000D02*
X65405000Y-52549957D01*
X65829264Y-52705000D02*
X65405000Y-52705000D01*
X65899220Y-52774956D02*
X65829264Y-52705000D01*
X68383044Y-52774956D02*
X65899220Y-52774956D01*
X70290000Y-49155000D02*
X70290000Y-50868000D01*
X70290000Y-50868000D02*
X68383044Y-52774956D01*
G04 #@! TD*
D19*
G04 #@! TO.N,GND*
G36*
X89770001Y-58020000D02*
X58820000Y-58020000D01*
X58820000Y-45505000D01*
X59307655Y-45505000D01*
X59315001Y-45541931D01*
X59315000Y-54937084D01*
X59307655Y-54974010D01*
X59315000Y-55010936D01*
X59315000Y-55010940D01*
X59336758Y-55120326D01*
X59419641Y-55244369D01*
X59450950Y-55265289D01*
X59709713Y-55524053D01*
X59730632Y-55555360D01*
X59761939Y-55576279D01*
X59761940Y-55576280D01*
X59792809Y-55596906D01*
X59724984Y-55760653D01*
X59724984Y-55999347D01*
X59816328Y-56219873D01*
X59985111Y-56388656D01*
X60205637Y-56480000D01*
X60444331Y-56480000D01*
X60664857Y-56388656D01*
X60798513Y-56255000D01*
X61711355Y-56255000D01*
X61748281Y-56262345D01*
X61785207Y-56255000D01*
X61785212Y-56255000D01*
X61894598Y-56233242D01*
X62018640Y-56150359D01*
X62039561Y-56119049D01*
X62339603Y-55819007D01*
X62327471Y-55880000D01*
X62416724Y-56328707D01*
X62670897Y-56709103D01*
X63051293Y-56963276D01*
X63386739Y-57030000D01*
X63613261Y-57030000D01*
X63948707Y-56963276D01*
X64329103Y-56709103D01*
X64583276Y-56328707D01*
X64672529Y-55880000D01*
X64867471Y-55880000D01*
X64956724Y-56328707D01*
X65210897Y-56709103D01*
X65591293Y-56963276D01*
X65926739Y-57030000D01*
X66153261Y-57030000D01*
X66488707Y-56963276D01*
X66869103Y-56709103D01*
X67123276Y-56328707D01*
X67212529Y-55880000D01*
X67407471Y-55880000D01*
X67496724Y-56328707D01*
X67750897Y-56709103D01*
X68131293Y-56963276D01*
X68466739Y-57030000D01*
X68693261Y-57030000D01*
X69028707Y-56963276D01*
X69409103Y-56709103D01*
X69663276Y-56328707D01*
X69752529Y-55880000D01*
X69947471Y-55880000D01*
X70036724Y-56328707D01*
X70290897Y-56709103D01*
X70671293Y-56963276D01*
X71006739Y-57030000D01*
X71233261Y-57030000D01*
X71568707Y-56963276D01*
X71949103Y-56709103D01*
X72203276Y-56328707D01*
X72292529Y-55880000D01*
X72487471Y-55880000D01*
X72576724Y-56328707D01*
X72830897Y-56709103D01*
X73211293Y-56963276D01*
X73546739Y-57030000D01*
X73773261Y-57030000D01*
X74108707Y-56963276D01*
X74489103Y-56709103D01*
X74743276Y-56328707D01*
X74832529Y-55880000D01*
X75027471Y-55880000D01*
X75116724Y-56328707D01*
X75370897Y-56709103D01*
X75751293Y-56963276D01*
X76086739Y-57030000D01*
X76313261Y-57030000D01*
X76648707Y-56963276D01*
X77029103Y-56709103D01*
X77283276Y-56328707D01*
X77372529Y-55880000D01*
X77567471Y-55880000D01*
X77656724Y-56328707D01*
X77910897Y-56709103D01*
X78291293Y-56963276D01*
X78626739Y-57030000D01*
X78853261Y-57030000D01*
X79188707Y-56963276D01*
X79569103Y-56709103D01*
X79823276Y-56328707D01*
X79912529Y-55880000D01*
X79823276Y-55431293D01*
X79569103Y-55050897D01*
X79537829Y-55030000D01*
X80124123Y-55030000D01*
X80124123Y-56730000D01*
X80147407Y-56847054D01*
X80213712Y-56946288D01*
X80312946Y-57012593D01*
X80430000Y-57035877D01*
X82130000Y-57035877D01*
X82247054Y-57012593D01*
X82346288Y-56946288D01*
X82412593Y-56847054D01*
X82435877Y-56730000D01*
X82435877Y-56105000D01*
X85010000Y-56105000D01*
X85010000Y-56829456D01*
X85086121Y-57013227D01*
X85226773Y-57153880D01*
X85410544Y-57230000D01*
X86135000Y-57230000D01*
X86260000Y-57105000D01*
X86260000Y-55980000D01*
X86460000Y-55980000D01*
X86460000Y-57105000D01*
X86585000Y-57230000D01*
X87309456Y-57230000D01*
X87493227Y-57153880D01*
X87633879Y-57013227D01*
X87710000Y-56829456D01*
X87710000Y-56105000D01*
X87585000Y-55980000D01*
X86460000Y-55980000D01*
X86260000Y-55980000D01*
X85135000Y-55980000D01*
X85010000Y-56105000D01*
X82435877Y-56105000D01*
X82435877Y-55030000D01*
X82416094Y-54930544D01*
X85010000Y-54930544D01*
X85010000Y-55655000D01*
X85135000Y-55780000D01*
X86260000Y-55780000D01*
X86260000Y-54655000D01*
X86460000Y-54655000D01*
X86460000Y-55780000D01*
X87585000Y-55780000D01*
X87710000Y-55655000D01*
X87710000Y-54930544D01*
X87633879Y-54746773D01*
X87493227Y-54606120D01*
X87309456Y-54530000D01*
X86585000Y-54530000D01*
X86460000Y-54655000D01*
X86260000Y-54655000D01*
X86135000Y-54530000D01*
X85410544Y-54530000D01*
X85226773Y-54606120D01*
X85086121Y-54746773D01*
X85010000Y-54930544D01*
X82416094Y-54930544D01*
X82412593Y-54912946D01*
X82346288Y-54813712D01*
X82247054Y-54747407D01*
X82130000Y-54724123D01*
X80430000Y-54724123D01*
X80312946Y-54747407D01*
X80213712Y-54813712D01*
X80147407Y-54912946D01*
X80124123Y-55030000D01*
X79537829Y-55030000D01*
X79188707Y-54796724D01*
X78853261Y-54730000D01*
X78626739Y-54730000D01*
X78291293Y-54796724D01*
X77910897Y-55050897D01*
X77656724Y-55431293D01*
X77567471Y-55880000D01*
X77372529Y-55880000D01*
X77283276Y-55431293D01*
X77029103Y-55050897D01*
X76648707Y-54796724D01*
X76313261Y-54730000D01*
X76086739Y-54730000D01*
X75751293Y-54796724D01*
X75370897Y-55050897D01*
X75116724Y-55431293D01*
X75027471Y-55880000D01*
X74832529Y-55880000D01*
X74743276Y-55431293D01*
X74489103Y-55050897D01*
X74108707Y-54796724D01*
X73773261Y-54730000D01*
X73546739Y-54730000D01*
X73211293Y-54796724D01*
X72830897Y-55050897D01*
X72576724Y-55431293D01*
X72487471Y-55880000D01*
X72292529Y-55880000D01*
X72203276Y-55431293D01*
X71949103Y-55050897D01*
X71568707Y-54796724D01*
X71233261Y-54730000D01*
X71006739Y-54730000D01*
X70671293Y-54796724D01*
X70290897Y-55050897D01*
X70036724Y-55431293D01*
X69947471Y-55880000D01*
X69752529Y-55880000D01*
X69663276Y-55431293D01*
X69409103Y-55050897D01*
X69028707Y-54796724D01*
X68693261Y-54730000D01*
X68466739Y-54730000D01*
X68131293Y-54796724D01*
X67750897Y-55050897D01*
X67496724Y-55431293D01*
X67407471Y-55880000D01*
X67212529Y-55880000D01*
X67123276Y-55431293D01*
X66869103Y-55050897D01*
X66488707Y-54796724D01*
X66153261Y-54730000D01*
X65926739Y-54730000D01*
X65591293Y-54796724D01*
X65210897Y-55050897D01*
X64956724Y-55431293D01*
X64867471Y-55880000D01*
X64672529Y-55880000D01*
X64583276Y-55431293D01*
X64329103Y-55050897D01*
X63948707Y-54796724D01*
X63613261Y-54730000D01*
X63428611Y-54730000D01*
X63508601Y-54650010D01*
X80308064Y-54650010D01*
X80344990Y-54657355D01*
X80381916Y-54650010D01*
X80381921Y-54650010D01*
X80491307Y-54628252D01*
X80615349Y-54545369D01*
X80636270Y-54514059D01*
X83353097Y-51797234D01*
X83601196Y-51900000D01*
X84038804Y-51900000D01*
X84443100Y-51732535D01*
X84752535Y-51423100D01*
X84920000Y-51018804D01*
X84920000Y-50581196D01*
X85260000Y-50581196D01*
X85260000Y-51018804D01*
X85427465Y-51423100D01*
X85736900Y-51732535D01*
X86141196Y-51900000D01*
X86578804Y-51900000D01*
X86983100Y-51732535D01*
X87292535Y-51423100D01*
X87460000Y-51018804D01*
X87460000Y-50581196D01*
X87292535Y-50176900D01*
X86983100Y-49867465D01*
X86578804Y-49700000D01*
X86141196Y-49700000D01*
X85736900Y-49867465D01*
X85427465Y-50176900D01*
X85260000Y-50581196D01*
X84920000Y-50581196D01*
X84752535Y-50176900D01*
X84443100Y-49867465D01*
X84038804Y-49700000D01*
X83601196Y-49700000D01*
X83196900Y-49867465D01*
X82887465Y-50176900D01*
X82720000Y-50581196D01*
X82720000Y-51018804D01*
X82822766Y-51266903D01*
X80189661Y-53900010D01*
X78710319Y-53900010D01*
X80813096Y-51797234D01*
X81061196Y-51900000D01*
X81498804Y-51900000D01*
X81903100Y-51732535D01*
X82212535Y-51423100D01*
X82380000Y-51018804D01*
X82380000Y-50581196D01*
X82212535Y-50176900D01*
X81903100Y-49867465D01*
X81498804Y-49700000D01*
X81061196Y-49700000D01*
X80656900Y-49867465D01*
X80347465Y-50176900D01*
X80180000Y-50581196D01*
X80180000Y-51018804D01*
X80282766Y-51266904D01*
X77949671Y-53600000D01*
X77105329Y-53600000D01*
X78805330Y-51900000D01*
X78958804Y-51900000D01*
X79363100Y-51732535D01*
X79672535Y-51423100D01*
X79840000Y-51018804D01*
X79840000Y-50581196D01*
X79672535Y-50176900D01*
X79363100Y-49867465D01*
X78958804Y-49700000D01*
X78521196Y-49700000D01*
X78116900Y-49867465D01*
X77807465Y-50176900D01*
X77640000Y-50581196D01*
X77640000Y-51018804D01*
X77807465Y-51423100D01*
X78014518Y-51630153D01*
X76344682Y-53299989D01*
X74230340Y-53299989D01*
X75624453Y-51905877D01*
X77000000Y-51905877D01*
X77117054Y-51882593D01*
X77216288Y-51816288D01*
X77282593Y-51717054D01*
X77305877Y-51600000D01*
X77305877Y-50000000D01*
X77282593Y-49882946D01*
X77216288Y-49783712D01*
X77117054Y-49717407D01*
X77000000Y-49694123D01*
X75400000Y-49694123D01*
X75282946Y-49717407D01*
X75183712Y-49783712D01*
X75117407Y-49882946D01*
X75094123Y-50000000D01*
X75094123Y-51375547D01*
X73469693Y-52999978D01*
X69196351Y-52999978D01*
X76439053Y-45757277D01*
X76470359Y-45736359D01*
X76497996Y-45694998D01*
X76553241Y-45612319D01*
X76553241Y-45612318D01*
X76553242Y-45612317D01*
X76575000Y-45502931D01*
X76575000Y-45502927D01*
X76582345Y-45466001D01*
X76575000Y-45429075D01*
X76575000Y-44215301D01*
X76823100Y-44112535D01*
X77132535Y-43803100D01*
X77300000Y-43398804D01*
X77300000Y-42961196D01*
X77640000Y-42961196D01*
X77640000Y-43398804D01*
X77807465Y-43803100D01*
X78116900Y-44112535D01*
X78521196Y-44280000D01*
X78958804Y-44280000D01*
X79363100Y-44112535D01*
X79672535Y-43803100D01*
X79840000Y-43398804D01*
X79840000Y-42961196D01*
X80180000Y-42961196D01*
X80180000Y-43398804D01*
X80347465Y-43803100D01*
X80656900Y-44112535D01*
X81061196Y-44280000D01*
X81498804Y-44280000D01*
X81903100Y-44112535D01*
X82212535Y-43803100D01*
X82380000Y-43398804D01*
X82380000Y-42961196D01*
X82720000Y-42961196D01*
X82720000Y-43398804D01*
X82887465Y-43803100D01*
X83196900Y-44112535D01*
X83601196Y-44280000D01*
X84038804Y-44280000D01*
X84443100Y-44112535D01*
X84752535Y-43803100D01*
X84920000Y-43398804D01*
X84920000Y-42961196D01*
X85260000Y-42961196D01*
X85260000Y-43398804D01*
X85427465Y-43803100D01*
X85736900Y-44112535D01*
X86141196Y-44280000D01*
X86578804Y-44280000D01*
X86983100Y-44112535D01*
X87292535Y-43803100D01*
X87460000Y-43398804D01*
X87460000Y-42961196D01*
X87292535Y-42556900D01*
X86983100Y-42247465D01*
X86578804Y-42080000D01*
X86141196Y-42080000D01*
X85736900Y-42247465D01*
X85427465Y-42556900D01*
X85260000Y-42961196D01*
X84920000Y-42961196D01*
X84752535Y-42556900D01*
X84443100Y-42247465D01*
X84038804Y-42080000D01*
X83601196Y-42080000D01*
X83196900Y-42247465D01*
X82887465Y-42556900D01*
X82720000Y-42961196D01*
X82380000Y-42961196D01*
X82212535Y-42556900D01*
X81903100Y-42247465D01*
X81498804Y-42080000D01*
X81061196Y-42080000D01*
X80656900Y-42247465D01*
X80347465Y-42556900D01*
X80180000Y-42961196D01*
X79840000Y-42961196D01*
X79672535Y-42556900D01*
X79363100Y-42247465D01*
X78958804Y-42080000D01*
X78521196Y-42080000D01*
X78116900Y-42247465D01*
X77807465Y-42556900D01*
X77640000Y-42961196D01*
X77300000Y-42961196D01*
X77132535Y-42556900D01*
X76823100Y-42247465D01*
X76418804Y-42080000D01*
X75981196Y-42080000D01*
X75576900Y-42247465D01*
X75267465Y-42556900D01*
X75100000Y-42961196D01*
X75100000Y-43398804D01*
X75267465Y-43803100D01*
X75576900Y-44112535D01*
X75825001Y-44215302D01*
X75825000Y-45310670D01*
X70665000Y-50470671D01*
X70665000Y-49735877D01*
X71090000Y-49735877D01*
X71207054Y-49712593D01*
X71306288Y-49646288D01*
X71372593Y-49547054D01*
X71395877Y-49430000D01*
X71395877Y-48880000D01*
X71372593Y-48762946D01*
X71367284Y-48755000D01*
X71372593Y-48747054D01*
X71372727Y-48746380D01*
X71446072Y-48731791D01*
X71578384Y-48643384D01*
X71600703Y-48609981D01*
X71644983Y-48565701D01*
X71678385Y-48543383D01*
X71766792Y-48411071D01*
X71790001Y-48294393D01*
X71790001Y-48294392D01*
X71797837Y-48254999D01*
X71790001Y-48215605D01*
X71790001Y-46894395D01*
X71797837Y-46855001D01*
X71766792Y-46698930D01*
X71766792Y-46698929D01*
X71678385Y-46566617D01*
X71644982Y-46544298D01*
X71600703Y-46500019D01*
X71578384Y-46466616D01*
X71542984Y-46442963D01*
X71590000Y-46329456D01*
X71590000Y-46180000D01*
X71465000Y-46055000D01*
X70390000Y-46055000D01*
X70390000Y-46075000D01*
X70190000Y-46075000D01*
X70190000Y-46055000D01*
X70170000Y-46055000D01*
X70170000Y-45855000D01*
X70190000Y-45855000D01*
X70190000Y-45835000D01*
X70390000Y-45835000D01*
X70390000Y-45855000D01*
X71465000Y-45855000D01*
X71590000Y-45730000D01*
X71590000Y-45580544D01*
X71513879Y-45396773D01*
X71395877Y-45278770D01*
X71395877Y-44880000D01*
X71372593Y-44762946D01*
X71367284Y-44755000D01*
X71372593Y-44747054D01*
X71380066Y-44709485D01*
X71386317Y-44708242D01*
X71510359Y-44625359D01*
X71531280Y-44594049D01*
X74475330Y-41650000D01*
X83783074Y-41650000D01*
X83820000Y-41657345D01*
X83856926Y-41650000D01*
X83856931Y-41650000D01*
X83966317Y-41628242D01*
X84090359Y-41545359D01*
X84111280Y-41514049D01*
X86369453Y-39255877D01*
X87210000Y-39255877D01*
X87327054Y-39232593D01*
X87426288Y-39166288D01*
X87492593Y-39067054D01*
X87515877Y-38950000D01*
X87515877Y-37250000D01*
X87492593Y-37132946D01*
X87426288Y-37033712D01*
X87327054Y-36967407D01*
X87210000Y-36944123D01*
X85510000Y-36944123D01*
X85392946Y-36967407D01*
X85293712Y-37033712D01*
X85227407Y-37132946D01*
X85204123Y-37250000D01*
X85204123Y-38950000D01*
X85227407Y-39067054D01*
X85293712Y-39166288D01*
X85356458Y-39208213D01*
X83664671Y-40900000D01*
X81550329Y-40900000D01*
X83308806Y-39141524D01*
X83371293Y-39183276D01*
X83706739Y-39250000D01*
X83933261Y-39250000D01*
X84268707Y-39183276D01*
X84649103Y-38929103D01*
X84903276Y-38548707D01*
X84992529Y-38100000D01*
X84903276Y-37651293D01*
X84649103Y-37270897D01*
X84268707Y-37016724D01*
X83933261Y-36950000D01*
X83706739Y-36950000D01*
X83371293Y-37016724D01*
X82990897Y-37270897D01*
X82736724Y-37651293D01*
X82647471Y-38100000D01*
X82736724Y-38548707D01*
X82778476Y-38611194D01*
X80824661Y-40565010D01*
X79345319Y-40565010D01*
X80768806Y-39141524D01*
X80831293Y-39183276D01*
X81166739Y-39250000D01*
X81393261Y-39250000D01*
X81728707Y-39183276D01*
X82109103Y-38929103D01*
X82363276Y-38548707D01*
X82452529Y-38100000D01*
X82363276Y-37651293D01*
X82109103Y-37270897D01*
X81728707Y-37016724D01*
X81393261Y-36950000D01*
X81166739Y-36950000D01*
X80831293Y-37016724D01*
X80450897Y-37270897D01*
X80196724Y-37651293D01*
X80107471Y-38100000D01*
X80196724Y-38548707D01*
X80238476Y-38611194D01*
X78584671Y-40265000D01*
X77105329Y-40265000D01*
X78228806Y-39141524D01*
X78291293Y-39183276D01*
X78626739Y-39250000D01*
X78853261Y-39250000D01*
X79188707Y-39183276D01*
X79569103Y-38929103D01*
X79823276Y-38548707D01*
X79912529Y-38100000D01*
X79823276Y-37651293D01*
X79569103Y-37270897D01*
X79188707Y-37016724D01*
X78853261Y-36950000D01*
X78626739Y-36950000D01*
X78291293Y-37016724D01*
X77910897Y-37270897D01*
X77656724Y-37651293D01*
X77567471Y-38100000D01*
X77656724Y-38548707D01*
X77698476Y-38611194D01*
X76379661Y-39930010D01*
X73951321Y-39930010D01*
X75203202Y-38678130D01*
X75370897Y-38929103D01*
X75751293Y-39183276D01*
X76086739Y-39250000D01*
X76313261Y-39250000D01*
X76648707Y-39183276D01*
X77029103Y-38929103D01*
X77283276Y-38548707D01*
X77372529Y-38100000D01*
X77283276Y-37651293D01*
X77029103Y-37270897D01*
X76648707Y-37016724D01*
X76313261Y-36950000D01*
X76086739Y-36950000D01*
X75751293Y-37016724D01*
X75370897Y-37270897D01*
X75116724Y-37651293D01*
X75096670Y-37752114D01*
X75084665Y-37760135D01*
X75011951Y-37808721D01*
X75011950Y-37808722D01*
X74980643Y-37829641D01*
X74959724Y-37860948D01*
X74813971Y-38006701D01*
X74743276Y-37651293D01*
X74489103Y-37270897D01*
X74108707Y-37016724D01*
X73773261Y-36950000D01*
X73546739Y-36950000D01*
X73211293Y-37016724D01*
X72830897Y-37270897D01*
X72576724Y-37651293D01*
X72487471Y-38100000D01*
X72576724Y-38548707D01*
X72618476Y-38611194D01*
X72234671Y-38995000D01*
X71850481Y-38995000D01*
X71949103Y-38929103D01*
X72203276Y-38548707D01*
X72292529Y-38100000D01*
X72203276Y-37651293D01*
X71949103Y-37270897D01*
X71568707Y-37016724D01*
X71233261Y-36950000D01*
X71006739Y-36950000D01*
X70671293Y-37016724D01*
X70290897Y-37270897D01*
X70036724Y-37651293D01*
X69947471Y-38100000D01*
X70036724Y-38548707D01*
X70290897Y-38929103D01*
X70389519Y-38995000D01*
X69310481Y-38995000D01*
X69409103Y-38929103D01*
X69663276Y-38548707D01*
X69752529Y-38100000D01*
X69663276Y-37651293D01*
X69409103Y-37270897D01*
X69028707Y-37016724D01*
X68693261Y-36950000D01*
X68466739Y-36950000D01*
X68131293Y-37016724D01*
X67750897Y-37270897D01*
X67496724Y-37651293D01*
X67407471Y-38100000D01*
X67496724Y-38548707D01*
X67750897Y-38929103D01*
X67980383Y-39082441D01*
X67954641Y-39099641D01*
X67933724Y-39130945D01*
X66200950Y-40863721D01*
X66169641Y-40884641D01*
X66148721Y-40915950D01*
X66097077Y-40993241D01*
X66086758Y-41008684D01*
X66085515Y-41014934D01*
X66047946Y-41022407D01*
X66040000Y-41027716D01*
X66032054Y-41022407D01*
X65915000Y-40999123D01*
X65526206Y-40999123D01*
X67041053Y-39484277D01*
X67072359Y-39463359D01*
X67098833Y-39423739D01*
X67155241Y-39339319D01*
X67155241Y-39339318D01*
X67155242Y-39339317D01*
X67177000Y-39229931D01*
X67177000Y-39229927D01*
X67184345Y-39193001D01*
X67177000Y-39156074D01*
X67177000Y-38009926D01*
X67184345Y-37973000D01*
X67177000Y-37936074D01*
X67177000Y-37936069D01*
X67155242Y-37826683D01*
X67101838Y-37746759D01*
X67093279Y-37733949D01*
X67093278Y-37733948D01*
X67072359Y-37702641D01*
X67041052Y-37681722D01*
X65878000Y-36518671D01*
X65878000Y-36329653D01*
X65786656Y-36109127D01*
X65617873Y-35940344D01*
X65397347Y-35849000D01*
X65158653Y-35849000D01*
X64938127Y-35940344D01*
X64769344Y-36109127D01*
X64678000Y-36329653D01*
X64678000Y-36568347D01*
X64769344Y-36788873D01*
X64938127Y-36957656D01*
X65158653Y-37049000D01*
X65347671Y-37049000D01*
X66427001Y-38128331D01*
X66427000Y-39037670D01*
X66058739Y-39405931D01*
X66058739Y-39304392D01*
X65967395Y-39083866D01*
X65798612Y-38915083D01*
X65749322Y-38894667D01*
X65758242Y-38881317D01*
X65780000Y-38771931D01*
X65780000Y-38771926D01*
X65787345Y-38735000D01*
X65780000Y-38698074D01*
X65780000Y-38573537D01*
X65913656Y-38439881D01*
X66005000Y-38219355D01*
X66005000Y-37980661D01*
X65913656Y-37760135D01*
X65744873Y-37591352D01*
X65524347Y-37500008D01*
X65285653Y-37500008D01*
X65065127Y-37591352D01*
X64896344Y-37760135D01*
X64805000Y-37980661D01*
X64805000Y-38219355D01*
X64896344Y-38439881D01*
X65030001Y-38573538D01*
X65030001Y-38579669D01*
X64654935Y-38954735D01*
X64655877Y-38950000D01*
X64655877Y-37250000D01*
X64632593Y-37132946D01*
X64566288Y-37033712D01*
X64467054Y-36967407D01*
X64350000Y-36944123D01*
X62650000Y-36944123D01*
X62532946Y-36967407D01*
X62433712Y-37033712D01*
X62367407Y-37132946D01*
X62344123Y-37250000D01*
X62344123Y-38950000D01*
X62367407Y-39067054D01*
X62433712Y-39166288D01*
X62532946Y-39232593D01*
X62650000Y-39255877D01*
X64350000Y-39255877D01*
X64354735Y-39254935D01*
X63344671Y-40265000D01*
X62759924Y-40265000D01*
X62722997Y-40257655D01*
X62686071Y-40265000D01*
X62686067Y-40265000D01*
X62576681Y-40286758D01*
X62576680Y-40286759D01*
X62576679Y-40286759D01*
X62483947Y-40348721D01*
X62483946Y-40348722D01*
X62452639Y-40369641D01*
X62431720Y-40400948D01*
X61355950Y-41476718D01*
X61324641Y-41497639D01*
X61241758Y-41621682D01*
X61220000Y-41731068D01*
X61220000Y-41731072D01*
X61212655Y-41767998D01*
X61220000Y-41804925D01*
X61220001Y-42898069D01*
X61212655Y-42935000D01*
X61220437Y-42974123D01*
X60990000Y-42974123D01*
X60872946Y-42997407D01*
X60773712Y-43063712D01*
X60707407Y-43162946D01*
X60684123Y-43280000D01*
X60684123Y-43830000D01*
X60707407Y-43947054D01*
X60712716Y-43955000D01*
X60707407Y-43962946D01*
X60699934Y-44000515D01*
X60693683Y-44001758D01*
X60693681Y-44001759D01*
X60693682Y-44001759D01*
X60600949Y-44063721D01*
X60600948Y-44063722D01*
X60569641Y-44084641D01*
X60548722Y-44115948D01*
X59450948Y-45213722D01*
X59419642Y-45234641D01*
X59398723Y-45265948D01*
X59398721Y-45265950D01*
X59336759Y-45358682D01*
X59307655Y-45505000D01*
X58820000Y-45505000D01*
X58820000Y-35452000D01*
X89770000Y-35452000D01*
X89770001Y-58020000D01*
X89770001Y-58020000D01*
G37*
X89770001Y-58020000D02*
X58820000Y-58020000D01*
X58820000Y-45505000D01*
X59307655Y-45505000D01*
X59315001Y-45541931D01*
X59315000Y-54937084D01*
X59307655Y-54974010D01*
X59315000Y-55010936D01*
X59315000Y-55010940D01*
X59336758Y-55120326D01*
X59419641Y-55244369D01*
X59450950Y-55265289D01*
X59709713Y-55524053D01*
X59730632Y-55555360D01*
X59761939Y-55576279D01*
X59761940Y-55576280D01*
X59792809Y-55596906D01*
X59724984Y-55760653D01*
X59724984Y-55999347D01*
X59816328Y-56219873D01*
X59985111Y-56388656D01*
X60205637Y-56480000D01*
X60444331Y-56480000D01*
X60664857Y-56388656D01*
X60798513Y-56255000D01*
X61711355Y-56255000D01*
X61748281Y-56262345D01*
X61785207Y-56255000D01*
X61785212Y-56255000D01*
X61894598Y-56233242D01*
X62018640Y-56150359D01*
X62039561Y-56119049D01*
X62339603Y-55819007D01*
X62327471Y-55880000D01*
X62416724Y-56328707D01*
X62670897Y-56709103D01*
X63051293Y-56963276D01*
X63386739Y-57030000D01*
X63613261Y-57030000D01*
X63948707Y-56963276D01*
X64329103Y-56709103D01*
X64583276Y-56328707D01*
X64672529Y-55880000D01*
X64867471Y-55880000D01*
X64956724Y-56328707D01*
X65210897Y-56709103D01*
X65591293Y-56963276D01*
X65926739Y-57030000D01*
X66153261Y-57030000D01*
X66488707Y-56963276D01*
X66869103Y-56709103D01*
X67123276Y-56328707D01*
X67212529Y-55880000D01*
X67407471Y-55880000D01*
X67496724Y-56328707D01*
X67750897Y-56709103D01*
X68131293Y-56963276D01*
X68466739Y-57030000D01*
X68693261Y-57030000D01*
X69028707Y-56963276D01*
X69409103Y-56709103D01*
X69663276Y-56328707D01*
X69752529Y-55880000D01*
X69947471Y-55880000D01*
X70036724Y-56328707D01*
X70290897Y-56709103D01*
X70671293Y-56963276D01*
X71006739Y-57030000D01*
X71233261Y-57030000D01*
X71568707Y-56963276D01*
X71949103Y-56709103D01*
X72203276Y-56328707D01*
X72292529Y-55880000D01*
X72487471Y-55880000D01*
X72576724Y-56328707D01*
X72830897Y-56709103D01*
X73211293Y-56963276D01*
X73546739Y-57030000D01*
X73773261Y-57030000D01*
X74108707Y-56963276D01*
X74489103Y-56709103D01*
X74743276Y-56328707D01*
X74832529Y-55880000D01*
X75027471Y-55880000D01*
X75116724Y-56328707D01*
X75370897Y-56709103D01*
X75751293Y-56963276D01*
X76086739Y-57030000D01*
X76313261Y-57030000D01*
X76648707Y-56963276D01*
X77029103Y-56709103D01*
X77283276Y-56328707D01*
X77372529Y-55880000D01*
X77567471Y-55880000D01*
X77656724Y-56328707D01*
X77910897Y-56709103D01*
X78291293Y-56963276D01*
X78626739Y-57030000D01*
X78853261Y-57030000D01*
X79188707Y-56963276D01*
X79569103Y-56709103D01*
X79823276Y-56328707D01*
X79912529Y-55880000D01*
X79823276Y-55431293D01*
X79569103Y-55050897D01*
X79537829Y-55030000D01*
X80124123Y-55030000D01*
X80124123Y-56730000D01*
X80147407Y-56847054D01*
X80213712Y-56946288D01*
X80312946Y-57012593D01*
X80430000Y-57035877D01*
X82130000Y-57035877D01*
X82247054Y-57012593D01*
X82346288Y-56946288D01*
X82412593Y-56847054D01*
X82435877Y-56730000D01*
X82435877Y-56105000D01*
X85010000Y-56105000D01*
X85010000Y-56829456D01*
X85086121Y-57013227D01*
X85226773Y-57153880D01*
X85410544Y-57230000D01*
X86135000Y-57230000D01*
X86260000Y-57105000D01*
X86260000Y-55980000D01*
X86460000Y-55980000D01*
X86460000Y-57105000D01*
X86585000Y-57230000D01*
X87309456Y-57230000D01*
X87493227Y-57153880D01*
X87633879Y-57013227D01*
X87710000Y-56829456D01*
X87710000Y-56105000D01*
X87585000Y-55980000D01*
X86460000Y-55980000D01*
X86260000Y-55980000D01*
X85135000Y-55980000D01*
X85010000Y-56105000D01*
X82435877Y-56105000D01*
X82435877Y-55030000D01*
X82416094Y-54930544D01*
X85010000Y-54930544D01*
X85010000Y-55655000D01*
X85135000Y-55780000D01*
X86260000Y-55780000D01*
X86260000Y-54655000D01*
X86460000Y-54655000D01*
X86460000Y-55780000D01*
X87585000Y-55780000D01*
X87710000Y-55655000D01*
X87710000Y-54930544D01*
X87633879Y-54746773D01*
X87493227Y-54606120D01*
X87309456Y-54530000D01*
X86585000Y-54530000D01*
X86460000Y-54655000D01*
X86260000Y-54655000D01*
X86135000Y-54530000D01*
X85410544Y-54530000D01*
X85226773Y-54606120D01*
X85086121Y-54746773D01*
X85010000Y-54930544D01*
X82416094Y-54930544D01*
X82412593Y-54912946D01*
X82346288Y-54813712D01*
X82247054Y-54747407D01*
X82130000Y-54724123D01*
X80430000Y-54724123D01*
X80312946Y-54747407D01*
X80213712Y-54813712D01*
X80147407Y-54912946D01*
X80124123Y-55030000D01*
X79537829Y-55030000D01*
X79188707Y-54796724D01*
X78853261Y-54730000D01*
X78626739Y-54730000D01*
X78291293Y-54796724D01*
X77910897Y-55050897D01*
X77656724Y-55431293D01*
X77567471Y-55880000D01*
X77372529Y-55880000D01*
X77283276Y-55431293D01*
X77029103Y-55050897D01*
X76648707Y-54796724D01*
X76313261Y-54730000D01*
X76086739Y-54730000D01*
X75751293Y-54796724D01*
X75370897Y-55050897D01*
X75116724Y-55431293D01*
X75027471Y-55880000D01*
X74832529Y-55880000D01*
X74743276Y-55431293D01*
X74489103Y-55050897D01*
X74108707Y-54796724D01*
X73773261Y-54730000D01*
X73546739Y-54730000D01*
X73211293Y-54796724D01*
X72830897Y-55050897D01*
X72576724Y-55431293D01*
X72487471Y-55880000D01*
X72292529Y-55880000D01*
X72203276Y-55431293D01*
X71949103Y-55050897D01*
X71568707Y-54796724D01*
X71233261Y-54730000D01*
X71006739Y-54730000D01*
X70671293Y-54796724D01*
X70290897Y-55050897D01*
X70036724Y-55431293D01*
X69947471Y-55880000D01*
X69752529Y-55880000D01*
X69663276Y-55431293D01*
X69409103Y-55050897D01*
X69028707Y-54796724D01*
X68693261Y-54730000D01*
X68466739Y-54730000D01*
X68131293Y-54796724D01*
X67750897Y-55050897D01*
X67496724Y-55431293D01*
X67407471Y-55880000D01*
X67212529Y-55880000D01*
X67123276Y-55431293D01*
X66869103Y-55050897D01*
X66488707Y-54796724D01*
X66153261Y-54730000D01*
X65926739Y-54730000D01*
X65591293Y-54796724D01*
X65210897Y-55050897D01*
X64956724Y-55431293D01*
X64867471Y-55880000D01*
X64672529Y-55880000D01*
X64583276Y-55431293D01*
X64329103Y-55050897D01*
X63948707Y-54796724D01*
X63613261Y-54730000D01*
X63428611Y-54730000D01*
X63508601Y-54650010D01*
X80308064Y-54650010D01*
X80344990Y-54657355D01*
X80381916Y-54650010D01*
X80381921Y-54650010D01*
X80491307Y-54628252D01*
X80615349Y-54545369D01*
X80636270Y-54514059D01*
X83353097Y-51797234D01*
X83601196Y-51900000D01*
X84038804Y-51900000D01*
X84443100Y-51732535D01*
X84752535Y-51423100D01*
X84920000Y-51018804D01*
X84920000Y-50581196D01*
X85260000Y-50581196D01*
X85260000Y-51018804D01*
X85427465Y-51423100D01*
X85736900Y-51732535D01*
X86141196Y-51900000D01*
X86578804Y-51900000D01*
X86983100Y-51732535D01*
X87292535Y-51423100D01*
X87460000Y-51018804D01*
X87460000Y-50581196D01*
X87292535Y-50176900D01*
X86983100Y-49867465D01*
X86578804Y-49700000D01*
X86141196Y-49700000D01*
X85736900Y-49867465D01*
X85427465Y-50176900D01*
X85260000Y-50581196D01*
X84920000Y-50581196D01*
X84752535Y-50176900D01*
X84443100Y-49867465D01*
X84038804Y-49700000D01*
X83601196Y-49700000D01*
X83196900Y-49867465D01*
X82887465Y-50176900D01*
X82720000Y-50581196D01*
X82720000Y-51018804D01*
X82822766Y-51266903D01*
X80189661Y-53900010D01*
X78710319Y-53900010D01*
X80813096Y-51797234D01*
X81061196Y-51900000D01*
X81498804Y-51900000D01*
X81903100Y-51732535D01*
X82212535Y-51423100D01*
X82380000Y-51018804D01*
X82380000Y-50581196D01*
X82212535Y-50176900D01*
X81903100Y-49867465D01*
X81498804Y-49700000D01*
X81061196Y-49700000D01*
X80656900Y-49867465D01*
X80347465Y-50176900D01*
X80180000Y-50581196D01*
X80180000Y-51018804D01*
X80282766Y-51266904D01*
X77949671Y-53600000D01*
X77105329Y-53600000D01*
X78805330Y-51900000D01*
X78958804Y-51900000D01*
X79363100Y-51732535D01*
X79672535Y-51423100D01*
X79840000Y-51018804D01*
X79840000Y-50581196D01*
X79672535Y-50176900D01*
X79363100Y-49867465D01*
X78958804Y-49700000D01*
X78521196Y-49700000D01*
X78116900Y-49867465D01*
X77807465Y-50176900D01*
X77640000Y-50581196D01*
X77640000Y-51018804D01*
X77807465Y-51423100D01*
X78014518Y-51630153D01*
X76344682Y-53299989D01*
X74230340Y-53299989D01*
X75624453Y-51905877D01*
X77000000Y-51905877D01*
X77117054Y-51882593D01*
X77216288Y-51816288D01*
X77282593Y-51717054D01*
X77305877Y-51600000D01*
X77305877Y-50000000D01*
X77282593Y-49882946D01*
X77216288Y-49783712D01*
X77117054Y-49717407D01*
X77000000Y-49694123D01*
X75400000Y-49694123D01*
X75282946Y-49717407D01*
X75183712Y-49783712D01*
X75117407Y-49882946D01*
X75094123Y-50000000D01*
X75094123Y-51375547D01*
X73469693Y-52999978D01*
X69196351Y-52999978D01*
X76439053Y-45757277D01*
X76470359Y-45736359D01*
X76497996Y-45694998D01*
X76553241Y-45612319D01*
X76553241Y-45612318D01*
X76553242Y-45612317D01*
X76575000Y-45502931D01*
X76575000Y-45502927D01*
X76582345Y-45466001D01*
X76575000Y-45429075D01*
X76575000Y-44215301D01*
X76823100Y-44112535D01*
X77132535Y-43803100D01*
X77300000Y-43398804D01*
X77300000Y-42961196D01*
X77640000Y-42961196D01*
X77640000Y-43398804D01*
X77807465Y-43803100D01*
X78116900Y-44112535D01*
X78521196Y-44280000D01*
X78958804Y-44280000D01*
X79363100Y-44112535D01*
X79672535Y-43803100D01*
X79840000Y-43398804D01*
X79840000Y-42961196D01*
X80180000Y-42961196D01*
X80180000Y-43398804D01*
X80347465Y-43803100D01*
X80656900Y-44112535D01*
X81061196Y-44280000D01*
X81498804Y-44280000D01*
X81903100Y-44112535D01*
X82212535Y-43803100D01*
X82380000Y-43398804D01*
X82380000Y-42961196D01*
X82720000Y-42961196D01*
X82720000Y-43398804D01*
X82887465Y-43803100D01*
X83196900Y-44112535D01*
X83601196Y-44280000D01*
X84038804Y-44280000D01*
X84443100Y-44112535D01*
X84752535Y-43803100D01*
X84920000Y-43398804D01*
X84920000Y-42961196D01*
X85260000Y-42961196D01*
X85260000Y-43398804D01*
X85427465Y-43803100D01*
X85736900Y-44112535D01*
X86141196Y-44280000D01*
X86578804Y-44280000D01*
X86983100Y-44112535D01*
X87292535Y-43803100D01*
X87460000Y-43398804D01*
X87460000Y-42961196D01*
X87292535Y-42556900D01*
X86983100Y-42247465D01*
X86578804Y-42080000D01*
X86141196Y-42080000D01*
X85736900Y-42247465D01*
X85427465Y-42556900D01*
X85260000Y-42961196D01*
X84920000Y-42961196D01*
X84752535Y-42556900D01*
X84443100Y-42247465D01*
X84038804Y-42080000D01*
X83601196Y-42080000D01*
X83196900Y-42247465D01*
X82887465Y-42556900D01*
X82720000Y-42961196D01*
X82380000Y-42961196D01*
X82212535Y-42556900D01*
X81903100Y-42247465D01*
X81498804Y-42080000D01*
X81061196Y-42080000D01*
X80656900Y-42247465D01*
X80347465Y-42556900D01*
X80180000Y-42961196D01*
X79840000Y-42961196D01*
X79672535Y-42556900D01*
X79363100Y-42247465D01*
X78958804Y-42080000D01*
X78521196Y-42080000D01*
X78116900Y-42247465D01*
X77807465Y-42556900D01*
X77640000Y-42961196D01*
X77300000Y-42961196D01*
X77132535Y-42556900D01*
X76823100Y-42247465D01*
X76418804Y-42080000D01*
X75981196Y-42080000D01*
X75576900Y-42247465D01*
X75267465Y-42556900D01*
X75100000Y-42961196D01*
X75100000Y-43398804D01*
X75267465Y-43803100D01*
X75576900Y-44112535D01*
X75825001Y-44215302D01*
X75825000Y-45310670D01*
X70665000Y-50470671D01*
X70665000Y-49735877D01*
X71090000Y-49735877D01*
X71207054Y-49712593D01*
X71306288Y-49646288D01*
X71372593Y-49547054D01*
X71395877Y-49430000D01*
X71395877Y-48880000D01*
X71372593Y-48762946D01*
X71367284Y-48755000D01*
X71372593Y-48747054D01*
X71372727Y-48746380D01*
X71446072Y-48731791D01*
X71578384Y-48643384D01*
X71600703Y-48609981D01*
X71644983Y-48565701D01*
X71678385Y-48543383D01*
X71766792Y-48411071D01*
X71790001Y-48294393D01*
X71790001Y-48294392D01*
X71797837Y-48254999D01*
X71790001Y-48215605D01*
X71790001Y-46894395D01*
X71797837Y-46855001D01*
X71766792Y-46698930D01*
X71766792Y-46698929D01*
X71678385Y-46566617D01*
X71644982Y-46544298D01*
X71600703Y-46500019D01*
X71578384Y-46466616D01*
X71542984Y-46442963D01*
X71590000Y-46329456D01*
X71590000Y-46180000D01*
X71465000Y-46055000D01*
X70390000Y-46055000D01*
X70390000Y-46075000D01*
X70190000Y-46075000D01*
X70190000Y-46055000D01*
X70170000Y-46055000D01*
X70170000Y-45855000D01*
X70190000Y-45855000D01*
X70190000Y-45835000D01*
X70390000Y-45835000D01*
X70390000Y-45855000D01*
X71465000Y-45855000D01*
X71590000Y-45730000D01*
X71590000Y-45580544D01*
X71513879Y-45396773D01*
X71395877Y-45278770D01*
X71395877Y-44880000D01*
X71372593Y-44762946D01*
X71367284Y-44755000D01*
X71372593Y-44747054D01*
X71380066Y-44709485D01*
X71386317Y-44708242D01*
X71510359Y-44625359D01*
X71531280Y-44594049D01*
X74475330Y-41650000D01*
X83783074Y-41650000D01*
X83820000Y-41657345D01*
X83856926Y-41650000D01*
X83856931Y-41650000D01*
X83966317Y-41628242D01*
X84090359Y-41545359D01*
X84111280Y-41514049D01*
X86369453Y-39255877D01*
X87210000Y-39255877D01*
X87327054Y-39232593D01*
X87426288Y-39166288D01*
X87492593Y-39067054D01*
X87515877Y-38950000D01*
X87515877Y-37250000D01*
X87492593Y-37132946D01*
X87426288Y-37033712D01*
X87327054Y-36967407D01*
X87210000Y-36944123D01*
X85510000Y-36944123D01*
X85392946Y-36967407D01*
X85293712Y-37033712D01*
X85227407Y-37132946D01*
X85204123Y-37250000D01*
X85204123Y-38950000D01*
X85227407Y-39067054D01*
X85293712Y-39166288D01*
X85356458Y-39208213D01*
X83664671Y-40900000D01*
X81550329Y-40900000D01*
X83308806Y-39141524D01*
X83371293Y-39183276D01*
X83706739Y-39250000D01*
X83933261Y-39250000D01*
X84268707Y-39183276D01*
X84649103Y-38929103D01*
X84903276Y-38548707D01*
X84992529Y-38100000D01*
X84903276Y-37651293D01*
X84649103Y-37270897D01*
X84268707Y-37016724D01*
X83933261Y-36950000D01*
X83706739Y-36950000D01*
X83371293Y-37016724D01*
X82990897Y-37270897D01*
X82736724Y-37651293D01*
X82647471Y-38100000D01*
X82736724Y-38548707D01*
X82778476Y-38611194D01*
X80824661Y-40565010D01*
X79345319Y-40565010D01*
X80768806Y-39141524D01*
X80831293Y-39183276D01*
X81166739Y-39250000D01*
X81393261Y-39250000D01*
X81728707Y-39183276D01*
X82109103Y-38929103D01*
X82363276Y-38548707D01*
X82452529Y-38100000D01*
X82363276Y-37651293D01*
X82109103Y-37270897D01*
X81728707Y-37016724D01*
X81393261Y-36950000D01*
X81166739Y-36950000D01*
X80831293Y-37016724D01*
X80450897Y-37270897D01*
X80196724Y-37651293D01*
X80107471Y-38100000D01*
X80196724Y-38548707D01*
X80238476Y-38611194D01*
X78584671Y-40265000D01*
X77105329Y-40265000D01*
X78228806Y-39141524D01*
X78291293Y-39183276D01*
X78626739Y-39250000D01*
X78853261Y-39250000D01*
X79188707Y-39183276D01*
X79569103Y-38929103D01*
X79823276Y-38548707D01*
X79912529Y-38100000D01*
X79823276Y-37651293D01*
X79569103Y-37270897D01*
X79188707Y-37016724D01*
X78853261Y-36950000D01*
X78626739Y-36950000D01*
X78291293Y-37016724D01*
X77910897Y-37270897D01*
X77656724Y-37651293D01*
X77567471Y-38100000D01*
X77656724Y-38548707D01*
X77698476Y-38611194D01*
X76379661Y-39930010D01*
X73951321Y-39930010D01*
X75203202Y-38678130D01*
X75370897Y-38929103D01*
X75751293Y-39183276D01*
X76086739Y-39250000D01*
X76313261Y-39250000D01*
X76648707Y-39183276D01*
X77029103Y-38929103D01*
X77283276Y-38548707D01*
X77372529Y-38100000D01*
X77283276Y-37651293D01*
X77029103Y-37270897D01*
X76648707Y-37016724D01*
X76313261Y-36950000D01*
X76086739Y-36950000D01*
X75751293Y-37016724D01*
X75370897Y-37270897D01*
X75116724Y-37651293D01*
X75096670Y-37752114D01*
X75084665Y-37760135D01*
X75011951Y-37808721D01*
X75011950Y-37808722D01*
X74980643Y-37829641D01*
X74959724Y-37860948D01*
X74813971Y-38006701D01*
X74743276Y-37651293D01*
X74489103Y-37270897D01*
X74108707Y-37016724D01*
X73773261Y-36950000D01*
X73546739Y-36950000D01*
X73211293Y-37016724D01*
X72830897Y-37270897D01*
X72576724Y-37651293D01*
X72487471Y-38100000D01*
X72576724Y-38548707D01*
X72618476Y-38611194D01*
X72234671Y-38995000D01*
X71850481Y-38995000D01*
X71949103Y-38929103D01*
X72203276Y-38548707D01*
X72292529Y-38100000D01*
X72203276Y-37651293D01*
X71949103Y-37270897D01*
X71568707Y-37016724D01*
X71233261Y-36950000D01*
X71006739Y-36950000D01*
X70671293Y-37016724D01*
X70290897Y-37270897D01*
X70036724Y-37651293D01*
X69947471Y-38100000D01*
X70036724Y-38548707D01*
X70290897Y-38929103D01*
X70389519Y-38995000D01*
X69310481Y-38995000D01*
X69409103Y-38929103D01*
X69663276Y-38548707D01*
X69752529Y-38100000D01*
X69663276Y-37651293D01*
X69409103Y-37270897D01*
X69028707Y-37016724D01*
X68693261Y-36950000D01*
X68466739Y-36950000D01*
X68131293Y-37016724D01*
X67750897Y-37270897D01*
X67496724Y-37651293D01*
X67407471Y-38100000D01*
X67496724Y-38548707D01*
X67750897Y-38929103D01*
X67980383Y-39082441D01*
X67954641Y-39099641D01*
X67933724Y-39130945D01*
X66200950Y-40863721D01*
X66169641Y-40884641D01*
X66148721Y-40915950D01*
X66097077Y-40993241D01*
X66086758Y-41008684D01*
X66085515Y-41014934D01*
X66047946Y-41022407D01*
X66040000Y-41027716D01*
X66032054Y-41022407D01*
X65915000Y-40999123D01*
X65526206Y-40999123D01*
X67041053Y-39484277D01*
X67072359Y-39463359D01*
X67098833Y-39423739D01*
X67155241Y-39339319D01*
X67155241Y-39339318D01*
X67155242Y-39339317D01*
X67177000Y-39229931D01*
X67177000Y-39229927D01*
X67184345Y-39193001D01*
X67177000Y-39156074D01*
X67177000Y-38009926D01*
X67184345Y-37973000D01*
X67177000Y-37936074D01*
X67177000Y-37936069D01*
X67155242Y-37826683D01*
X67101838Y-37746759D01*
X67093279Y-37733949D01*
X67093278Y-37733948D01*
X67072359Y-37702641D01*
X67041052Y-37681722D01*
X65878000Y-36518671D01*
X65878000Y-36329653D01*
X65786656Y-36109127D01*
X65617873Y-35940344D01*
X65397347Y-35849000D01*
X65158653Y-35849000D01*
X64938127Y-35940344D01*
X64769344Y-36109127D01*
X64678000Y-36329653D01*
X64678000Y-36568347D01*
X64769344Y-36788873D01*
X64938127Y-36957656D01*
X65158653Y-37049000D01*
X65347671Y-37049000D01*
X66427001Y-38128331D01*
X66427000Y-39037670D01*
X66058739Y-39405931D01*
X66058739Y-39304392D01*
X65967395Y-39083866D01*
X65798612Y-38915083D01*
X65749322Y-38894667D01*
X65758242Y-38881317D01*
X65780000Y-38771931D01*
X65780000Y-38771926D01*
X65787345Y-38735000D01*
X65780000Y-38698074D01*
X65780000Y-38573537D01*
X65913656Y-38439881D01*
X66005000Y-38219355D01*
X66005000Y-37980661D01*
X65913656Y-37760135D01*
X65744873Y-37591352D01*
X65524347Y-37500008D01*
X65285653Y-37500008D01*
X65065127Y-37591352D01*
X64896344Y-37760135D01*
X64805000Y-37980661D01*
X64805000Y-38219355D01*
X64896344Y-38439881D01*
X65030001Y-38573538D01*
X65030001Y-38579669D01*
X64654935Y-38954735D01*
X64655877Y-38950000D01*
X64655877Y-37250000D01*
X64632593Y-37132946D01*
X64566288Y-37033712D01*
X64467054Y-36967407D01*
X64350000Y-36944123D01*
X62650000Y-36944123D01*
X62532946Y-36967407D01*
X62433712Y-37033712D01*
X62367407Y-37132946D01*
X62344123Y-37250000D01*
X62344123Y-38950000D01*
X62367407Y-39067054D01*
X62433712Y-39166288D01*
X62532946Y-39232593D01*
X62650000Y-39255877D01*
X64350000Y-39255877D01*
X64354735Y-39254935D01*
X63344671Y-40265000D01*
X62759924Y-40265000D01*
X62722997Y-40257655D01*
X62686071Y-40265000D01*
X62686067Y-40265000D01*
X62576681Y-40286758D01*
X62576680Y-40286759D01*
X62576679Y-40286759D01*
X62483947Y-40348721D01*
X62483946Y-40348722D01*
X62452639Y-40369641D01*
X62431720Y-40400948D01*
X61355950Y-41476718D01*
X61324641Y-41497639D01*
X61241758Y-41621682D01*
X61220000Y-41731068D01*
X61220000Y-41731072D01*
X61212655Y-41767998D01*
X61220000Y-41804925D01*
X61220001Y-42898069D01*
X61212655Y-42935000D01*
X61220437Y-42974123D01*
X60990000Y-42974123D01*
X60872946Y-42997407D01*
X60773712Y-43063712D01*
X60707407Y-43162946D01*
X60684123Y-43280000D01*
X60684123Y-43830000D01*
X60707407Y-43947054D01*
X60712716Y-43955000D01*
X60707407Y-43962946D01*
X60699934Y-44000515D01*
X60693683Y-44001758D01*
X60693681Y-44001759D01*
X60693682Y-44001759D01*
X60600949Y-44063721D01*
X60600948Y-44063722D01*
X60569641Y-44084641D01*
X60548722Y-44115948D01*
X59450948Y-45213722D01*
X59419642Y-45234641D01*
X59398723Y-45265948D01*
X59398721Y-45265950D01*
X59336759Y-45358682D01*
X59307655Y-45505000D01*
X58820000Y-45505000D01*
X58820000Y-35452000D01*
X89770000Y-35452000D01*
X89770001Y-58020000D01*
G36*
X60490000Y-45255002D02*
X60614998Y-45255002D01*
X60490000Y-45380000D01*
X60490000Y-45529456D01*
X60566121Y-45713227D01*
X60684123Y-45831230D01*
X60684123Y-46078770D01*
X60566121Y-46196773D01*
X60490000Y-46380544D01*
X60490000Y-46530000D01*
X60615000Y-46655000D01*
X61690000Y-46655000D01*
X61690000Y-46635000D01*
X61890000Y-46635000D01*
X61890000Y-46655000D01*
X61910000Y-46655000D01*
X61910000Y-46855000D01*
X61890000Y-46855000D01*
X61890000Y-46875000D01*
X61690000Y-46875000D01*
X61690000Y-46855000D01*
X60615000Y-46855000D01*
X60490000Y-46980000D01*
X60490000Y-47129456D01*
X60566121Y-47313227D01*
X60684123Y-47431230D01*
X60684123Y-47830000D01*
X60707407Y-47947054D01*
X60712716Y-47955000D01*
X60707407Y-47962946D01*
X60684123Y-48080000D01*
X60684123Y-48630000D01*
X60707407Y-48747054D01*
X60712716Y-48755000D01*
X60707407Y-48762946D01*
X60684123Y-48880000D01*
X60684123Y-49430000D01*
X60707407Y-49547054D01*
X60773712Y-49646288D01*
X60872946Y-49712593D01*
X60990000Y-49735877D01*
X62590000Y-49735877D01*
X62676287Y-49718713D01*
X62659123Y-49805000D01*
X62659123Y-51405000D01*
X62682407Y-51522054D01*
X62748712Y-51621288D01*
X62847946Y-51687593D01*
X62865001Y-51690985D01*
X62865000Y-53043073D01*
X62857655Y-53080000D01*
X62865000Y-53116926D01*
X62865000Y-53116930D01*
X62886758Y-53226316D01*
X62969641Y-53350359D01*
X63000950Y-53371279D01*
X63223433Y-53593763D01*
X63192075Y-53600000D01*
X63192071Y-53600000D01*
X63082685Y-53621758D01*
X63082684Y-53621759D01*
X63082683Y-53621759D01*
X62989950Y-53683721D01*
X62989947Y-53683724D01*
X62958643Y-53704641D01*
X62937726Y-53735945D01*
X61763672Y-54910001D01*
X60156321Y-54910001D01*
X60065000Y-54818681D01*
X60065000Y-45660329D01*
X60490000Y-45235330D01*
X60490000Y-45255002D01*
X60490000Y-45255002D01*
G37*
X60490000Y-45255002D02*
X60614998Y-45255002D01*
X60490000Y-45380000D01*
X60490000Y-45529456D01*
X60566121Y-45713227D01*
X60684123Y-45831230D01*
X60684123Y-46078770D01*
X60566121Y-46196773D01*
X60490000Y-46380544D01*
X60490000Y-46530000D01*
X60615000Y-46655000D01*
X61690000Y-46655000D01*
X61690000Y-46635000D01*
X61890000Y-46635000D01*
X61890000Y-46655000D01*
X61910000Y-46655000D01*
X61910000Y-46855000D01*
X61890000Y-46855000D01*
X61890000Y-46875000D01*
X61690000Y-46875000D01*
X61690000Y-46855000D01*
X60615000Y-46855000D01*
X60490000Y-46980000D01*
X60490000Y-47129456D01*
X60566121Y-47313227D01*
X60684123Y-47431230D01*
X60684123Y-47830000D01*
X60707407Y-47947054D01*
X60712716Y-47955000D01*
X60707407Y-47962946D01*
X60684123Y-48080000D01*
X60684123Y-48630000D01*
X60707407Y-48747054D01*
X60712716Y-48755000D01*
X60707407Y-48762946D01*
X60684123Y-48880000D01*
X60684123Y-49430000D01*
X60707407Y-49547054D01*
X60773712Y-49646288D01*
X60872946Y-49712593D01*
X60990000Y-49735877D01*
X62590000Y-49735877D01*
X62676287Y-49718713D01*
X62659123Y-49805000D01*
X62659123Y-51405000D01*
X62682407Y-51522054D01*
X62748712Y-51621288D01*
X62847946Y-51687593D01*
X62865001Y-51690985D01*
X62865000Y-53043073D01*
X62857655Y-53080000D01*
X62865000Y-53116926D01*
X62865000Y-53116930D01*
X62886758Y-53226316D01*
X62969641Y-53350359D01*
X63000950Y-53371279D01*
X63223433Y-53593763D01*
X63192075Y-53600000D01*
X63192071Y-53600000D01*
X63082685Y-53621758D01*
X63082684Y-53621759D01*
X63082683Y-53621759D01*
X62989950Y-53683721D01*
X62989947Y-53683724D01*
X62958643Y-53704641D01*
X62937726Y-53735945D01*
X61763672Y-54910001D01*
X60156321Y-54910001D01*
X60065000Y-54818681D01*
X60065000Y-45660329D01*
X60490000Y-45235330D01*
X60490000Y-45255002D01*
G36*
X66913482Y-44408432D02*
X67170761Y-44515000D01*
X67444316Y-44515000D01*
X68789999Y-45860685D01*
X68790000Y-46430603D01*
X68782163Y-46470001D01*
X68813208Y-46626072D01*
X68813209Y-46626073D01*
X68901616Y-46758385D01*
X68935016Y-46780702D01*
X68939296Y-46784982D01*
X68961615Y-46818385D01*
X69093927Y-46906792D01*
X69184123Y-46924733D01*
X69184123Y-47030000D01*
X69207407Y-47147054D01*
X69212716Y-47155000D01*
X69207407Y-47162946D01*
X69184123Y-47280000D01*
X69184123Y-47830000D01*
X69207407Y-47947054D01*
X69212716Y-47955000D01*
X69207407Y-47962946D01*
X69184123Y-48080000D01*
X69184123Y-48630000D01*
X69207407Y-48747054D01*
X69212716Y-48755000D01*
X69207407Y-48762946D01*
X69184123Y-48880000D01*
X69184123Y-49430000D01*
X69201287Y-49516287D01*
X69115000Y-49499123D01*
X68565000Y-49499123D01*
X68447946Y-49522407D01*
X68440000Y-49527716D01*
X68432054Y-49522407D01*
X68415000Y-49519015D01*
X68415000Y-49392922D01*
X68422345Y-49355996D01*
X68415000Y-49319070D01*
X68415000Y-49319065D01*
X68393242Y-49209679D01*
X68363628Y-49165359D01*
X68331279Y-49116945D01*
X68331278Y-49116944D01*
X68310359Y-49085637D01*
X68279052Y-49064718D01*
X67472281Y-48257948D01*
X67451361Y-48226639D01*
X67327319Y-48143756D01*
X67217933Y-48121998D01*
X67217928Y-48121998D01*
X67181002Y-48114653D01*
X67144076Y-48121998D01*
X66474927Y-48121998D01*
X66438001Y-48114653D01*
X66401075Y-48121998D01*
X66401071Y-48121998D01*
X66291685Y-48143756D01*
X66291683Y-48143757D01*
X66291684Y-48143757D01*
X66198951Y-48205719D01*
X66198950Y-48205720D01*
X66167643Y-48226639D01*
X66146724Y-48257947D01*
X66100950Y-48303721D01*
X66100948Y-48303722D01*
X65982670Y-48422000D01*
X65920653Y-48422000D01*
X65700127Y-48513344D01*
X65531344Y-48682127D01*
X65440000Y-48902653D01*
X65440000Y-48924671D01*
X65171279Y-48655950D01*
X65150359Y-48624641D01*
X65026317Y-48541758D01*
X64916931Y-48520000D01*
X64916926Y-48520000D01*
X64880000Y-48512655D01*
X64843074Y-48520000D01*
X63973529Y-48520000D01*
X63839873Y-48386344D01*
X63619347Y-48295000D01*
X63380653Y-48295000D01*
X63160127Y-48386344D01*
X62991344Y-48555127D01*
X62900000Y-48775653D01*
X62900000Y-49014347D01*
X62991344Y-49234873D01*
X63160127Y-49403656D01*
X63380653Y-49495000D01*
X63619347Y-49495000D01*
X63839873Y-49403656D01*
X63973529Y-49270000D01*
X64724671Y-49270000D01*
X64953794Y-49499123D01*
X64565000Y-49499123D01*
X64447946Y-49522407D01*
X64440000Y-49527716D01*
X64432054Y-49522407D01*
X64315000Y-49499123D01*
X63765000Y-49499123D01*
X63647946Y-49522407D01*
X63640000Y-49527716D01*
X63632054Y-49522407D01*
X63515000Y-49499123D01*
X62965000Y-49499123D01*
X62878713Y-49516287D01*
X62895877Y-49430000D01*
X62895877Y-48880000D01*
X62872593Y-48762946D01*
X62867284Y-48755000D01*
X62872593Y-48747054D01*
X62895877Y-48630000D01*
X62895877Y-48080000D01*
X62872593Y-47962946D01*
X62867284Y-47955000D01*
X62872593Y-47947054D01*
X62872727Y-47946380D01*
X62946072Y-47931791D01*
X63078384Y-47843384D01*
X63100703Y-47809981D01*
X63144982Y-47765702D01*
X63178385Y-47743383D01*
X63266792Y-47611071D01*
X63290001Y-47494393D01*
X63297837Y-47454999D01*
X63290001Y-47415605D01*
X63290001Y-46094394D01*
X63297837Y-46055001D01*
X63290001Y-46015607D01*
X63290001Y-45860675D01*
X64635677Y-44515000D01*
X64909231Y-44515000D01*
X65166510Y-44408432D01*
X65359942Y-44215000D01*
X66720050Y-44215000D01*
X66913482Y-44408432D01*
X66913482Y-44408432D01*
G37*
X66913482Y-44408432D02*
X67170761Y-44515000D01*
X67444316Y-44515000D01*
X68789999Y-45860685D01*
X68790000Y-46430603D01*
X68782163Y-46470001D01*
X68813208Y-46626072D01*
X68813209Y-46626073D01*
X68901616Y-46758385D01*
X68935016Y-46780702D01*
X68939296Y-46784982D01*
X68961615Y-46818385D01*
X69093927Y-46906792D01*
X69184123Y-46924733D01*
X69184123Y-47030000D01*
X69207407Y-47147054D01*
X69212716Y-47155000D01*
X69207407Y-47162946D01*
X69184123Y-47280000D01*
X69184123Y-47830000D01*
X69207407Y-47947054D01*
X69212716Y-47955000D01*
X69207407Y-47962946D01*
X69184123Y-48080000D01*
X69184123Y-48630000D01*
X69207407Y-48747054D01*
X69212716Y-48755000D01*
X69207407Y-48762946D01*
X69184123Y-48880000D01*
X69184123Y-49430000D01*
X69201287Y-49516287D01*
X69115000Y-49499123D01*
X68565000Y-49499123D01*
X68447946Y-49522407D01*
X68440000Y-49527716D01*
X68432054Y-49522407D01*
X68415000Y-49519015D01*
X68415000Y-49392922D01*
X68422345Y-49355996D01*
X68415000Y-49319070D01*
X68415000Y-49319065D01*
X68393242Y-49209679D01*
X68363628Y-49165359D01*
X68331279Y-49116945D01*
X68331278Y-49116944D01*
X68310359Y-49085637D01*
X68279052Y-49064718D01*
X67472281Y-48257948D01*
X67451361Y-48226639D01*
X67327319Y-48143756D01*
X67217933Y-48121998D01*
X67217928Y-48121998D01*
X67181002Y-48114653D01*
X67144076Y-48121998D01*
X66474927Y-48121998D01*
X66438001Y-48114653D01*
X66401075Y-48121998D01*
X66401071Y-48121998D01*
X66291685Y-48143756D01*
X66291683Y-48143757D01*
X66291684Y-48143757D01*
X66198951Y-48205719D01*
X66198950Y-48205720D01*
X66167643Y-48226639D01*
X66146724Y-48257947D01*
X66100950Y-48303721D01*
X66100948Y-48303722D01*
X65982670Y-48422000D01*
X65920653Y-48422000D01*
X65700127Y-48513344D01*
X65531344Y-48682127D01*
X65440000Y-48902653D01*
X65440000Y-48924671D01*
X65171279Y-48655950D01*
X65150359Y-48624641D01*
X65026317Y-48541758D01*
X64916931Y-48520000D01*
X64916926Y-48520000D01*
X64880000Y-48512655D01*
X64843074Y-48520000D01*
X63973529Y-48520000D01*
X63839873Y-48386344D01*
X63619347Y-48295000D01*
X63380653Y-48295000D01*
X63160127Y-48386344D01*
X62991344Y-48555127D01*
X62900000Y-48775653D01*
X62900000Y-49014347D01*
X62991344Y-49234873D01*
X63160127Y-49403656D01*
X63380653Y-49495000D01*
X63619347Y-49495000D01*
X63839873Y-49403656D01*
X63973529Y-49270000D01*
X64724671Y-49270000D01*
X64953794Y-49499123D01*
X64565000Y-49499123D01*
X64447946Y-49522407D01*
X64440000Y-49527716D01*
X64432054Y-49522407D01*
X64315000Y-49499123D01*
X63765000Y-49499123D01*
X63647946Y-49522407D01*
X63640000Y-49527716D01*
X63632054Y-49522407D01*
X63515000Y-49499123D01*
X62965000Y-49499123D01*
X62878713Y-49516287D01*
X62895877Y-49430000D01*
X62895877Y-48880000D01*
X62872593Y-48762946D01*
X62867284Y-48755000D01*
X62872593Y-48747054D01*
X62895877Y-48630000D01*
X62895877Y-48080000D01*
X62872593Y-47962946D01*
X62867284Y-47955000D01*
X62872593Y-47947054D01*
X62872727Y-47946380D01*
X62946072Y-47931791D01*
X63078384Y-47843384D01*
X63100703Y-47809981D01*
X63144982Y-47765702D01*
X63178385Y-47743383D01*
X63266792Y-47611071D01*
X63290001Y-47494393D01*
X63297837Y-47454999D01*
X63290001Y-47415605D01*
X63290001Y-46094394D01*
X63297837Y-46055001D01*
X63290001Y-46015607D01*
X63290001Y-45860675D01*
X64635677Y-44515000D01*
X64909231Y-44515000D01*
X65166510Y-44408432D01*
X65359942Y-44215000D01*
X66720050Y-44215000D01*
X66913482Y-44408432D01*
G36*
X61890000Y-45055000D02*
X61910000Y-45055000D01*
X61910000Y-45255000D01*
X61890000Y-45255000D01*
X61890000Y-45275000D01*
X61690000Y-45275000D01*
X61690000Y-45255000D01*
X61670000Y-45255000D01*
X61670000Y-45055000D01*
X61690000Y-45055000D01*
X61690000Y-45035000D01*
X61890000Y-45035000D01*
X61890000Y-45055000D01*
X61890000Y-45055000D01*
G37*
X61890000Y-45055000D02*
X61910000Y-45055000D01*
X61910000Y-45255000D01*
X61890000Y-45255000D01*
X61890000Y-45275000D01*
X61690000Y-45275000D01*
X61690000Y-45255000D01*
X61670000Y-45255000D01*
X61670000Y-45055000D01*
X61690000Y-45055000D01*
X61690000Y-45035000D01*
X61890000Y-45035000D01*
X61890000Y-45055000D01*
G36*
X71320175Y-43084496D02*
X71306288Y-43063712D01*
X71207054Y-42997407D01*
X71090000Y-42974123D01*
X69490000Y-42974123D01*
X69403713Y-42991287D01*
X69420877Y-42905000D01*
X69420877Y-41305000D01*
X69397593Y-41187946D01*
X69331288Y-41088712D01*
X69310504Y-41074825D01*
X69370330Y-41015000D01*
X73389670Y-41015000D01*
X71320175Y-43084496D01*
X71320175Y-43084496D01*
G37*
X71320175Y-43084496D02*
X71306288Y-43063712D01*
X71207054Y-42997407D01*
X71090000Y-42974123D01*
X69490000Y-42974123D01*
X69403713Y-42991287D01*
X69420877Y-42905000D01*
X69420877Y-41305000D01*
X69397593Y-41187946D01*
X69331288Y-41088712D01*
X69310504Y-41074825D01*
X69370330Y-41015000D01*
X73389670Y-41015000D01*
X71320175Y-43084496D01*
G04 #@! TD*
M02*
