G04 #@! TF.GenerationSoftware,KiCad,Pcbnew,(5.0.0)*
G04 #@! TF.CreationDate,2019-08-19T15:41:53-04:00*
G04 #@! TF.ProjectId,7segment,377365676D656E742E6B696361645F70,B*
G04 #@! TF.SameCoordinates,Original*
G04 #@! TF.FileFunction,Copper,L1,Top,Signal*
G04 #@! TF.FilePolarity,Positive*
%FSLAX46Y46*%
G04 Gerber Fmt 4.6, Leading zero omitted, Abs format (unit mm)*
G04 Created by KiCad (PCBNEW (5.0.0)) date 08/19/19 15:41:53*
%MOMM*%
%LPD*%
G01*
G04 APERTURE LIST*
G04 #@! TA.AperFunction,ComponentPad*
%ADD10C,1.600000*%
G04 #@! TD*
G04 #@! TA.AperFunction,ComponentPad*
%ADD11R,1.600000X1.600000*%
G04 #@! TD*
G04 #@! TA.AperFunction,ComponentPad*
%ADD12R,1.700000X1.700000*%
G04 #@! TD*
G04 #@! TA.AperFunction,ComponentPad*
%ADD13O,1.700000X1.700000*%
G04 #@! TD*
G04 #@! TA.AperFunction,SMDPad,CuDef*
%ADD14R,0.500000X0.800000*%
G04 #@! TD*
G04 #@! TA.AperFunction,SMDPad,CuDef*
%ADD15R,0.400000X0.800000*%
G04 #@! TD*
G04 #@! TA.AperFunction,SMDPad,CuDef*
%ADD16C,0.550000*%
G04 #@! TD*
G04 #@! TA.AperFunction,Conductor*
%ADD17C,0.100000*%
G04 #@! TD*
G04 #@! TA.AperFunction,ViaPad*
%ADD18C,0.800000*%
G04 #@! TD*
G04 #@! TA.AperFunction,ViaPad*
%ADD19C,0.600000*%
G04 #@! TD*
G04 #@! TA.AperFunction,Conductor*
%ADD20C,0.200000*%
G04 #@! TD*
G04 #@! TA.AperFunction,Conductor*
%ADD21C,0.150000*%
G04 #@! TD*
G04 APERTURE END LIST*
D10*
G04 #@! TO.P,U1,10*
G04 #@! TO.N,SEG_F*
X76200000Y-41910000D03*
G04 #@! TO.P,U1,9*
G04 #@! TO.N,D0*
X78740000Y-41910000D03*
G04 #@! TO.P,U1,8*
G04 #@! TO.N,SEG_B*
X81280000Y-41910000D03*
G04 #@! TO.P,U1,7*
G04 #@! TO.N,SEG_A*
X83820000Y-41910000D03*
G04 #@! TO.P,U1,6*
G04 #@! TO.N,D1*
X86360000Y-41910000D03*
G04 #@! TO.P,U1,5*
G04 #@! TO.N,SEG_DP*
X86360000Y-49530000D03*
G04 #@! TO.P,U1,4*
G04 #@! TO.N,SEG_G*
X83820000Y-49530000D03*
G04 #@! TO.P,U1,3*
G04 #@! TO.N,SEG_C*
X81280000Y-49530000D03*
G04 #@! TO.P,U1,2*
G04 #@! TO.N,SEG_D*
X78740000Y-49530000D03*
D11*
G04 #@! TO.P,U1,1*
G04 #@! TO.N,SEG_E*
X76200000Y-49530000D03*
G04 #@! TD*
D12*
G04 #@! TO.P,J5,1*
G04 #@! TO.N,~RESET*
X71120000Y-40640000D03*
G04 #@! TD*
G04 #@! TO.P,JP2,1*
G04 #@! TO.N,VCC*
X63500000Y-40640000D03*
D13*
G04 #@! TO.P,JP2,2*
G04 #@! TO.N,SEL_LATCHMODE*
X66040000Y-40640000D03*
G04 #@! TO.P,JP2,3*
G04 #@! TO.N,GND*
X68580000Y-40640000D03*
G04 #@! TD*
D14*
G04 #@! TO.P,RN1,1*
G04 #@! TO.N,Net-(RN1-Pad1)*
X75635000Y-46620000D03*
D15*
G04 #@! TO.P,RN1,3*
G04 #@! TO.N,Net-(RN1-Pad3)*
X77235000Y-46620000D03*
G04 #@! TO.P,RN1,2*
G04 #@! TO.N,Net-(RN1-Pad2)*
X76435000Y-46620000D03*
D14*
G04 #@! TO.P,RN1,4*
G04 #@! TO.N,Net-(RN1-Pad4)*
X78035000Y-46620000D03*
D15*
G04 #@! TO.P,RN1,7*
G04 #@! TO.N,SEG_B*
X76435000Y-44820000D03*
D14*
G04 #@! TO.P,RN1,8*
G04 #@! TO.N,SEG_A*
X75635000Y-44820000D03*
D15*
G04 #@! TO.P,RN1,6*
G04 #@! TO.N,SEG_C*
X77235000Y-44820000D03*
D14*
G04 #@! TO.P,RN1,5*
G04 #@! TO.N,SEG_D*
X78035000Y-44820000D03*
G04 #@! TD*
D12*
G04 #@! TO.P,J6,1*
G04 #@! TO.N,Net-(J6-Pad1)*
X81280000Y-38100000D03*
G04 #@! TD*
G04 #@! TO.P,J7,1*
G04 #@! TO.N,Net-(J6-Pad1)*
X81280000Y-53340000D03*
G04 #@! TD*
G04 #@! TO.P,J4,1*
G04 #@! TO.N,/IN0*
X101600000Y-53340000D03*
D13*
G04 #@! TO.P,J4,2*
G04 #@! TO.N,/IN1*
X99060000Y-53340000D03*
G04 #@! TO.P,J4,3*
G04 #@! TO.N,/IN2*
X96520000Y-53340000D03*
G04 #@! TO.P,J4,4*
G04 #@! TO.N,MOSI*
X93980000Y-53340000D03*
G04 #@! TO.P,J4,5*
G04 #@! TO.N,MISO*
X91440000Y-53340000D03*
G04 #@! TO.P,J4,6*
G04 #@! TO.N,SCK*
X88900000Y-53340000D03*
G04 #@! TO.P,J4,7*
G04 #@! TO.N,/IN6*
X86360000Y-53340000D03*
G04 #@! TO.P,J4,8*
G04 #@! TO.N,/IN7*
X83820000Y-53340000D03*
G04 #@! TD*
D12*
G04 #@! TO.P,J3,1*
G04 #@! TO.N,GND*
X78740000Y-53340000D03*
G04 #@! TD*
G04 #@! TO.P,J1,1*
G04 #@! TO.N,/VIN*
X78740000Y-38100000D03*
G04 #@! TD*
D14*
G04 #@! TO.P,RN2,5*
G04 #@! TO.N,Net-(RN2-Pad5)*
X79445000Y-46620000D03*
D15*
G04 #@! TO.P,RN2,6*
G04 #@! TO.N,Net-(RN2-Pad6)*
X80245000Y-46620000D03*
D14*
G04 #@! TO.P,RN2,8*
G04 #@! TO.N,Net-(RN2-Pad8)*
X81845000Y-46620000D03*
D15*
G04 #@! TO.P,RN2,7*
G04 #@! TO.N,Net-(RN2-Pad7)*
X81045000Y-46620000D03*
D14*
G04 #@! TO.P,RN2,4*
G04 #@! TO.N,SEG_DP*
X79445000Y-44820000D03*
D15*
G04 #@! TO.P,RN2,2*
G04 #@! TO.N,SEG_F*
X81045000Y-44820000D03*
G04 #@! TO.P,RN2,3*
G04 #@! TO.N,SEG_G*
X80245000Y-44820000D03*
D14*
G04 #@! TO.P,RN2,1*
G04 #@! TO.N,SEG_E*
X81845000Y-44820000D03*
G04 #@! TD*
D16*
G04 #@! TO.P,U2,1*
G04 #@! TO.N,Net-(RN1-Pad4)*
X62324897Y-49285305D03*
D17*
G04 #@! TD*
G04 #@! TO.N,Net-(RN1-Pad4)*
G04 #@! TO.C,U2*
G36*
X61953666Y-50045445D02*
X61564757Y-49656536D01*
X62696128Y-48525165D01*
X63085037Y-48914074D01*
X61953666Y-50045445D01*
X61953666Y-50045445D01*
G37*
D16*
G04 #@! TO.P,U2,2*
G04 #@! TO.N,Net-(RN2-Pad8)*
X62890583Y-49850990D03*
D17*
G04 #@! TD*
G04 #@! TO.N,Net-(RN2-Pad8)*
G04 #@! TO.C,U2*
G36*
X62519352Y-50611130D02*
X62130443Y-50222221D01*
X63261814Y-49090850D01*
X63650723Y-49479759D01*
X62519352Y-50611130D01*
X62519352Y-50611130D01*
G37*
D16*
G04 #@! TO.P,U2,3*
G04 #@! TO.N,GND*
X63456268Y-50416676D03*
D17*
G04 #@! TD*
G04 #@! TO.N,GND*
G04 #@! TO.C,U2*
G36*
X63085037Y-51176816D02*
X62696128Y-50787907D01*
X63827499Y-49656536D01*
X64216408Y-50045445D01*
X63085037Y-51176816D01*
X63085037Y-51176816D01*
G37*
D16*
G04 #@! TO.P,U2,4*
G04 #@! TO.N,VCC*
X64021953Y-50982361D03*
D17*
G04 #@! TD*
G04 #@! TO.N,VCC*
G04 #@! TO.C,U2*
G36*
X63650722Y-51742501D02*
X63261813Y-51353592D01*
X64393184Y-50222221D01*
X64782093Y-50611130D01*
X63650722Y-51742501D01*
X63650722Y-51742501D01*
G37*
D16*
G04 #@! TO.P,U2,5*
G04 #@! TO.N,GND*
X64587639Y-51548047D03*
D17*
G04 #@! TD*
G04 #@! TO.N,GND*
G04 #@! TO.C,U2*
G36*
X64216408Y-52308187D02*
X63827499Y-51919278D01*
X64958870Y-50787907D01*
X65347779Y-51176816D01*
X64216408Y-52308187D01*
X64216408Y-52308187D01*
G37*
D16*
G04 #@! TO.P,U2,6*
G04 #@! TO.N,VCC*
X65153324Y-52113732D03*
D17*
G04 #@! TD*
G04 #@! TO.N,VCC*
G04 #@! TO.C,U2*
G36*
X64782093Y-52873872D02*
X64393184Y-52484963D01*
X65524555Y-51353592D01*
X65913464Y-51742501D01*
X64782093Y-52873872D01*
X64782093Y-52873872D01*
G37*
D16*
G04 #@! TO.P,U2,7*
G04 #@! TO.N,/IN6*
X65719010Y-52679417D03*
D17*
G04 #@! TD*
G04 #@! TO.N,/IN6*
G04 #@! TO.C,U2*
G36*
X65347779Y-53439557D02*
X64958870Y-53050648D01*
X66090241Y-51919277D01*
X66479150Y-52308186D01*
X65347779Y-53439557D01*
X65347779Y-53439557D01*
G37*
D16*
G04 #@! TO.P,U2,8*
G04 #@! TO.N,/IN7*
X66284695Y-53245103D03*
D17*
G04 #@! TD*
G04 #@! TO.N,/IN7*
G04 #@! TO.C,U2*
G36*
X65913464Y-54005243D02*
X65524555Y-53616334D01*
X66655926Y-52484963D01*
X67044835Y-52873872D01*
X65913464Y-54005243D01*
X65913464Y-54005243D01*
G37*
D16*
G04 #@! TO.P,U2,9*
G04 #@! TO.N,Net-(RN2-Pad7)*
X68335305Y-53245103D03*
D17*
G04 #@! TD*
G04 #@! TO.N,Net-(RN2-Pad7)*
G04 #@! TO.C,U2*
G36*
X69095445Y-53616334D02*
X68706536Y-54005243D01*
X67575165Y-52873872D01*
X67964074Y-52484963D01*
X69095445Y-53616334D01*
X69095445Y-53616334D01*
G37*
D16*
G04 #@! TO.P,U2,10*
G04 #@! TO.N,Net-(RN2-Pad6)*
X68900990Y-52679417D03*
D17*
G04 #@! TD*
G04 #@! TO.N,Net-(RN2-Pad6)*
G04 #@! TO.C,U2*
G36*
X69661130Y-53050648D02*
X69272221Y-53439557D01*
X68140850Y-52308186D01*
X68529759Y-51919277D01*
X69661130Y-53050648D01*
X69661130Y-53050648D01*
G37*
D16*
G04 #@! TO.P,U2,11*
G04 #@! TO.N,Net-(RN2-Pad5)*
X69466676Y-52113732D03*
D17*
G04 #@! TD*
G04 #@! TO.N,Net-(RN2-Pad5)*
G04 #@! TO.C,U2*
G36*
X70226816Y-52484963D02*
X69837907Y-52873872D01*
X68706536Y-51742501D01*
X69095445Y-51353592D01*
X70226816Y-52484963D01*
X70226816Y-52484963D01*
G37*
D16*
G04 #@! TO.P,U2,12*
G04 #@! TO.N,/IN0*
X70032361Y-51548047D03*
D17*
G04 #@! TD*
G04 #@! TO.N,/IN0*
G04 #@! TO.C,U2*
G36*
X70792501Y-51919278D02*
X70403592Y-52308187D01*
X69272221Y-51176816D01*
X69661130Y-50787907D01*
X70792501Y-51919278D01*
X70792501Y-51919278D01*
G37*
D16*
G04 #@! TO.P,U2,13*
G04 #@! TO.N,/IN1*
X70598047Y-50982361D03*
D17*
G04 #@! TD*
G04 #@! TO.N,/IN1*
G04 #@! TO.C,U2*
G36*
X71358187Y-51353592D02*
X70969278Y-51742501D01*
X69837907Y-50611130D01*
X70226816Y-50222221D01*
X71358187Y-51353592D01*
X71358187Y-51353592D01*
G37*
D16*
G04 #@! TO.P,U2,14*
G04 #@! TO.N,/IN2*
X71163732Y-50416676D03*
D17*
G04 #@! TD*
G04 #@! TO.N,/IN2*
G04 #@! TO.C,U2*
G36*
X71923872Y-50787907D02*
X71534963Y-51176816D01*
X70403592Y-50045445D01*
X70792501Y-49656536D01*
X71923872Y-50787907D01*
X71923872Y-50787907D01*
G37*
D16*
G04 #@! TO.P,U2,15*
G04 #@! TO.N,MOSI*
X71729417Y-49850990D03*
D17*
G04 #@! TD*
G04 #@! TO.N,MOSI*
G04 #@! TO.C,U2*
G36*
X72489557Y-50222221D02*
X72100648Y-50611130D01*
X70969277Y-49479759D01*
X71358186Y-49090850D01*
X72489557Y-50222221D01*
X72489557Y-50222221D01*
G37*
D16*
G04 #@! TO.P,U2,16*
G04 #@! TO.N,MISO*
X72295103Y-49285305D03*
D17*
G04 #@! TD*
G04 #@! TO.N,MISO*
G04 #@! TO.C,U2*
G36*
X73055243Y-49656536D02*
X72666334Y-50045445D01*
X71534963Y-48914074D01*
X71923872Y-48525165D01*
X73055243Y-49656536D01*
X73055243Y-49656536D01*
G37*
D16*
G04 #@! TO.P,U2,17*
G04 #@! TO.N,SCK*
X72295103Y-47234695D03*
D17*
G04 #@! TD*
G04 #@! TO.N,SCK*
G04 #@! TO.C,U2*
G36*
X71923872Y-47994835D02*
X71534963Y-47605926D01*
X72666334Y-46474555D01*
X73055243Y-46863464D01*
X71923872Y-47994835D01*
X71923872Y-47994835D01*
G37*
D16*
G04 #@! TO.P,U2,18*
G04 #@! TO.N,VCC*
X71729417Y-46669010D03*
D17*
G04 #@! TD*
G04 #@! TO.N,VCC*
G04 #@! TO.C,U2*
G36*
X71358186Y-47429150D02*
X70969277Y-47040241D01*
X72100648Y-45908870D01*
X72489557Y-46297779D01*
X71358186Y-47429150D01*
X71358186Y-47429150D01*
G37*
D16*
G04 #@! TO.P,U2,19*
G04 #@! TO.N,SEL_NUMBERBASE*
X71163732Y-46103324D03*
D17*
G04 #@! TD*
G04 #@! TO.N,SEL_NUMBERBASE*
G04 #@! TO.C,U2*
G36*
X70792501Y-46863464D02*
X70403592Y-46474555D01*
X71534963Y-45343184D01*
X71923872Y-45732093D01*
X70792501Y-46863464D01*
X70792501Y-46863464D01*
G37*
D16*
G04 #@! TO.P,U2,20*
G04 #@! TO.N,Net-(C3-Pad2)*
X70598047Y-45537639D03*
D17*
G04 #@! TD*
G04 #@! TO.N,Net-(C3-Pad2)*
G04 #@! TO.C,U2*
G36*
X70226816Y-46297779D02*
X69837907Y-45908870D01*
X70969278Y-44777499D01*
X71358187Y-45166408D01*
X70226816Y-46297779D01*
X70226816Y-46297779D01*
G37*
D16*
G04 #@! TO.P,U2,21*
G04 #@! TO.N,GND*
X70032361Y-44971953D03*
D17*
G04 #@! TD*
G04 #@! TO.N,GND*
G04 #@! TO.C,U2*
G36*
X69661130Y-45732093D02*
X69272221Y-45343184D01*
X70403592Y-44211813D01*
X70792501Y-44600722D01*
X69661130Y-45732093D01*
X69661130Y-45732093D01*
G37*
D16*
G04 #@! TO.P,U2,22*
G04 #@! TO.N,SEL_LATCHMODE*
X69466676Y-44406268D03*
D17*
G04 #@! TD*
G04 #@! TO.N,SEL_LATCHMODE*
G04 #@! TO.C,U2*
G36*
X69095445Y-45166408D02*
X68706536Y-44777499D01*
X69837907Y-43646128D01*
X70226816Y-44035037D01*
X69095445Y-45166408D01*
X69095445Y-45166408D01*
G37*
D16*
G04 #@! TO.P,U2,23*
G04 #@! TO.N,D0*
X68900990Y-43840583D03*
D17*
G04 #@! TD*
G04 #@! TO.N,D0*
G04 #@! TO.C,U2*
G36*
X68529759Y-44600723D02*
X68140850Y-44211814D01*
X69272221Y-43080443D01*
X69661130Y-43469352D01*
X68529759Y-44600723D01*
X68529759Y-44600723D01*
G37*
D16*
G04 #@! TO.P,U2,24*
G04 #@! TO.N,D1*
X68335305Y-43274897D03*
D17*
G04 #@! TD*
G04 #@! TO.N,D1*
G04 #@! TO.C,U2*
G36*
X67964074Y-44035037D02*
X67575165Y-43646128D01*
X68706536Y-42514757D01*
X69095445Y-42903666D01*
X67964074Y-44035037D01*
X67964074Y-44035037D01*
G37*
D16*
G04 #@! TO.P,U2,25*
G04 #@! TO.N,D2*
X66284695Y-43274897D03*
D17*
G04 #@! TD*
G04 #@! TO.N,D2*
G04 #@! TO.C,U2*
G36*
X67044835Y-43646128D02*
X66655926Y-44035037D01*
X65524555Y-42903666D01*
X65913464Y-42514757D01*
X67044835Y-43646128D01*
X67044835Y-43646128D01*
G37*
D16*
G04 #@! TO.P,U2,26*
G04 #@! TO.N,D3*
X65719010Y-43840583D03*
D17*
G04 #@! TD*
G04 #@! TO.N,D3*
G04 #@! TO.C,U2*
G36*
X66479150Y-44211814D02*
X66090241Y-44600723D01*
X64958870Y-43469352D01*
X65347779Y-43080443D01*
X66479150Y-44211814D01*
X66479150Y-44211814D01*
G37*
D16*
G04 #@! TO.P,U2,27*
G04 #@! TO.N,Net-(J6-Pad1)*
X65153324Y-44406268D03*
D17*
G04 #@! TD*
G04 #@! TO.N,Net-(J6-Pad1)*
G04 #@! TO.C,U2*
G36*
X65913464Y-44777499D02*
X65524555Y-45166408D01*
X64393184Y-44035037D01*
X64782093Y-43646128D01*
X65913464Y-44777499D01*
X65913464Y-44777499D01*
G37*
D16*
G04 #@! TO.P,U2,28*
G04 #@! TO.N,Net-(U2-Pad28)*
X64587639Y-44971953D03*
D17*
G04 #@! TD*
G04 #@! TO.N,Net-(U2-Pad28)*
G04 #@! TO.C,U2*
G36*
X65347779Y-45343184D02*
X64958870Y-45732093D01*
X63827499Y-44600722D01*
X64216408Y-44211813D01*
X65347779Y-45343184D01*
X65347779Y-45343184D01*
G37*
D16*
G04 #@! TO.P,U2,29*
G04 #@! TO.N,~RESET*
X64021953Y-45537639D03*
D17*
G04 #@! TD*
G04 #@! TO.N,~RESET*
G04 #@! TO.C,U2*
G36*
X64782093Y-45908870D02*
X64393184Y-46297779D01*
X63261813Y-45166408D01*
X63650722Y-44777499D01*
X64782093Y-45908870D01*
X64782093Y-45908870D01*
G37*
D16*
G04 #@! TO.P,U2,30*
G04 #@! TO.N,Net-(RN1-Pad1)*
X63456268Y-46103324D03*
D17*
G04 #@! TD*
G04 #@! TO.N,Net-(RN1-Pad1)*
G04 #@! TO.C,U2*
G36*
X64216408Y-46474555D02*
X63827499Y-46863464D01*
X62696128Y-45732093D01*
X63085037Y-45343184D01*
X64216408Y-46474555D01*
X64216408Y-46474555D01*
G37*
D16*
G04 #@! TO.P,U2,31*
G04 #@! TO.N,Net-(RN1-Pad2)*
X62890583Y-46669010D03*
D17*
G04 #@! TD*
G04 #@! TO.N,Net-(RN1-Pad2)*
G04 #@! TO.C,U2*
G36*
X63650723Y-47040241D02*
X63261814Y-47429150D01*
X62130443Y-46297779D01*
X62519352Y-45908870D01*
X63650723Y-47040241D01*
X63650723Y-47040241D01*
G37*
D16*
G04 #@! TO.P,U2,32*
G04 #@! TO.N,Net-(RN1-Pad3)*
X62324897Y-47234695D03*
D17*
G04 #@! TD*
G04 #@! TO.N,Net-(RN1-Pad3)*
G04 #@! TO.C,U2*
G36*
X63085037Y-47605926D02*
X62696128Y-47994835D01*
X61564757Y-46863464D01*
X61953666Y-46474555D01*
X63085037Y-47605926D01*
X63085037Y-47605926D01*
G37*
D12*
G04 #@! TO.P,J2,1*
G04 #@! TO.N,/IN0*
X101600000Y-38100000D03*
D13*
G04 #@! TO.P,J2,2*
G04 #@! TO.N,/IN1*
X99060000Y-38100000D03*
G04 #@! TO.P,J2,3*
G04 #@! TO.N,/IN2*
X96520000Y-38100000D03*
G04 #@! TO.P,J2,4*
G04 #@! TO.N,MOSI*
X93980000Y-38100000D03*
G04 #@! TO.P,J2,5*
G04 #@! TO.N,MISO*
X91440000Y-38100000D03*
G04 #@! TO.P,J2,6*
G04 #@! TO.N,SCK*
X88900000Y-38100000D03*
G04 #@! TO.P,J2,7*
G04 #@! TO.N,/IN6*
X86360000Y-38100000D03*
G04 #@! TO.P,J2,8*
G04 #@! TO.N,/IN7*
X83820000Y-38100000D03*
G04 #@! TD*
D12*
G04 #@! TO.P,JP1,1*
G04 #@! TO.N,VCC*
X63500000Y-38100000D03*
D13*
G04 #@! TO.P,JP1,2*
G04 #@! TO.N,SEL_NUMBERBASE*
X66040000Y-38100000D03*
G04 #@! TO.P,JP1,3*
G04 #@! TO.N,GND*
X68580000Y-38100000D03*
G04 #@! TD*
D11*
G04 #@! TO.P,U3,1*
G04 #@! TO.N,SEG_E*
X91440000Y-49530000D03*
D10*
G04 #@! TO.P,U3,2*
G04 #@! TO.N,SEG_D*
X93980000Y-49530000D03*
G04 #@! TO.P,U3,3*
G04 #@! TO.N,SEG_C*
X96520000Y-49530000D03*
G04 #@! TO.P,U3,4*
G04 #@! TO.N,SEG_G*
X99060000Y-49530000D03*
G04 #@! TO.P,U3,5*
G04 #@! TO.N,SEG_DP*
X101600000Y-49530000D03*
G04 #@! TO.P,U3,6*
G04 #@! TO.N,D3*
X101600000Y-41910000D03*
G04 #@! TO.P,U3,7*
G04 #@! TO.N,SEG_A*
X99060000Y-41910000D03*
G04 #@! TO.P,U3,8*
G04 #@! TO.N,SEG_B*
X96520000Y-41910000D03*
G04 #@! TO.P,U3,9*
G04 #@! TO.N,D2*
X93980000Y-41910000D03*
G04 #@! TO.P,U3,10*
G04 #@! TO.N,SEG_F*
X91440000Y-41910000D03*
G04 #@! TD*
D18*
G04 #@! TO.N,VCC*
X66802000Y-51181000D03*
X63373000Y-52578000D03*
X72434551Y-45042559D03*
G04 #@! TO.N,GND*
X61914010Y-48260000D03*
X68199000Y-51244500D03*
X71130207Y-43885954D03*
D19*
X88392000Y-49657000D03*
X83947000Y-51054000D03*
X80010000Y-48006000D03*
X89281000Y-41783000D03*
X86995000Y-44894500D03*
X93535500Y-47371000D03*
X96266000Y-45910500D03*
X81280000Y-51435000D03*
X74246656Y-50993344D03*
G04 #@! TO.N,/IN0*
X75057000Y-52958996D03*
G04 #@! TO.N,~RESET*
X62512510Y-43688000D03*
G04 #@! TO.N,Net-(RN1-Pad1)*
X75593043Y-45720000D03*
X67021010Y-47082010D03*
G04 #@! TO.N,Net-(RN1-Pad3)*
X76835000Y-47752000D03*
X68444556Y-48105627D03*
G04 #@! TO.N,Net-(RN1-Pad2)*
X76343056Y-45720000D03*
X67614182Y-47540992D03*
G04 #@! TO.N,Net-(RN1-Pad4)*
X68671448Y-48820496D03*
X75819000Y-48006000D03*
G04 #@! TO.N,Net-(RN2-Pad8)*
X68199000Y-49403000D03*
X81661000Y-48260000D03*
G04 #@! TO.N,D0*
X71909766Y-43436166D03*
G04 #@! TO.N,D1*
X72269935Y-42778294D03*
G04 #@! TO.N,SEG_D*
X78740000Y-45321990D03*
G04 #@! TO.N,SEG_E*
X82677000Y-44958000D03*
X85729744Y-50655990D03*
G04 #@! TO.N,SEG_F*
X84772500Y-41021002D03*
X85598000Y-47752000D03*
G04 #@! TO.N,SEG_A*
X82296000Y-43036000D03*
G04 #@! TO.N,SEL_LATCHMODE*
X66167000Y-45529500D03*
G04 #@! TO.N,SEL_NUMBERBASE*
X66712724Y-42253284D03*
G04 #@! TO.N,Net-(C3-Pad2)*
X69871459Y-48895000D03*
G04 #@! TD*
D20*
G04 #@! TO.N,VCC*
X65153324Y-52113732D02*
X66086056Y-51181000D01*
X66086056Y-51181000D02*
X66802000Y-51181000D01*
X64021953Y-50982361D02*
X63373000Y-51631314D01*
X63373000Y-51631314D02*
X63373000Y-52578000D01*
X72434551Y-45608244D02*
X72434551Y-45042559D01*
X72434551Y-45963876D02*
X72434551Y-45608244D01*
X71729417Y-46669010D02*
X72434551Y-45963876D01*
G04 #@! TO.N,GND*
X62819873Y-51053071D02*
X62537013Y-51053071D01*
X61264747Y-49780805D02*
X61264747Y-48909263D01*
X63456268Y-50416676D02*
X62819873Y-51053071D01*
X61264747Y-48909263D02*
X61914010Y-48260000D01*
X62537013Y-51053071D02*
X61264747Y-49780805D01*
X65654687Y-50480999D02*
X67435499Y-50480999D01*
X69271449Y-50172051D02*
X68199000Y-51244500D01*
X67435499Y-50480999D02*
X67799001Y-50844501D01*
X70032361Y-44971953D02*
X69271449Y-45732865D01*
X69271449Y-45732865D02*
X69271449Y-50172051D01*
X67799001Y-50844501D02*
X68199000Y-51244500D01*
X64587639Y-51548047D02*
X65654687Y-50480999D01*
X70032361Y-44971953D02*
X71118360Y-43885954D01*
X71118360Y-43885954D02*
X71130207Y-43885954D01*
X66103500Y-49149000D02*
X67799001Y-50844501D01*
X63456268Y-50416676D02*
X64723944Y-49149000D01*
X64723944Y-49149000D02*
X66103500Y-49149000D01*
D21*
G04 #@! TO.N,/IN0*
X74802996Y-53213000D02*
X75057000Y-52958996D01*
X70032361Y-51548047D02*
X71697314Y-53213000D01*
X71697314Y-53213000D02*
X74802996Y-53213000D01*
G04 #@! TO.N,/IN1*
X96710500Y-40449500D02*
X98210001Y-38949999D01*
X70598047Y-50982361D02*
X71234442Y-51618756D01*
X74309597Y-49568951D02*
X74309597Y-42238793D01*
X74309597Y-42238793D02*
X75735380Y-40813010D01*
X71234442Y-51618756D02*
X72259792Y-51618756D01*
X72259792Y-51618756D02*
X74309597Y-49568951D01*
X98210001Y-38949999D02*
X99060000Y-38100000D01*
X75735380Y-40813010D02*
X80301712Y-40813010D01*
X80665222Y-40449500D02*
X96710500Y-40449500D01*
X80301712Y-40813010D02*
X80665222Y-40449500D01*
G04 #@! TO.N,/IN2*
X95670001Y-38949999D02*
X96520000Y-38100000D01*
X72401199Y-51053071D02*
X74009586Y-49444684D01*
X94494970Y-40125030D02*
X95670001Y-38949999D01*
X74009586Y-49444684D02*
X74009586Y-42114525D01*
X71163732Y-50416676D02*
X71800127Y-51053071D01*
X74009586Y-42114525D02*
X75611112Y-40512999D01*
X71800127Y-51053071D02*
X72401199Y-51053071D01*
X75611112Y-40512999D02*
X80177444Y-40512999D01*
X80565413Y-40125030D02*
X94494970Y-40125030D01*
X80177444Y-40512999D02*
X80565413Y-40125030D01*
G04 #@! TO.N,/IN6*
X65082615Y-53315812D02*
X65082615Y-53492607D01*
X65719010Y-52679417D02*
X65082615Y-53315812D01*
X85510001Y-54189999D02*
X86360000Y-53340000D01*
X65082615Y-53492607D02*
X66355019Y-54765011D01*
X66355019Y-54765011D02*
X84934989Y-54765011D01*
X84934989Y-54765011D02*
X85510001Y-54189999D01*
G04 #@! TO.N,/IN7*
X82970001Y-54189999D02*
X83820000Y-53340000D01*
X82695000Y-54465000D02*
X82970001Y-54189999D01*
X66284695Y-53245103D02*
X67504593Y-54465000D01*
X67504593Y-54465000D02*
X82695000Y-54465000D01*
G04 #@! TO.N,~RESET*
X64021953Y-45537639D02*
X62512510Y-44028196D01*
X62512510Y-44028196D02*
X62512510Y-43688000D01*
G04 #@! TO.N,Net-(RN1-Pad1)*
X75635000Y-45761957D02*
X75593043Y-45720000D01*
X75635000Y-46620000D02*
X75635000Y-45761957D01*
X67021010Y-47215490D02*
X67021010Y-47082010D01*
X66738500Y-47498000D02*
X67021010Y-47215490D01*
X63456268Y-46103324D02*
X64850944Y-47498000D01*
X64850944Y-47498000D02*
X66738500Y-47498000D01*
G04 #@! TO.N,Net-(RN1-Pad3)*
X77235000Y-47352000D02*
X76835000Y-47752000D01*
X77235000Y-46620000D02*
X77235000Y-47352000D01*
X68012687Y-48098022D02*
X68020292Y-48105627D01*
X62324897Y-47234695D02*
X63188224Y-48098022D01*
X63188224Y-48098022D02*
X68012687Y-48098022D01*
X68020292Y-48105627D02*
X68444556Y-48105627D01*
G04 #@! TO.N,Net-(RN1-Pad2)*
X76435000Y-46620000D02*
X76435000Y-45811944D01*
X76435000Y-45811944D02*
X76343056Y-45720000D01*
X67357163Y-47798011D02*
X67614182Y-47540992D01*
X64019584Y-47798011D02*
X67357163Y-47798011D01*
X62890583Y-46669010D02*
X64019584Y-47798011D01*
G04 #@! TO.N,Net-(RN1-Pad4)*
X78035000Y-47710002D02*
X77439003Y-48305999D01*
X76118999Y-48305999D02*
X75819000Y-48006000D01*
X77439003Y-48305999D02*
X76118999Y-48305999D01*
X78035000Y-46620000D02*
X78035000Y-47710002D01*
X67689338Y-48820496D02*
X68247184Y-48820496D01*
X68247184Y-48820496D02*
X68671448Y-48820496D01*
X63212169Y-48398033D02*
X67266875Y-48398033D01*
X67266875Y-48398033D02*
X67689338Y-48820496D01*
X62324897Y-49285305D02*
X63212169Y-48398033D01*
G04 #@! TO.N,Net-(RN2-Pad5)*
X79445000Y-46620000D02*
X79445000Y-46770000D01*
X70865955Y-53513011D02*
X70103071Y-52750127D01*
X75368932Y-53513011D02*
X70865955Y-53513011D01*
X79445000Y-46770000D02*
X77343000Y-48872000D01*
X77343000Y-51538943D02*
X75368932Y-53513011D01*
X70103071Y-52750127D02*
X69466676Y-52113732D01*
X77343000Y-48872000D02*
X77343000Y-51538943D01*
G04 #@! TO.N,Net-(RN2-Pad6)*
X69537385Y-53315812D02*
X68900990Y-52679417D01*
X70069573Y-53848000D02*
X69537385Y-53315812D01*
X75458222Y-53848000D02*
X70069573Y-53848000D01*
X77643011Y-51663211D02*
X75458222Y-53848000D01*
X77643011Y-49039489D02*
X77643011Y-51663211D01*
X80245000Y-46820000D02*
X78678000Y-48387000D01*
X78295500Y-48387000D02*
X77643011Y-49039489D01*
X78678000Y-48387000D02*
X78295500Y-48387000D01*
X80245000Y-46620000D02*
X80245000Y-46820000D01*
G04 #@! TO.N,Net-(RN2-Pad8)*
X81845000Y-48076000D02*
X81661000Y-48260000D01*
X81845000Y-46620000D02*
X81845000Y-48076000D01*
X62890583Y-49850990D02*
X64043529Y-48698044D01*
X67774736Y-49403000D02*
X68199000Y-49403000D01*
X67069780Y-48698044D02*
X67774736Y-49403000D01*
X64043529Y-48698044D02*
X67069780Y-48698044D01*
G04 #@! TO.N,Net-(RN2-Pad7)*
X77515501Y-52214999D02*
X75582489Y-54148011D01*
X78595001Y-52214999D02*
X77515501Y-52214999D01*
X80254999Y-49037999D02*
X80254999Y-50555001D01*
X80264000Y-49028998D02*
X80254999Y-49037999D01*
X80264000Y-48895000D02*
X80264000Y-49028998D01*
X81045000Y-48114000D02*
X80264000Y-48895000D01*
X81045000Y-46620000D02*
X81045000Y-48114000D01*
X80254999Y-50555001D02*
X78595001Y-52214999D01*
X75582489Y-54148011D02*
X69238213Y-54148011D01*
X69238213Y-54148011D02*
X68335305Y-53245103D01*
G04 #@! TO.N,D0*
X71463100Y-42989500D02*
X71909766Y-43436166D01*
X68900990Y-43840583D02*
X69752073Y-42989500D01*
X69752073Y-42989500D02*
X71463100Y-42989500D01*
G04 #@! TO.N,D1*
X72130143Y-42638502D02*
X72269935Y-42778294D01*
X68335305Y-43274897D02*
X68971700Y-42638502D01*
X68971700Y-42638502D02*
X72130143Y-42638502D01*
G04 #@! TO.N,SEG_D*
X78740000Y-45125000D02*
X78740000Y-45321990D01*
X78035000Y-44820000D02*
X78435000Y-44820000D01*
X78435000Y-44820000D02*
X78740000Y-45125000D01*
X80129720Y-43561002D02*
X79495723Y-44194999D01*
X79060001Y-44194999D02*
X78435000Y-44820000D01*
X79495723Y-44194999D02*
X79060001Y-44194999D01*
X88011002Y-43561002D02*
X80129720Y-43561002D01*
X93980000Y-49530000D02*
X88011002Y-43561002D01*
G04 #@! TO.N,SEG_E*
X81845000Y-44820000D02*
X82539000Y-44820000D01*
X82539000Y-44820000D02*
X82677000Y-44958000D01*
X84945999Y-49872245D02*
X85729744Y-50655990D01*
X82677000Y-44958000D02*
X83228279Y-44958000D01*
X83228279Y-44958000D02*
X84945999Y-46675720D01*
X84945999Y-46675720D02*
X84945999Y-49872245D01*
G04 #@! TO.N,SEG_C*
X82320001Y-48489999D02*
X81280000Y-49530000D01*
X82127002Y-45847000D02*
X82320001Y-46039999D01*
X77712000Y-45847000D02*
X82127002Y-45847000D01*
X77235000Y-44820000D02*
X77235000Y-45370000D01*
X77235000Y-45370000D02*
X77712000Y-45847000D01*
X82320001Y-46039999D02*
X82320001Y-48489999D01*
X94395978Y-51654022D02*
X83404022Y-51654022D01*
X96520000Y-49530000D02*
X94395978Y-51654022D01*
X83404022Y-51654022D02*
X81280000Y-49530000D01*
G04 #@! TO.N,SEG_G*
X80245000Y-44820000D02*
X80245000Y-44614998D01*
X80245000Y-45020000D02*
X80245000Y-44820000D01*
X84582000Y-46736000D02*
X83392989Y-45546989D01*
X80771989Y-45546989D02*
X80245000Y-45020000D01*
X84582000Y-48768000D02*
X84582000Y-46736000D01*
X83820000Y-49530000D02*
X84582000Y-48768000D01*
X83392989Y-45546989D02*
X80771989Y-45546989D01*
X97917000Y-48387000D02*
X99060000Y-49530000D01*
X95494999Y-48777001D02*
X95885000Y-48387000D01*
X95494999Y-50047001D02*
X95494999Y-48777001D01*
X95885000Y-48387000D02*
X97917000Y-48387000D01*
X85598000Y-51308000D02*
X94234000Y-51308000D01*
X83820000Y-49530000D02*
X85598000Y-51308000D01*
X94234000Y-51308000D02*
X95494999Y-50047001D01*
G04 #@! TO.N,SEG_F*
X85433265Y-40784501D02*
X85196764Y-41021002D01*
X91440000Y-41910000D02*
X90314501Y-40784501D01*
X85196764Y-41021002D02*
X84772500Y-41021002D01*
X90314501Y-40784501D02*
X85433265Y-40784501D01*
X82889557Y-44194999D02*
X85598000Y-46903442D01*
X81470001Y-44194999D02*
X82889557Y-44194999D01*
X81045000Y-44620000D02*
X81470001Y-44194999D01*
X81045000Y-44820000D02*
X81045000Y-44620000D01*
X85598000Y-46903442D02*
X85598000Y-47752000D01*
G04 #@! TO.N,SEG_B*
X95469022Y-42960978D02*
X83413314Y-42960978D01*
X83413314Y-42960978D02*
X82362336Y-41910000D01*
X96520000Y-41910000D02*
X95469022Y-42960978D01*
X82362336Y-41910000D02*
X81280000Y-41910000D01*
X76435000Y-44620000D02*
X76435000Y-44820000D01*
X81280000Y-41953279D02*
X79338291Y-43894988D01*
X79338291Y-43894988D02*
X77900849Y-43894988D01*
X81280000Y-41910000D02*
X81280000Y-41953279D01*
X77900849Y-43894988D02*
X77853837Y-43942000D01*
X77853837Y-43942000D02*
X77113000Y-43942000D01*
X77113000Y-43942000D02*
X76435000Y-44620000D01*
G04 #@! TO.N,SEG_DP*
X79445000Y-44670000D02*
X79445000Y-44820000D01*
X86360000Y-49530000D02*
X86360000Y-47117000D01*
X83104011Y-43861011D02*
X80253989Y-43861011D01*
X86360000Y-47117000D02*
X83104011Y-43861011D01*
X80253989Y-43861011D02*
X79445000Y-44670000D01*
X101600000Y-49530000D02*
X100156989Y-48086989D01*
X94019013Y-51007989D02*
X87837989Y-51007989D01*
X87837989Y-51007989D02*
X86360000Y-49530000D01*
X95005001Y-50022001D02*
X94019013Y-51007989D01*
X95005001Y-48842721D02*
X95005001Y-50022001D01*
X95760732Y-48086989D02*
X95005001Y-48842721D01*
X100156989Y-48086989D02*
X95760732Y-48086989D01*
G04 #@! TO.N,SEG_A*
X99060000Y-41910000D02*
X97734989Y-43235011D01*
X97709011Y-43260989D02*
X99060000Y-41910000D01*
X82945253Y-43260989D02*
X97709011Y-43260989D01*
X82296000Y-43036000D02*
X82720264Y-43036000D01*
X82720264Y-43036000D02*
X82945253Y-43260989D01*
X75635000Y-44670000D02*
X75635000Y-44820000D01*
X83820000Y-41910000D02*
X82677000Y-40767000D01*
X80772000Y-40767000D02*
X80137000Y-41402000D01*
X76710023Y-43594977D02*
X75635000Y-44670000D01*
X80137000Y-41402000D02*
X80137000Y-42671999D01*
X80137000Y-42671999D02*
X79214022Y-43594977D01*
X82677000Y-40767000D02*
X80772000Y-40767000D01*
X79214022Y-43594977D02*
X76710023Y-43594977D01*
G04 #@! TO.N,MOSI*
X92254981Y-39825019D02*
X93130001Y-38949999D01*
X80441144Y-39825019D02*
X92254981Y-39825019D01*
X73709575Y-49320417D02*
X73709575Y-41990257D01*
X93130001Y-38949999D02*
X93980000Y-38100000D01*
X80053176Y-40212988D02*
X80441144Y-39825019D01*
X73709575Y-41990257D02*
X75486844Y-40212988D01*
X72542607Y-50487385D02*
X73709575Y-49320417D01*
X72365812Y-50487385D02*
X72542607Y-50487385D01*
X71729417Y-49850990D02*
X72365812Y-50487385D01*
X75486844Y-40212988D02*
X80053176Y-40212988D01*
G04 #@! TO.N,MISO*
X73409564Y-48170844D02*
X73409564Y-41865989D01*
X75362576Y-39912977D02*
X79928908Y-39912977D01*
X72295103Y-49285305D02*
X73409564Y-48170844D01*
X90014992Y-39525008D02*
X90590001Y-38949999D01*
X90590001Y-38949999D02*
X91440000Y-38100000D01*
X73409564Y-41865989D02*
X75362576Y-39912977D01*
X80316877Y-39525008D02*
X90014992Y-39525008D01*
X79928908Y-39912977D02*
X80316877Y-39525008D01*
G04 #@! TO.N,SCK*
X72295103Y-47234695D02*
X73109553Y-46420245D01*
X88050001Y-38949999D02*
X88900000Y-38100000D01*
X75238308Y-39612966D02*
X79804640Y-39612966D01*
X80192608Y-39224997D02*
X87775003Y-39224997D01*
X87775003Y-39224997D02*
X88050001Y-38949999D01*
X73109553Y-46420245D02*
X73109553Y-41741721D01*
X79804640Y-39612966D02*
X80192608Y-39224997D01*
X73109553Y-41741721D02*
X75238308Y-39612966D01*
G04 #@! TO.N,D2*
X65648300Y-42638502D02*
X66284695Y-43274897D01*
X64943011Y-41933213D02*
X65648300Y-42638502D01*
X100135001Y-38616001D02*
X100135001Y-37583999D01*
X99526001Y-36974999D02*
X65573999Y-36974999D01*
X65573999Y-36974999D02*
X64943011Y-37605987D01*
X97866003Y-40884999D02*
X100135001Y-38616001D01*
X93980000Y-41910000D02*
X95005001Y-40884999D01*
X95005001Y-40884999D02*
X97866003Y-40884999D01*
X100135001Y-37583999D02*
X99526001Y-36974999D01*
X64943011Y-37605987D02*
X64943011Y-41933213D01*
G04 #@! TO.N,D3*
X64643000Y-37481719D02*
X65449731Y-36674988D01*
X65449731Y-36674988D02*
X99650269Y-36674988D01*
X99650269Y-36674988D02*
X100435012Y-37459731D01*
X100435012Y-37459731D02*
X100435012Y-40745012D01*
X100800001Y-41110001D02*
X101600000Y-41910000D01*
X100435012Y-40745012D02*
X100800001Y-41110001D01*
X64643000Y-42764573D02*
X64643000Y-37481719D01*
X65719010Y-43840583D02*
X64643000Y-42764573D01*
G04 #@! TO.N,Net-(J6-Pad1)*
X67003023Y-41715001D02*
X67198022Y-41910000D01*
X65789719Y-45042663D02*
X65966513Y-45042663D01*
X65966513Y-45042663D02*
X67269845Y-43739331D01*
X67269845Y-43552925D02*
X66149976Y-42433056D01*
X66149976Y-42433056D02*
X66149976Y-42039020D01*
X66149983Y-41912013D02*
X66346995Y-41715001D01*
X67198022Y-41910000D02*
X72516995Y-41910000D01*
X79680371Y-39312955D02*
X80893326Y-38100000D01*
X66149976Y-42039020D02*
X66149983Y-41912013D01*
X65153324Y-44406268D02*
X65789719Y-45042663D01*
X75114040Y-39312955D02*
X79680371Y-39312955D01*
X72516995Y-41910000D02*
X75114040Y-39312955D01*
X67269845Y-43739331D02*
X67269845Y-43552925D01*
X66346995Y-41715001D02*
X67003023Y-41715001D01*
X80893326Y-38100000D02*
X81280000Y-38100000D01*
G04 #@! TO.N,SEL_LATCHMODE*
X68343444Y-45529500D02*
X66591264Y-45529500D01*
X66591264Y-45529500D02*
X66167000Y-45529500D01*
X69466676Y-44406268D02*
X68343444Y-45529500D01*
G04 #@! TO.N,SEL_NUMBERBASE*
X72794945Y-43727555D02*
X71674989Y-44847511D01*
X72794945Y-42210011D02*
X72794945Y-43727555D01*
X66755997Y-42210011D02*
X72794945Y-42210011D01*
X66712724Y-42253284D02*
X66755997Y-42210011D01*
X71674989Y-44847511D02*
X71674989Y-45592067D01*
X71674989Y-45592067D02*
X71163732Y-46103324D01*
G04 #@! TO.N,Net-(C3-Pad2)*
X70598047Y-45537639D02*
X69871459Y-46264227D01*
X69871459Y-46264227D02*
X69871459Y-48895000D01*
G04 #@! TD*
G04 #@! TO.N,GND*
G36*
X102283471Y-36186683D02*
X102804979Y-36393162D01*
X103258753Y-36722848D01*
X103616281Y-37155025D01*
X103855100Y-37662540D01*
X103962878Y-38227533D01*
X103967000Y-38358714D01*
X103967001Y-53067120D01*
X103894317Y-53642470D01*
X103687838Y-54163978D01*
X103358152Y-54617752D01*
X102925974Y-54975281D01*
X102418460Y-55214100D01*
X101853468Y-55321878D01*
X101722287Y-55326000D01*
X62883872Y-55326000D01*
X62308530Y-55253317D01*
X61787022Y-55046838D01*
X61333248Y-54717152D01*
X60975719Y-54284974D01*
X60736900Y-53777460D01*
X60629122Y-53212468D01*
X60625000Y-53081287D01*
X60625000Y-46863464D01*
X61284370Y-46863464D01*
X61305713Y-46970763D01*
X61366493Y-47061728D01*
X62497864Y-48193099D01*
X62588829Y-48253879D01*
X62619601Y-48260000D01*
X62588829Y-48266121D01*
X62497864Y-48326901D01*
X61366493Y-49458272D01*
X61305713Y-49549237D01*
X61284370Y-49656536D01*
X61305713Y-49763835D01*
X61366493Y-49854800D01*
X61755402Y-50243709D01*
X61846367Y-50304489D01*
X61867246Y-50308642D01*
X61871399Y-50329520D01*
X61932179Y-50420485D01*
X62321088Y-50809394D01*
X62321128Y-50809421D01*
X62321128Y-50862499D01*
X62378219Y-51000328D01*
X62506093Y-51128202D01*
X62638676Y-51128202D01*
X63350202Y-50416676D01*
X63336060Y-50402534D01*
X63442126Y-50296468D01*
X63456268Y-50310610D01*
X64167794Y-49599084D01*
X64167794Y-49466501D01*
X64039920Y-49338627D01*
X63939511Y-49297036D01*
X64188504Y-49048044D01*
X66924807Y-49048044D01*
X67502878Y-49626117D01*
X67522401Y-49655335D01*
X67551619Y-49674858D01*
X67551620Y-49674859D01*
X67584785Y-49697019D01*
X67638173Y-49732692D01*
X67734724Y-49751897D01*
X67873289Y-49890462D01*
X68084625Y-49978000D01*
X68313375Y-49978000D01*
X68524711Y-49890462D01*
X68686462Y-49728711D01*
X68774000Y-49517375D01*
X68774000Y-49395496D01*
X68785823Y-49395496D01*
X68997159Y-49307958D01*
X69158910Y-49146207D01*
X69246448Y-48934871D01*
X69246448Y-48706121D01*
X69158910Y-48494785D01*
X68997159Y-48333034D01*
X68976313Y-48324399D01*
X69019556Y-48220002D01*
X69019556Y-47991252D01*
X68932018Y-47779916D01*
X68770267Y-47618165D01*
X68558931Y-47530627D01*
X68330181Y-47530627D01*
X68189182Y-47589031D01*
X68189182Y-47426617D01*
X68101644Y-47215281D01*
X67939893Y-47053530D01*
X67728557Y-46965992D01*
X67595329Y-46965992D01*
X67508472Y-46756299D01*
X67346721Y-46594548D01*
X67135385Y-46507010D01*
X66906635Y-46507010D01*
X66695299Y-46594548D01*
X66533548Y-46756299D01*
X66446010Y-46967635D01*
X66446010Y-47148000D01*
X64995919Y-47148000D01*
X64457155Y-46609237D01*
X64475452Y-46581854D01*
X64479605Y-46560976D01*
X64500483Y-46556823D01*
X64591448Y-46496043D01*
X64980357Y-46107134D01*
X65041137Y-46016169D01*
X65045290Y-45995290D01*
X65066169Y-45991137D01*
X65157134Y-45930357D01*
X65546043Y-45541448D01*
X65592000Y-45472668D01*
X65592000Y-45643875D01*
X65679538Y-45855211D01*
X65841289Y-46016962D01*
X66052625Y-46104500D01*
X66281375Y-46104500D01*
X66492711Y-46016962D01*
X66630173Y-45879500D01*
X68308980Y-45879500D01*
X68343444Y-45886355D01*
X68377908Y-45879500D01*
X68377912Y-45879500D01*
X68480007Y-45859192D01*
X68595779Y-45781835D01*
X68615306Y-45752611D01*
X68912721Y-45455196D01*
X68954312Y-45555605D01*
X69082186Y-45683479D01*
X69214769Y-45683479D01*
X69926295Y-44971953D01*
X69912153Y-44957811D01*
X70018219Y-44851745D01*
X70032361Y-44865887D01*
X70743887Y-44154361D01*
X70743887Y-44021778D01*
X70616013Y-43893904D01*
X70478184Y-43836813D01*
X70425107Y-43836813D01*
X70425080Y-43836773D01*
X70036171Y-43447864D01*
X69945206Y-43387084D01*
X69924327Y-43382931D01*
X69920174Y-43362053D01*
X69905105Y-43339500D01*
X71318127Y-43339500D01*
X71334766Y-43356139D01*
X71334766Y-43550541D01*
X71422304Y-43761877D01*
X71584055Y-43923628D01*
X71795391Y-44011166D01*
X72016360Y-44011166D01*
X71451876Y-44575651D01*
X71422654Y-44595177D01*
X71345297Y-44710949D01*
X71337658Y-44749351D01*
X71167542Y-44579235D01*
X71167501Y-44579208D01*
X71167501Y-44526130D01*
X71110410Y-44388301D01*
X70982536Y-44260427D01*
X70849953Y-44260427D01*
X70138427Y-44971953D01*
X70152570Y-44986096D01*
X70046504Y-45092162D01*
X70032361Y-45078019D01*
X69320835Y-45789545D01*
X69320835Y-45922128D01*
X69448709Y-46050002D01*
X69562238Y-46097028D01*
X69541767Y-46127665D01*
X69521459Y-46229760D01*
X69521459Y-46229763D01*
X69514604Y-46264227D01*
X69521459Y-46298691D01*
X69521460Y-48431826D01*
X69383997Y-48569289D01*
X69296459Y-48780625D01*
X69296459Y-49009375D01*
X69383997Y-49220711D01*
X69545748Y-49382462D01*
X69757084Y-49470000D01*
X69985834Y-49470000D01*
X70197170Y-49382462D01*
X70358921Y-49220711D01*
X70446459Y-49009375D01*
X70446459Y-48780625D01*
X70358921Y-48569289D01*
X70221459Y-48431827D01*
X70221459Y-46688950D01*
X70594237Y-47061728D01*
X70685202Y-47122508D01*
X70706080Y-47126661D01*
X70710233Y-47147540D01*
X70771013Y-47238505D01*
X71159922Y-47627414D01*
X71250887Y-47688194D01*
X71271766Y-47692347D01*
X71275919Y-47713225D01*
X71336699Y-47804190D01*
X71725608Y-48193099D01*
X71816573Y-48253879D01*
X71847345Y-48260000D01*
X71816573Y-48266121D01*
X71725608Y-48326901D01*
X71336699Y-48715810D01*
X71275919Y-48806775D01*
X71271766Y-48827653D01*
X71250887Y-48831806D01*
X71159922Y-48892586D01*
X70771013Y-49281495D01*
X70710233Y-49372460D01*
X70706080Y-49393339D01*
X70685202Y-49397492D01*
X70594237Y-49458272D01*
X70205328Y-49847181D01*
X70144548Y-49938146D01*
X70140395Y-49959024D01*
X70119517Y-49963177D01*
X70028552Y-50023957D01*
X69639643Y-50412866D01*
X69578863Y-50503831D01*
X69574710Y-50524710D01*
X69553831Y-50528863D01*
X69462866Y-50589643D01*
X69073957Y-50978552D01*
X69013177Y-51069517D01*
X69009024Y-51090395D01*
X68988146Y-51094548D01*
X68897181Y-51155328D01*
X68508272Y-51544237D01*
X68447492Y-51635202D01*
X68443339Y-51656080D01*
X68422460Y-51660233D01*
X68331495Y-51721013D01*
X67942586Y-52109922D01*
X67881806Y-52200887D01*
X67877653Y-52221766D01*
X67856775Y-52225919D01*
X67765810Y-52286699D01*
X67376901Y-52675608D01*
X67316121Y-52766573D01*
X67310000Y-52797345D01*
X67303879Y-52766573D01*
X67243099Y-52675608D01*
X66854190Y-52286699D01*
X66763225Y-52225919D01*
X66742347Y-52221766D01*
X66738194Y-52200887D01*
X66677414Y-52109922D01*
X66288505Y-51721013D01*
X66197540Y-51660233D01*
X66176661Y-51656080D01*
X66172508Y-51635202D01*
X66168373Y-51629014D01*
X66231896Y-51565490D01*
X66419643Y-51753237D01*
X66667734Y-51856000D01*
X66936266Y-51856000D01*
X67184357Y-51753237D01*
X67374237Y-51563357D01*
X67477000Y-51315266D01*
X67477000Y-51046734D01*
X67374237Y-50798643D01*
X67184357Y-50608763D01*
X66936266Y-50506000D01*
X66667734Y-50506000D01*
X66419643Y-50608763D01*
X66229763Y-50798643D01*
X66226716Y-50806000D01*
X66122981Y-50806000D01*
X66086055Y-50798655D01*
X66049129Y-50806000D01*
X66049125Y-50806000D01*
X65939739Y-50827758D01*
X65939738Y-50827759D01*
X65939737Y-50827759D01*
X65847004Y-50889721D01*
X65847001Y-50889724D01*
X65815697Y-50910641D01*
X65794780Y-50941945D01*
X65696923Y-51039802D01*
X65665688Y-50964395D01*
X65537814Y-50836521D01*
X65405231Y-50836521D01*
X64693705Y-51548047D01*
X64707848Y-51562190D01*
X64601782Y-51668256D01*
X64587639Y-51654113D01*
X64573497Y-51668256D01*
X64467431Y-51562190D01*
X64481573Y-51548047D01*
X64467431Y-51533905D01*
X64573497Y-51427839D01*
X64587639Y-51441981D01*
X65299165Y-50730455D01*
X65299165Y-50597872D01*
X65171291Y-50469998D01*
X65033462Y-50412907D01*
X64980384Y-50412907D01*
X64980357Y-50412866D01*
X64591448Y-50023957D01*
X64591408Y-50023930D01*
X64591408Y-49970853D01*
X64534317Y-49833024D01*
X64406443Y-49705150D01*
X64273860Y-49705150D01*
X63562334Y-50416676D01*
X63576477Y-50430819D01*
X63470411Y-50536885D01*
X63456268Y-50522742D01*
X62744742Y-51234268D01*
X62744742Y-51366851D01*
X62872616Y-51494725D01*
X63006770Y-51550294D01*
X62998000Y-51594384D01*
X62998000Y-51594388D01*
X62990655Y-51631314D01*
X62998000Y-51668241D01*
X62998000Y-52002715D01*
X62990643Y-52005763D01*
X62800763Y-52195643D01*
X62698000Y-52443734D01*
X62698000Y-52712266D01*
X62800763Y-52960357D01*
X62990643Y-53150237D01*
X63238734Y-53253000D01*
X63507266Y-53253000D01*
X63755357Y-53150237D01*
X63945237Y-52960357D01*
X64048000Y-52712266D01*
X64048000Y-52644327D01*
X64141816Y-52683187D01*
X64194893Y-52683187D01*
X64194920Y-52683227D01*
X64583829Y-53072136D01*
X64674794Y-53132916D01*
X64695673Y-53137069D01*
X64699826Y-53157947D01*
X64744008Y-53224070D01*
X64732615Y-53281345D01*
X64732615Y-53281348D01*
X64725760Y-53315812D01*
X64732615Y-53350276D01*
X64732615Y-53458143D01*
X64725760Y-53492607D01*
X64732615Y-53527071D01*
X64732615Y-53527075D01*
X64752923Y-53629170D01*
X64830281Y-53744942D01*
X64859502Y-53764467D01*
X66083159Y-54988125D01*
X66102684Y-55017346D01*
X66218456Y-55094703D01*
X66320551Y-55115011D01*
X66320555Y-55115011D01*
X66355019Y-55121866D01*
X66389483Y-55115011D01*
X84900525Y-55115011D01*
X84934989Y-55121866D01*
X84969453Y-55115011D01*
X84969457Y-55115011D01*
X85071552Y-55094703D01*
X85187324Y-55017346D01*
X85206851Y-54988122D01*
X85781861Y-54413114D01*
X85781865Y-54413108D01*
X85845635Y-54349338D01*
X85921047Y-54399727D01*
X86249197Y-54465000D01*
X86470803Y-54465000D01*
X86798953Y-54399727D01*
X87171080Y-54151080D01*
X87419727Y-53778953D01*
X87507040Y-53340000D01*
X87752960Y-53340000D01*
X87840273Y-53778953D01*
X88088920Y-54151080D01*
X88461047Y-54399727D01*
X88789197Y-54465000D01*
X89010803Y-54465000D01*
X89338953Y-54399727D01*
X89711080Y-54151080D01*
X89959727Y-53778953D01*
X90047040Y-53340000D01*
X90292960Y-53340000D01*
X90380273Y-53778953D01*
X90628920Y-54151080D01*
X91001047Y-54399727D01*
X91329197Y-54465000D01*
X91550803Y-54465000D01*
X91878953Y-54399727D01*
X92251080Y-54151080D01*
X92499727Y-53778953D01*
X92587040Y-53340000D01*
X92832960Y-53340000D01*
X92920273Y-53778953D01*
X93168920Y-54151080D01*
X93541047Y-54399727D01*
X93869197Y-54465000D01*
X94090803Y-54465000D01*
X94418953Y-54399727D01*
X94791080Y-54151080D01*
X95039727Y-53778953D01*
X95127040Y-53340000D01*
X95372960Y-53340000D01*
X95460273Y-53778953D01*
X95708920Y-54151080D01*
X96081047Y-54399727D01*
X96409197Y-54465000D01*
X96630803Y-54465000D01*
X96958953Y-54399727D01*
X97331080Y-54151080D01*
X97579727Y-53778953D01*
X97667040Y-53340000D01*
X97912960Y-53340000D01*
X98000273Y-53778953D01*
X98248920Y-54151080D01*
X98621047Y-54399727D01*
X98949197Y-54465000D01*
X99170803Y-54465000D01*
X99498953Y-54399727D01*
X99871080Y-54151080D01*
X100119727Y-53778953D01*
X100207040Y-53340000D01*
X100119727Y-52901047D01*
X99871080Y-52528920D01*
X99812833Y-52490000D01*
X100469613Y-52490000D01*
X100469613Y-54190000D01*
X100490956Y-54297299D01*
X100551736Y-54388264D01*
X100642701Y-54449044D01*
X100750000Y-54470387D01*
X102450000Y-54470387D01*
X102557299Y-54449044D01*
X102648264Y-54388264D01*
X102709044Y-54297299D01*
X102730387Y-54190000D01*
X102730387Y-52490000D01*
X102709044Y-52382701D01*
X102648264Y-52291736D01*
X102557299Y-52230956D01*
X102450000Y-52209613D01*
X100750000Y-52209613D01*
X100642701Y-52230956D01*
X100551736Y-52291736D01*
X100490956Y-52382701D01*
X100469613Y-52490000D01*
X99812833Y-52490000D01*
X99498953Y-52280273D01*
X99170803Y-52215000D01*
X98949197Y-52215000D01*
X98621047Y-52280273D01*
X98248920Y-52528920D01*
X98000273Y-52901047D01*
X97912960Y-53340000D01*
X97667040Y-53340000D01*
X97579727Y-52901047D01*
X97331080Y-52528920D01*
X96958953Y-52280273D01*
X96630803Y-52215000D01*
X96409197Y-52215000D01*
X96081047Y-52280273D01*
X95708920Y-52528920D01*
X95460273Y-52901047D01*
X95372960Y-53340000D01*
X95127040Y-53340000D01*
X95039727Y-52901047D01*
X94791080Y-52528920D01*
X94418953Y-52280273D01*
X94090803Y-52215000D01*
X93869197Y-52215000D01*
X93541047Y-52280273D01*
X93168920Y-52528920D01*
X92920273Y-52901047D01*
X92832960Y-53340000D01*
X92587040Y-53340000D01*
X92499727Y-52901047D01*
X92251080Y-52528920D01*
X91878953Y-52280273D01*
X91550803Y-52215000D01*
X91329197Y-52215000D01*
X91001047Y-52280273D01*
X90628920Y-52528920D01*
X90380273Y-52901047D01*
X90292960Y-53340000D01*
X90047040Y-53340000D01*
X89959727Y-52901047D01*
X89711080Y-52528920D01*
X89338953Y-52280273D01*
X89010803Y-52215000D01*
X88789197Y-52215000D01*
X88461047Y-52280273D01*
X88088920Y-52528920D01*
X87840273Y-52901047D01*
X87752960Y-53340000D01*
X87507040Y-53340000D01*
X87419727Y-52901047D01*
X87171080Y-52528920D01*
X86798953Y-52280273D01*
X86470803Y-52215000D01*
X86249197Y-52215000D01*
X85921047Y-52280273D01*
X85548920Y-52528920D01*
X85300273Y-52901047D01*
X85212960Y-53340000D01*
X85300273Y-53778953D01*
X85350662Y-53854365D01*
X85286892Y-53918135D01*
X85286886Y-53918139D01*
X84790016Y-54415011D01*
X84182115Y-54415011D01*
X84258953Y-54399727D01*
X84631080Y-54151080D01*
X84879727Y-53778953D01*
X84967040Y-53340000D01*
X84879727Y-52901047D01*
X84631080Y-52528920D01*
X84258953Y-52280273D01*
X83930803Y-52215000D01*
X83709197Y-52215000D01*
X83381047Y-52280273D01*
X83008920Y-52528920D01*
X82760273Y-52901047D01*
X82672960Y-53340000D01*
X82760273Y-53778953D01*
X82810662Y-53854365D01*
X82746889Y-53918138D01*
X82746886Y-53918140D01*
X82550027Y-54115000D01*
X82410387Y-54115000D01*
X82410387Y-52490000D01*
X82389044Y-52382701D01*
X82328264Y-52291736D01*
X82237299Y-52230956D01*
X82130000Y-52209613D01*
X80430000Y-52209613D01*
X80322701Y-52230956D01*
X80231736Y-52291736D01*
X80170956Y-52382701D01*
X80149613Y-52490000D01*
X80149613Y-54115000D01*
X79965000Y-54115000D01*
X79965000Y-53508750D01*
X79871250Y-53415000D01*
X78815000Y-53415000D01*
X78815000Y-53435000D01*
X78665000Y-53435000D01*
X78665000Y-53415000D01*
X77608750Y-53415000D01*
X77515000Y-53508750D01*
X77515000Y-54115000D01*
X76110473Y-54115000D01*
X77515000Y-52710475D01*
X77515000Y-53171250D01*
X77608750Y-53265000D01*
X78665000Y-53265000D01*
X78665000Y-53245000D01*
X78815000Y-53245000D01*
X78815000Y-53265000D01*
X79871250Y-53265000D01*
X79965000Y-53171250D01*
X79965000Y-52415408D01*
X79907910Y-52277579D01*
X79802420Y-52172090D01*
X79664592Y-52115000D01*
X79189973Y-52115000D01*
X80478116Y-50826859D01*
X80507334Y-50807336D01*
X80526857Y-50778118D01*
X80526859Y-50778116D01*
X80584691Y-50691564D01*
X80591767Y-50655990D01*
X80604999Y-50589469D01*
X80604999Y-50589465D01*
X80611854Y-50555001D01*
X80604999Y-50520537D01*
X80604999Y-50375278D01*
X80671062Y-50441341D01*
X81066169Y-50605000D01*
X81493831Y-50605000D01*
X81752770Y-50497744D01*
X83132164Y-51877139D01*
X83151687Y-51906357D01*
X83180905Y-51925880D01*
X83180907Y-51925882D01*
X83245073Y-51968756D01*
X83267459Y-51983714D01*
X83369554Y-52004022D01*
X83369558Y-52004022D01*
X83404022Y-52010877D01*
X83438486Y-52004022D01*
X94361514Y-52004022D01*
X94395978Y-52010877D01*
X94430442Y-52004022D01*
X94430446Y-52004022D01*
X94532541Y-51983714D01*
X94648313Y-51906357D01*
X94667840Y-51877133D01*
X96047230Y-50497744D01*
X96306169Y-50605000D01*
X96733831Y-50605000D01*
X97128938Y-50441341D01*
X97431341Y-50138938D01*
X97595000Y-49743831D01*
X97595000Y-49316169D01*
X97431341Y-48921062D01*
X97247279Y-48737000D01*
X97772027Y-48737000D01*
X98092256Y-49057230D01*
X97985000Y-49316169D01*
X97985000Y-49743831D01*
X98148659Y-50138938D01*
X98451062Y-50441341D01*
X98846169Y-50605000D01*
X99273831Y-50605000D01*
X99668938Y-50441341D01*
X99971341Y-50138938D01*
X100135000Y-49743831D01*
X100135000Y-49316169D01*
X99971341Y-48921062D01*
X99668938Y-48618659D01*
X99273831Y-48455000D01*
X98846169Y-48455000D01*
X98587230Y-48562256D01*
X98461962Y-48436989D01*
X100012016Y-48436989D01*
X100632256Y-49057230D01*
X100525000Y-49316169D01*
X100525000Y-49743831D01*
X100688659Y-50138938D01*
X100991062Y-50441341D01*
X101386169Y-50605000D01*
X101813831Y-50605000D01*
X102208938Y-50441341D01*
X102511341Y-50138938D01*
X102675000Y-49743831D01*
X102675000Y-49316169D01*
X102511341Y-48921062D01*
X102208938Y-48618659D01*
X101813831Y-48455000D01*
X101386169Y-48455000D01*
X101127230Y-48562256D01*
X100428851Y-47863878D01*
X100409324Y-47834654D01*
X100293552Y-47757297D01*
X100191457Y-47736989D01*
X100191453Y-47736989D01*
X100156989Y-47730134D01*
X100122525Y-47736989D01*
X95795195Y-47736989D01*
X95760731Y-47730134D01*
X95726267Y-47736989D01*
X95726264Y-47736989D01*
X95624169Y-47757297D01*
X95508397Y-47834654D01*
X95488872Y-47863875D01*
X94781885Y-48570863D01*
X94752666Y-48590387D01*
X94733143Y-48619605D01*
X94733141Y-48619607D01*
X94698038Y-48672143D01*
X94675761Y-48705482D01*
X94588938Y-48618659D01*
X94193831Y-48455000D01*
X93766169Y-48455000D01*
X93507230Y-48562256D01*
X88555962Y-43610989D01*
X97674547Y-43610989D01*
X97709011Y-43617844D01*
X97743475Y-43610989D01*
X97743479Y-43610989D01*
X97845574Y-43590681D01*
X97961346Y-43513324D01*
X97980873Y-43484100D01*
X98292411Y-43172562D01*
X98587230Y-42877744D01*
X98846169Y-42985000D01*
X99273831Y-42985000D01*
X99668938Y-42821341D01*
X99971341Y-42518938D01*
X100135000Y-42123831D01*
X100135000Y-41696169D01*
X99971341Y-41301062D01*
X99668938Y-40998659D01*
X99273831Y-40835000D01*
X98846169Y-40835000D01*
X98451062Y-40998659D01*
X98148659Y-41301062D01*
X97985000Y-41696169D01*
X97985000Y-42123831D01*
X98092256Y-42382770D01*
X97803027Y-42672000D01*
X97564038Y-42910989D01*
X96912509Y-42910989D01*
X97128938Y-42821341D01*
X97431341Y-42518938D01*
X97595000Y-42123831D01*
X97595000Y-41696169D01*
X97431341Y-41301062D01*
X97365278Y-41234999D01*
X97831539Y-41234999D01*
X97866003Y-41241854D01*
X97900467Y-41234999D01*
X97900471Y-41234999D01*
X98002566Y-41214691D01*
X98118338Y-41137334D01*
X98137865Y-41108110D01*
X100085013Y-39160964D01*
X100085013Y-40710544D01*
X100078157Y-40745012D01*
X100105320Y-40881574D01*
X100150756Y-40949573D01*
X100182678Y-40997347D01*
X100211898Y-41016872D01*
X100576885Y-41381860D01*
X100576891Y-41381864D01*
X100632256Y-41437230D01*
X100525000Y-41696169D01*
X100525000Y-42123831D01*
X100688659Y-42518938D01*
X100991062Y-42821341D01*
X101386169Y-42985000D01*
X101813831Y-42985000D01*
X102208938Y-42821341D01*
X102511341Y-42518938D01*
X102675000Y-42123831D01*
X102675000Y-41696169D01*
X102511341Y-41301062D01*
X102208938Y-40998659D01*
X101813831Y-40835000D01*
X101386169Y-40835000D01*
X101127230Y-40942256D01*
X101071864Y-40886891D01*
X101071860Y-40886885D01*
X100785012Y-40600038D01*
X100785012Y-39230387D01*
X102450000Y-39230387D01*
X102557299Y-39209044D01*
X102648264Y-39148264D01*
X102709044Y-39057299D01*
X102730387Y-38950000D01*
X102730387Y-37250000D01*
X102709044Y-37142701D01*
X102648264Y-37051736D01*
X102557299Y-36990956D01*
X102450000Y-36969613D01*
X100750000Y-36969613D01*
X100642701Y-36990956D01*
X100551736Y-37051736D01*
X100539822Y-37069567D01*
X99922131Y-36451877D01*
X99902604Y-36422653D01*
X99786832Y-36345296D01*
X99684737Y-36324988D01*
X99684733Y-36324988D01*
X99650269Y-36318133D01*
X99615805Y-36324988D01*
X65484195Y-36324988D01*
X65449731Y-36318133D01*
X65415267Y-36324988D01*
X65415263Y-36324988D01*
X65313168Y-36345296D01*
X65197396Y-36422653D01*
X65177871Y-36451874D01*
X64560178Y-37069567D01*
X64548264Y-37051736D01*
X64457299Y-36990956D01*
X64350000Y-36969613D01*
X62650000Y-36969613D01*
X62542701Y-36990956D01*
X62451736Y-37051736D01*
X62390956Y-37142701D01*
X62369613Y-37250000D01*
X62369613Y-38950000D01*
X62390956Y-39057299D01*
X62451736Y-39148264D01*
X62542701Y-39209044D01*
X62650000Y-39230387D01*
X64293001Y-39230387D01*
X64293001Y-39509613D01*
X62650000Y-39509613D01*
X62542701Y-39530956D01*
X62451736Y-39591736D01*
X62390956Y-39682701D01*
X62369613Y-39790000D01*
X62369613Y-41490000D01*
X62390956Y-41597299D01*
X62451736Y-41688264D01*
X62542701Y-41749044D01*
X62650000Y-41770387D01*
X64293000Y-41770387D01*
X64293000Y-42730109D01*
X64286145Y-42764573D01*
X64293000Y-42799037D01*
X64293000Y-42799040D01*
X64313308Y-42901135D01*
X64390665Y-43016907D01*
X64419887Y-43036433D01*
X64718123Y-43334669D01*
X64699826Y-43362053D01*
X64695673Y-43382931D01*
X64674794Y-43387084D01*
X64583829Y-43447864D01*
X64194920Y-43836773D01*
X64134140Y-43927738D01*
X64129987Y-43948616D01*
X64109109Y-43952769D01*
X64018144Y-44013549D01*
X63629235Y-44402458D01*
X63568455Y-44493423D01*
X63564302Y-44514302D01*
X63543423Y-44518455D01*
X63516040Y-44536752D01*
X62996485Y-44017198D01*
X62999972Y-44013711D01*
X63087510Y-43802375D01*
X63087510Y-43573625D01*
X62999972Y-43362289D01*
X62838221Y-43200538D01*
X62626885Y-43113000D01*
X62398135Y-43113000D01*
X62186799Y-43200538D01*
X62025048Y-43362289D01*
X61937510Y-43573625D01*
X61937510Y-43802375D01*
X62025048Y-44013711D01*
X62186799Y-44175462D01*
X62191184Y-44177278D01*
X62260175Y-44280530D01*
X62289397Y-44300056D01*
X63021066Y-45031726D01*
X63002769Y-45059109D01*
X62998616Y-45079987D01*
X62977738Y-45084140D01*
X62886773Y-45144920D01*
X62497864Y-45533829D01*
X62437084Y-45624794D01*
X62432931Y-45645673D01*
X62412053Y-45649826D01*
X62321088Y-45710606D01*
X61932179Y-46099515D01*
X61871399Y-46190480D01*
X61867246Y-46211358D01*
X61846367Y-46215511D01*
X61755402Y-46276291D01*
X61366493Y-46665200D01*
X61305713Y-46756165D01*
X61284370Y-46863464D01*
X60625000Y-46863464D01*
X60625000Y-38372871D01*
X60697683Y-37797529D01*
X60904162Y-37276021D01*
X61233848Y-36822247D01*
X61666025Y-36464719D01*
X62173540Y-36225900D01*
X62738533Y-36118122D01*
X62869713Y-36114000D01*
X101708129Y-36114000D01*
X102283471Y-36186683D01*
X102283471Y-36186683D01*
G37*
X102283471Y-36186683D02*
X102804979Y-36393162D01*
X103258753Y-36722848D01*
X103616281Y-37155025D01*
X103855100Y-37662540D01*
X103962878Y-38227533D01*
X103967000Y-38358714D01*
X103967001Y-53067120D01*
X103894317Y-53642470D01*
X103687838Y-54163978D01*
X103358152Y-54617752D01*
X102925974Y-54975281D01*
X102418460Y-55214100D01*
X101853468Y-55321878D01*
X101722287Y-55326000D01*
X62883872Y-55326000D01*
X62308530Y-55253317D01*
X61787022Y-55046838D01*
X61333248Y-54717152D01*
X60975719Y-54284974D01*
X60736900Y-53777460D01*
X60629122Y-53212468D01*
X60625000Y-53081287D01*
X60625000Y-46863464D01*
X61284370Y-46863464D01*
X61305713Y-46970763D01*
X61366493Y-47061728D01*
X62497864Y-48193099D01*
X62588829Y-48253879D01*
X62619601Y-48260000D01*
X62588829Y-48266121D01*
X62497864Y-48326901D01*
X61366493Y-49458272D01*
X61305713Y-49549237D01*
X61284370Y-49656536D01*
X61305713Y-49763835D01*
X61366493Y-49854800D01*
X61755402Y-50243709D01*
X61846367Y-50304489D01*
X61867246Y-50308642D01*
X61871399Y-50329520D01*
X61932179Y-50420485D01*
X62321088Y-50809394D01*
X62321128Y-50809421D01*
X62321128Y-50862499D01*
X62378219Y-51000328D01*
X62506093Y-51128202D01*
X62638676Y-51128202D01*
X63350202Y-50416676D01*
X63336060Y-50402534D01*
X63442126Y-50296468D01*
X63456268Y-50310610D01*
X64167794Y-49599084D01*
X64167794Y-49466501D01*
X64039920Y-49338627D01*
X63939511Y-49297036D01*
X64188504Y-49048044D01*
X66924807Y-49048044D01*
X67502878Y-49626117D01*
X67522401Y-49655335D01*
X67551619Y-49674858D01*
X67551620Y-49674859D01*
X67584785Y-49697019D01*
X67638173Y-49732692D01*
X67734724Y-49751897D01*
X67873289Y-49890462D01*
X68084625Y-49978000D01*
X68313375Y-49978000D01*
X68524711Y-49890462D01*
X68686462Y-49728711D01*
X68774000Y-49517375D01*
X68774000Y-49395496D01*
X68785823Y-49395496D01*
X68997159Y-49307958D01*
X69158910Y-49146207D01*
X69246448Y-48934871D01*
X69246448Y-48706121D01*
X69158910Y-48494785D01*
X68997159Y-48333034D01*
X68976313Y-48324399D01*
X69019556Y-48220002D01*
X69019556Y-47991252D01*
X68932018Y-47779916D01*
X68770267Y-47618165D01*
X68558931Y-47530627D01*
X68330181Y-47530627D01*
X68189182Y-47589031D01*
X68189182Y-47426617D01*
X68101644Y-47215281D01*
X67939893Y-47053530D01*
X67728557Y-46965992D01*
X67595329Y-46965992D01*
X67508472Y-46756299D01*
X67346721Y-46594548D01*
X67135385Y-46507010D01*
X66906635Y-46507010D01*
X66695299Y-46594548D01*
X66533548Y-46756299D01*
X66446010Y-46967635D01*
X66446010Y-47148000D01*
X64995919Y-47148000D01*
X64457155Y-46609237D01*
X64475452Y-46581854D01*
X64479605Y-46560976D01*
X64500483Y-46556823D01*
X64591448Y-46496043D01*
X64980357Y-46107134D01*
X65041137Y-46016169D01*
X65045290Y-45995290D01*
X65066169Y-45991137D01*
X65157134Y-45930357D01*
X65546043Y-45541448D01*
X65592000Y-45472668D01*
X65592000Y-45643875D01*
X65679538Y-45855211D01*
X65841289Y-46016962D01*
X66052625Y-46104500D01*
X66281375Y-46104500D01*
X66492711Y-46016962D01*
X66630173Y-45879500D01*
X68308980Y-45879500D01*
X68343444Y-45886355D01*
X68377908Y-45879500D01*
X68377912Y-45879500D01*
X68480007Y-45859192D01*
X68595779Y-45781835D01*
X68615306Y-45752611D01*
X68912721Y-45455196D01*
X68954312Y-45555605D01*
X69082186Y-45683479D01*
X69214769Y-45683479D01*
X69926295Y-44971953D01*
X69912153Y-44957811D01*
X70018219Y-44851745D01*
X70032361Y-44865887D01*
X70743887Y-44154361D01*
X70743887Y-44021778D01*
X70616013Y-43893904D01*
X70478184Y-43836813D01*
X70425107Y-43836813D01*
X70425080Y-43836773D01*
X70036171Y-43447864D01*
X69945206Y-43387084D01*
X69924327Y-43382931D01*
X69920174Y-43362053D01*
X69905105Y-43339500D01*
X71318127Y-43339500D01*
X71334766Y-43356139D01*
X71334766Y-43550541D01*
X71422304Y-43761877D01*
X71584055Y-43923628D01*
X71795391Y-44011166D01*
X72016360Y-44011166D01*
X71451876Y-44575651D01*
X71422654Y-44595177D01*
X71345297Y-44710949D01*
X71337658Y-44749351D01*
X71167542Y-44579235D01*
X71167501Y-44579208D01*
X71167501Y-44526130D01*
X71110410Y-44388301D01*
X70982536Y-44260427D01*
X70849953Y-44260427D01*
X70138427Y-44971953D01*
X70152570Y-44986096D01*
X70046504Y-45092162D01*
X70032361Y-45078019D01*
X69320835Y-45789545D01*
X69320835Y-45922128D01*
X69448709Y-46050002D01*
X69562238Y-46097028D01*
X69541767Y-46127665D01*
X69521459Y-46229760D01*
X69521459Y-46229763D01*
X69514604Y-46264227D01*
X69521459Y-46298691D01*
X69521460Y-48431826D01*
X69383997Y-48569289D01*
X69296459Y-48780625D01*
X69296459Y-49009375D01*
X69383997Y-49220711D01*
X69545748Y-49382462D01*
X69757084Y-49470000D01*
X69985834Y-49470000D01*
X70197170Y-49382462D01*
X70358921Y-49220711D01*
X70446459Y-49009375D01*
X70446459Y-48780625D01*
X70358921Y-48569289D01*
X70221459Y-48431827D01*
X70221459Y-46688950D01*
X70594237Y-47061728D01*
X70685202Y-47122508D01*
X70706080Y-47126661D01*
X70710233Y-47147540D01*
X70771013Y-47238505D01*
X71159922Y-47627414D01*
X71250887Y-47688194D01*
X71271766Y-47692347D01*
X71275919Y-47713225D01*
X71336699Y-47804190D01*
X71725608Y-48193099D01*
X71816573Y-48253879D01*
X71847345Y-48260000D01*
X71816573Y-48266121D01*
X71725608Y-48326901D01*
X71336699Y-48715810D01*
X71275919Y-48806775D01*
X71271766Y-48827653D01*
X71250887Y-48831806D01*
X71159922Y-48892586D01*
X70771013Y-49281495D01*
X70710233Y-49372460D01*
X70706080Y-49393339D01*
X70685202Y-49397492D01*
X70594237Y-49458272D01*
X70205328Y-49847181D01*
X70144548Y-49938146D01*
X70140395Y-49959024D01*
X70119517Y-49963177D01*
X70028552Y-50023957D01*
X69639643Y-50412866D01*
X69578863Y-50503831D01*
X69574710Y-50524710D01*
X69553831Y-50528863D01*
X69462866Y-50589643D01*
X69073957Y-50978552D01*
X69013177Y-51069517D01*
X69009024Y-51090395D01*
X68988146Y-51094548D01*
X68897181Y-51155328D01*
X68508272Y-51544237D01*
X68447492Y-51635202D01*
X68443339Y-51656080D01*
X68422460Y-51660233D01*
X68331495Y-51721013D01*
X67942586Y-52109922D01*
X67881806Y-52200887D01*
X67877653Y-52221766D01*
X67856775Y-52225919D01*
X67765810Y-52286699D01*
X67376901Y-52675608D01*
X67316121Y-52766573D01*
X67310000Y-52797345D01*
X67303879Y-52766573D01*
X67243099Y-52675608D01*
X66854190Y-52286699D01*
X66763225Y-52225919D01*
X66742347Y-52221766D01*
X66738194Y-52200887D01*
X66677414Y-52109922D01*
X66288505Y-51721013D01*
X66197540Y-51660233D01*
X66176661Y-51656080D01*
X66172508Y-51635202D01*
X66168373Y-51629014D01*
X66231896Y-51565490D01*
X66419643Y-51753237D01*
X66667734Y-51856000D01*
X66936266Y-51856000D01*
X67184357Y-51753237D01*
X67374237Y-51563357D01*
X67477000Y-51315266D01*
X67477000Y-51046734D01*
X67374237Y-50798643D01*
X67184357Y-50608763D01*
X66936266Y-50506000D01*
X66667734Y-50506000D01*
X66419643Y-50608763D01*
X66229763Y-50798643D01*
X66226716Y-50806000D01*
X66122981Y-50806000D01*
X66086055Y-50798655D01*
X66049129Y-50806000D01*
X66049125Y-50806000D01*
X65939739Y-50827758D01*
X65939738Y-50827759D01*
X65939737Y-50827759D01*
X65847004Y-50889721D01*
X65847001Y-50889724D01*
X65815697Y-50910641D01*
X65794780Y-50941945D01*
X65696923Y-51039802D01*
X65665688Y-50964395D01*
X65537814Y-50836521D01*
X65405231Y-50836521D01*
X64693705Y-51548047D01*
X64707848Y-51562190D01*
X64601782Y-51668256D01*
X64587639Y-51654113D01*
X64573497Y-51668256D01*
X64467431Y-51562190D01*
X64481573Y-51548047D01*
X64467431Y-51533905D01*
X64573497Y-51427839D01*
X64587639Y-51441981D01*
X65299165Y-50730455D01*
X65299165Y-50597872D01*
X65171291Y-50469998D01*
X65033462Y-50412907D01*
X64980384Y-50412907D01*
X64980357Y-50412866D01*
X64591448Y-50023957D01*
X64591408Y-50023930D01*
X64591408Y-49970853D01*
X64534317Y-49833024D01*
X64406443Y-49705150D01*
X64273860Y-49705150D01*
X63562334Y-50416676D01*
X63576477Y-50430819D01*
X63470411Y-50536885D01*
X63456268Y-50522742D01*
X62744742Y-51234268D01*
X62744742Y-51366851D01*
X62872616Y-51494725D01*
X63006770Y-51550294D01*
X62998000Y-51594384D01*
X62998000Y-51594388D01*
X62990655Y-51631314D01*
X62998000Y-51668241D01*
X62998000Y-52002715D01*
X62990643Y-52005763D01*
X62800763Y-52195643D01*
X62698000Y-52443734D01*
X62698000Y-52712266D01*
X62800763Y-52960357D01*
X62990643Y-53150237D01*
X63238734Y-53253000D01*
X63507266Y-53253000D01*
X63755357Y-53150237D01*
X63945237Y-52960357D01*
X64048000Y-52712266D01*
X64048000Y-52644327D01*
X64141816Y-52683187D01*
X64194893Y-52683187D01*
X64194920Y-52683227D01*
X64583829Y-53072136D01*
X64674794Y-53132916D01*
X64695673Y-53137069D01*
X64699826Y-53157947D01*
X64744008Y-53224070D01*
X64732615Y-53281345D01*
X64732615Y-53281348D01*
X64725760Y-53315812D01*
X64732615Y-53350276D01*
X64732615Y-53458143D01*
X64725760Y-53492607D01*
X64732615Y-53527071D01*
X64732615Y-53527075D01*
X64752923Y-53629170D01*
X64830281Y-53744942D01*
X64859502Y-53764467D01*
X66083159Y-54988125D01*
X66102684Y-55017346D01*
X66218456Y-55094703D01*
X66320551Y-55115011D01*
X66320555Y-55115011D01*
X66355019Y-55121866D01*
X66389483Y-55115011D01*
X84900525Y-55115011D01*
X84934989Y-55121866D01*
X84969453Y-55115011D01*
X84969457Y-55115011D01*
X85071552Y-55094703D01*
X85187324Y-55017346D01*
X85206851Y-54988122D01*
X85781861Y-54413114D01*
X85781865Y-54413108D01*
X85845635Y-54349338D01*
X85921047Y-54399727D01*
X86249197Y-54465000D01*
X86470803Y-54465000D01*
X86798953Y-54399727D01*
X87171080Y-54151080D01*
X87419727Y-53778953D01*
X87507040Y-53340000D01*
X87752960Y-53340000D01*
X87840273Y-53778953D01*
X88088920Y-54151080D01*
X88461047Y-54399727D01*
X88789197Y-54465000D01*
X89010803Y-54465000D01*
X89338953Y-54399727D01*
X89711080Y-54151080D01*
X89959727Y-53778953D01*
X90047040Y-53340000D01*
X90292960Y-53340000D01*
X90380273Y-53778953D01*
X90628920Y-54151080D01*
X91001047Y-54399727D01*
X91329197Y-54465000D01*
X91550803Y-54465000D01*
X91878953Y-54399727D01*
X92251080Y-54151080D01*
X92499727Y-53778953D01*
X92587040Y-53340000D01*
X92832960Y-53340000D01*
X92920273Y-53778953D01*
X93168920Y-54151080D01*
X93541047Y-54399727D01*
X93869197Y-54465000D01*
X94090803Y-54465000D01*
X94418953Y-54399727D01*
X94791080Y-54151080D01*
X95039727Y-53778953D01*
X95127040Y-53340000D01*
X95372960Y-53340000D01*
X95460273Y-53778953D01*
X95708920Y-54151080D01*
X96081047Y-54399727D01*
X96409197Y-54465000D01*
X96630803Y-54465000D01*
X96958953Y-54399727D01*
X97331080Y-54151080D01*
X97579727Y-53778953D01*
X97667040Y-53340000D01*
X97912960Y-53340000D01*
X98000273Y-53778953D01*
X98248920Y-54151080D01*
X98621047Y-54399727D01*
X98949197Y-54465000D01*
X99170803Y-54465000D01*
X99498953Y-54399727D01*
X99871080Y-54151080D01*
X100119727Y-53778953D01*
X100207040Y-53340000D01*
X100119727Y-52901047D01*
X99871080Y-52528920D01*
X99812833Y-52490000D01*
X100469613Y-52490000D01*
X100469613Y-54190000D01*
X100490956Y-54297299D01*
X100551736Y-54388264D01*
X100642701Y-54449044D01*
X100750000Y-54470387D01*
X102450000Y-54470387D01*
X102557299Y-54449044D01*
X102648264Y-54388264D01*
X102709044Y-54297299D01*
X102730387Y-54190000D01*
X102730387Y-52490000D01*
X102709044Y-52382701D01*
X102648264Y-52291736D01*
X102557299Y-52230956D01*
X102450000Y-52209613D01*
X100750000Y-52209613D01*
X100642701Y-52230956D01*
X100551736Y-52291736D01*
X100490956Y-52382701D01*
X100469613Y-52490000D01*
X99812833Y-52490000D01*
X99498953Y-52280273D01*
X99170803Y-52215000D01*
X98949197Y-52215000D01*
X98621047Y-52280273D01*
X98248920Y-52528920D01*
X98000273Y-52901047D01*
X97912960Y-53340000D01*
X97667040Y-53340000D01*
X97579727Y-52901047D01*
X97331080Y-52528920D01*
X96958953Y-52280273D01*
X96630803Y-52215000D01*
X96409197Y-52215000D01*
X96081047Y-52280273D01*
X95708920Y-52528920D01*
X95460273Y-52901047D01*
X95372960Y-53340000D01*
X95127040Y-53340000D01*
X95039727Y-52901047D01*
X94791080Y-52528920D01*
X94418953Y-52280273D01*
X94090803Y-52215000D01*
X93869197Y-52215000D01*
X93541047Y-52280273D01*
X93168920Y-52528920D01*
X92920273Y-52901047D01*
X92832960Y-53340000D01*
X92587040Y-53340000D01*
X92499727Y-52901047D01*
X92251080Y-52528920D01*
X91878953Y-52280273D01*
X91550803Y-52215000D01*
X91329197Y-52215000D01*
X91001047Y-52280273D01*
X90628920Y-52528920D01*
X90380273Y-52901047D01*
X90292960Y-53340000D01*
X90047040Y-53340000D01*
X89959727Y-52901047D01*
X89711080Y-52528920D01*
X89338953Y-52280273D01*
X89010803Y-52215000D01*
X88789197Y-52215000D01*
X88461047Y-52280273D01*
X88088920Y-52528920D01*
X87840273Y-52901047D01*
X87752960Y-53340000D01*
X87507040Y-53340000D01*
X87419727Y-52901047D01*
X87171080Y-52528920D01*
X86798953Y-52280273D01*
X86470803Y-52215000D01*
X86249197Y-52215000D01*
X85921047Y-52280273D01*
X85548920Y-52528920D01*
X85300273Y-52901047D01*
X85212960Y-53340000D01*
X85300273Y-53778953D01*
X85350662Y-53854365D01*
X85286892Y-53918135D01*
X85286886Y-53918139D01*
X84790016Y-54415011D01*
X84182115Y-54415011D01*
X84258953Y-54399727D01*
X84631080Y-54151080D01*
X84879727Y-53778953D01*
X84967040Y-53340000D01*
X84879727Y-52901047D01*
X84631080Y-52528920D01*
X84258953Y-52280273D01*
X83930803Y-52215000D01*
X83709197Y-52215000D01*
X83381047Y-52280273D01*
X83008920Y-52528920D01*
X82760273Y-52901047D01*
X82672960Y-53340000D01*
X82760273Y-53778953D01*
X82810662Y-53854365D01*
X82746889Y-53918138D01*
X82746886Y-53918140D01*
X82550027Y-54115000D01*
X82410387Y-54115000D01*
X82410387Y-52490000D01*
X82389044Y-52382701D01*
X82328264Y-52291736D01*
X82237299Y-52230956D01*
X82130000Y-52209613D01*
X80430000Y-52209613D01*
X80322701Y-52230956D01*
X80231736Y-52291736D01*
X80170956Y-52382701D01*
X80149613Y-52490000D01*
X80149613Y-54115000D01*
X79965000Y-54115000D01*
X79965000Y-53508750D01*
X79871250Y-53415000D01*
X78815000Y-53415000D01*
X78815000Y-53435000D01*
X78665000Y-53435000D01*
X78665000Y-53415000D01*
X77608750Y-53415000D01*
X77515000Y-53508750D01*
X77515000Y-54115000D01*
X76110473Y-54115000D01*
X77515000Y-52710475D01*
X77515000Y-53171250D01*
X77608750Y-53265000D01*
X78665000Y-53265000D01*
X78665000Y-53245000D01*
X78815000Y-53245000D01*
X78815000Y-53265000D01*
X79871250Y-53265000D01*
X79965000Y-53171250D01*
X79965000Y-52415408D01*
X79907910Y-52277579D01*
X79802420Y-52172090D01*
X79664592Y-52115000D01*
X79189973Y-52115000D01*
X80478116Y-50826859D01*
X80507334Y-50807336D01*
X80526857Y-50778118D01*
X80526859Y-50778116D01*
X80584691Y-50691564D01*
X80591767Y-50655990D01*
X80604999Y-50589469D01*
X80604999Y-50589465D01*
X80611854Y-50555001D01*
X80604999Y-50520537D01*
X80604999Y-50375278D01*
X80671062Y-50441341D01*
X81066169Y-50605000D01*
X81493831Y-50605000D01*
X81752770Y-50497744D01*
X83132164Y-51877139D01*
X83151687Y-51906357D01*
X83180905Y-51925880D01*
X83180907Y-51925882D01*
X83245073Y-51968756D01*
X83267459Y-51983714D01*
X83369554Y-52004022D01*
X83369558Y-52004022D01*
X83404022Y-52010877D01*
X83438486Y-52004022D01*
X94361514Y-52004022D01*
X94395978Y-52010877D01*
X94430442Y-52004022D01*
X94430446Y-52004022D01*
X94532541Y-51983714D01*
X94648313Y-51906357D01*
X94667840Y-51877133D01*
X96047230Y-50497744D01*
X96306169Y-50605000D01*
X96733831Y-50605000D01*
X97128938Y-50441341D01*
X97431341Y-50138938D01*
X97595000Y-49743831D01*
X97595000Y-49316169D01*
X97431341Y-48921062D01*
X97247279Y-48737000D01*
X97772027Y-48737000D01*
X98092256Y-49057230D01*
X97985000Y-49316169D01*
X97985000Y-49743831D01*
X98148659Y-50138938D01*
X98451062Y-50441341D01*
X98846169Y-50605000D01*
X99273831Y-50605000D01*
X99668938Y-50441341D01*
X99971341Y-50138938D01*
X100135000Y-49743831D01*
X100135000Y-49316169D01*
X99971341Y-48921062D01*
X99668938Y-48618659D01*
X99273831Y-48455000D01*
X98846169Y-48455000D01*
X98587230Y-48562256D01*
X98461962Y-48436989D01*
X100012016Y-48436989D01*
X100632256Y-49057230D01*
X100525000Y-49316169D01*
X100525000Y-49743831D01*
X100688659Y-50138938D01*
X100991062Y-50441341D01*
X101386169Y-50605000D01*
X101813831Y-50605000D01*
X102208938Y-50441341D01*
X102511341Y-50138938D01*
X102675000Y-49743831D01*
X102675000Y-49316169D01*
X102511341Y-48921062D01*
X102208938Y-48618659D01*
X101813831Y-48455000D01*
X101386169Y-48455000D01*
X101127230Y-48562256D01*
X100428851Y-47863878D01*
X100409324Y-47834654D01*
X100293552Y-47757297D01*
X100191457Y-47736989D01*
X100191453Y-47736989D01*
X100156989Y-47730134D01*
X100122525Y-47736989D01*
X95795195Y-47736989D01*
X95760731Y-47730134D01*
X95726267Y-47736989D01*
X95726264Y-47736989D01*
X95624169Y-47757297D01*
X95508397Y-47834654D01*
X95488872Y-47863875D01*
X94781885Y-48570863D01*
X94752666Y-48590387D01*
X94733143Y-48619605D01*
X94733141Y-48619607D01*
X94698038Y-48672143D01*
X94675761Y-48705482D01*
X94588938Y-48618659D01*
X94193831Y-48455000D01*
X93766169Y-48455000D01*
X93507230Y-48562256D01*
X88555962Y-43610989D01*
X97674547Y-43610989D01*
X97709011Y-43617844D01*
X97743475Y-43610989D01*
X97743479Y-43610989D01*
X97845574Y-43590681D01*
X97961346Y-43513324D01*
X97980873Y-43484100D01*
X98292411Y-43172562D01*
X98587230Y-42877744D01*
X98846169Y-42985000D01*
X99273831Y-42985000D01*
X99668938Y-42821341D01*
X99971341Y-42518938D01*
X100135000Y-42123831D01*
X100135000Y-41696169D01*
X99971341Y-41301062D01*
X99668938Y-40998659D01*
X99273831Y-40835000D01*
X98846169Y-40835000D01*
X98451062Y-40998659D01*
X98148659Y-41301062D01*
X97985000Y-41696169D01*
X97985000Y-42123831D01*
X98092256Y-42382770D01*
X97803027Y-42672000D01*
X97564038Y-42910989D01*
X96912509Y-42910989D01*
X97128938Y-42821341D01*
X97431341Y-42518938D01*
X97595000Y-42123831D01*
X97595000Y-41696169D01*
X97431341Y-41301062D01*
X97365278Y-41234999D01*
X97831539Y-41234999D01*
X97866003Y-41241854D01*
X97900467Y-41234999D01*
X97900471Y-41234999D01*
X98002566Y-41214691D01*
X98118338Y-41137334D01*
X98137865Y-41108110D01*
X100085013Y-39160964D01*
X100085013Y-40710544D01*
X100078157Y-40745012D01*
X100105320Y-40881574D01*
X100150756Y-40949573D01*
X100182678Y-40997347D01*
X100211898Y-41016872D01*
X100576885Y-41381860D01*
X100576891Y-41381864D01*
X100632256Y-41437230D01*
X100525000Y-41696169D01*
X100525000Y-42123831D01*
X100688659Y-42518938D01*
X100991062Y-42821341D01*
X101386169Y-42985000D01*
X101813831Y-42985000D01*
X102208938Y-42821341D01*
X102511341Y-42518938D01*
X102675000Y-42123831D01*
X102675000Y-41696169D01*
X102511341Y-41301062D01*
X102208938Y-40998659D01*
X101813831Y-40835000D01*
X101386169Y-40835000D01*
X101127230Y-40942256D01*
X101071864Y-40886891D01*
X101071860Y-40886885D01*
X100785012Y-40600038D01*
X100785012Y-39230387D01*
X102450000Y-39230387D01*
X102557299Y-39209044D01*
X102648264Y-39148264D01*
X102709044Y-39057299D01*
X102730387Y-38950000D01*
X102730387Y-37250000D01*
X102709044Y-37142701D01*
X102648264Y-37051736D01*
X102557299Y-36990956D01*
X102450000Y-36969613D01*
X100750000Y-36969613D01*
X100642701Y-36990956D01*
X100551736Y-37051736D01*
X100539822Y-37069567D01*
X99922131Y-36451877D01*
X99902604Y-36422653D01*
X99786832Y-36345296D01*
X99684737Y-36324988D01*
X99684733Y-36324988D01*
X99650269Y-36318133D01*
X99615805Y-36324988D01*
X65484195Y-36324988D01*
X65449731Y-36318133D01*
X65415267Y-36324988D01*
X65415263Y-36324988D01*
X65313168Y-36345296D01*
X65197396Y-36422653D01*
X65177871Y-36451874D01*
X64560178Y-37069567D01*
X64548264Y-37051736D01*
X64457299Y-36990956D01*
X64350000Y-36969613D01*
X62650000Y-36969613D01*
X62542701Y-36990956D01*
X62451736Y-37051736D01*
X62390956Y-37142701D01*
X62369613Y-37250000D01*
X62369613Y-38950000D01*
X62390956Y-39057299D01*
X62451736Y-39148264D01*
X62542701Y-39209044D01*
X62650000Y-39230387D01*
X64293001Y-39230387D01*
X64293001Y-39509613D01*
X62650000Y-39509613D01*
X62542701Y-39530956D01*
X62451736Y-39591736D01*
X62390956Y-39682701D01*
X62369613Y-39790000D01*
X62369613Y-41490000D01*
X62390956Y-41597299D01*
X62451736Y-41688264D01*
X62542701Y-41749044D01*
X62650000Y-41770387D01*
X64293000Y-41770387D01*
X64293000Y-42730109D01*
X64286145Y-42764573D01*
X64293000Y-42799037D01*
X64293000Y-42799040D01*
X64313308Y-42901135D01*
X64390665Y-43016907D01*
X64419887Y-43036433D01*
X64718123Y-43334669D01*
X64699826Y-43362053D01*
X64695673Y-43382931D01*
X64674794Y-43387084D01*
X64583829Y-43447864D01*
X64194920Y-43836773D01*
X64134140Y-43927738D01*
X64129987Y-43948616D01*
X64109109Y-43952769D01*
X64018144Y-44013549D01*
X63629235Y-44402458D01*
X63568455Y-44493423D01*
X63564302Y-44514302D01*
X63543423Y-44518455D01*
X63516040Y-44536752D01*
X62996485Y-44017198D01*
X62999972Y-44013711D01*
X63087510Y-43802375D01*
X63087510Y-43573625D01*
X62999972Y-43362289D01*
X62838221Y-43200538D01*
X62626885Y-43113000D01*
X62398135Y-43113000D01*
X62186799Y-43200538D01*
X62025048Y-43362289D01*
X61937510Y-43573625D01*
X61937510Y-43802375D01*
X62025048Y-44013711D01*
X62186799Y-44175462D01*
X62191184Y-44177278D01*
X62260175Y-44280530D01*
X62289397Y-44300056D01*
X63021066Y-45031726D01*
X63002769Y-45059109D01*
X62998616Y-45079987D01*
X62977738Y-45084140D01*
X62886773Y-45144920D01*
X62497864Y-45533829D01*
X62437084Y-45624794D01*
X62432931Y-45645673D01*
X62412053Y-45649826D01*
X62321088Y-45710606D01*
X61932179Y-46099515D01*
X61871399Y-46190480D01*
X61867246Y-46211358D01*
X61846367Y-46215511D01*
X61755402Y-46276291D01*
X61366493Y-46665200D01*
X61305713Y-46756165D01*
X61284370Y-46863464D01*
X60625000Y-46863464D01*
X60625000Y-38372871D01*
X60697683Y-37797529D01*
X60904162Y-37276021D01*
X61233848Y-36822247D01*
X61666025Y-36464719D01*
X62173540Y-36225900D01*
X62738533Y-36118122D01*
X62869713Y-36114000D01*
X101708129Y-36114000D01*
X102283471Y-36186683D01*
G36*
X77828659Y-41301062D02*
X77665000Y-41696169D01*
X77665000Y-42123831D01*
X77828659Y-42518938D01*
X78131062Y-42821341D01*
X78526169Y-42985000D01*
X78953831Y-42985000D01*
X79348938Y-42821341D01*
X79651341Y-42518938D01*
X79787001Y-42191427D01*
X79787001Y-42527024D01*
X79069049Y-43244977D01*
X76744485Y-43244977D01*
X76710022Y-43238122D01*
X76675560Y-43244977D01*
X76675555Y-43244977D01*
X76573460Y-43265285D01*
X76457688Y-43342642D01*
X76438163Y-43371863D01*
X75670414Y-44139613D01*
X75385000Y-44139613D01*
X75277701Y-44160956D01*
X75186736Y-44221736D01*
X75125956Y-44312701D01*
X75104613Y-44420000D01*
X75104613Y-45220000D01*
X75125956Y-45327299D01*
X75144627Y-45355243D01*
X75105581Y-45394289D01*
X75018043Y-45605625D01*
X75018043Y-45834375D01*
X75105581Y-46045711D01*
X75144627Y-46084757D01*
X75125956Y-46112701D01*
X75104613Y-46220000D01*
X75104613Y-47020000D01*
X75125956Y-47127299D01*
X75186736Y-47218264D01*
X75277701Y-47279044D01*
X75385000Y-47300387D01*
X75885000Y-47300387D01*
X75992299Y-47279044D01*
X76060000Y-47233808D01*
X76127701Y-47279044D01*
X76235000Y-47300387D01*
X76473440Y-47300387D01*
X76347538Y-47426289D01*
X76261112Y-47634939D01*
X76144711Y-47518538D01*
X75933375Y-47431000D01*
X75704625Y-47431000D01*
X75493289Y-47518538D01*
X75331538Y-47680289D01*
X75244000Y-47891625D01*
X75244000Y-48120375D01*
X75331538Y-48331711D01*
X75449440Y-48449613D01*
X75400000Y-48449613D01*
X75292701Y-48470956D01*
X75201736Y-48531736D01*
X75140956Y-48622701D01*
X75119613Y-48730000D01*
X75119613Y-50330000D01*
X75140956Y-50437299D01*
X75201736Y-50528264D01*
X75292701Y-50589044D01*
X75400000Y-50610387D01*
X76993001Y-50610387D01*
X76993001Y-51393967D01*
X75605742Y-52781228D01*
X75544462Y-52633285D01*
X75382711Y-52471534D01*
X75171375Y-52383996D01*
X74942625Y-52383996D01*
X74731289Y-52471534D01*
X74569538Y-52633285D01*
X74482000Y-52844621D01*
X74482000Y-52863000D01*
X71842288Y-52863000D01*
X71033248Y-52053961D01*
X71051545Y-52026577D01*
X71055698Y-52005698D01*
X71076577Y-52001545D01*
X71142700Y-51957364D01*
X71199974Y-51968756D01*
X71199978Y-51968756D01*
X71234441Y-51975611D01*
X71268904Y-51968756D01*
X72225328Y-51968756D01*
X72259792Y-51975611D01*
X72294256Y-51968756D01*
X72294260Y-51968756D01*
X72396355Y-51948448D01*
X72512127Y-51871091D01*
X72531654Y-51841867D01*
X74532713Y-49840809D01*
X74561931Y-49821286D01*
X74587959Y-49782334D01*
X74639289Y-49705514D01*
X74644906Y-49677273D01*
X74659597Y-49603419D01*
X74659597Y-49603416D01*
X74666452Y-49568952D01*
X74659597Y-49534488D01*
X74659597Y-42383766D01*
X75125000Y-41918364D01*
X75125000Y-42123831D01*
X75288659Y-42518938D01*
X75591062Y-42821341D01*
X75986169Y-42985000D01*
X76413831Y-42985000D01*
X76808938Y-42821341D01*
X77111341Y-42518938D01*
X77275000Y-42123831D01*
X77275000Y-41696169D01*
X77111341Y-41301062D01*
X76973289Y-41163010D01*
X77966711Y-41163010D01*
X77828659Y-41301062D01*
X77828659Y-41301062D01*
G37*
X77828659Y-41301062D02*
X77665000Y-41696169D01*
X77665000Y-42123831D01*
X77828659Y-42518938D01*
X78131062Y-42821341D01*
X78526169Y-42985000D01*
X78953831Y-42985000D01*
X79348938Y-42821341D01*
X79651341Y-42518938D01*
X79787001Y-42191427D01*
X79787001Y-42527024D01*
X79069049Y-43244977D01*
X76744485Y-43244977D01*
X76710022Y-43238122D01*
X76675560Y-43244977D01*
X76675555Y-43244977D01*
X76573460Y-43265285D01*
X76457688Y-43342642D01*
X76438163Y-43371863D01*
X75670414Y-44139613D01*
X75385000Y-44139613D01*
X75277701Y-44160956D01*
X75186736Y-44221736D01*
X75125956Y-44312701D01*
X75104613Y-44420000D01*
X75104613Y-45220000D01*
X75125956Y-45327299D01*
X75144627Y-45355243D01*
X75105581Y-45394289D01*
X75018043Y-45605625D01*
X75018043Y-45834375D01*
X75105581Y-46045711D01*
X75144627Y-46084757D01*
X75125956Y-46112701D01*
X75104613Y-46220000D01*
X75104613Y-47020000D01*
X75125956Y-47127299D01*
X75186736Y-47218264D01*
X75277701Y-47279044D01*
X75385000Y-47300387D01*
X75885000Y-47300387D01*
X75992299Y-47279044D01*
X76060000Y-47233808D01*
X76127701Y-47279044D01*
X76235000Y-47300387D01*
X76473440Y-47300387D01*
X76347538Y-47426289D01*
X76261112Y-47634939D01*
X76144711Y-47518538D01*
X75933375Y-47431000D01*
X75704625Y-47431000D01*
X75493289Y-47518538D01*
X75331538Y-47680289D01*
X75244000Y-47891625D01*
X75244000Y-48120375D01*
X75331538Y-48331711D01*
X75449440Y-48449613D01*
X75400000Y-48449613D01*
X75292701Y-48470956D01*
X75201736Y-48531736D01*
X75140956Y-48622701D01*
X75119613Y-48730000D01*
X75119613Y-50330000D01*
X75140956Y-50437299D01*
X75201736Y-50528264D01*
X75292701Y-50589044D01*
X75400000Y-50610387D01*
X76993001Y-50610387D01*
X76993001Y-51393967D01*
X75605742Y-52781228D01*
X75544462Y-52633285D01*
X75382711Y-52471534D01*
X75171375Y-52383996D01*
X74942625Y-52383996D01*
X74731289Y-52471534D01*
X74569538Y-52633285D01*
X74482000Y-52844621D01*
X74482000Y-52863000D01*
X71842288Y-52863000D01*
X71033248Y-52053961D01*
X71051545Y-52026577D01*
X71055698Y-52005698D01*
X71076577Y-52001545D01*
X71142700Y-51957364D01*
X71199974Y-51968756D01*
X71199978Y-51968756D01*
X71234441Y-51975611D01*
X71268904Y-51968756D01*
X72225328Y-51968756D01*
X72259792Y-51975611D01*
X72294256Y-51968756D01*
X72294260Y-51968756D01*
X72396355Y-51948448D01*
X72512127Y-51871091D01*
X72531654Y-51841867D01*
X74532713Y-49840809D01*
X74561931Y-49821286D01*
X74587959Y-49782334D01*
X74639289Y-49705514D01*
X74644906Y-49677273D01*
X74659597Y-49603419D01*
X74659597Y-49603416D01*
X74666452Y-49568952D01*
X74659597Y-49534488D01*
X74659597Y-42383766D01*
X75125000Y-41918364D01*
X75125000Y-42123831D01*
X75288659Y-42518938D01*
X75591062Y-42821341D01*
X75986169Y-42985000D01*
X76413831Y-42985000D01*
X76808938Y-42821341D01*
X77111341Y-42518938D01*
X77275000Y-42123831D01*
X77275000Y-41696169D01*
X77111341Y-41301062D01*
X76973289Y-41163010D01*
X77966711Y-41163010D01*
X77828659Y-41301062D01*
G36*
X80646736Y-47218264D02*
X80695000Y-47250513D01*
X80695001Y-47969024D01*
X80040886Y-48623140D01*
X80011665Y-48642666D01*
X79934308Y-48758438D01*
X79914000Y-48860533D01*
X79914000Y-48860536D01*
X79907145Y-48895000D01*
X79914000Y-48929464D01*
X79914000Y-48958281D01*
X79904999Y-49003532D01*
X79904999Y-49003535D01*
X79898144Y-49037999D01*
X79904999Y-49072463D01*
X79905000Y-50410025D01*
X78450028Y-51864999D01*
X77929121Y-51864999D01*
X77972703Y-51799774D01*
X77993011Y-51697679D01*
X77993011Y-51697674D01*
X77999866Y-51663212D01*
X77993011Y-51628749D01*
X77993011Y-50303290D01*
X78131062Y-50441341D01*
X78526169Y-50605000D01*
X78953831Y-50605000D01*
X79348938Y-50441341D01*
X79651341Y-50138938D01*
X79815000Y-49743831D01*
X79815000Y-49316169D01*
X79651341Y-48921062D01*
X79348938Y-48618659D01*
X79060705Y-48499269D01*
X80259588Y-47300387D01*
X80445000Y-47300387D01*
X80552299Y-47279044D01*
X80643264Y-47218264D01*
X80645000Y-47215666D01*
X80646736Y-47218264D01*
X80646736Y-47218264D01*
G37*
X80646736Y-47218264D02*
X80695000Y-47250513D01*
X80695001Y-47969024D01*
X80040886Y-48623140D01*
X80011665Y-48642666D01*
X79934308Y-48758438D01*
X79914000Y-48860533D01*
X79914000Y-48860536D01*
X79907145Y-48895000D01*
X79914000Y-48929464D01*
X79914000Y-48958281D01*
X79904999Y-49003532D01*
X79904999Y-49003535D01*
X79898144Y-49037999D01*
X79904999Y-49072463D01*
X79905000Y-50410025D01*
X78450028Y-51864999D01*
X77929121Y-51864999D01*
X77972703Y-51799774D01*
X77993011Y-51697679D01*
X77993011Y-51697674D01*
X77999866Y-51663212D01*
X77993011Y-51628749D01*
X77993011Y-50303290D01*
X78131062Y-50441341D01*
X78526169Y-50605000D01*
X78953831Y-50605000D01*
X79348938Y-50441341D01*
X79651341Y-50138938D01*
X79815000Y-49743831D01*
X79815000Y-49316169D01*
X79651341Y-48921062D01*
X79348938Y-48618659D01*
X79060705Y-48499269D01*
X80259588Y-47300387D01*
X80445000Y-47300387D01*
X80552299Y-47279044D01*
X80643264Y-47218264D01*
X80645000Y-47215666D01*
X80646736Y-47218264D01*
G36*
X84232001Y-46880976D02*
X84232000Y-48537085D01*
X84033831Y-48455000D01*
X83606169Y-48455000D01*
X83211062Y-48618659D01*
X82908659Y-48921062D01*
X82745000Y-49316169D01*
X82745000Y-49743831D01*
X82908659Y-50138938D01*
X83211062Y-50441341D01*
X83606169Y-50605000D01*
X84033831Y-50605000D01*
X84292770Y-50497744D01*
X85099047Y-51304022D01*
X83548997Y-51304022D01*
X82247744Y-50002770D01*
X82355000Y-49743831D01*
X82355000Y-49316169D01*
X82247744Y-49057230D01*
X82543118Y-48761857D01*
X82572336Y-48742334D01*
X82591859Y-48713116D01*
X82591861Y-48713114D01*
X82649693Y-48626562D01*
X82651624Y-48616855D01*
X82670001Y-48524467D01*
X82670001Y-48524463D01*
X82676856Y-48489999D01*
X82670001Y-48455535D01*
X82670001Y-46074463D01*
X82676856Y-46039999D01*
X82670001Y-46005535D01*
X82670001Y-46005531D01*
X82649693Y-45903436D01*
X82645385Y-45896989D01*
X83248016Y-45896989D01*
X84232001Y-46880976D01*
X84232001Y-46880976D01*
G37*
X84232001Y-46880976D02*
X84232000Y-48537085D01*
X84033831Y-48455000D01*
X83606169Y-48455000D01*
X83211062Y-48618659D01*
X82908659Y-48921062D01*
X82745000Y-49316169D01*
X82745000Y-49743831D01*
X82908659Y-50138938D01*
X83211062Y-50441341D01*
X83606169Y-50605000D01*
X84033831Y-50605000D01*
X84292770Y-50497744D01*
X85099047Y-51304022D01*
X83548997Y-51304022D01*
X82247744Y-50002770D01*
X82355000Y-49743831D01*
X82355000Y-49316169D01*
X82247744Y-49057230D01*
X82543118Y-48761857D01*
X82572336Y-48742334D01*
X82591859Y-48713116D01*
X82591861Y-48713114D01*
X82649693Y-48626562D01*
X82651624Y-48616855D01*
X82670001Y-48524467D01*
X82670001Y-48524463D01*
X82676856Y-48489999D01*
X82670001Y-48455535D01*
X82670001Y-46074463D01*
X82676856Y-46039999D01*
X82670001Y-46005535D01*
X82670001Y-46005531D01*
X82649693Y-45903436D01*
X82645385Y-45896989D01*
X83248016Y-45896989D01*
X84232001Y-46880976D01*
G36*
X93012256Y-49057230D02*
X92905000Y-49316169D01*
X92905000Y-49743831D01*
X93068659Y-50138938D01*
X93371062Y-50441341D01*
X93766169Y-50605000D01*
X93927029Y-50605000D01*
X93874040Y-50657989D01*
X87982963Y-50657989D01*
X87327744Y-50002770D01*
X87435000Y-49743831D01*
X87435000Y-49316169D01*
X87271341Y-48921062D01*
X87080279Y-48730000D01*
X90359613Y-48730000D01*
X90359613Y-50330000D01*
X90380956Y-50437299D01*
X90441736Y-50528264D01*
X90532701Y-50589044D01*
X90640000Y-50610387D01*
X92240000Y-50610387D01*
X92347299Y-50589044D01*
X92438264Y-50528264D01*
X92499044Y-50437299D01*
X92520387Y-50330000D01*
X92520387Y-48730000D01*
X92499044Y-48622701D01*
X92438264Y-48531736D01*
X92347299Y-48470956D01*
X92240000Y-48449613D01*
X90640000Y-48449613D01*
X90532701Y-48470956D01*
X90441736Y-48531736D01*
X90380956Y-48622701D01*
X90359613Y-48730000D01*
X87080279Y-48730000D01*
X86968938Y-48618659D01*
X86710000Y-48511403D01*
X86710000Y-47151464D01*
X86716855Y-47117000D01*
X86710000Y-47082536D01*
X86710000Y-47082532D01*
X86689692Y-46980437D01*
X86677931Y-46962836D01*
X86631860Y-46893885D01*
X86631858Y-46893883D01*
X86612335Y-46864665D01*
X86583117Y-46845142D01*
X83648975Y-43911002D01*
X87866029Y-43911002D01*
X93012256Y-49057230D01*
X93012256Y-49057230D01*
G37*
X93012256Y-49057230D02*
X92905000Y-49316169D01*
X92905000Y-49743831D01*
X93068659Y-50138938D01*
X93371062Y-50441341D01*
X93766169Y-50605000D01*
X93927029Y-50605000D01*
X93874040Y-50657989D01*
X87982963Y-50657989D01*
X87327744Y-50002770D01*
X87435000Y-49743831D01*
X87435000Y-49316169D01*
X87271341Y-48921062D01*
X87080279Y-48730000D01*
X90359613Y-48730000D01*
X90359613Y-50330000D01*
X90380956Y-50437299D01*
X90441736Y-50528264D01*
X90532701Y-50589044D01*
X90640000Y-50610387D01*
X92240000Y-50610387D01*
X92347299Y-50589044D01*
X92438264Y-50528264D01*
X92499044Y-50437299D01*
X92520387Y-50330000D01*
X92520387Y-48730000D01*
X92499044Y-48622701D01*
X92438264Y-48531736D01*
X92347299Y-48470956D01*
X92240000Y-48449613D01*
X90640000Y-48449613D01*
X90532701Y-48470956D01*
X90441736Y-48531736D01*
X90380956Y-48622701D01*
X90359613Y-48730000D01*
X87080279Y-48730000D01*
X86968938Y-48618659D01*
X86710000Y-48511403D01*
X86710000Y-47151464D01*
X86716855Y-47117000D01*
X86710000Y-47082536D01*
X86710000Y-47082532D01*
X86689692Y-46980437D01*
X86677931Y-46962836D01*
X86631860Y-46893885D01*
X86631858Y-46893883D01*
X86612335Y-46864665D01*
X86583117Y-46845142D01*
X83648975Y-43911002D01*
X87866029Y-43911002D01*
X93012256Y-49057230D01*
G36*
X90472256Y-41437230D02*
X90365000Y-41696169D01*
X90365000Y-42123831D01*
X90528659Y-42518938D01*
X90620699Y-42610978D01*
X87179301Y-42610978D01*
X87271341Y-42518938D01*
X87435000Y-42123831D01*
X87435000Y-41696169D01*
X87271341Y-41301062D01*
X87104780Y-41134501D01*
X90169528Y-41134501D01*
X90472256Y-41437230D01*
X90472256Y-41437230D01*
G37*
X90472256Y-41437230D02*
X90365000Y-41696169D01*
X90365000Y-42123831D01*
X90528659Y-42518938D01*
X90620699Y-42610978D01*
X87179301Y-42610978D01*
X87271341Y-42518938D01*
X87435000Y-42123831D01*
X87435000Y-41696169D01*
X87271341Y-41301062D01*
X87104780Y-41134501D01*
X90169528Y-41134501D01*
X90472256Y-41437230D01*
G36*
X67576656Y-37397189D02*
X67384077Y-37834650D01*
X67451041Y-38025000D01*
X68505000Y-38025000D01*
X68505000Y-38005000D01*
X68655000Y-38005000D01*
X68655000Y-38025000D01*
X69708959Y-38025000D01*
X69775923Y-37834650D01*
X69583344Y-37397189D01*
X69507907Y-37324999D01*
X77609613Y-37324999D01*
X77609613Y-38950000D01*
X77612190Y-38962955D01*
X75148502Y-38962955D01*
X75114039Y-38956100D01*
X75079576Y-38962955D01*
X75079572Y-38962955D01*
X74977477Y-38983263D01*
X74861705Y-39060620D01*
X74842182Y-39089838D01*
X72372022Y-41560000D01*
X72236463Y-41560000D01*
X72250387Y-41490000D01*
X72250387Y-39790000D01*
X72229044Y-39682701D01*
X72168264Y-39591736D01*
X72077299Y-39530956D01*
X71970000Y-39509613D01*
X70270000Y-39509613D01*
X70162701Y-39530956D01*
X70071736Y-39591736D01*
X70010956Y-39682701D01*
X69989613Y-39790000D01*
X69989613Y-41490000D01*
X70003537Y-41560000D01*
X69356386Y-41560000D01*
X69583344Y-41342811D01*
X69775923Y-40905350D01*
X69708959Y-40715000D01*
X68655000Y-40715000D01*
X68655000Y-40735000D01*
X68505000Y-40735000D01*
X68505000Y-40715000D01*
X67451041Y-40715000D01*
X67384077Y-40905350D01*
X67576656Y-41342811D01*
X67803614Y-41560000D01*
X67342995Y-41560000D01*
X67274885Y-41491890D01*
X67255358Y-41462666D01*
X67139586Y-41385309D01*
X67037491Y-41365001D01*
X67037487Y-41365001D01*
X67003023Y-41358146D01*
X66968559Y-41365001D01*
X66908596Y-41365001D01*
X67099727Y-41078953D01*
X67187040Y-40640000D01*
X67134259Y-40374650D01*
X67384077Y-40374650D01*
X67451041Y-40565000D01*
X68505000Y-40565000D01*
X68505000Y-39511239D01*
X68655000Y-39511239D01*
X68655000Y-40565000D01*
X69708959Y-40565000D01*
X69775923Y-40374650D01*
X69583344Y-39937189D01*
X69238015Y-39606724D01*
X68845349Y-39444084D01*
X68655000Y-39511239D01*
X68505000Y-39511239D01*
X68314651Y-39444084D01*
X67921985Y-39606724D01*
X67576656Y-39937189D01*
X67384077Y-40374650D01*
X67134259Y-40374650D01*
X67099727Y-40201047D01*
X66851080Y-39828920D01*
X66478953Y-39580273D01*
X66150803Y-39515000D01*
X65929197Y-39515000D01*
X65601047Y-39580273D01*
X65293011Y-39786096D01*
X65293011Y-38953904D01*
X65601047Y-39159727D01*
X65929197Y-39225000D01*
X66150803Y-39225000D01*
X66478953Y-39159727D01*
X66851080Y-38911080D01*
X67099727Y-38538953D01*
X67134258Y-38365350D01*
X67384077Y-38365350D01*
X67576656Y-38802811D01*
X67921985Y-39133276D01*
X68314651Y-39295916D01*
X68505000Y-39228761D01*
X68505000Y-38175000D01*
X68655000Y-38175000D01*
X68655000Y-39228761D01*
X68845349Y-39295916D01*
X69238015Y-39133276D01*
X69583344Y-38802811D01*
X69775923Y-38365350D01*
X69708959Y-38175000D01*
X68655000Y-38175000D01*
X68505000Y-38175000D01*
X67451041Y-38175000D01*
X67384077Y-38365350D01*
X67134258Y-38365350D01*
X67187040Y-38100000D01*
X67099727Y-37661047D01*
X66875187Y-37324999D01*
X67652093Y-37324999D01*
X67576656Y-37397189D01*
X67576656Y-37397189D01*
G37*
X67576656Y-37397189D02*
X67384077Y-37834650D01*
X67451041Y-38025000D01*
X68505000Y-38025000D01*
X68505000Y-38005000D01*
X68655000Y-38005000D01*
X68655000Y-38025000D01*
X69708959Y-38025000D01*
X69775923Y-37834650D01*
X69583344Y-37397189D01*
X69507907Y-37324999D01*
X77609613Y-37324999D01*
X77609613Y-38950000D01*
X77612190Y-38962955D01*
X75148502Y-38962955D01*
X75114039Y-38956100D01*
X75079576Y-38962955D01*
X75079572Y-38962955D01*
X74977477Y-38983263D01*
X74861705Y-39060620D01*
X74842182Y-39089838D01*
X72372022Y-41560000D01*
X72236463Y-41560000D01*
X72250387Y-41490000D01*
X72250387Y-39790000D01*
X72229044Y-39682701D01*
X72168264Y-39591736D01*
X72077299Y-39530956D01*
X71970000Y-39509613D01*
X70270000Y-39509613D01*
X70162701Y-39530956D01*
X70071736Y-39591736D01*
X70010956Y-39682701D01*
X69989613Y-39790000D01*
X69989613Y-41490000D01*
X70003537Y-41560000D01*
X69356386Y-41560000D01*
X69583344Y-41342811D01*
X69775923Y-40905350D01*
X69708959Y-40715000D01*
X68655000Y-40715000D01*
X68655000Y-40735000D01*
X68505000Y-40735000D01*
X68505000Y-40715000D01*
X67451041Y-40715000D01*
X67384077Y-40905350D01*
X67576656Y-41342811D01*
X67803614Y-41560000D01*
X67342995Y-41560000D01*
X67274885Y-41491890D01*
X67255358Y-41462666D01*
X67139586Y-41385309D01*
X67037491Y-41365001D01*
X67037487Y-41365001D01*
X67003023Y-41358146D01*
X66968559Y-41365001D01*
X66908596Y-41365001D01*
X67099727Y-41078953D01*
X67187040Y-40640000D01*
X67134259Y-40374650D01*
X67384077Y-40374650D01*
X67451041Y-40565000D01*
X68505000Y-40565000D01*
X68505000Y-39511239D01*
X68655000Y-39511239D01*
X68655000Y-40565000D01*
X69708959Y-40565000D01*
X69775923Y-40374650D01*
X69583344Y-39937189D01*
X69238015Y-39606724D01*
X68845349Y-39444084D01*
X68655000Y-39511239D01*
X68505000Y-39511239D01*
X68314651Y-39444084D01*
X67921985Y-39606724D01*
X67576656Y-39937189D01*
X67384077Y-40374650D01*
X67134259Y-40374650D01*
X67099727Y-40201047D01*
X66851080Y-39828920D01*
X66478953Y-39580273D01*
X66150803Y-39515000D01*
X65929197Y-39515000D01*
X65601047Y-39580273D01*
X65293011Y-39786096D01*
X65293011Y-38953904D01*
X65601047Y-39159727D01*
X65929197Y-39225000D01*
X66150803Y-39225000D01*
X66478953Y-39159727D01*
X66851080Y-38911080D01*
X67099727Y-38538953D01*
X67134258Y-38365350D01*
X67384077Y-38365350D01*
X67576656Y-38802811D01*
X67921985Y-39133276D01*
X68314651Y-39295916D01*
X68505000Y-39228761D01*
X68505000Y-38175000D01*
X68655000Y-38175000D01*
X68655000Y-39228761D01*
X68845349Y-39295916D01*
X69238015Y-39133276D01*
X69583344Y-38802811D01*
X69775923Y-38365350D01*
X69708959Y-38175000D01*
X68655000Y-38175000D01*
X68505000Y-38175000D01*
X67451041Y-38175000D01*
X67384077Y-38365350D01*
X67134258Y-38365350D01*
X67187040Y-38100000D01*
X67099727Y-37661047D01*
X66875187Y-37324999D01*
X67652093Y-37324999D01*
X67576656Y-37397189D01*
G04 #@! TD*
M02*
