G04 #@! TF.GenerationSoftware,KiCad,Pcbnew,(5.0.0)*
G04 #@! TF.CreationDate,2019-08-14T19:46:56-04:00*
G04 #@! TF.ProjectId,7segment,377365676D656E742E6B696361645F70,B*
G04 #@! TF.SameCoordinates,Original*
G04 #@! TF.FileFunction,Legend,Top*
G04 #@! TF.FilePolarity,Positive*
%FSLAX46Y46*%
G04 Gerber Fmt 4.6, Leading zero omitted, Abs format (unit mm)*
G04 Created by KiCad (PCBNEW (5.0.0)) date 08/14/19 19:46:56*
%MOMM*%
%LPD*%
G01*
G04 APERTURE LIST*
%ADD10C,0.100000*%
%ADD11C,0.120000*%
%ADD12C,0.150000*%
G04 APERTURE END LIST*
D10*
X85750476Y-54464000D02*
X85674285Y-54425904D01*
X85560000Y-54425904D01*
X85445714Y-54464000D01*
X85369523Y-54540190D01*
X85331428Y-54616380D01*
X85293333Y-54768761D01*
X85293333Y-54883047D01*
X85331428Y-55035428D01*
X85369523Y-55111619D01*
X85445714Y-55187809D01*
X85560000Y-55225904D01*
X85636190Y-55225904D01*
X85750476Y-55187809D01*
X85788571Y-55149714D01*
X85788571Y-54883047D01*
X85636190Y-54883047D01*
X86131428Y-55225904D02*
X86131428Y-54425904D01*
X86588571Y-55225904D01*
X86588571Y-54425904D01*
X86969523Y-55225904D02*
X86969523Y-54425904D01*
X87160000Y-54425904D01*
X87274285Y-54464000D01*
X87350476Y-54540190D01*
X87388571Y-54616380D01*
X87426666Y-54768761D01*
X87426666Y-54883047D01*
X87388571Y-55035428D01*
X87350476Y-55111619D01*
X87274285Y-55187809D01*
X87160000Y-55225904D01*
X86969523Y-55225904D01*
X71272380Y-54692571D02*
X71272380Y-55225904D01*
X71081904Y-54387809D02*
X70891428Y-54959238D01*
X71386666Y-54959238D01*
X78968571Y-55225904D02*
X78511428Y-55225904D01*
X78740000Y-55225904D02*
X78740000Y-54425904D01*
X78663809Y-54540190D01*
X78587619Y-54616380D01*
X78511428Y-54654476D01*
X73393333Y-54425904D02*
X73888571Y-54425904D01*
X73621904Y-54730666D01*
X73736190Y-54730666D01*
X73812380Y-54768761D01*
X73850476Y-54806857D01*
X73888571Y-54883047D01*
X73888571Y-55073523D01*
X73850476Y-55149714D01*
X73812380Y-55187809D01*
X73736190Y-55225904D01*
X73507619Y-55225904D01*
X73431428Y-55187809D01*
X73393333Y-55149714D01*
X81241904Y-54425904D02*
X81318095Y-54425904D01*
X81394285Y-54464000D01*
X81432380Y-54502095D01*
X81470476Y-54578285D01*
X81508571Y-54730666D01*
X81508571Y-54921142D01*
X81470476Y-55073523D01*
X81432380Y-55149714D01*
X81394285Y-55187809D01*
X81318095Y-55225904D01*
X81241904Y-55225904D01*
X81165714Y-55187809D01*
X81127619Y-55149714D01*
X81089523Y-55073523D01*
X81051428Y-54921142D01*
X81051428Y-54730666D01*
X81089523Y-54578285D01*
X81127619Y-54502095D01*
X81165714Y-54464000D01*
X81241904Y-54425904D01*
X63233333Y-54425904D02*
X63766666Y-54425904D01*
X63423809Y-55225904D01*
X75971428Y-54502095D02*
X76009523Y-54464000D01*
X76085714Y-54425904D01*
X76276190Y-54425904D01*
X76352380Y-54464000D01*
X76390476Y-54502095D01*
X76428571Y-54578285D01*
X76428571Y-54654476D01*
X76390476Y-54768761D01*
X75933333Y-55225904D01*
X76428571Y-55225904D01*
X66192380Y-54425904D02*
X66040000Y-54425904D01*
X65963809Y-54464000D01*
X65925714Y-54502095D01*
X65849523Y-54616380D01*
X65811428Y-54768761D01*
X65811428Y-55073523D01*
X65849523Y-55149714D01*
X65887619Y-55187809D01*
X65963809Y-55225904D01*
X66116190Y-55225904D01*
X66192380Y-55187809D01*
X66230476Y-55149714D01*
X66268571Y-55073523D01*
X66268571Y-54883047D01*
X66230476Y-54806857D01*
X66192380Y-54768761D01*
X66116190Y-54730666D01*
X65963809Y-54730666D01*
X65887619Y-54768761D01*
X65849523Y-54806857D01*
X65811428Y-54883047D01*
X68770476Y-54425904D02*
X68389523Y-54425904D01*
X68351428Y-54806857D01*
X68389523Y-54768761D01*
X68465714Y-54730666D01*
X68656190Y-54730666D01*
X68732380Y-54768761D01*
X68770476Y-54806857D01*
X68808571Y-54883047D01*
X68808571Y-55073523D01*
X68770476Y-55149714D01*
X68732380Y-55187809D01*
X68656190Y-55225904D01*
X68465714Y-55225904D01*
X68389523Y-55187809D01*
X68351428Y-55149714D01*
X68313333Y-36137904D02*
X68846666Y-36137904D01*
X68503809Y-36937904D01*
X71272380Y-36137904D02*
X71120000Y-36137904D01*
X71043809Y-36176000D01*
X71005714Y-36214095D01*
X70929523Y-36328380D01*
X70891428Y-36480761D01*
X70891428Y-36785523D01*
X70929523Y-36861714D01*
X70967619Y-36899809D01*
X71043809Y-36937904D01*
X71196190Y-36937904D01*
X71272380Y-36899809D01*
X71310476Y-36861714D01*
X71348571Y-36785523D01*
X71348571Y-36595047D01*
X71310476Y-36518857D01*
X71272380Y-36480761D01*
X71196190Y-36442666D01*
X71043809Y-36442666D01*
X70967619Y-36480761D01*
X70929523Y-36518857D01*
X70891428Y-36595047D01*
X73850476Y-36137904D02*
X73469523Y-36137904D01*
X73431428Y-36518857D01*
X73469523Y-36480761D01*
X73545714Y-36442666D01*
X73736190Y-36442666D01*
X73812380Y-36480761D01*
X73850476Y-36518857D01*
X73888571Y-36595047D01*
X73888571Y-36785523D01*
X73850476Y-36861714D01*
X73812380Y-36899809D01*
X73736190Y-36937904D01*
X73545714Y-36937904D01*
X73469523Y-36899809D01*
X73431428Y-36861714D01*
X76352380Y-36404571D02*
X76352380Y-36937904D01*
X76161904Y-36099809D02*
X75971428Y-36671238D01*
X76466666Y-36671238D01*
X78473333Y-36137904D02*
X78968571Y-36137904D01*
X78701904Y-36442666D01*
X78816190Y-36442666D01*
X78892380Y-36480761D01*
X78930476Y-36518857D01*
X78968571Y-36595047D01*
X78968571Y-36785523D01*
X78930476Y-36861714D01*
X78892380Y-36899809D01*
X78816190Y-36937904D01*
X78587619Y-36937904D01*
X78511428Y-36899809D01*
X78473333Y-36861714D01*
X81051428Y-36214095D02*
X81089523Y-36176000D01*
X81165714Y-36137904D01*
X81356190Y-36137904D01*
X81432380Y-36176000D01*
X81470476Y-36214095D01*
X81508571Y-36290285D01*
X81508571Y-36366476D01*
X81470476Y-36480761D01*
X81013333Y-36937904D01*
X81508571Y-36937904D01*
X84048571Y-36937904D02*
X83591428Y-36937904D01*
X83820000Y-36937904D02*
X83820000Y-36137904D01*
X83743809Y-36252190D01*
X83667619Y-36328380D01*
X83591428Y-36366476D01*
X86321904Y-36137904D02*
X86398095Y-36137904D01*
X86474285Y-36176000D01*
X86512380Y-36214095D01*
X86550476Y-36290285D01*
X86588571Y-36442666D01*
X86588571Y-36633142D01*
X86550476Y-36785523D01*
X86512380Y-36861714D01*
X86474285Y-36899809D01*
X86398095Y-36937904D01*
X86321904Y-36937904D01*
X86245714Y-36899809D01*
X86207619Y-36861714D01*
X86169523Y-36785523D01*
X86131428Y-36633142D01*
X86131428Y-36442666D01*
X86169523Y-36290285D01*
X86207619Y-36214095D01*
X86245714Y-36176000D01*
X86321904Y-36137904D01*
X63347619Y-36137904D02*
X62966666Y-36137904D01*
X62928571Y-36518857D01*
X62966666Y-36480761D01*
X63042857Y-36442666D01*
X63233333Y-36442666D01*
X63309523Y-36480761D01*
X63347619Y-36518857D01*
X63385714Y-36595047D01*
X63385714Y-36785523D01*
X63347619Y-36861714D01*
X63309523Y-36899809D01*
X63233333Y-36937904D01*
X63042857Y-36937904D01*
X62966666Y-36899809D01*
X62928571Y-36861714D01*
X63614285Y-36137904D02*
X63880952Y-36937904D01*
X64147619Y-36137904D01*
D11*
G04 #@! TO.C,J5*
X83445000Y-48020000D02*
X83445000Y-44420000D01*
X83445000Y-44420000D02*
X74095000Y-44420000D01*
X74095000Y-44420000D02*
X74095000Y-48020000D01*
X74095000Y-48020000D02*
X83445000Y-48020000D01*
X83755000Y-46020000D02*
X83755000Y-44110000D01*
X83755000Y-44110000D02*
X81845000Y-44110000D01*
X83445000Y-45720000D02*
X83145000Y-45720000D01*
X83145000Y-45720000D02*
X83145000Y-44720000D01*
X83145000Y-44720000D02*
X74395000Y-44720000D01*
X74395000Y-44720000D02*
X74395000Y-45720000D01*
X74395000Y-45720000D02*
X74095000Y-45720000D01*
X83445000Y-46470000D02*
X83145000Y-46470000D01*
X83145000Y-46470000D02*
X83145000Y-47570000D01*
X83145000Y-47570000D02*
X82845000Y-47570000D01*
X82845000Y-47570000D02*
X82845000Y-48020000D01*
X74095000Y-46470000D02*
X74395000Y-46470000D01*
X74395000Y-46470000D02*
X74395000Y-47570000D01*
X74395000Y-47570000D02*
X74695000Y-47570000D01*
X74695000Y-47570000D02*
X74695000Y-48020000D01*
X82845000Y-47570000D02*
X81645000Y-47570000D01*
X81645000Y-47570000D02*
X81645000Y-47870000D01*
X81645000Y-47870000D02*
X80895000Y-47870000D01*
X80895000Y-47870000D02*
X80895000Y-47570000D01*
X80895000Y-47570000D02*
X76645000Y-47570000D01*
X76645000Y-47570000D02*
X76645000Y-47870000D01*
X76645000Y-47870000D02*
X75895000Y-47870000D01*
X75895000Y-47870000D02*
X75895000Y-47570000D01*
X75895000Y-47570000D02*
X74695000Y-47570000D01*
D12*
G04 #@! TO.C,U2*
X63685000Y-42095000D02*
X63685000Y-42320000D01*
X70935000Y-42095000D02*
X70935000Y-42420000D01*
X70935000Y-49345000D02*
X70935000Y-49020000D01*
X63685000Y-49345000D02*
X63685000Y-49020000D01*
X63685000Y-42095000D02*
X64010000Y-42095000D01*
X63685000Y-49345000D02*
X64010000Y-49345000D01*
X70935000Y-49345000D02*
X70610000Y-49345000D01*
X70935000Y-42095000D02*
X70610000Y-42095000D01*
X63685000Y-42320000D02*
X62260000Y-42320000D01*
D11*
G04 #@! TO.C,RN2*
X87405000Y-46220000D02*
X87405000Y-45220000D01*
X84045000Y-46220000D02*
X84045000Y-45220000D01*
G04 #@! TO.C,U1*
X73406000Y-51054000D02*
X73406000Y-49530000D01*
X75036000Y-51054000D02*
X73406000Y-51054000D01*
D12*
X73660000Y-40640000D02*
X73660000Y-50800000D01*
X73660000Y-50800000D02*
X88900000Y-50800000D01*
X88900000Y-50800000D02*
X88900000Y-40640000D01*
X88900000Y-40640000D02*
X73660000Y-40640000D01*
G04 #@! TD*
M02*
