G04 #@! TF.GenerationSoftware,KiCad,Pcbnew,(5.0.0)*
G04 #@! TF.CreationDate,2019-08-14T19:46:56-04:00*
G04 #@! TF.ProjectId,7segment,377365676D656E742E6B696361645F70,B*
G04 #@! TF.SameCoordinates,Original*
G04 #@! TF.FileFunction,Soldermask,Bot*
G04 #@! TF.FilePolarity,Negative*
%FSLAX46Y46*%
G04 Gerber Fmt 4.6, Leading zero omitted, Abs format (unit mm)*
G04 Created by KiCad (PCBNEW (5.0.0)) date 08/14/19 19:46:56*
%MOMM*%
%LPD*%
G01*
G04 APERTURE LIST*
%ADD10R,1.100000X1.600000*%
%ADD11O,1.100000X1.600000*%
%ADD12C,0.100000*%
%ADD13C,1.350000*%
%ADD14R,0.700000X1.000000*%
%ADD15R,0.600000X1.000000*%
%ADD16R,1.200000X1.700000*%
%ADD17R,1.900000X1.900000*%
%ADD18O,1.900000X1.900000*%
%ADD19C,1.800000*%
%ADD20R,1.800000X1.800000*%
G04 APERTURE END LIST*
D10*
G04 #@! TO.C,J5*
X81895000Y-45720000D03*
D11*
X80645000Y-45720000D03*
X79395000Y-45720000D03*
X78145000Y-45720000D03*
X76895000Y-45720000D03*
X75645000Y-45720000D03*
G04 #@! TD*
D12*
G04 #@! TO.C,C2*
G36*
X63910289Y-46445413D02*
X63938778Y-46449639D01*
X63966715Y-46456637D01*
X63993832Y-46466340D01*
X64019867Y-46478653D01*
X64044570Y-46493460D01*
X64067703Y-46510616D01*
X64089043Y-46529957D01*
X64108384Y-46551297D01*
X64125540Y-46574430D01*
X64140347Y-46599133D01*
X64152660Y-46625168D01*
X64162363Y-46652285D01*
X64169361Y-46680222D01*
X64173587Y-46708711D01*
X64175000Y-46737477D01*
X64175000Y-47750523D01*
X64173587Y-47779289D01*
X64169361Y-47807778D01*
X64162363Y-47835715D01*
X64152660Y-47862832D01*
X64140347Y-47888867D01*
X64125540Y-47913570D01*
X64108384Y-47936703D01*
X64089043Y-47958043D01*
X64067703Y-47977384D01*
X64044570Y-47994540D01*
X64019867Y-48009347D01*
X63993832Y-48021660D01*
X63966715Y-48031363D01*
X63938778Y-48038361D01*
X63910289Y-48042587D01*
X63881523Y-48044000D01*
X63118477Y-48044000D01*
X63089711Y-48042587D01*
X63061222Y-48038361D01*
X63033285Y-48031363D01*
X63006168Y-48021660D01*
X62980133Y-48009347D01*
X62955430Y-47994540D01*
X62932297Y-47977384D01*
X62910957Y-47958043D01*
X62891616Y-47936703D01*
X62874460Y-47913570D01*
X62859653Y-47888867D01*
X62847340Y-47862832D01*
X62837637Y-47835715D01*
X62830639Y-47807778D01*
X62826413Y-47779289D01*
X62825000Y-47750523D01*
X62825000Y-46737477D01*
X62826413Y-46708711D01*
X62830639Y-46680222D01*
X62837637Y-46652285D01*
X62847340Y-46625168D01*
X62859653Y-46599133D01*
X62874460Y-46574430D01*
X62891616Y-46551297D01*
X62910957Y-46529957D01*
X62932297Y-46510616D01*
X62955430Y-46493460D01*
X62980133Y-46478653D01*
X63006168Y-46466340D01*
X63033285Y-46456637D01*
X63061222Y-46449639D01*
X63089711Y-46445413D01*
X63118477Y-46444000D01*
X63881523Y-46444000D01*
X63910289Y-46445413D01*
X63910289Y-46445413D01*
G37*
D13*
X63500000Y-47244000D03*
D12*
G36*
X65960289Y-46445413D02*
X65988778Y-46449639D01*
X66016715Y-46456637D01*
X66043832Y-46466340D01*
X66069867Y-46478653D01*
X66094570Y-46493460D01*
X66117703Y-46510616D01*
X66139043Y-46529957D01*
X66158384Y-46551297D01*
X66175540Y-46574430D01*
X66190347Y-46599133D01*
X66202660Y-46625168D01*
X66212363Y-46652285D01*
X66219361Y-46680222D01*
X66223587Y-46708711D01*
X66225000Y-46737477D01*
X66225000Y-47750523D01*
X66223587Y-47779289D01*
X66219361Y-47807778D01*
X66212363Y-47835715D01*
X66202660Y-47862832D01*
X66190347Y-47888867D01*
X66175540Y-47913570D01*
X66158384Y-47936703D01*
X66139043Y-47958043D01*
X66117703Y-47977384D01*
X66094570Y-47994540D01*
X66069867Y-48009347D01*
X66043832Y-48021660D01*
X66016715Y-48031363D01*
X65988778Y-48038361D01*
X65960289Y-48042587D01*
X65931523Y-48044000D01*
X65168477Y-48044000D01*
X65139711Y-48042587D01*
X65111222Y-48038361D01*
X65083285Y-48031363D01*
X65056168Y-48021660D01*
X65030133Y-48009347D01*
X65005430Y-47994540D01*
X64982297Y-47977384D01*
X64960957Y-47958043D01*
X64941616Y-47936703D01*
X64924460Y-47913570D01*
X64909653Y-47888867D01*
X64897340Y-47862832D01*
X64887637Y-47835715D01*
X64880639Y-47807778D01*
X64876413Y-47779289D01*
X64875000Y-47750523D01*
X64875000Y-46737477D01*
X64876413Y-46708711D01*
X64880639Y-46680222D01*
X64887637Y-46652285D01*
X64897340Y-46625168D01*
X64909653Y-46599133D01*
X64924460Y-46574430D01*
X64941616Y-46551297D01*
X64960957Y-46529957D01*
X64982297Y-46510616D01*
X65005430Y-46493460D01*
X65030133Y-46478653D01*
X65056168Y-46466340D01*
X65083285Y-46456637D01*
X65111222Y-46449639D01*
X65139711Y-46445413D01*
X65168477Y-46444000D01*
X65931523Y-46444000D01*
X65960289Y-46445413D01*
X65960289Y-46445413D01*
G37*
D13*
X65550000Y-47244000D03*
G04 #@! TD*
D14*
G04 #@! TO.C,RN1*
X84525000Y-44820000D03*
D15*
X86125000Y-44820000D03*
X85325000Y-44820000D03*
D14*
X86925000Y-44820000D03*
D15*
X85325000Y-46620000D03*
D14*
X84525000Y-46620000D03*
D15*
X86125000Y-46620000D03*
D14*
X86925000Y-46620000D03*
G04 #@! TD*
D16*
G04 #@! TO.C,JP2*
X63724000Y-49784000D03*
X65024000Y-49784000D03*
G04 #@! TD*
D12*
G04 #@! TO.C,C1*
G36*
X63910289Y-44413413D02*
X63938778Y-44417639D01*
X63966715Y-44424637D01*
X63993832Y-44434340D01*
X64019867Y-44446653D01*
X64044570Y-44461460D01*
X64067703Y-44478616D01*
X64089043Y-44497957D01*
X64108384Y-44519297D01*
X64125540Y-44542430D01*
X64140347Y-44567133D01*
X64152660Y-44593168D01*
X64162363Y-44620285D01*
X64169361Y-44648222D01*
X64173587Y-44676711D01*
X64175000Y-44705477D01*
X64175000Y-45718523D01*
X64173587Y-45747289D01*
X64169361Y-45775778D01*
X64162363Y-45803715D01*
X64152660Y-45830832D01*
X64140347Y-45856867D01*
X64125540Y-45881570D01*
X64108384Y-45904703D01*
X64089043Y-45926043D01*
X64067703Y-45945384D01*
X64044570Y-45962540D01*
X64019867Y-45977347D01*
X63993832Y-45989660D01*
X63966715Y-45999363D01*
X63938778Y-46006361D01*
X63910289Y-46010587D01*
X63881523Y-46012000D01*
X63118477Y-46012000D01*
X63089711Y-46010587D01*
X63061222Y-46006361D01*
X63033285Y-45999363D01*
X63006168Y-45989660D01*
X62980133Y-45977347D01*
X62955430Y-45962540D01*
X62932297Y-45945384D01*
X62910957Y-45926043D01*
X62891616Y-45904703D01*
X62874460Y-45881570D01*
X62859653Y-45856867D01*
X62847340Y-45830832D01*
X62837637Y-45803715D01*
X62830639Y-45775778D01*
X62826413Y-45747289D01*
X62825000Y-45718523D01*
X62825000Y-44705477D01*
X62826413Y-44676711D01*
X62830639Y-44648222D01*
X62837637Y-44620285D01*
X62847340Y-44593168D01*
X62859653Y-44567133D01*
X62874460Y-44542430D01*
X62891616Y-44519297D01*
X62910957Y-44497957D01*
X62932297Y-44478616D01*
X62955430Y-44461460D01*
X62980133Y-44446653D01*
X63006168Y-44434340D01*
X63033285Y-44424637D01*
X63061222Y-44417639D01*
X63089711Y-44413413D01*
X63118477Y-44412000D01*
X63881523Y-44412000D01*
X63910289Y-44413413D01*
X63910289Y-44413413D01*
G37*
D13*
X63500000Y-45212000D03*
D12*
G36*
X65960289Y-44413413D02*
X65988778Y-44417639D01*
X66016715Y-44424637D01*
X66043832Y-44434340D01*
X66069867Y-44446653D01*
X66094570Y-44461460D01*
X66117703Y-44478616D01*
X66139043Y-44497957D01*
X66158384Y-44519297D01*
X66175540Y-44542430D01*
X66190347Y-44567133D01*
X66202660Y-44593168D01*
X66212363Y-44620285D01*
X66219361Y-44648222D01*
X66223587Y-44676711D01*
X66225000Y-44705477D01*
X66225000Y-45718523D01*
X66223587Y-45747289D01*
X66219361Y-45775778D01*
X66212363Y-45803715D01*
X66202660Y-45830832D01*
X66190347Y-45856867D01*
X66175540Y-45881570D01*
X66158384Y-45904703D01*
X66139043Y-45926043D01*
X66117703Y-45945384D01*
X66094570Y-45962540D01*
X66069867Y-45977347D01*
X66043832Y-45989660D01*
X66016715Y-45999363D01*
X65988778Y-46006361D01*
X65960289Y-46010587D01*
X65931523Y-46012000D01*
X65168477Y-46012000D01*
X65139711Y-46010587D01*
X65111222Y-46006361D01*
X65083285Y-45999363D01*
X65056168Y-45989660D01*
X65030133Y-45977347D01*
X65005430Y-45962540D01*
X64982297Y-45945384D01*
X64960957Y-45926043D01*
X64941616Y-45904703D01*
X64924460Y-45881570D01*
X64909653Y-45856867D01*
X64897340Y-45830832D01*
X64887637Y-45803715D01*
X64880639Y-45775778D01*
X64876413Y-45747289D01*
X64875000Y-45718523D01*
X64875000Y-44705477D01*
X64876413Y-44676711D01*
X64880639Y-44648222D01*
X64887637Y-44620285D01*
X64897340Y-44593168D01*
X64909653Y-44567133D01*
X64924460Y-44542430D01*
X64941616Y-44519297D01*
X64960957Y-44497957D01*
X64982297Y-44478616D01*
X65005430Y-44461460D01*
X65030133Y-44446653D01*
X65056168Y-44434340D01*
X65083285Y-44424637D01*
X65111222Y-44417639D01*
X65139711Y-44413413D01*
X65168477Y-44412000D01*
X65931523Y-44412000D01*
X65960289Y-44413413D01*
X65960289Y-44413413D01*
G37*
D13*
X65550000Y-45212000D03*
G04 #@! TD*
D12*
G04 #@! TO.C,R3*
G36*
X63910289Y-42381413D02*
X63938778Y-42385639D01*
X63966715Y-42392637D01*
X63993832Y-42402340D01*
X64019867Y-42414653D01*
X64044570Y-42429460D01*
X64067703Y-42446616D01*
X64089043Y-42465957D01*
X64108384Y-42487297D01*
X64125540Y-42510430D01*
X64140347Y-42535133D01*
X64152660Y-42561168D01*
X64162363Y-42588285D01*
X64169361Y-42616222D01*
X64173587Y-42644711D01*
X64175000Y-42673477D01*
X64175000Y-43686523D01*
X64173587Y-43715289D01*
X64169361Y-43743778D01*
X64162363Y-43771715D01*
X64152660Y-43798832D01*
X64140347Y-43824867D01*
X64125540Y-43849570D01*
X64108384Y-43872703D01*
X64089043Y-43894043D01*
X64067703Y-43913384D01*
X64044570Y-43930540D01*
X64019867Y-43945347D01*
X63993832Y-43957660D01*
X63966715Y-43967363D01*
X63938778Y-43974361D01*
X63910289Y-43978587D01*
X63881523Y-43980000D01*
X63118477Y-43980000D01*
X63089711Y-43978587D01*
X63061222Y-43974361D01*
X63033285Y-43967363D01*
X63006168Y-43957660D01*
X62980133Y-43945347D01*
X62955430Y-43930540D01*
X62932297Y-43913384D01*
X62910957Y-43894043D01*
X62891616Y-43872703D01*
X62874460Y-43849570D01*
X62859653Y-43824867D01*
X62847340Y-43798832D01*
X62837637Y-43771715D01*
X62830639Y-43743778D01*
X62826413Y-43715289D01*
X62825000Y-43686523D01*
X62825000Y-42673477D01*
X62826413Y-42644711D01*
X62830639Y-42616222D01*
X62837637Y-42588285D01*
X62847340Y-42561168D01*
X62859653Y-42535133D01*
X62874460Y-42510430D01*
X62891616Y-42487297D01*
X62910957Y-42465957D01*
X62932297Y-42446616D01*
X62955430Y-42429460D01*
X62980133Y-42414653D01*
X63006168Y-42402340D01*
X63033285Y-42392637D01*
X63061222Y-42385639D01*
X63089711Y-42381413D01*
X63118477Y-42380000D01*
X63881523Y-42380000D01*
X63910289Y-42381413D01*
X63910289Y-42381413D01*
G37*
D13*
X63500000Y-43180000D03*
D12*
G36*
X65960289Y-42381413D02*
X65988778Y-42385639D01*
X66016715Y-42392637D01*
X66043832Y-42402340D01*
X66069867Y-42414653D01*
X66094570Y-42429460D01*
X66117703Y-42446616D01*
X66139043Y-42465957D01*
X66158384Y-42487297D01*
X66175540Y-42510430D01*
X66190347Y-42535133D01*
X66202660Y-42561168D01*
X66212363Y-42588285D01*
X66219361Y-42616222D01*
X66223587Y-42644711D01*
X66225000Y-42673477D01*
X66225000Y-43686523D01*
X66223587Y-43715289D01*
X66219361Y-43743778D01*
X66212363Y-43771715D01*
X66202660Y-43798832D01*
X66190347Y-43824867D01*
X66175540Y-43849570D01*
X66158384Y-43872703D01*
X66139043Y-43894043D01*
X66117703Y-43913384D01*
X66094570Y-43930540D01*
X66069867Y-43945347D01*
X66043832Y-43957660D01*
X66016715Y-43967363D01*
X65988778Y-43974361D01*
X65960289Y-43978587D01*
X65931523Y-43980000D01*
X65168477Y-43980000D01*
X65139711Y-43978587D01*
X65111222Y-43974361D01*
X65083285Y-43967363D01*
X65056168Y-43957660D01*
X65030133Y-43945347D01*
X65005430Y-43930540D01*
X64982297Y-43913384D01*
X64960957Y-43894043D01*
X64941616Y-43872703D01*
X64924460Y-43849570D01*
X64909653Y-43824867D01*
X64897340Y-43798832D01*
X64887637Y-43771715D01*
X64880639Y-43743778D01*
X64876413Y-43715289D01*
X64875000Y-43686523D01*
X64875000Y-42673477D01*
X64876413Y-42644711D01*
X64880639Y-42616222D01*
X64887637Y-42588285D01*
X64897340Y-42561168D01*
X64909653Y-42535133D01*
X64924460Y-42510430D01*
X64941616Y-42487297D01*
X64960957Y-42465957D01*
X64982297Y-42446616D01*
X65005430Y-42429460D01*
X65030133Y-42414653D01*
X65056168Y-42402340D01*
X65083285Y-42392637D01*
X65111222Y-42385639D01*
X65139711Y-42381413D01*
X65168477Y-42380000D01*
X65931523Y-42380000D01*
X65960289Y-42381413D01*
X65960289Y-42381413D01*
G37*
D13*
X65550000Y-43180000D03*
G04 #@! TD*
D17*
G04 #@! TO.C,J4*
X81280000Y-53340000D03*
D18*
X78740000Y-53340000D03*
X76200000Y-53340000D03*
X73660000Y-53340000D03*
X71120000Y-53340000D03*
X68580000Y-53340000D03*
X66040000Y-53340000D03*
X63500000Y-53340000D03*
G04 #@! TD*
D17*
G04 #@! TO.C,J3*
X86360000Y-53340000D03*
G04 #@! TD*
G04 #@! TO.C,J1*
X63500000Y-38100000D03*
G04 #@! TD*
D19*
G04 #@! TO.C,U1*
X76200000Y-41910000D03*
X78740000Y-41910000D03*
X81280000Y-41910000D03*
X83820000Y-41910000D03*
X86360000Y-41910000D03*
X86360000Y-49530000D03*
X83820000Y-49530000D03*
X81280000Y-49530000D03*
X78740000Y-49530000D03*
D20*
X76200000Y-49530000D03*
G04 #@! TD*
D17*
G04 #@! TO.C,J2*
X86360000Y-38100000D03*
D18*
X83820000Y-38100000D03*
X81280000Y-38100000D03*
X78740000Y-38100000D03*
X76200000Y-38100000D03*
X73660000Y-38100000D03*
X71120000Y-38100000D03*
X68580000Y-38100000D03*
G04 #@! TD*
M02*
