G04 #@! TF.GenerationSoftware,KiCad,Pcbnew,(5.0.0)*
G04 #@! TF.CreationDate,2019-08-19T15:41:53-04:00*
G04 #@! TF.ProjectId,7segment,377365676D656E742E6B696361645F70,B*
G04 #@! TF.SameCoordinates,Original*
G04 #@! TF.FileFunction,Legend,Top*
G04 #@! TF.FilePolarity,Positive*
%FSLAX46Y46*%
G04 Gerber Fmt 4.6, Leading zero omitted, Abs format (unit mm)*
G04 Created by KiCad (PCBNEW (5.0.0)) date 08/19/19 15:41:53*
%MOMM*%
%LPD*%
G01*
G04 APERTURE LIST*
%ADD10C,0.200000*%
%ADD11C,0.100000*%
%ADD12C,0.120000*%
%ADD13C,0.150000*%
G04 APERTURE END LIST*
D10*
X80010000Y-39370000D02*
X80010000Y-35941000D01*
X82550000Y-39370000D02*
X82550000Y-35941000D01*
X85090000Y-39370000D02*
X85090000Y-35941000D01*
X87630000Y-39370000D02*
X87630000Y-35941000D01*
X90170000Y-39370000D02*
X90170000Y-35941000D01*
X92710000Y-39370000D02*
X92710000Y-35941000D01*
X95250000Y-39370000D02*
X95250000Y-36068000D01*
X97790000Y-39370000D02*
X97790000Y-35941000D01*
X100330000Y-39370000D02*
X100330000Y-35941000D01*
X102870000Y-39370000D02*
X102870000Y-36195000D01*
X77470000Y-39370000D02*
X102870000Y-39370000D01*
X77470000Y-35941000D02*
X77470000Y-39370000D01*
X80010000Y-52070000D02*
X80010000Y-55499000D01*
X82550000Y-52070000D02*
X82550000Y-55499000D01*
X85090000Y-52070000D02*
X85090000Y-55499000D01*
X87630000Y-52070000D02*
X87630000Y-55499000D01*
X90170000Y-52070000D02*
X90170000Y-55499000D01*
X92710000Y-52070000D02*
X92710000Y-55499000D01*
X95250000Y-52070000D02*
X95250000Y-55499000D01*
X97790000Y-52070000D02*
X97790000Y-55499000D01*
X100330000Y-52070000D02*
X100330000Y-55499000D01*
X102870000Y-52070000D02*
X102870000Y-55245000D01*
X77470000Y-52070000D02*
X102870000Y-52070000D01*
X77470000Y-55499000D02*
X77470000Y-52070000D01*
D11*
X81527619Y-36937904D02*
X81146666Y-36937904D01*
X81146666Y-36137904D01*
X81527619Y-55225904D02*
X81146666Y-55225904D01*
X81146666Y-54425904D01*
X78130476Y-54464000D02*
X78054285Y-54425904D01*
X77940000Y-54425904D01*
X77825714Y-54464000D01*
X77749523Y-54540190D01*
X77711428Y-54616380D01*
X77673333Y-54768761D01*
X77673333Y-54883047D01*
X77711428Y-55035428D01*
X77749523Y-55111619D01*
X77825714Y-55187809D01*
X77940000Y-55225904D01*
X78016190Y-55225904D01*
X78130476Y-55187809D01*
X78168571Y-55149714D01*
X78168571Y-54883047D01*
X78016190Y-54883047D01*
X78511428Y-55225904D02*
X78511428Y-54425904D01*
X78968571Y-55225904D01*
X78968571Y-54425904D01*
X79349523Y-55225904D02*
X79349523Y-54425904D01*
X79540000Y-54425904D01*
X79654285Y-54464000D01*
X79730476Y-54540190D01*
X79768571Y-54616380D01*
X79806666Y-54768761D01*
X79806666Y-54883047D01*
X79768571Y-55035428D01*
X79730476Y-55111619D01*
X79654285Y-55187809D01*
X79540000Y-55225904D01*
X79349523Y-55225904D01*
X91592380Y-54692571D02*
X91592380Y-55225904D01*
X91401904Y-54387809D02*
X91211428Y-54959238D01*
X91706666Y-54959238D01*
X99288571Y-55225904D02*
X98831428Y-55225904D01*
X99060000Y-55225904D02*
X99060000Y-54425904D01*
X98983809Y-54540190D01*
X98907619Y-54616380D01*
X98831428Y-54654476D01*
X93713333Y-54425904D02*
X94208571Y-54425904D01*
X93941904Y-54730666D01*
X94056190Y-54730666D01*
X94132380Y-54768761D01*
X94170476Y-54806857D01*
X94208571Y-54883047D01*
X94208571Y-55073523D01*
X94170476Y-55149714D01*
X94132380Y-55187809D01*
X94056190Y-55225904D01*
X93827619Y-55225904D01*
X93751428Y-55187809D01*
X93713333Y-55149714D01*
X101561904Y-54425904D02*
X101638095Y-54425904D01*
X101714285Y-54464000D01*
X101752380Y-54502095D01*
X101790476Y-54578285D01*
X101828571Y-54730666D01*
X101828571Y-54921142D01*
X101790476Y-55073523D01*
X101752380Y-55149714D01*
X101714285Y-55187809D01*
X101638095Y-55225904D01*
X101561904Y-55225904D01*
X101485714Y-55187809D01*
X101447619Y-55149714D01*
X101409523Y-55073523D01*
X101371428Y-54921142D01*
X101371428Y-54730666D01*
X101409523Y-54578285D01*
X101447619Y-54502095D01*
X101485714Y-54464000D01*
X101561904Y-54425904D01*
X83553333Y-54425904D02*
X84086666Y-54425904D01*
X83743809Y-55225904D01*
X96291428Y-54502095D02*
X96329523Y-54464000D01*
X96405714Y-54425904D01*
X96596190Y-54425904D01*
X96672380Y-54464000D01*
X96710476Y-54502095D01*
X96748571Y-54578285D01*
X96748571Y-54654476D01*
X96710476Y-54768761D01*
X96253333Y-55225904D01*
X96748571Y-55225904D01*
X86512380Y-54425904D02*
X86360000Y-54425904D01*
X86283809Y-54464000D01*
X86245714Y-54502095D01*
X86169523Y-54616380D01*
X86131428Y-54768761D01*
X86131428Y-55073523D01*
X86169523Y-55149714D01*
X86207619Y-55187809D01*
X86283809Y-55225904D01*
X86436190Y-55225904D01*
X86512380Y-55187809D01*
X86550476Y-55149714D01*
X86588571Y-55073523D01*
X86588571Y-54883047D01*
X86550476Y-54806857D01*
X86512380Y-54768761D01*
X86436190Y-54730666D01*
X86283809Y-54730666D01*
X86207619Y-54768761D01*
X86169523Y-54806857D01*
X86131428Y-54883047D01*
X89090476Y-54425904D02*
X88709523Y-54425904D01*
X88671428Y-54806857D01*
X88709523Y-54768761D01*
X88785714Y-54730666D01*
X88976190Y-54730666D01*
X89052380Y-54768761D01*
X89090476Y-54806857D01*
X89128571Y-54883047D01*
X89128571Y-55073523D01*
X89090476Y-55149714D01*
X89052380Y-55187809D01*
X88976190Y-55225904D01*
X88785714Y-55225904D01*
X88709523Y-55187809D01*
X88671428Y-55149714D01*
X83553333Y-36137904D02*
X84086666Y-36137904D01*
X83743809Y-36937904D01*
X86512380Y-36137904D02*
X86360000Y-36137904D01*
X86283809Y-36176000D01*
X86245714Y-36214095D01*
X86169523Y-36328380D01*
X86131428Y-36480761D01*
X86131428Y-36785523D01*
X86169523Y-36861714D01*
X86207619Y-36899809D01*
X86283809Y-36937904D01*
X86436190Y-36937904D01*
X86512380Y-36899809D01*
X86550476Y-36861714D01*
X86588571Y-36785523D01*
X86588571Y-36595047D01*
X86550476Y-36518857D01*
X86512380Y-36480761D01*
X86436190Y-36442666D01*
X86283809Y-36442666D01*
X86207619Y-36480761D01*
X86169523Y-36518857D01*
X86131428Y-36595047D01*
X89090476Y-36137904D02*
X88709523Y-36137904D01*
X88671428Y-36518857D01*
X88709523Y-36480761D01*
X88785714Y-36442666D01*
X88976190Y-36442666D01*
X89052380Y-36480761D01*
X89090476Y-36518857D01*
X89128571Y-36595047D01*
X89128571Y-36785523D01*
X89090476Y-36861714D01*
X89052380Y-36899809D01*
X88976190Y-36937904D01*
X88785714Y-36937904D01*
X88709523Y-36899809D01*
X88671428Y-36861714D01*
X91592380Y-36404571D02*
X91592380Y-36937904D01*
X91401904Y-36099809D02*
X91211428Y-36671238D01*
X91706666Y-36671238D01*
X93713333Y-36137904D02*
X94208571Y-36137904D01*
X93941904Y-36442666D01*
X94056190Y-36442666D01*
X94132380Y-36480761D01*
X94170476Y-36518857D01*
X94208571Y-36595047D01*
X94208571Y-36785523D01*
X94170476Y-36861714D01*
X94132380Y-36899809D01*
X94056190Y-36937904D01*
X93827619Y-36937904D01*
X93751428Y-36899809D01*
X93713333Y-36861714D01*
X96291428Y-36214095D02*
X96329523Y-36176000D01*
X96405714Y-36137904D01*
X96596190Y-36137904D01*
X96672380Y-36176000D01*
X96710476Y-36214095D01*
X96748571Y-36290285D01*
X96748571Y-36366476D01*
X96710476Y-36480761D01*
X96253333Y-36937904D01*
X96748571Y-36937904D01*
X99288571Y-36937904D02*
X98831428Y-36937904D01*
X99060000Y-36937904D02*
X99060000Y-36137904D01*
X98983809Y-36252190D01*
X98907619Y-36328380D01*
X98831428Y-36366476D01*
X101561904Y-36137904D02*
X101638095Y-36137904D01*
X101714285Y-36176000D01*
X101752380Y-36214095D01*
X101790476Y-36290285D01*
X101828571Y-36442666D01*
X101828571Y-36633142D01*
X101790476Y-36785523D01*
X101752380Y-36861714D01*
X101714285Y-36899809D01*
X101638095Y-36937904D01*
X101561904Y-36937904D01*
X101485714Y-36899809D01*
X101447619Y-36861714D01*
X101409523Y-36785523D01*
X101371428Y-36633142D01*
X101371428Y-36442666D01*
X101409523Y-36290285D01*
X101447619Y-36214095D01*
X101485714Y-36176000D01*
X101561904Y-36137904D01*
X78587619Y-36137904D02*
X78206666Y-36137904D01*
X78168571Y-36518857D01*
X78206666Y-36480761D01*
X78282857Y-36442666D01*
X78473333Y-36442666D01*
X78549523Y-36480761D01*
X78587619Y-36518857D01*
X78625714Y-36595047D01*
X78625714Y-36785523D01*
X78587619Y-36861714D01*
X78549523Y-36899809D01*
X78473333Y-36937904D01*
X78282857Y-36937904D01*
X78206666Y-36899809D01*
X78168571Y-36861714D01*
X78854285Y-36137904D02*
X79120952Y-36937904D01*
X79387619Y-36137904D01*
D12*
G04 #@! TO.C,U1*
X73406000Y-51054000D02*
X73406000Y-49530000D01*
X75036000Y-51054000D02*
X73406000Y-51054000D01*
D13*
X73660000Y-40640000D02*
X73660000Y-50800000D01*
X73660000Y-50800000D02*
X88900000Y-50800000D01*
X88900000Y-50800000D02*
X88900000Y-40640000D01*
X88900000Y-40640000D02*
X73660000Y-40640000D01*
D12*
G04 #@! TO.C,JP2*
X69910000Y-41970000D02*
X69910000Y-39310000D01*
X64770000Y-41970000D02*
X69910000Y-41970000D01*
X64770000Y-39310000D02*
X69910000Y-39310000D01*
X64770000Y-41970000D02*
X64770000Y-39310000D01*
X63500000Y-41970000D02*
X62170000Y-41970000D01*
X62170000Y-41970000D02*
X62170000Y-40640000D01*
G04 #@! TO.C,RN1*
X78515000Y-45220000D02*
X78515000Y-46220000D01*
X75155000Y-45220000D02*
X75155000Y-46220000D01*
G04 #@! TO.C,RN2*
X82325000Y-46220000D02*
X82325000Y-45220000D01*
X78965000Y-46220000D02*
X78965000Y-45220000D01*
D13*
G04 #@! TO.C,U2*
X62183476Y-48260000D02*
X62342575Y-48419099D01*
X67310000Y-43133476D02*
X67539810Y-43363286D01*
X72436524Y-48260000D02*
X72206714Y-48030190D01*
X67310000Y-53386524D02*
X67080190Y-53156714D01*
X62183476Y-48260000D02*
X62413286Y-48030190D01*
X67310000Y-53386524D02*
X67539810Y-53156714D01*
X72436524Y-48260000D02*
X72206714Y-48489810D01*
X67310000Y-43133476D02*
X67080190Y-43363286D01*
X62342575Y-48419099D02*
X61334948Y-49426726D01*
D12*
G04 #@! TO.C,JP1*
X69910000Y-39430000D02*
X69910000Y-36770000D01*
X64770000Y-39430000D02*
X69910000Y-39430000D01*
X64770000Y-36770000D02*
X69910000Y-36770000D01*
X64770000Y-39430000D02*
X64770000Y-36770000D01*
X63500000Y-39430000D02*
X62170000Y-39430000D01*
X62170000Y-39430000D02*
X62170000Y-38100000D01*
D13*
G04 #@! TO.C,U3*
X104140000Y-40640000D02*
X88900000Y-40640000D01*
X104140000Y-50800000D02*
X104140000Y-40640000D01*
X88900000Y-50800000D02*
X104140000Y-50800000D01*
X88900000Y-40640000D02*
X88900000Y-50800000D01*
D12*
X90276000Y-51054000D02*
X88646000Y-51054000D01*
X88646000Y-51054000D02*
X88646000Y-49530000D01*
G04 #@! TO.C,JP2*
D11*
X61156904Y-41306666D02*
X61728333Y-41306666D01*
X61842619Y-41344761D01*
X61918809Y-41420952D01*
X61956904Y-41535238D01*
X61956904Y-41611428D01*
X61956904Y-40925714D02*
X61156904Y-40925714D01*
X61156904Y-40620952D01*
X61195000Y-40544761D01*
X61233095Y-40506666D01*
X61309285Y-40468571D01*
X61423571Y-40468571D01*
X61499761Y-40506666D01*
X61537857Y-40544761D01*
X61575952Y-40620952D01*
X61575952Y-40925714D01*
X61233095Y-40163809D02*
X61195000Y-40125714D01*
X61156904Y-40049523D01*
X61156904Y-39859047D01*
X61195000Y-39782857D01*
X61233095Y-39744761D01*
X61309285Y-39706666D01*
X61385476Y-39706666D01*
X61499761Y-39744761D01*
X61956904Y-40201904D01*
X61956904Y-39706666D01*
G04 #@! TO.C,JP1*
X61156904Y-38766666D02*
X61728333Y-38766666D01*
X61842619Y-38804761D01*
X61918809Y-38880952D01*
X61956904Y-38995238D01*
X61956904Y-39071428D01*
X61956904Y-38385714D02*
X61156904Y-38385714D01*
X61156904Y-38080952D01*
X61195000Y-38004761D01*
X61233095Y-37966666D01*
X61309285Y-37928571D01*
X61423571Y-37928571D01*
X61499761Y-37966666D01*
X61537857Y-38004761D01*
X61575952Y-38080952D01*
X61575952Y-38385714D01*
X61956904Y-37166666D02*
X61956904Y-37623809D01*
X61956904Y-37395238D02*
X61156904Y-37395238D01*
X61271190Y-37471428D01*
X61347380Y-37547619D01*
X61385476Y-37623809D01*
G04 #@! TD*
M02*
