M48
;DRILL file {KiCad (5.0.0)} date 07/22/19 19:17:58
;FORMAT={-:-/ absolute / inch / decimal}
FMAT,2
INCH,TZ
T1C0.0118
T2C0.0157
T3C0.0315
T4C0.0394
%
G90
G05
M72
T1
X2.375Y-2.2
X2.45Y-1.65
X2.5Y-1.925
X2.57Y-1.435
X2.575Y-1.5
X2.575Y-2.0689
X2.5771Y-1.5521
X2.6Y-1.815
X2.6Y-1.93
X2.6Y-2.05
X2.63Y-1.9307
X2.65Y-2.0453
X2.69Y-1.72
X2.79Y-1.64
X3.09Y-1.57
X3.18Y-1.57
X3.28Y-1.57
T2
X2.3766Y-1.85
X2.4Y-2.15
X2.55Y-1.725
X2.65Y-1.725
X2.84Y-1.82
X2.84Y-2.01
T3
X3.Y-1.7
X3.Y-2.
X3.1Y-1.7
X3.1Y-2.
X3.2Y-1.7
X3.2Y-2.
X3.3Y-1.7
X3.3Y-2.
X3.4Y-1.7
X3.4Y-2.
T4
X3.4Y-2.2
X2.7Y-1.5
X2.8Y-1.5
X2.9Y-1.5
X3.Y-1.5
X3.1Y-1.5
X3.2Y-1.5
X3.3Y-1.5
X3.4Y-1.5
X2.5Y-1.5
X2.5Y-2.2
X2.6Y-2.2
X2.7Y-2.2
X2.8Y-2.2
X2.9Y-2.2
X3.Y-2.2
X3.1Y-2.2
X3.2Y-2.2
T0
M30
