G04 #@! TF.GenerationSoftware,KiCad,Pcbnew,(5.0.0)*
G04 #@! TF.CreationDate,2019-08-19T15:41:53-04:00*
G04 #@! TF.ProjectId,7segment,377365676D656E742E6B696361645F70,B*
G04 #@! TF.SameCoordinates,Original*
G04 #@! TF.FileFunction,Legend,Bot*
G04 #@! TF.FilePolarity,Positive*
%FSLAX46Y46*%
G04 Gerber Fmt 4.6, Leading zero omitted, Abs format (unit mm)*
G04 Created by KiCad (PCBNEW (5.0.0)) date 08/19/19 15:41:53*
%MOMM*%
%LPD*%
G01*
G04 APERTURE LIST*
%ADD10C,0.140000*%
%ADD11C,0.120000*%
%ADD12C,0.200000*%
%ADD13C,0.100000*%
G04 APERTURE END LIST*
D10*
X79540000Y-39676428D02*
X79340000Y-40276428D01*
X79140000Y-39676428D01*
X78597142Y-40219285D02*
X78625714Y-40247857D01*
X78711428Y-40276428D01*
X78768571Y-40276428D01*
X78854285Y-40247857D01*
X78911428Y-40190714D01*
X78940000Y-40133571D01*
X78968571Y-40019285D01*
X78968571Y-39933571D01*
X78940000Y-39819285D01*
X78911428Y-39762142D01*
X78854285Y-39705000D01*
X78768571Y-39676428D01*
X78711428Y-39676428D01*
X78625714Y-39705000D01*
X78597142Y-39733571D01*
X77997142Y-40219285D02*
X78025714Y-40247857D01*
X78111428Y-40276428D01*
X78168571Y-40276428D01*
X78254285Y-40247857D01*
X78311428Y-40190714D01*
X78340000Y-40133571D01*
X78368571Y-40019285D01*
X78368571Y-39933571D01*
X78340000Y-39819285D01*
X78311428Y-39762142D01*
X78254285Y-39705000D01*
X78168571Y-39676428D01*
X78111428Y-39676428D01*
X78025714Y-39705000D01*
X77997142Y-39733571D01*
X79197142Y-51262000D02*
X79254285Y-51233428D01*
X79340000Y-51233428D01*
X79425714Y-51262000D01*
X79482857Y-51319142D01*
X79511428Y-51376285D01*
X79540000Y-51490571D01*
X79540000Y-51576285D01*
X79511428Y-51690571D01*
X79482857Y-51747714D01*
X79425714Y-51804857D01*
X79340000Y-51833428D01*
X79282857Y-51833428D01*
X79197142Y-51804857D01*
X79168571Y-51776285D01*
X79168571Y-51576285D01*
X79282857Y-51576285D01*
X78911428Y-51833428D02*
X78911428Y-51233428D01*
X78568571Y-51833428D01*
X78568571Y-51233428D01*
X78282857Y-51833428D02*
X78282857Y-51233428D01*
X78140000Y-51233428D01*
X78054285Y-51262000D01*
X77997142Y-51319142D01*
X77968571Y-51376285D01*
X77940000Y-51490571D01*
X77940000Y-51576285D01*
X77968571Y-51690571D01*
X77997142Y-51747714D01*
X78054285Y-51804857D01*
X78140000Y-51833428D01*
X78282857Y-51833428D01*
D11*
X102484714Y-45479428D02*
X102827571Y-45479428D01*
X102656143Y-45479428D02*
X102656143Y-44879428D01*
X102713285Y-44965142D01*
X102770428Y-45022285D01*
X102827571Y-45050857D01*
X102227571Y-45250857D02*
X101770428Y-45250857D01*
X101513285Y-44936571D02*
X101484714Y-44908000D01*
X101427571Y-44879428D01*
X101284714Y-44879428D01*
X101227571Y-44908000D01*
X101199000Y-44936571D01*
X101170428Y-44993714D01*
X101170428Y-45050857D01*
X101199000Y-45136571D01*
X101541857Y-45479428D01*
X101170428Y-45479428D01*
X102827571Y-45956571D02*
X102799000Y-45928000D01*
X102741857Y-45899428D01*
X102599000Y-45899428D01*
X102541857Y-45928000D01*
X102513285Y-45956571D01*
X102484714Y-46013714D01*
X102484714Y-46070857D01*
X102513285Y-46156571D01*
X102856143Y-46499428D01*
X102484714Y-46499428D01*
X102227571Y-46270857D02*
X101770428Y-46270857D01*
X101541857Y-45899428D02*
X101170428Y-45899428D01*
X101370428Y-46128000D01*
X101284714Y-46128000D01*
X101227571Y-46156571D01*
X101199000Y-46185142D01*
X101170428Y-46242285D01*
X101170428Y-46385142D01*
X101199000Y-46442285D01*
X101227571Y-46470857D01*
X101284714Y-46499428D01*
X101456143Y-46499428D01*
X101513285Y-46470857D01*
X101541857Y-46442285D01*
X102456143Y-46919428D02*
X102341857Y-46919428D01*
X102284714Y-46948000D01*
X102227571Y-47005142D01*
X102199000Y-47119428D01*
X102199000Y-47319428D01*
X102227571Y-47433714D01*
X102284714Y-47490857D01*
X102341857Y-47519428D01*
X102456143Y-47519428D01*
X102513285Y-47490857D01*
X102570428Y-47433714D01*
X102599000Y-47319428D01*
X102599000Y-47119428D01*
X102570428Y-47005142D01*
X102513285Y-46948000D01*
X102456143Y-46919428D01*
X101741857Y-47205142D02*
X101941857Y-47205142D01*
X101941857Y-47519428D02*
X101941857Y-46919428D01*
X101656143Y-46919428D01*
X101227571Y-47205142D02*
X101427571Y-47205142D01*
X101427571Y-47519428D02*
X101427571Y-46919428D01*
X101141857Y-46919428D01*
X89421428Y-45479428D02*
X89707142Y-45479428D01*
X89707142Y-44879428D01*
X89250000Y-45308000D02*
X88964285Y-45308000D01*
X89307142Y-45479428D02*
X89107142Y-44879428D01*
X88907142Y-45479428D01*
X88792857Y-44879428D02*
X88450000Y-44879428D01*
X88621428Y-45479428D02*
X88621428Y-44879428D01*
X87907142Y-45422285D02*
X87935714Y-45450857D01*
X88021428Y-45479428D01*
X88078571Y-45479428D01*
X88164285Y-45450857D01*
X88221428Y-45393714D01*
X88250000Y-45336571D01*
X88278571Y-45222285D01*
X88278571Y-45136571D01*
X88250000Y-45022285D01*
X88221428Y-44965142D01*
X88164285Y-44908000D01*
X88078571Y-44879428D01*
X88021428Y-44879428D01*
X87935714Y-44908000D01*
X87907142Y-44936571D01*
X87650000Y-45479428D02*
X87650000Y-44879428D01*
X87650000Y-45165142D02*
X87307142Y-45165142D01*
X87307142Y-45479428D02*
X87307142Y-44879428D01*
X86278571Y-45479428D02*
X86564285Y-45479428D01*
X86564285Y-44879428D01*
X86078571Y-45250857D02*
X85621428Y-45250857D01*
X85335714Y-45079428D02*
X84878571Y-45250857D01*
X85335714Y-45422285D01*
X84592857Y-45479428D02*
X84592857Y-44879428D01*
X84592857Y-45165142D02*
X84250000Y-45165142D01*
X84250000Y-45479428D02*
X84250000Y-44879428D01*
X89421428Y-46499428D02*
X89707142Y-46499428D01*
X89707142Y-45899428D01*
X89250000Y-46328000D02*
X88964285Y-46328000D01*
X89307142Y-46499428D02*
X89107142Y-45899428D01*
X88907142Y-46499428D01*
X88792857Y-45899428D02*
X88450000Y-45899428D01*
X88621428Y-46499428D02*
X88621428Y-45899428D01*
X87907142Y-46442285D02*
X87935714Y-46470857D01*
X88021428Y-46499428D01*
X88078571Y-46499428D01*
X88164285Y-46470857D01*
X88221428Y-46413714D01*
X88250000Y-46356571D01*
X88278571Y-46242285D01*
X88278571Y-46156571D01*
X88250000Y-46042285D01*
X88221428Y-45985142D01*
X88164285Y-45928000D01*
X88078571Y-45899428D01*
X88021428Y-45899428D01*
X87935714Y-45928000D01*
X87907142Y-45956571D01*
X87650000Y-46499428D02*
X87650000Y-45899428D01*
X87650000Y-46185142D02*
X87307142Y-46185142D01*
X87307142Y-46499428D02*
X87307142Y-45899428D01*
X86564285Y-46499428D02*
X86564285Y-45899428D01*
X86564285Y-46185142D02*
X86221428Y-46185142D01*
X86221428Y-46499428D02*
X86221428Y-45899428D01*
X85935714Y-46270857D02*
X85478571Y-46270857D01*
X85192857Y-46099428D02*
X84735714Y-46270857D01*
X85192857Y-46442285D01*
X84164285Y-46499428D02*
X84450000Y-46499428D01*
X84450000Y-45899428D01*
X89707142Y-47519428D02*
X89707142Y-46919428D01*
X89364285Y-47519428D01*
X89364285Y-46919428D01*
X88964285Y-46919428D02*
X88850000Y-46919428D01*
X88792857Y-46948000D01*
X88735714Y-47005142D01*
X88707142Y-47119428D01*
X88707142Y-47319428D01*
X88735714Y-47433714D01*
X88792857Y-47490857D01*
X88850000Y-47519428D01*
X88964285Y-47519428D01*
X89021428Y-47490857D01*
X89078571Y-47433714D01*
X89107142Y-47319428D01*
X89107142Y-47119428D01*
X89078571Y-47005142D01*
X89021428Y-46948000D01*
X88964285Y-46919428D01*
X88535714Y-46919428D02*
X88192857Y-46919428D01*
X88364285Y-47519428D02*
X88364285Y-46919428D01*
X87250000Y-47519428D02*
X87535714Y-47519428D01*
X87535714Y-46919428D01*
X87078571Y-47348000D02*
X86792857Y-47348000D01*
X87135714Y-47519428D02*
X86935714Y-46919428D01*
X86735714Y-47519428D01*
X86621428Y-46919428D02*
X86278571Y-46919428D01*
X86450000Y-47519428D02*
X86450000Y-46919428D01*
X85735714Y-47462285D02*
X85764285Y-47490857D01*
X85850000Y-47519428D01*
X85907142Y-47519428D01*
X85992857Y-47490857D01*
X86050000Y-47433714D01*
X86078571Y-47376571D01*
X86107142Y-47262285D01*
X86107142Y-47176571D01*
X86078571Y-47062285D01*
X86050000Y-47005142D01*
X85992857Y-46948000D01*
X85907142Y-46919428D01*
X85850000Y-46919428D01*
X85764285Y-46948000D01*
X85735714Y-46976571D01*
X85478571Y-47519428D02*
X85478571Y-46919428D01*
X85478571Y-47205142D02*
X85135714Y-47205142D01*
X85135714Y-47519428D02*
X85135714Y-46919428D01*
X84850000Y-47205142D02*
X84650000Y-47205142D01*
X84564285Y-47519428D02*
X84850000Y-47519428D01*
X84850000Y-46919428D01*
X84564285Y-46919428D01*
X84307142Y-47519428D02*
X84307142Y-46919428D01*
X84164285Y-46919428D01*
X84078571Y-46948000D01*
X84021428Y-47005142D01*
X83992857Y-47062285D01*
X83964285Y-47176571D01*
X83964285Y-47262285D01*
X83992857Y-47376571D01*
X84021428Y-47433714D01*
X84078571Y-47490857D01*
X84164285Y-47519428D01*
X84307142Y-47519428D01*
D12*
X83185000Y-43180000D02*
X83185000Y-48006000D01*
D13*
X89805380Y-43376904D02*
X89805380Y-43948333D01*
X89843475Y-44062619D01*
X89919666Y-44138809D01*
X90033951Y-44176904D01*
X90110142Y-44176904D01*
X89424428Y-44176904D02*
X89424428Y-43376904D01*
X89119666Y-43376904D01*
X89043475Y-43415000D01*
X89005380Y-43453095D01*
X88967285Y-43529285D01*
X88967285Y-43643571D01*
X89005380Y-43719761D01*
X89043475Y-43757857D01*
X89119666Y-43795952D01*
X89424428Y-43795952D01*
X88662523Y-43453095D02*
X88624428Y-43415000D01*
X88548237Y-43376904D01*
X88357761Y-43376904D01*
X88281570Y-43415000D01*
X88243475Y-43453095D01*
X88205380Y-43529285D01*
X88205380Y-43605476D01*
X88243475Y-43719761D01*
X88700618Y-44176904D01*
X88205380Y-44176904D01*
X87862523Y-44100714D02*
X87824428Y-44138809D01*
X87862523Y-44176904D01*
X87900618Y-44138809D01*
X87862523Y-44100714D01*
X87862523Y-44176904D01*
X87862523Y-43681666D02*
X87824428Y-43719761D01*
X87862523Y-43757857D01*
X87900618Y-43719761D01*
X87862523Y-43681666D01*
X87862523Y-43757857D01*
X86491094Y-44176904D02*
X86872047Y-44176904D01*
X86872047Y-43376904D01*
X86262523Y-43948333D02*
X85881570Y-43948333D01*
X86338713Y-44176904D02*
X86072047Y-43376904D01*
X85805380Y-44176904D01*
X85652999Y-43376904D02*
X85195856Y-43376904D01*
X85424428Y-44176904D02*
X85424428Y-43376904D01*
X84472047Y-44100714D02*
X84510142Y-44138809D01*
X84624428Y-44176904D01*
X84700618Y-44176904D01*
X84814904Y-44138809D01*
X84891094Y-44062619D01*
X84929189Y-43986428D01*
X84967285Y-43834047D01*
X84967285Y-43719761D01*
X84929189Y-43567380D01*
X84891094Y-43491190D01*
X84814904Y-43415000D01*
X84700618Y-43376904D01*
X84624428Y-43376904D01*
X84510142Y-43415000D01*
X84472047Y-43453095D01*
X84129189Y-44176904D02*
X84129189Y-43376904D01*
X84129189Y-43757857D02*
X83672047Y-43757857D01*
X83672047Y-44176904D02*
X83672047Y-43376904D01*
D11*
X99982142Y-45479428D02*
X99982142Y-44879428D01*
X99839285Y-44879428D01*
X99753571Y-44908000D01*
X99696428Y-44965142D01*
X99667857Y-45022285D01*
X99639285Y-45136571D01*
X99639285Y-45222285D01*
X99667857Y-45336571D01*
X99696428Y-45393714D01*
X99753571Y-45450857D01*
X99839285Y-45479428D01*
X99982142Y-45479428D01*
X99382142Y-45165142D02*
X99182142Y-45165142D01*
X99096428Y-45479428D02*
X99382142Y-45479428D01*
X99382142Y-44879428D01*
X99096428Y-44879428D01*
X98496428Y-45422285D02*
X98525000Y-45450857D01*
X98610714Y-45479428D01*
X98667857Y-45479428D01*
X98753571Y-45450857D01*
X98810714Y-45393714D01*
X98839285Y-45336571D01*
X98867857Y-45222285D01*
X98867857Y-45136571D01*
X98839285Y-45022285D01*
X98810714Y-44965142D01*
X98753571Y-44908000D01*
X98667857Y-44879428D01*
X98610714Y-44879428D01*
X98525000Y-44908000D01*
X98496428Y-44936571D01*
X98239285Y-45479428D02*
X98239285Y-44879428D01*
X97953571Y-45479428D02*
X97953571Y-44879428D01*
X97753571Y-45308000D01*
X97553571Y-44879428D01*
X97553571Y-45479428D01*
X97296428Y-45308000D02*
X97010714Y-45308000D01*
X97353571Y-45479428D02*
X97153571Y-44879428D01*
X96953571Y-45479428D01*
X96467857Y-45479428D02*
X96753571Y-45479428D01*
X96753571Y-44879428D01*
X95639285Y-45708000D02*
X95667857Y-45679428D01*
X95725000Y-45593714D01*
X95753571Y-45536571D01*
X95782142Y-45450857D01*
X95810714Y-45308000D01*
X95810714Y-45193714D01*
X95782142Y-45050857D01*
X95753571Y-44965142D01*
X95725000Y-44908000D01*
X95667857Y-44822285D01*
X95639285Y-44793714D01*
X95439285Y-45450857D02*
X95353571Y-45479428D01*
X95210714Y-45479428D01*
X95153571Y-45450857D01*
X95125000Y-45422285D01*
X95096428Y-45365142D01*
X95096428Y-45308000D01*
X95125000Y-45250857D01*
X95153571Y-45222285D01*
X95210714Y-45193714D01*
X95325000Y-45165142D01*
X95382142Y-45136571D01*
X95410714Y-45108000D01*
X95439285Y-45050857D01*
X95439285Y-44993714D01*
X95410714Y-44936571D01*
X95382142Y-44908000D01*
X95325000Y-44879428D01*
X95182142Y-44879428D01*
X95096428Y-44908000D01*
X94839285Y-45479428D02*
X94839285Y-44879428D01*
X94239285Y-44908000D02*
X94296428Y-44879428D01*
X94382142Y-44879428D01*
X94467857Y-44908000D01*
X94525000Y-44965142D01*
X94553571Y-45022285D01*
X94582142Y-45136571D01*
X94582142Y-45222285D01*
X94553571Y-45336571D01*
X94525000Y-45393714D01*
X94467857Y-45450857D01*
X94382142Y-45479428D01*
X94325000Y-45479428D01*
X94239285Y-45450857D01*
X94210714Y-45422285D01*
X94210714Y-45222285D01*
X94325000Y-45222285D01*
X93953571Y-45479428D02*
X93953571Y-44879428D01*
X93610714Y-45479428D01*
X93610714Y-44879428D01*
X93325000Y-45165142D02*
X93125000Y-45165142D01*
X93039285Y-45479428D02*
X93325000Y-45479428D01*
X93325000Y-44879428D01*
X93039285Y-44879428D01*
X92782142Y-45479428D02*
X92782142Y-44879428D01*
X92639285Y-44879428D01*
X92553571Y-44908000D01*
X92496428Y-44965142D01*
X92467857Y-45022285D01*
X92439285Y-45136571D01*
X92439285Y-45222285D01*
X92467857Y-45336571D01*
X92496428Y-45393714D01*
X92553571Y-45450857D01*
X92639285Y-45479428D01*
X92782142Y-45479428D01*
X92239285Y-45708000D02*
X92210714Y-45679428D01*
X92153571Y-45593714D01*
X92125000Y-45536571D01*
X92096428Y-45450857D01*
X92067857Y-45308000D01*
X92067857Y-45193714D01*
X92096428Y-45050857D01*
X92125000Y-44965142D01*
X92153571Y-44908000D01*
X92210714Y-44822285D01*
X92239285Y-44793714D01*
X99982142Y-46499428D02*
X99982142Y-45899428D01*
X99839285Y-45899428D01*
X99753571Y-45928000D01*
X99696428Y-45985142D01*
X99667857Y-46042285D01*
X99639285Y-46156571D01*
X99639285Y-46242285D01*
X99667857Y-46356571D01*
X99696428Y-46413714D01*
X99753571Y-46470857D01*
X99839285Y-46499428D01*
X99982142Y-46499428D01*
X99382142Y-46185142D02*
X99182142Y-46185142D01*
X99096428Y-46499428D02*
X99382142Y-46499428D01*
X99382142Y-45899428D01*
X99096428Y-45899428D01*
X98496428Y-46442285D02*
X98525000Y-46470857D01*
X98610714Y-46499428D01*
X98667857Y-46499428D01*
X98753571Y-46470857D01*
X98810714Y-46413714D01*
X98839285Y-46356571D01*
X98867857Y-46242285D01*
X98867857Y-46156571D01*
X98839285Y-46042285D01*
X98810714Y-45985142D01*
X98753571Y-45928000D01*
X98667857Y-45899428D01*
X98610714Y-45899428D01*
X98525000Y-45928000D01*
X98496428Y-45956571D01*
X98239285Y-46499428D02*
X98239285Y-45899428D01*
X97953571Y-46499428D02*
X97953571Y-45899428D01*
X97753571Y-46328000D01*
X97553571Y-45899428D01*
X97553571Y-46499428D01*
X97296428Y-46328000D02*
X97010714Y-46328000D01*
X97353571Y-46499428D02*
X97153571Y-45899428D01*
X96953571Y-46499428D01*
X96467857Y-46499428D02*
X96753571Y-46499428D01*
X96753571Y-45899428D01*
X95639285Y-46728000D02*
X95667857Y-46699428D01*
X95725000Y-46613714D01*
X95753571Y-46556571D01*
X95782142Y-46470857D01*
X95810714Y-46328000D01*
X95810714Y-46213714D01*
X95782142Y-46070857D01*
X95753571Y-45985142D01*
X95725000Y-45928000D01*
X95667857Y-45842285D01*
X95639285Y-45813714D01*
X95410714Y-45899428D02*
X95410714Y-46385142D01*
X95382142Y-46442285D01*
X95353571Y-46470857D01*
X95296428Y-46499428D01*
X95182142Y-46499428D01*
X95125000Y-46470857D01*
X95096428Y-46442285D01*
X95067857Y-46385142D01*
X95067857Y-45899428D01*
X94782142Y-46499428D02*
X94782142Y-45899428D01*
X94439285Y-46499428D01*
X94439285Y-45899428D01*
X94182142Y-46470857D02*
X94096428Y-46499428D01*
X93953571Y-46499428D01*
X93896428Y-46470857D01*
X93867857Y-46442285D01*
X93839285Y-46385142D01*
X93839285Y-46328000D01*
X93867857Y-46270857D01*
X93896428Y-46242285D01*
X93953571Y-46213714D01*
X94067857Y-46185142D01*
X94125000Y-46156571D01*
X94153571Y-46128000D01*
X94182142Y-46070857D01*
X94182142Y-46013714D01*
X94153571Y-45956571D01*
X94125000Y-45928000D01*
X94067857Y-45899428D01*
X93925000Y-45899428D01*
X93839285Y-45928000D01*
X93582142Y-46499428D02*
X93582142Y-45899428D01*
X92982142Y-45928000D02*
X93039285Y-45899428D01*
X93125000Y-45899428D01*
X93210714Y-45928000D01*
X93267857Y-45985142D01*
X93296428Y-46042285D01*
X93325000Y-46156571D01*
X93325000Y-46242285D01*
X93296428Y-46356571D01*
X93267857Y-46413714D01*
X93210714Y-46470857D01*
X93125000Y-46499428D01*
X93067857Y-46499428D01*
X92982142Y-46470857D01*
X92953571Y-46442285D01*
X92953571Y-46242285D01*
X93067857Y-46242285D01*
X92696428Y-46499428D02*
X92696428Y-45899428D01*
X92353571Y-46499428D01*
X92353571Y-45899428D01*
X92067857Y-46185142D02*
X91867857Y-46185142D01*
X91782142Y-46499428D02*
X92067857Y-46499428D01*
X92067857Y-45899428D01*
X91782142Y-45899428D01*
X91525000Y-46499428D02*
X91525000Y-45899428D01*
X91382142Y-45899428D01*
X91296428Y-45928000D01*
X91239285Y-45985142D01*
X91210714Y-46042285D01*
X91182142Y-46156571D01*
X91182142Y-46242285D01*
X91210714Y-46356571D01*
X91239285Y-46413714D01*
X91296428Y-46470857D01*
X91382142Y-46499428D01*
X91525000Y-46499428D01*
X90982142Y-46728000D02*
X90953571Y-46699428D01*
X90896428Y-46613714D01*
X90867857Y-46556571D01*
X90839285Y-46470857D01*
X90810714Y-46328000D01*
X90810714Y-46213714D01*
X90839285Y-46070857D01*
X90867857Y-45985142D01*
X90896428Y-45928000D01*
X90953571Y-45842285D01*
X90982142Y-45813714D01*
X99982142Y-47519428D02*
X99982142Y-46919428D01*
X99982142Y-47205142D02*
X99639285Y-47205142D01*
X99639285Y-47519428D02*
X99639285Y-46919428D01*
X99353571Y-47205142D02*
X99153571Y-47205142D01*
X99067857Y-47519428D02*
X99353571Y-47519428D01*
X99353571Y-46919428D01*
X99067857Y-46919428D01*
X98867857Y-46919428D02*
X98467857Y-47519428D01*
X98467857Y-46919428D02*
X98867857Y-47519428D01*
X98267857Y-47348000D02*
X97982142Y-47348000D01*
X98325000Y-47519428D02*
X98125000Y-46919428D01*
X97925000Y-47519428D01*
X97725000Y-47519428D02*
X97725000Y-46919428D01*
X97582142Y-46919428D01*
X97496428Y-46948000D01*
X97439285Y-47005142D01*
X97410714Y-47062285D01*
X97382142Y-47176571D01*
X97382142Y-47262285D01*
X97410714Y-47376571D01*
X97439285Y-47433714D01*
X97496428Y-47490857D01*
X97582142Y-47519428D01*
X97725000Y-47519428D01*
X97125000Y-47205142D02*
X96925000Y-47205142D01*
X96839285Y-47519428D02*
X97125000Y-47519428D01*
X97125000Y-46919428D01*
X96839285Y-46919428D01*
X96239285Y-47462285D02*
X96267857Y-47490857D01*
X96353571Y-47519428D01*
X96410714Y-47519428D01*
X96496428Y-47490857D01*
X96553571Y-47433714D01*
X96582142Y-47376571D01*
X96610714Y-47262285D01*
X96610714Y-47176571D01*
X96582142Y-47062285D01*
X96553571Y-47005142D01*
X96496428Y-46948000D01*
X96410714Y-46919428D01*
X96353571Y-46919428D01*
X96267857Y-46948000D01*
X96239285Y-46976571D01*
X95982142Y-47519428D02*
X95982142Y-46919428D01*
X95696428Y-47519428D02*
X95696428Y-46919428D01*
X95496428Y-47348000D01*
X95296428Y-46919428D01*
X95296428Y-47519428D01*
X95039285Y-47348000D02*
X94753571Y-47348000D01*
X95096428Y-47519428D02*
X94896428Y-46919428D01*
X94696428Y-47519428D01*
X94210714Y-47519428D02*
X94496428Y-47519428D01*
X94496428Y-46919428D01*
D13*
X102990523Y-44176904D02*
X102990523Y-43376904D01*
X102685761Y-43376904D01*
X102609571Y-43415000D01*
X102571476Y-43453095D01*
X102533380Y-43529285D01*
X102533380Y-43643571D01*
X102571476Y-43719761D01*
X102609571Y-43757857D01*
X102685761Y-43795952D01*
X102990523Y-43795952D01*
X102038142Y-43376904D02*
X101885761Y-43376904D01*
X101809571Y-43415000D01*
X101733380Y-43491190D01*
X101695285Y-43643571D01*
X101695285Y-43910238D01*
X101733380Y-44062619D01*
X101809571Y-44138809D01*
X101885761Y-44176904D01*
X102038142Y-44176904D01*
X102114333Y-44138809D01*
X102190523Y-44062619D01*
X102228619Y-43910238D01*
X102228619Y-43643571D01*
X102190523Y-43491190D01*
X102114333Y-43415000D01*
X102038142Y-43376904D01*
X101390523Y-44138809D02*
X101276238Y-44176904D01*
X101085761Y-44176904D01*
X101009571Y-44138809D01*
X100971476Y-44100714D01*
X100933380Y-44024523D01*
X100933380Y-43948333D01*
X100971476Y-43872142D01*
X101009571Y-43834047D01*
X101085761Y-43795952D01*
X101238142Y-43757857D01*
X101314333Y-43719761D01*
X101352428Y-43681666D01*
X101390523Y-43605476D01*
X101390523Y-43529285D01*
X101352428Y-43453095D01*
X101314333Y-43415000D01*
X101238142Y-43376904D01*
X101047666Y-43376904D01*
X100933380Y-43415000D01*
X99718952Y-43376904D02*
X99718952Y-43948333D01*
X99757047Y-44062619D01*
X99833238Y-44138809D01*
X99947523Y-44176904D01*
X100023714Y-44176904D01*
X99338000Y-44176904D02*
X99338000Y-43376904D01*
X99033238Y-43376904D01*
X98957047Y-43415000D01*
X98918952Y-43453095D01*
X98880857Y-43529285D01*
X98880857Y-43643571D01*
X98918952Y-43719761D01*
X98957047Y-43757857D01*
X99033238Y-43795952D01*
X99338000Y-43795952D01*
X98118952Y-44176904D02*
X98576095Y-44176904D01*
X98347523Y-44176904D02*
X98347523Y-43376904D01*
X98423714Y-43491190D01*
X98499904Y-43567380D01*
X98576095Y-43605476D01*
X97776095Y-44100714D02*
X97738000Y-44138809D01*
X97776095Y-44176904D01*
X97814190Y-44138809D01*
X97776095Y-44100714D01*
X97776095Y-44176904D01*
X97776095Y-43681666D02*
X97738000Y-43719761D01*
X97776095Y-43757857D01*
X97814190Y-43719761D01*
X97776095Y-43681666D01*
X97776095Y-43757857D01*
X96785619Y-44176904D02*
X96785619Y-43376904D01*
X96595142Y-43376904D01*
X96480857Y-43415000D01*
X96404666Y-43491190D01*
X96366571Y-43567380D01*
X96328476Y-43719761D01*
X96328476Y-43834047D01*
X96366571Y-43986428D01*
X96404666Y-44062619D01*
X96480857Y-44138809D01*
X96595142Y-44176904D01*
X96785619Y-44176904D01*
X95985619Y-43757857D02*
X95718952Y-43757857D01*
X95604666Y-44176904D02*
X95985619Y-44176904D01*
X95985619Y-43376904D01*
X95604666Y-43376904D01*
X94804666Y-44100714D02*
X94842761Y-44138809D01*
X94957047Y-44176904D01*
X95033238Y-44176904D01*
X95147523Y-44138809D01*
X95223714Y-44062619D01*
X95261809Y-43986428D01*
X95299904Y-43834047D01*
X95299904Y-43719761D01*
X95261809Y-43567380D01*
X95223714Y-43491190D01*
X95147523Y-43415000D01*
X95033238Y-43376904D01*
X94957047Y-43376904D01*
X94842761Y-43415000D01*
X94804666Y-43453095D01*
X93890380Y-43338809D02*
X94576095Y-44367380D01*
X93623714Y-44176904D02*
X93623714Y-43376904D01*
X93623714Y-43757857D02*
X93166571Y-43757857D01*
X93166571Y-44176904D02*
X93166571Y-43376904D01*
X92785619Y-43757857D02*
X92518952Y-43757857D01*
X92404666Y-44176904D02*
X92785619Y-44176904D01*
X92785619Y-43376904D01*
X92404666Y-43376904D01*
X92138000Y-43376904D02*
X91604666Y-44176904D01*
X91604666Y-43376904D02*
X92138000Y-44176904D01*
D12*
X90551000Y-43180000D02*
X90551000Y-48006000D01*
X83185000Y-48006000D02*
X103505000Y-48006000D01*
X103505000Y-43180000D02*
X83185000Y-43180000D01*
X83185000Y-44450000D02*
X103505000Y-44450000D01*
X100457000Y-43180000D02*
X100457000Y-48006000D01*
X103505000Y-48006000D02*
X103505000Y-43180000D01*
D10*
X71934285Y-38121000D02*
X71334285Y-38121000D01*
X71448571Y-39006428D02*
X71648571Y-38720714D01*
X71791428Y-39006428D02*
X71791428Y-38406428D01*
X71562857Y-38406428D01*
X71505714Y-38435000D01*
X71477142Y-38463571D01*
X71448571Y-38520714D01*
X71448571Y-38606428D01*
X71477142Y-38663571D01*
X71505714Y-38692142D01*
X71562857Y-38720714D01*
X71791428Y-38720714D01*
X71334285Y-38121000D02*
X70762857Y-38121000D01*
X71220000Y-38977857D02*
X71134285Y-39006428D01*
X70991428Y-39006428D01*
X70934285Y-38977857D01*
X70905714Y-38949285D01*
X70877142Y-38892142D01*
X70877142Y-38835000D01*
X70905714Y-38777857D01*
X70934285Y-38749285D01*
X70991428Y-38720714D01*
X71105714Y-38692142D01*
X71162857Y-38663571D01*
X71191428Y-38635000D01*
X71220000Y-38577857D01*
X71220000Y-38520714D01*
X71191428Y-38463571D01*
X71162857Y-38435000D01*
X71105714Y-38406428D01*
X70962857Y-38406428D01*
X70877142Y-38435000D01*
X70762857Y-38121000D02*
X70305714Y-38121000D01*
X70705714Y-38406428D02*
X70362857Y-38406428D01*
X70534285Y-39006428D02*
X70534285Y-38406428D01*
X94922857Y-40276428D02*
X94922857Y-39676428D01*
X94722857Y-40105000D01*
X94522857Y-39676428D01*
X94522857Y-40276428D01*
X94122857Y-39676428D02*
X94008571Y-39676428D01*
X93951428Y-39705000D01*
X93894285Y-39762142D01*
X93865714Y-39876428D01*
X93865714Y-40076428D01*
X93894285Y-40190714D01*
X93951428Y-40247857D01*
X94008571Y-40276428D01*
X94122857Y-40276428D01*
X94180000Y-40247857D01*
X94237142Y-40190714D01*
X94265714Y-40076428D01*
X94265714Y-39876428D01*
X94237142Y-39762142D01*
X94180000Y-39705000D01*
X94122857Y-39676428D01*
X93637142Y-40247857D02*
X93551428Y-40276428D01*
X93408571Y-40276428D01*
X93351428Y-40247857D01*
X93322857Y-40219285D01*
X93294285Y-40162142D01*
X93294285Y-40105000D01*
X93322857Y-40047857D01*
X93351428Y-40019285D01*
X93408571Y-39990714D01*
X93522857Y-39962142D01*
X93580000Y-39933571D01*
X93608571Y-39905000D01*
X93637142Y-39847857D01*
X93637142Y-39790714D01*
X93608571Y-39733571D01*
X93580000Y-39705000D01*
X93522857Y-39676428D01*
X93380000Y-39676428D01*
X93294285Y-39705000D01*
X93037142Y-40276428D02*
X93037142Y-39676428D01*
X89671428Y-40247857D02*
X89585714Y-40276428D01*
X89442857Y-40276428D01*
X89385714Y-40247857D01*
X89357142Y-40219285D01*
X89328571Y-40162142D01*
X89328571Y-40105000D01*
X89357142Y-40047857D01*
X89385714Y-40019285D01*
X89442857Y-39990714D01*
X89557142Y-39962142D01*
X89614285Y-39933571D01*
X89642857Y-39905000D01*
X89671428Y-39847857D01*
X89671428Y-39790714D01*
X89642857Y-39733571D01*
X89614285Y-39705000D01*
X89557142Y-39676428D01*
X89414285Y-39676428D01*
X89328571Y-39705000D01*
X88728571Y-40219285D02*
X88757142Y-40247857D01*
X88842857Y-40276428D01*
X88900000Y-40276428D01*
X88985714Y-40247857D01*
X89042857Y-40190714D01*
X89071428Y-40133571D01*
X89100000Y-40019285D01*
X89100000Y-39933571D01*
X89071428Y-39819285D01*
X89042857Y-39762142D01*
X88985714Y-39705000D01*
X88900000Y-39676428D01*
X88842857Y-39676428D01*
X88757142Y-39705000D01*
X88728571Y-39733571D01*
X88471428Y-40276428D02*
X88471428Y-39676428D01*
X88128571Y-40276428D02*
X88385714Y-39933571D01*
X88128571Y-39676428D02*
X88471428Y-40019285D01*
X92382857Y-40276428D02*
X92382857Y-39676428D01*
X92182857Y-40105000D01*
X91982857Y-39676428D01*
X91982857Y-40276428D01*
X91697142Y-40276428D02*
X91697142Y-39676428D01*
X91440000Y-40247857D02*
X91354285Y-40276428D01*
X91211428Y-40276428D01*
X91154285Y-40247857D01*
X91125714Y-40219285D01*
X91097142Y-40162142D01*
X91097142Y-40105000D01*
X91125714Y-40047857D01*
X91154285Y-40019285D01*
X91211428Y-39990714D01*
X91325714Y-39962142D01*
X91382857Y-39933571D01*
X91411428Y-39905000D01*
X91440000Y-39847857D01*
X91440000Y-39790714D01*
X91411428Y-39733571D01*
X91382857Y-39705000D01*
X91325714Y-39676428D01*
X91182857Y-39676428D01*
X91097142Y-39705000D01*
X90725714Y-39676428D02*
X90611428Y-39676428D01*
X90554285Y-39705000D01*
X90497142Y-39762142D01*
X90468571Y-39876428D01*
X90468571Y-40076428D01*
X90497142Y-40190714D01*
X90554285Y-40247857D01*
X90611428Y-40276428D01*
X90725714Y-40276428D01*
X90782857Y-40247857D01*
X90840000Y-40190714D01*
X90868571Y-40076428D01*
X90868571Y-39876428D01*
X90840000Y-39762142D01*
X90782857Y-39705000D01*
X90725714Y-39676428D01*
D13*
X75652428Y-52522571D02*
X75709571Y-52494000D01*
X75738142Y-52465428D01*
X75766714Y-52408285D01*
X75766714Y-52379714D01*
X75738142Y-52322571D01*
X75709571Y-52294000D01*
X75652428Y-52265428D01*
X75538142Y-52265428D01*
X75481000Y-52294000D01*
X75452428Y-52322571D01*
X75423857Y-52379714D01*
X75423857Y-52408285D01*
X75452428Y-52465428D01*
X75481000Y-52494000D01*
X75538142Y-52522571D01*
X75652428Y-52522571D01*
X75709571Y-52551142D01*
X75738142Y-52579714D01*
X75766714Y-52636857D01*
X75766714Y-52751142D01*
X75738142Y-52808285D01*
X75709571Y-52836857D01*
X75652428Y-52865428D01*
X75538142Y-52865428D01*
X75481000Y-52836857D01*
X75452428Y-52808285D01*
X75423857Y-52751142D01*
X75423857Y-52636857D01*
X75452428Y-52579714D01*
X75481000Y-52551142D01*
X75538142Y-52522571D01*
X74709571Y-52865428D02*
X74709571Y-52265428D01*
X74709571Y-52494000D02*
X74652428Y-52465428D01*
X74538142Y-52465428D01*
X74481000Y-52494000D01*
X74452428Y-52522571D01*
X74423857Y-52579714D01*
X74423857Y-52751142D01*
X74452428Y-52808285D01*
X74481000Y-52836857D01*
X74538142Y-52865428D01*
X74652428Y-52865428D01*
X74709571Y-52836857D01*
X74166714Y-52865428D02*
X74166714Y-52465428D01*
X74166714Y-52265428D02*
X74195285Y-52294000D01*
X74166714Y-52322571D01*
X74138142Y-52294000D01*
X74166714Y-52265428D01*
X74166714Y-52322571D01*
X73966714Y-52465428D02*
X73738142Y-52465428D01*
X73881000Y-52265428D02*
X73881000Y-52779714D01*
X73852428Y-52836857D01*
X73795285Y-52865428D01*
X73738142Y-52865428D01*
X73081000Y-52865428D02*
X73081000Y-52265428D01*
X72938142Y-52265428D01*
X72852428Y-52294000D01*
X72795285Y-52351142D01*
X72766714Y-52408285D01*
X72738142Y-52522571D01*
X72738142Y-52608285D01*
X72766714Y-52722571D01*
X72795285Y-52779714D01*
X72852428Y-52836857D01*
X72938142Y-52865428D01*
X73081000Y-52865428D01*
X72481000Y-52551142D02*
X72281000Y-52551142D01*
X72195285Y-52865428D02*
X72481000Y-52865428D01*
X72481000Y-52265428D01*
X72195285Y-52265428D01*
X71595285Y-52808285D02*
X71623857Y-52836857D01*
X71709571Y-52865428D01*
X71766714Y-52865428D01*
X71852428Y-52836857D01*
X71909571Y-52779714D01*
X71938142Y-52722571D01*
X71966714Y-52608285D01*
X71966714Y-52522571D01*
X71938142Y-52408285D01*
X71909571Y-52351142D01*
X71852428Y-52294000D01*
X71766714Y-52265428D01*
X71709571Y-52265428D01*
X71623857Y-52294000D01*
X71595285Y-52322571D01*
X70909571Y-52236857D02*
X71423857Y-53008285D01*
X70709571Y-52865428D02*
X70709571Y-52265428D01*
X70709571Y-52551142D02*
X70366714Y-52551142D01*
X70366714Y-52865428D02*
X70366714Y-52265428D01*
X70081000Y-52551142D02*
X69881000Y-52551142D01*
X69795285Y-52865428D02*
X70081000Y-52865428D01*
X70081000Y-52265428D01*
X69795285Y-52265428D01*
X69595285Y-52265428D02*
X69195285Y-52865428D01*
X69195285Y-52265428D02*
X69595285Y-52865428D01*
X68509571Y-52865428D02*
X68509571Y-52265428D01*
X68366714Y-52265428D01*
X68281000Y-52294000D01*
X68223857Y-52351142D01*
X68195285Y-52408285D01*
X68166714Y-52522571D01*
X68166714Y-52608285D01*
X68195285Y-52722571D01*
X68223857Y-52779714D01*
X68281000Y-52836857D01*
X68366714Y-52865428D01*
X68509571Y-52865428D01*
X67909571Y-52865428D02*
X67909571Y-52465428D01*
X67909571Y-52265428D02*
X67938142Y-52294000D01*
X67909571Y-52322571D01*
X67881000Y-52294000D01*
X67909571Y-52265428D01*
X67909571Y-52322571D01*
X67652428Y-52836857D02*
X67595285Y-52865428D01*
X67481000Y-52865428D01*
X67423857Y-52836857D01*
X67395285Y-52779714D01*
X67395285Y-52751142D01*
X67423857Y-52694000D01*
X67481000Y-52665428D01*
X67566714Y-52665428D01*
X67623857Y-52636857D01*
X67652428Y-52579714D01*
X67652428Y-52551142D01*
X67623857Y-52494000D01*
X67566714Y-52465428D01*
X67481000Y-52465428D01*
X67423857Y-52494000D01*
X67138142Y-52465428D02*
X67138142Y-53065428D01*
X67138142Y-52494000D02*
X67081000Y-52465428D01*
X66966714Y-52465428D01*
X66909571Y-52494000D01*
X66881000Y-52522571D01*
X66852428Y-52579714D01*
X66852428Y-52751142D01*
X66881000Y-52808285D01*
X66909571Y-52836857D01*
X66966714Y-52865428D01*
X67081000Y-52865428D01*
X67138142Y-52836857D01*
X66509571Y-52865428D02*
X66566714Y-52836857D01*
X66595285Y-52779714D01*
X66595285Y-52265428D01*
X66023857Y-52865428D02*
X66023857Y-52551142D01*
X66052428Y-52494000D01*
X66109571Y-52465428D01*
X66223857Y-52465428D01*
X66281000Y-52494000D01*
X66023857Y-52836857D02*
X66081000Y-52865428D01*
X66223857Y-52865428D01*
X66281000Y-52836857D01*
X66309571Y-52779714D01*
X66309571Y-52722571D01*
X66281000Y-52665428D01*
X66223857Y-52636857D01*
X66081000Y-52636857D01*
X66023857Y-52608285D01*
X65795285Y-52465428D02*
X65652428Y-52865428D01*
X65509571Y-52465428D02*
X65652428Y-52865428D01*
X65709571Y-53008285D01*
X65738142Y-53036857D01*
X65795285Y-53065428D01*
X75395285Y-53865428D02*
X75595285Y-53579714D01*
X75738142Y-53865428D02*
X75738142Y-53265428D01*
X75509571Y-53265428D01*
X75452428Y-53294000D01*
X75423857Y-53322571D01*
X75395285Y-53379714D01*
X75395285Y-53465428D01*
X75423857Y-53522571D01*
X75452428Y-53551142D01*
X75509571Y-53579714D01*
X75738142Y-53579714D01*
X74909571Y-53836857D02*
X74966714Y-53865428D01*
X75081000Y-53865428D01*
X75138142Y-53836857D01*
X75166714Y-53779714D01*
X75166714Y-53551142D01*
X75138142Y-53494000D01*
X75081000Y-53465428D01*
X74966714Y-53465428D01*
X74909571Y-53494000D01*
X74881000Y-53551142D01*
X74881000Y-53608285D01*
X75166714Y-53665428D01*
X74681000Y-53465428D02*
X74538142Y-53865428D01*
X74395285Y-53465428D01*
X73823857Y-53808285D02*
X73852428Y-53836857D01*
X73938142Y-53865428D01*
X73995285Y-53865428D01*
X74081000Y-53836857D01*
X74138142Y-53779714D01*
X74166714Y-53722571D01*
X74195285Y-53608285D01*
X74195285Y-53522571D01*
X74166714Y-53408285D01*
X74138142Y-53351142D01*
X74081000Y-53294000D01*
X73995285Y-53265428D01*
X73938142Y-53265428D01*
X73852428Y-53294000D01*
X73823857Y-53322571D01*
X73138142Y-53322571D02*
X73109571Y-53294000D01*
X73052428Y-53265428D01*
X72909571Y-53265428D01*
X72852428Y-53294000D01*
X72823857Y-53322571D01*
X72795285Y-53379714D01*
X72795285Y-53436857D01*
X72823857Y-53522571D01*
X73166714Y-53865428D01*
X72795285Y-53865428D01*
X72423857Y-53265428D02*
X72366714Y-53265428D01*
X72309571Y-53294000D01*
X72281000Y-53322571D01*
X72252428Y-53379714D01*
X72223857Y-53494000D01*
X72223857Y-53636857D01*
X72252428Y-53751142D01*
X72281000Y-53808285D01*
X72309571Y-53836857D01*
X72366714Y-53865428D01*
X72423857Y-53865428D01*
X72481000Y-53836857D01*
X72509571Y-53808285D01*
X72538142Y-53751142D01*
X72566714Y-53636857D01*
X72566714Y-53494000D01*
X72538142Y-53379714D01*
X72509571Y-53322571D01*
X72481000Y-53294000D01*
X72423857Y-53265428D01*
X71652428Y-53865428D02*
X71995285Y-53865428D01*
X71823857Y-53865428D02*
X71823857Y-53265428D01*
X71881000Y-53351142D01*
X71938142Y-53408285D01*
X71995285Y-53436857D01*
X71366714Y-53865428D02*
X71252428Y-53865428D01*
X71195285Y-53836857D01*
X71166714Y-53808285D01*
X71109571Y-53722571D01*
X71081000Y-53608285D01*
X71081000Y-53379714D01*
X71109571Y-53322571D01*
X71138142Y-53294000D01*
X71195285Y-53265428D01*
X71309571Y-53265428D01*
X71366714Y-53294000D01*
X71395285Y-53322571D01*
X71423857Y-53379714D01*
X71423857Y-53522571D01*
X71395285Y-53579714D01*
X71366714Y-53608285D01*
X71309571Y-53636857D01*
X71195285Y-53636857D01*
X71138142Y-53608285D01*
X71109571Y-53579714D01*
X71081000Y-53522571D01*
X70366714Y-53865428D02*
X70366714Y-53265428D01*
X70223857Y-53265428D01*
X70138142Y-53294000D01*
X70081000Y-53351142D01*
X70052428Y-53408285D01*
X70023857Y-53522571D01*
X70023857Y-53608285D01*
X70052428Y-53722571D01*
X70081000Y-53779714D01*
X70138142Y-53836857D01*
X70223857Y-53865428D01*
X70366714Y-53865428D01*
X69681000Y-53865428D02*
X69738142Y-53836857D01*
X69766714Y-53808285D01*
X69795285Y-53751142D01*
X69795285Y-53579714D01*
X69766714Y-53522571D01*
X69738142Y-53494000D01*
X69681000Y-53465428D01*
X69595285Y-53465428D01*
X69538142Y-53494000D01*
X69509571Y-53522571D01*
X69481000Y-53579714D01*
X69481000Y-53751142D01*
X69509571Y-53808285D01*
X69538142Y-53836857D01*
X69595285Y-53865428D01*
X69681000Y-53865428D01*
X69223857Y-53865428D02*
X69223857Y-53465428D01*
X69223857Y-53522571D02*
X69195285Y-53494000D01*
X69138142Y-53465428D01*
X69052428Y-53465428D01*
X68995285Y-53494000D01*
X68966714Y-53551142D01*
X68966714Y-53865428D01*
X68966714Y-53551142D02*
X68938142Y-53494000D01*
X68881000Y-53465428D01*
X68795285Y-53465428D01*
X68738142Y-53494000D01*
X68709571Y-53551142D01*
X68709571Y-53865428D01*
X68423857Y-53865428D02*
X68423857Y-53465428D01*
X68423857Y-53265428D02*
X68452428Y-53294000D01*
X68423857Y-53322571D01*
X68395285Y-53294000D01*
X68423857Y-53265428D01*
X68423857Y-53322571D01*
X68138142Y-53465428D02*
X68138142Y-53865428D01*
X68138142Y-53522571D02*
X68109571Y-53494000D01*
X68052428Y-53465428D01*
X67966714Y-53465428D01*
X67909571Y-53494000D01*
X67881000Y-53551142D01*
X67881000Y-53865428D01*
X67595285Y-53865428D02*
X67595285Y-53465428D01*
X67595285Y-53265428D02*
X67623857Y-53294000D01*
X67595285Y-53322571D01*
X67566714Y-53294000D01*
X67595285Y-53265428D01*
X67595285Y-53322571D01*
X67052428Y-53836857D02*
X67109571Y-53865428D01*
X67223857Y-53865428D01*
X67281000Y-53836857D01*
X67309571Y-53808285D01*
X67338142Y-53751142D01*
X67338142Y-53579714D01*
X67309571Y-53522571D01*
X67281000Y-53494000D01*
X67223857Y-53465428D01*
X67109571Y-53465428D01*
X67052428Y-53494000D01*
X66423857Y-53265428D02*
X66081000Y-53265428D01*
X66252428Y-53865428D02*
X66252428Y-53265428D01*
X65881000Y-53865428D02*
X65881000Y-53265428D01*
X65623857Y-53865428D02*
X65623857Y-53551142D01*
X65652428Y-53494000D01*
X65709571Y-53465428D01*
X65795285Y-53465428D01*
X65852428Y-53494000D01*
X65881000Y-53522571D01*
X65338142Y-53865428D02*
X65338142Y-53465428D01*
X65338142Y-53265428D02*
X65366714Y-53294000D01*
X65338142Y-53322571D01*
X65309571Y-53294000D01*
X65338142Y-53265428D01*
X65338142Y-53322571D01*
X65052428Y-53865428D02*
X65052428Y-53265428D01*
X65052428Y-53494000D02*
X64995285Y-53465428D01*
X64881000Y-53465428D01*
X64823857Y-53494000D01*
X64795285Y-53522571D01*
X64766714Y-53579714D01*
X64766714Y-53751142D01*
X64795285Y-53808285D01*
X64823857Y-53836857D01*
X64881000Y-53865428D01*
X64995285Y-53865428D01*
X65052428Y-53836857D01*
X64423857Y-53865428D02*
X64481000Y-53836857D01*
X64509571Y-53808285D01*
X64538142Y-53751142D01*
X64538142Y-53579714D01*
X64509571Y-53522571D01*
X64481000Y-53494000D01*
X64423857Y-53465428D01*
X64338142Y-53465428D01*
X64281000Y-53494000D01*
X64252428Y-53522571D01*
X64223857Y-53579714D01*
X64223857Y-53751142D01*
X64252428Y-53808285D01*
X64281000Y-53836857D01*
X64338142Y-53865428D01*
X64423857Y-53865428D01*
X63709571Y-53865428D02*
X63709571Y-53265428D01*
X63709571Y-53836857D02*
X63766714Y-53865428D01*
X63881000Y-53865428D01*
X63938142Y-53836857D01*
X63966714Y-53808285D01*
X63995285Y-53751142D01*
X63995285Y-53579714D01*
X63966714Y-53522571D01*
X63938142Y-53494000D01*
X63881000Y-53465428D01*
X63766714Y-53465428D01*
X63709571Y-53494000D01*
X63195285Y-53836857D02*
X63252428Y-53865428D01*
X63366714Y-53865428D01*
X63423857Y-53836857D01*
X63452428Y-53779714D01*
X63452428Y-53551142D01*
X63423857Y-53494000D01*
X63366714Y-53465428D01*
X63252428Y-53465428D01*
X63195285Y-53494000D01*
X63166714Y-53551142D01*
X63166714Y-53608285D01*
X63452428Y-53665428D01*
X62652428Y-53865428D02*
X62652428Y-53551142D01*
X62681000Y-53494000D01*
X62738142Y-53465428D01*
X62852428Y-53465428D01*
X62909571Y-53494000D01*
X62652428Y-53836857D02*
X62709571Y-53865428D01*
X62852428Y-53865428D01*
X62909571Y-53836857D01*
X62938142Y-53779714D01*
X62938142Y-53722571D01*
X62909571Y-53665428D01*
X62852428Y-53636857D01*
X62709571Y-53636857D01*
X62652428Y-53608285D01*
X62109571Y-53465428D02*
X62109571Y-53865428D01*
X62366714Y-53465428D02*
X62366714Y-53779714D01*
X62338142Y-53836857D01*
X62281000Y-53865428D01*
X62195285Y-53865428D01*
X62138142Y-53836857D01*
X62109571Y-53808285D01*
X75481000Y-54865428D02*
X75481000Y-54265428D01*
X75481000Y-54836857D02*
X75538142Y-54865428D01*
X75652428Y-54865428D01*
X75709571Y-54836857D01*
X75738142Y-54808285D01*
X75766714Y-54751142D01*
X75766714Y-54579714D01*
X75738142Y-54522571D01*
X75709571Y-54494000D01*
X75652428Y-54465428D01*
X75538142Y-54465428D01*
X75481000Y-54494000D01*
X74966714Y-54836857D02*
X75023857Y-54865428D01*
X75138142Y-54865428D01*
X75195285Y-54836857D01*
X75223857Y-54779714D01*
X75223857Y-54551142D01*
X75195285Y-54494000D01*
X75138142Y-54465428D01*
X75023857Y-54465428D01*
X74966714Y-54494000D01*
X74938142Y-54551142D01*
X74938142Y-54608285D01*
X75223857Y-54665428D01*
X74738142Y-54465428D02*
X74595285Y-54865428D01*
X74452428Y-54465428D01*
X73852428Y-54579714D02*
X73881000Y-54551142D01*
X73938142Y-54522571D01*
X73995285Y-54522571D01*
X74052428Y-54551142D01*
X74081000Y-54579714D01*
X74109571Y-54636857D01*
X74109571Y-54694000D01*
X74081000Y-54751142D01*
X74052428Y-54779714D01*
X73995285Y-54808285D01*
X73938142Y-54808285D01*
X73881000Y-54779714D01*
X73852428Y-54751142D01*
X73852428Y-54522571D02*
X73852428Y-54751142D01*
X73823857Y-54779714D01*
X73795285Y-54779714D01*
X73738142Y-54751142D01*
X73709571Y-54694000D01*
X73709571Y-54551142D01*
X73766714Y-54465428D01*
X73852428Y-54408285D01*
X73966714Y-54379714D01*
X74081000Y-54408285D01*
X74166714Y-54465428D01*
X74223857Y-54551142D01*
X74252428Y-54665428D01*
X74223857Y-54779714D01*
X74166714Y-54865428D01*
X74081000Y-54922571D01*
X73966714Y-54951142D01*
X73852428Y-54922571D01*
X73766714Y-54865428D01*
X73452428Y-54865428D02*
X73452428Y-54265428D01*
X73195285Y-54865428D02*
X73195285Y-54551142D01*
X73223857Y-54494000D01*
X73281000Y-54465428D01*
X73366714Y-54465428D01*
X73423857Y-54494000D01*
X73452428Y-54522571D01*
X72823857Y-54865428D02*
X72881000Y-54836857D01*
X72909571Y-54808285D01*
X72938142Y-54751142D01*
X72938142Y-54579714D01*
X72909571Y-54522571D01*
X72881000Y-54494000D01*
X72823857Y-54465428D01*
X72738142Y-54465428D01*
X72681000Y-54494000D01*
X72652428Y-54522571D01*
X72623857Y-54579714D01*
X72623857Y-54751142D01*
X72652428Y-54808285D01*
X72681000Y-54836857D01*
X72738142Y-54865428D01*
X72823857Y-54865428D01*
X72452428Y-54465428D02*
X72223857Y-54465428D01*
X72366714Y-54265428D02*
X72366714Y-54779714D01*
X72338142Y-54836857D01*
X72281000Y-54865428D01*
X72223857Y-54865428D01*
X72023857Y-54865428D02*
X72023857Y-54265428D01*
X71966714Y-54636857D02*
X71795285Y-54865428D01*
X71795285Y-54465428D02*
X72023857Y-54694000D01*
X71309571Y-54836857D02*
X71366714Y-54865428D01*
X71481000Y-54865428D01*
X71538142Y-54836857D01*
X71566714Y-54779714D01*
X71566714Y-54551142D01*
X71538142Y-54494000D01*
X71481000Y-54465428D01*
X71366714Y-54465428D01*
X71309571Y-54494000D01*
X71281000Y-54551142D01*
X71281000Y-54608285D01*
X71566714Y-54665428D01*
X71081000Y-54465428D02*
X70938142Y-54865428D01*
X70795285Y-54465428D02*
X70938142Y-54865428D01*
X70995285Y-55008285D01*
X71023857Y-55036857D01*
X71081000Y-55065428D01*
X70595285Y-54836857D02*
X70538142Y-54865428D01*
X70423857Y-54865428D01*
X70366714Y-54836857D01*
X70338142Y-54779714D01*
X70338142Y-54751142D01*
X70366714Y-54694000D01*
X70423857Y-54665428D01*
X70509571Y-54665428D01*
X70566714Y-54636857D01*
X70595285Y-54579714D01*
X70595285Y-54551142D01*
X70566714Y-54494000D01*
X70509571Y-54465428D01*
X70423857Y-54465428D01*
X70366714Y-54494000D01*
X69995285Y-54865428D02*
X70052428Y-54836857D01*
X70081000Y-54808285D01*
X70109571Y-54751142D01*
X70109571Y-54579714D01*
X70081000Y-54522571D01*
X70052428Y-54494000D01*
X69995285Y-54465428D01*
X69909571Y-54465428D01*
X69852428Y-54494000D01*
X69823857Y-54522571D01*
X69795285Y-54579714D01*
X69795285Y-54751142D01*
X69823857Y-54808285D01*
X69852428Y-54836857D01*
X69909571Y-54865428D01*
X69995285Y-54865428D01*
X69623857Y-54465428D02*
X69395285Y-54465428D01*
X69538142Y-54865428D02*
X69538142Y-54351142D01*
X69509571Y-54294000D01*
X69452428Y-54265428D01*
X69395285Y-54265428D01*
X69281000Y-54465428D02*
X69052428Y-54465428D01*
X69195285Y-54265428D02*
X69195285Y-54779714D01*
X69166714Y-54836857D01*
X69109571Y-54865428D01*
X69052428Y-54865428D01*
X68852428Y-54808285D02*
X68823857Y-54836857D01*
X68852428Y-54865428D01*
X68881000Y-54836857D01*
X68852428Y-54808285D01*
X68852428Y-54865428D01*
X68566714Y-54465428D02*
X68566714Y-54865428D01*
X68566714Y-54522571D02*
X68538142Y-54494000D01*
X68481000Y-54465428D01*
X68395285Y-54465428D01*
X68338142Y-54494000D01*
X68309571Y-54551142D01*
X68309571Y-54865428D01*
X67795285Y-54836857D02*
X67852428Y-54865428D01*
X67966714Y-54865428D01*
X68023857Y-54836857D01*
X68052428Y-54779714D01*
X68052428Y-54551142D01*
X68023857Y-54494000D01*
X67966714Y-54465428D01*
X67852428Y-54465428D01*
X67795285Y-54494000D01*
X67766714Y-54551142D01*
X67766714Y-54608285D01*
X68052428Y-54665428D01*
X67595285Y-54465428D02*
X67366714Y-54465428D01*
X67509571Y-54265428D02*
X67509571Y-54779714D01*
X67481000Y-54836857D01*
X67423857Y-54865428D01*
X67366714Y-54865428D01*
D11*
G04 #@! TO.C,J5*
X69790000Y-39310000D02*
X72450000Y-39310000D01*
X69790000Y-39370000D02*
X69790000Y-39310000D01*
X72450000Y-39370000D02*
X72450000Y-39310000D01*
X69790000Y-39370000D02*
X72450000Y-39370000D01*
X69790000Y-40640000D02*
X69790000Y-41970000D01*
X69790000Y-41970000D02*
X71120000Y-41970000D01*
G04 #@! TO.C,C3*
X71830000Y-50181252D02*
X71830000Y-49658748D01*
X70410000Y-50181252D02*
X70410000Y-49658748D01*
G04 #@! TO.C,D1*
X72553000Y-39100000D02*
X72553000Y-37100000D01*
X72553000Y-37100000D02*
X76453000Y-37100000D01*
X72553000Y-39100000D02*
X76453000Y-39100000D01*
G04 #@! TO.C,RN3*
X70260000Y-44315000D02*
X70260000Y-43315000D01*
X66900000Y-44315000D02*
X66900000Y-43315000D01*
G04 #@! TO.C,J6*
X79950000Y-39430000D02*
X81280000Y-39430000D01*
X79950000Y-38100000D02*
X79950000Y-39430000D01*
X79950000Y-36830000D02*
X82610000Y-36830000D01*
X82610000Y-36830000D02*
X82610000Y-36770000D01*
X79950000Y-36830000D02*
X79950000Y-36770000D01*
X79950000Y-36770000D02*
X82610000Y-36770000D01*
G04 #@! TO.C,J7*
X79950000Y-52010000D02*
X82610000Y-52010000D01*
X79950000Y-52070000D02*
X79950000Y-52010000D01*
X82610000Y-52070000D02*
X82610000Y-52010000D01*
X79950000Y-52070000D02*
X82610000Y-52070000D01*
X79950000Y-53340000D02*
X79950000Y-54670000D01*
X79950000Y-54670000D02*
X81280000Y-54670000D01*
G04 #@! TO.C,C1*
X66115000Y-50426252D02*
X66115000Y-49903748D01*
X64695000Y-50426252D02*
X64695000Y-49903748D01*
G04 #@! TO.C,J4*
X82490000Y-54670000D02*
X82490000Y-52010000D01*
X100330000Y-54670000D02*
X82490000Y-54670000D01*
X100330000Y-52010000D02*
X82490000Y-52010000D01*
X100330000Y-54670000D02*
X100330000Y-52010000D01*
X101600000Y-54670000D02*
X102930000Y-54670000D01*
X102930000Y-54670000D02*
X102930000Y-53340000D01*
G04 #@! TO.C,J3*
X77410000Y-54670000D02*
X78740000Y-54670000D01*
X77410000Y-53340000D02*
X77410000Y-54670000D01*
X77410000Y-52070000D02*
X80070000Y-52070000D01*
X80070000Y-52070000D02*
X80070000Y-52010000D01*
X77410000Y-52070000D02*
X77410000Y-52010000D01*
X77410000Y-52010000D02*
X80070000Y-52010000D01*
G04 #@! TO.C,J1*
X77410000Y-36770000D02*
X80070000Y-36770000D01*
X77410000Y-36830000D02*
X77410000Y-36770000D01*
X80070000Y-36830000D02*
X80070000Y-36770000D01*
X77410000Y-36830000D02*
X80070000Y-36830000D01*
X77410000Y-38100000D02*
X77410000Y-39430000D01*
X77410000Y-39430000D02*
X78740000Y-39430000D01*
G04 #@! TO.C,C2*
X64210000Y-50426252D02*
X64210000Y-49903748D01*
X62790000Y-50426252D02*
X62790000Y-49903748D01*
G04 #@! TO.C,J2*
X82490000Y-39430000D02*
X82490000Y-36770000D01*
X100330000Y-39430000D02*
X82490000Y-39430000D01*
X100330000Y-36770000D02*
X82490000Y-36770000D01*
X100330000Y-39430000D02*
X100330000Y-36770000D01*
X101600000Y-39430000D02*
X102930000Y-39430000D01*
X102930000Y-39430000D02*
X102930000Y-38100000D01*
G04 #@! TO.C,R3*
X62790000Y-43553748D02*
X62790000Y-44076252D01*
X64210000Y-43553748D02*
X64210000Y-44076252D01*
G04 #@! TD*
M02*
