<?xml version="1.0" standalone="no"?>
 <!DOCTYPE svg PUBLIC "-//W3C//DTD SVG 1.1//EN" 
 "http://www.w3.org/Graphics/SVG/1.1/DTD/svg11.dtd"> 
<svg xmlns="http://www.w3.org/2000/svg" version="1.1" 
    width="4.59232cm" height="3.21818cm" viewBox="0 0 18080 12670 ">
<title>SVG Picture created as 7segment-brd.svg date 2020/07/28 17:12:43 </title>
  <desc>Picture generated by PCBNEW </desc>
<g style="fill:#000000; fill-opacity:1;stroke:#000000; stroke-opacity:1;
stroke-linecap:round; stroke-linejoin:round; "
 transform="translate(0 0) scale(1 1)">
</g>
<g style="fill:#000000; fill-opacity:0.0; 
stroke:#000000; stroke-width:-0.000393701; stroke-opacity:1; 
stroke-linecap:round; stroke-linejoin:round;">
</g>
<g style="fill:#840084; fill-opacity:0.0; 
stroke:#840084; stroke-width:-0.000393701; stroke-opacity:1; 
stroke-linecap:round; stroke-linejoin:round;">
</g>
<g style="fill:#840084; fill-opacity:0.0; 
stroke:#840084; stroke-width:39.3701; stroke-opacity:1; 
stroke-linecap:round; stroke-linejoin:round;">
<path d="M5823 313
L5811 291
L5800 280
L5778 268
L5766 268
L5744 280
L5733 291
L5721 313
L5721 358
L5733 381
L5744 392
L5766 403
L5778 403
L5800 392
L5811 381
L5823 358
L5823 313
L5834 291
L5845 280
L5868 268
L5913 268
L5935 280
L5946 291
L5958 313
L5958 358
L5946 381
L5935 392
L5913 403
L5868 403
L5845 392
L5834 381
L5823 358
" />
<path d="M5958 685
L5721 685
" />
<path d="M5811 685
L5800 707
L5800 752
L5811 775
L5823 786
L5845 797
L5913 797
L5935 786
L5946 775
L5958 752
L5958 707
L5946 685
" />
<path d="M5958 898
L5800 898
" />
<path d="M5721 898
L5733 887
L5744 898
L5733 909
L5721 898
L5744 898
" />
<path d="M5800 977
L5800 1067
" />
<path d="M5721 1011
L5924 1011
L5946 1022
L5958 1044
L5958 1067
" />
<path d="M5958 1326
L5721 1326
" />
<path d="M5834 1326
L5834 1461
" />
<path d="M5958 1461
L5721 1461
" />
<path d="M5834 1573
L5834 1652
" />
<path d="M5958 1686
L5958 1573
L5721 1573
L5721 1686
" />
<path d="M5721 1764
L5958 1922
" />
<path d="M5721 1922
L5958 1764
" />
<path d="M5958 2192
L5721 2192
L5721 2248
L5733 2282
L5755 2304
L5778 2316
L5823 2327
L5856 2327
L5901 2316
L5924 2304
L5946 2282
L5958 2248
L5958 2192
" />
<path d="M5958 2428
L5800 2428
" />
<path d="M5721 2428
L5733 2417
L5744 2428
L5733 2439
L5721 2428
L5744 2428
" />
<path d="M5946 2529
L5958 2552
L5958 2597
L5946 2619
L5924 2631
L5913 2631
L5890 2619
L5879 2597
L5879 2563
L5868 2541
L5845 2529
L5834 2529
L5811 2541
L5800 2563
L5800 2597
L5811 2619
" />
<path d="M5800 2732
L6036 2732
" />
<path d="M5811 2732
L5800 2754
L5800 2799
L5811 2822
L5823 2833
L5845 2844
L5913 2844
L5935 2833
L5946 2822
L5958 2799
L5958 2754
L5946 2732
" />
<path d="M5958 2979
L5946 2957
L5924 2945
L5721 2945
" />
<path d="M5958 3170
L5834 3170
L5811 3159
L5800 3137
L5800 3092
L5811 3069
" />
<path d="M5946 3170
L5958 3148
L5958 3092
L5946 3069
L5924 3058
L5901 3058
L5879 3069
L5868 3092
L5868 3148
L5856 3170
" />
<path d="M5800 3260
L5958 3317
" />
<path d="M5800 3373
L5958 3317
L6014 3294
L6025 3283
L6036 3260
" />
<path d="M5958 3778
L5845 3699
" />
<path d="M5958 3643
L5721 3643
L5721 3733
L5733 3755
L5744 3767
L5766 3778
L5800 3778
L5823 3767
L5834 3755
L5845 3733
L5845 3643
" />
<path d="M5946 3969
L5958 3947
L5958 3902
L5946 3879
L5924 3868
L5834 3868
L5811 3879
L5800 3902
L5800 3947
L5811 3969
L5834 3980
L5856 3980
L5879 3868
" />
<path d="M5800 4059
L5958 4115
L5800 4172
" />
<path d="M5890 4250
L5890 4363
" />
<path d="M5958 4228
L5721 4307
L5958 4385
" />
<path d="M6138 268
L6126 280
L6115 302
L6115 358
L6126 381
L6138 392
L6160 403
L6183 403
L6216 392
L6351 257
L6351 403
" />
<path d="M6115 550
L6115 572
L6126 595
L6138 606
L6160 617
L6205 628
L6261 628
L6306 617
L6329 606
L6340 595
L6351 572
L6351 550
L6340 527
L6329 516
L6306 505
L6261 493
L6205 493
L6160 505
L6138 516
L6126 527
L6115 550
" />
<path d="M6115 775
L6115 797
L6126 819
L6138 831
L6160 842
L6205 853
L6261 853
L6306 842
L6329 831
L6340 819
L6351 797
L6351 775
L6340 752
L6329 741
L6306 730
L6261 718
L6205 718
L6160 730
L6138 741
L6126 752
L6115 775
" />
<path d="M6351 966
L6351 1011
L6340 1033
L6329 1044
L6295 1067
L6250 1078
L6160 1078
L6138 1067
L6126 1056
L6115 1033
L6115 988
L6126 966
L6138 954
L6160 943
L6216 943
L6239 954
L6250 966
L6261 988
L6261 1033
L6250 1056
L6239 1067
L6216 1078
" />
<path d="M6351 1359
L6115 1359
L6115 1416
L6126 1449
L6149 1472
L6171 1483
L6216 1494
L6250 1494
L6295 1483
L6317 1472
L6340 1449
L6351 1416
L6351 1359
" />
<path d="M6351 1629
L6340 1607
L6329 1596
L6306 1584
L6239 1584
L6216 1596
L6205 1607
L6194 1629
L6194 1663
L6205 1686
L6216 1697
L6239 1708
L6306 1708
L6329 1697
L6340 1686
L6351 1663
L6351 1629
" />
<path d="M6351 1809
L6194 1809
" />
<path d="M6216 1809
L6205 1821
L6194 1843
L6194 1877
L6205 1899
L6228 1911
L6351 1911
" />
<path d="M6228 1911
L6205 1922
L6194 1944
L6194 1978
L6205 2001
L6228 2012
L6351 2012
" />
<path d="M6351 2124
L6194 2124
" />
<path d="M6115 2124
L6126 2113
L6138 2124
L6126 2136
L6115 2124
L6138 2124
" />
<path d="M6194 2237
L6351 2237
" />
<path d="M6216 2237
L6205 2248
L6194 2271
L6194 2304
L6205 2327
L6228 2338
L6351 2338
" />
<path d="M6351 2451
L6194 2451
" />
<path d="M6115 2451
L6126 2439
L6138 2451
L6126 2462
L6115 2451
L6138 2451
" />
<path d="M6340 2664
L6351 2642
L6351 2597
L6340 2574
L6329 2563
L6306 2552
L6239 2552
L6216 2563
L6205 2574
L6194 2597
L6194 2642
L6205 2664
" />
<path d="M6115 2912
L6115 3047
" />
<path d="M6351 2979
L6115 2979
" />
<path d="M6351 3125
L6115 3125
" />
<path d="M6351 3227
L6228 3227
L6205 3215
L6194 3193
L6194 3159
L6205 3137
L6216 3125
" />
<path d="M6351 3339
L6194 3339
" />
<path d="M6115 3339
L6126 3328
L6138 3339
L6126 3350
L6115 3339
L6138 3339
" />
<path d="M6351 3452
L6115 3452
" />
<path d="M6205 3452
L6194 3474
L6194 3519
L6205 3542
L6216 3553
L6239 3564
L6306 3564
L6329 3553
L6340 3542
L6351 3519
L6351 3474
L6340 3452
" />
<path d="M6351 3699
L6340 3677
L6329 3665
L6306 3654
L6239 3654
L6216 3665
L6205 3677
L6194 3699
L6194 3733
L6205 3755
L6216 3767
L6239 3778
L6306 3778
L6329 3767
L6340 3755
L6351 3733
L6351 3699
" />
<path d="M6351 3980
L6115 3980
" />
<path d="M6340 3980
L6351 3958
L6351 3913
L6340 3890
L6329 3879
L6306 3868
L6239 3868
L6216 3879
L6205 3890
L6194 3913
L6194 3958
L6205 3980
" />
<path d="M6340 4183
L6351 4160
L6351 4115
L6340 4093
L6317 4082
L6228 4082
L6205 4093
L6194 4115
L6194 4160
L6205 4183
L6228 4194
L6250 4194
L6273 4082
" />
<path d="M6351 4397
L6228 4397
L6205 4385
L6194 4363
L6194 4318
L6205 4295
" />
<path d="M6340 4397
L6351 4374
L6351 4318
L6340 4295
L6317 4284
L6295 4284
L6273 4295
L6261 4318
L6261 4374
L6250 4397
" />
<path d="M6194 4610
L6351 4610
" />
<path d="M6194 4509
L6317 4509
L6340 4520
L6351 4543
L6351 4577
L6340 4599
L6329 4610
" />
<path d="M6745 381
L6509 381
" />
<path d="M6734 381
L6745 358
L6745 313
L6734 291
L6722 280
L6700 268
L6632 268
L6610 280
L6599 291
L6587 313
L6587 358
L6599 381
" />
<path d="M6734 583
L6745 561
L6745 516
L6734 493
L6711 482
L6621 482
L6599 493
L6587 516
L6587 561
L6599 583
L6621 595
L6644 595
L6666 482
" />
<path d="M6587 673
L6745 730
L6587 786
" />
<path d="M6632 1022
L6621 1011
L6610 988
L6610 966
L6621 943
L6632 932
L6655 921
L6677 921
L6700 932
L6711 943
L6722 966
L6722 988
L6711 1011
L6700 1022
" />
<path d="M6610 1022
L6700 1022
L6711 1033
L6711 1044
L6700 1067
L6677 1078
L6621 1078
L6587 1056
L6565 1022
L6554 977
L6565 932
L6587 898
L6621 876
L6666 864
L6711 876
L6745 898
L6767 932
L6779 977
L6767 1022
L6745 1056
" />
<path d="M6745 1179
L6509 1179
" />
<path d="M6745 1281
L6621 1281
L6599 1269
L6587 1247
L6587 1213
L6599 1191
L6610 1179
" />
<path d="M6745 1427
L6734 1404
L6722 1393
L6700 1382
L6632 1382
L6610 1393
L6599 1404
L6587 1427
L6587 1461
L6599 1483
L6610 1494
L6632 1506
L6700 1506
L6722 1494
L6734 1483
L6745 1461
L6745 1427
" />
<path d="M6587 1573
L6587 1663
" />
<path d="M6509 1607
L6711 1607
L6734 1618
L6745 1641
L6745 1663
" />
<path d="M6745 1742
L6509 1742
" />
<path d="M6655 1764
L6745 1832
" />
<path d="M6587 1832
L6677 1742
" />
<path d="M6734 2023
L6745 2001
L6745 1956
L6734 1933
L6711 1922
L6621 1922
L6599 1933
L6587 1956
L6587 2001
L6599 2023
L6621 2034
L6644 2034
L6666 1922
" />
<path d="M6587 2113
L6745 2169
" />
<path d="M6587 2226
L6745 2169
L6801 2147
L6812 2136
L6824 2113
" />
<path d="M6734 2304
L6745 2327
L6745 2372
L6734 2394
L6711 2406
L6700 2406
L6677 2394
L6666 2372
L6666 2338
L6655 2316
L6632 2304
L6621 2304
L6599 2316
L6587 2338
L6587 2372
L6599 2394
" />
<path d="M6745 2541
L6734 2518
L6722 2507
L6700 2496
L6632 2496
L6610 2507
L6599 2518
L6587 2541
L6587 2574
L6599 2597
L6610 2608
L6632 2619
L6700 2619
L6722 2608
L6734 2597
L6745 2574
L6745 2541
" />
<path d="M6587 2687
L6587 2777
" />
<path d="M6745 2721
L6542 2721
L6520 2732
L6509 2754
L6509 2777
" />
<path d="M6587 2822
L6587 2912
" />
<path d="M6509 2855
L6711 2855
L6734 2867
L6745 2889
L6745 2912
" />
<path d="M6722 2990
L6734 3002
L6745 2990
L6734 2979
L6722 2990
L6745 2990
" />
<path d="M6587 3103
L6745 3103
" />
<path d="M6610 3103
L6599 3114
L6587 3137
L6587 3170
L6599 3193
L6621 3204
L6745 3204
" />
<path d="M6734 3407
L6745 3384
L6745 3339
L6734 3317
L6711 3305
L6621 3305
L6599 3317
L6587 3339
L6587 3384
L6599 3407
L6621 3418
L6644 3418
L6666 3305
" />
<path d="M6587 3485
L6587 3575
" />
<path d="M6509 3519
L6711 3519
L6734 3530
L6745 3553
L6745 3575
" />
</g>
<g style="fill:#840084; fill-opacity:0.0; 
stroke:#840084; stroke-width:55.1181; stroke-opacity:1; 
stroke-linecap:round; stroke-linejoin:round;">
<path d="M8619 7405
L8619 7168
L8563 7168
L8529 7180
L8507 7202
L8496 7225
L8484 7270
L8484 7303
L8496 7348
L8507 7371
L8529 7393
L8563 7405
L8619 7405
" />
<path d="M8383 7281
L8304 7281
" />
<path d="M8271 7405
L8383 7405
L8383 7168
L8271 7168
" />
<path d="M8034 7382
L8046 7393
L8079 7405
L8102 7405
L8136 7393
L8158 7371
L8169 7348
L8181 7303
L8181 7270
L8169 7225
L8158 7202
L8136 7180
L8102 7168
L8079 7168
L8046 7180
L8034 7191
" />
<path d="M7933 7405
L7933 7168
" />
<path d="M7821 7405
L7821 7168
L7742 7337
L7663 7168
L7663 7405
" />
<path d="M7562 7337
L7449 7337
" />
<path d="M7584 7405
L7506 7168
L7427 7405
" />
<path d="M7236 7405
L7348 7405
L7348 7168
" />
<path d="M7697 6405
L7697 6168
L7641 6168
L7607 6180
L7585 6202
L7574 6225
L7562 6270
L7562 6303
L7574 6348
L7585 6371
L7607 6393
L7641 6405
L7697 6405
" />
<path d="M7461 6405
L7461 6168
" />
<path d="M7349 6405
L7349 6168
L7270 6337
L7191 6168
L7191 6405
" />
</g>
<g style="fill:#840084; fill-opacity:0.0; 
stroke:#840084; stroke-width:47.2441; stroke-opacity:1; 
stroke-linecap:round; stroke-linejoin:round;">
<path d="M7090 6441
L7090 5654
" />
<path d="M5987 6441
L7090 6441
" />
<path d="M5987 5654
L5987 6441
" />
<path d="M7090 5654
L5987 5654
" />
<path d="M7096 6654
L5993 6654
" />
<path d="M5993 6654
L5993 7441
" />
<path d="M5993 7441
L7096 7441
" />
<path d="M7096 7441
L7096 6654
" />
<path d="M7765 4445
L7765 4651
" />
<path d="M8324 4445
L8324 4651
" />
<path d="M8765 4445
L8765 4651
" />
<path d="M9324 4445
L9324 4651
" />
<path d="M7021 8821
L7021 7774
" />
<path d="M14044 8821
L7021 8821
" />
<path d="M14044 7774
L7021 7774
" />
<path d="M14044 8821
L14044 7774
" />
<path d="M14544 8821
L15068 8821
" />
<path d="M15068 8821
L15068 8298
" />
<path d="M16021 8821
L16544 8821
" />
<path d="M16021 8298
L16021 8821
" />
<path d="M16021 7798
L17068 7798
" />
<path d="M17068 7798
L17068 7774
" />
<path d="M16021 7798
L16021 7774
" />
<path d="M16021 7774
L17068 7774
" />
<path d="M7021 774
L8068 774
" />
<path d="M7021 798
L7021 774
" />
<path d="M8068 798
L8068 774
" />
<path d="M7021 798
L8068 798
" />
<path d="M7021 1298
L7021 1821
" />
<path d="M7021 1821
L7544 1821
" />
<path d="M9021 1821
L9021 774
" />
<path d="M16044 1821
L9021 1821
" />
<path d="M16044 774
L9021 774
" />
<path d="M16044 1821
L16044 774
" />
<path d="M16544 1821
L17068 1821
" />
<path d="M17068 1821
L17068 1298
" />
<path d="M16265 4901
L16265 4695
" />
<path d="M16824 4901
L16824 4695
" />
<path d="M12942 4827
L13147 4827
" />
<path d="M12942 4268
L13147 4268
" />
</g>
<g style="fill:#840084; fill-opacity:0.0; 
stroke:#840084; stroke-width:59.0551; stroke-opacity:1; 
stroke-linecap:round; stroke-linejoin:round;">
<path d="M7360 4688
L7379 4707
L7435 4726
L7472 4726
L7529 4707
L7566 4670
L7585 4632
L7604 4557
L7604 4501
L7585 4426
L7566 4388
L7529 4351
L7472 4332
L7435 4332
L7379 4351
L7360 4370
" />
<path d="M6985 4726
L7210 4726
" />
<path d="M7098 4726
L7098 4332
L7135 4388
L7173 4426
L7210 4445
" />
<path d="M10360 4726
L10491 4538
" />
<path d="M10585 4726
L10585 4332
L10435 4332
L10397 4351
L10379 4370
L10360 4407
L10360 4463
L10379 4501
L10397 4520
L10435 4538
L10585 4538
" />
<path d="M10229 4332
L9985 4332
L10116 4482
L10060 4482
L10023 4501
L10004 4520
L9985 4557
L9985 4651
L10004 4688
L10023 4707
L10060 4726
L10173 4726
L10210 4707
L10229 4688
" />
<path d="M15593 8082
L15593 8363
L15612 8420
L15649 8457
L15705 8476
L15743 8476
" />
<path d="M15237 8213
L15237 8476
" />
<path d="M15330 8063
L15424 8345
L15180 8345
" />
<path d="M17676 8082
L17676 8363
L17694 8420
L17732 8457
L17788 8476
L17826 8476
" />
<path d="M17526 8082
L17282 8082
L17413 8232
L17357 8232
L17319 8251
L17301 8270
L17282 8307
L17282 8401
L17301 8438
L17319 8457
L17357 8476
L17469 8476
L17507 8457
L17526 8438
" />
<path d="M7676 1999
L7676 2281
L7694 2337
L7732 2374
L7788 2393
L7826 2393
" />
<path d="M7282 2393
L7507 2393
" />
<path d="M7394 2393
L7394 1999
L7432 2056
L7469 2093
L7507 2112
" />
<path d="M16676 2082
L16676 2363
L16694 2420
L16732 2457
L16788 2476
L16826 2476
" />
<path d="M16507 2120
L16488 2101
L16451 2082
L16357 2082
L16319 2101
L16301 2120
L16282 2157
L16282 2195
L16301 2251
L16526 2476
L16282 2476
" />
<path d="M15810 4726
L15941 4538
" />
<path d="M16035 4726
L16035 4332
L15885 4332
L15847 4351
L15829 4370
L15810 4407
L15810 4463
L15829 4501
L15847 4520
L15885 4538
L16035 4538
" />
<path d="M15660 4370
L15641 4351
L15604 4332
L15510 4332
L15473 4351
L15454 4370
L15435 4407
L15435 4445
L15454 4501
L15679 4726
L15435 4726
" />
<path d="M12110 4726
L12241 4538
" />
<path d="M12335 4726
L12335 4332
L12185 4332
L12147 4351
L12129 4370
L12110 4407
L12110 4463
L12129 4501
L12147 4520
L12185 4538
L12335 4538
" />
<path d="M11735 4726
L11960 4726
" />
<path d="M11848 4726
L11848 4332
L11885 4388
L11923 4426
L11960 4445
" />
<g >
</g>
</g>
<g style="fill:#000000; fill-opacity:0.0; 
stroke:#000000; stroke-width:59.0551; stroke-opacity:1; 
stroke-linecap:round; stroke-linejoin:round;">
<g >
</g>
<g style="fill:#848400; fill-opacity:0.0; 
stroke:#848400; stroke-width:59.0551; stroke-opacity:1; 
stroke-linecap:round; stroke-linejoin:round;">
</g>
<g style="fill:#848400; fill-opacity:1.0; 
stroke:#848400; stroke-width:0; stroke-opacity:1; 
stroke-linecap:round; stroke-linejoin:round;">
<circle cx="12544.9" cy="3298.23" r="362.205" /> 
</g>
<g style="fill:#848400; fill-opacity:1.0; 
stroke:#848400; stroke-width:39.3701; stroke-opacity:1; 
stroke-linecap:round; stroke-linejoin:round;">
</g>
<g style="fill:#848400; fill-opacity:1.0; 
stroke:#848400; stroke-width:0; stroke-opacity:1; 
stroke-linecap:round; stroke-linejoin:round;">
<circle cx="13544.9" cy="3298.23" r="362.205" /> 
</g>
<g style="fill:#848400; fill-opacity:1.0; 
stroke:#848400; stroke-width:39.3701; stroke-opacity:1; 
stroke-linecap:round; stroke-linejoin:round;">
</g>
<g style="fill:#848400; fill-opacity:1.0; 
stroke:#848400; stroke-width:0; stroke-opacity:1; 
stroke-linecap:round; stroke-linejoin:round;">
<circle cx="14544.9" cy="3298.23" r="362.205" /> 
</g>
<g style="fill:#848400; fill-opacity:1.0; 
stroke:#848400; stroke-width:39.3701; stroke-opacity:1; 
stroke-linecap:round; stroke-linejoin:round;">
</g>
<g style="fill:#848400; fill-opacity:1.0; 
stroke:#848400; stroke-width:0; stroke-opacity:1; 
stroke-linecap:round; stroke-linejoin:round;">
<circle cx="15544.9" cy="3298.23" r="362.205" /> 
</g>
<g style="fill:#848400; fill-opacity:1.0; 
stroke:#848400; stroke-width:39.3701; stroke-opacity:1; 
stroke-linecap:round; stroke-linejoin:round;">
</g>
<g style="fill:#848400; fill-opacity:1.0; 
stroke:#848400; stroke-width:0; stroke-opacity:1; 
stroke-linecap:round; stroke-linejoin:round;">
<circle cx="16544.9" cy="3298.23" r="362.205" /> 
</g>
<g style="fill:#848400; fill-opacity:1.0; 
stroke:#848400; stroke-width:39.3701; stroke-opacity:1; 
stroke-linecap:round; stroke-linejoin:round;">
</g>
<g style="fill:#848400; fill-opacity:1.0; 
stroke:#848400; stroke-width:0; stroke-opacity:1; 
stroke-linecap:round; stroke-linejoin:round;">
<circle cx="16544.9" cy="6298.23" r="362.205" /> 
</g>
<g style="fill:#848400; fill-opacity:1.0; 
stroke:#848400; stroke-width:39.3701; stroke-opacity:1; 
stroke-linecap:round; stroke-linejoin:round;">
</g>
<g style="fill:#848400; fill-opacity:1.0; 
stroke:#848400; stroke-width:0; stroke-opacity:1; 
stroke-linecap:round; stroke-linejoin:round;">
<circle cx="15544.9" cy="6298.23" r="362.205" /> 
</g>
<g style="fill:#848400; fill-opacity:1.0; 
stroke:#848400; stroke-width:39.3701; stroke-opacity:1; 
stroke-linecap:round; stroke-linejoin:round;">
</g>
<g style="fill:#848400; fill-opacity:1.0; 
stroke:#848400; stroke-width:0; stroke-opacity:1; 
stroke-linecap:round; stroke-linejoin:round;">
<circle cx="14544.9" cy="6298.23" r="362.205" /> 
</g>
<g style="fill:#848400; fill-opacity:1.0; 
stroke:#848400; stroke-width:39.3701; stroke-opacity:1; 
stroke-linecap:round; stroke-linejoin:round;">
</g>
<g style="fill:#848400; fill-opacity:1.0; 
stroke:#848400; stroke-width:0; stroke-opacity:1; 
stroke-linecap:round; stroke-linejoin:round;">
<circle cx="13544.9" cy="6298.23" r="362.205" /> 
</g>
<g style="fill:#848400; fill-opacity:1.0; 
stroke:#848400; stroke-width:39.3701; stroke-opacity:1; 
stroke-linecap:round; stroke-linejoin:round;">
</g>
<g style="fill:#848400; fill-opacity:1.0; 
stroke:#848400; stroke-width:0; stroke-opacity:1; 
stroke-linecap:round; stroke-linejoin:round;">
<path style="fill:#848400; fill-opacity:1.0; 
stroke:#848400; stroke-width:0; stroke-opacity:1; 
stroke-linecap:round; stroke-linejoin:round;fill-rule:evenodd;"
d="M 12907,6660
12182,6660
12182,5936
12907,5936
12907,6660
Z" /> 
</g>
<g >
</g>
<g style="fill:#008400; fill-opacity:1.0; 
stroke:#008400; stroke-width:0; stroke-opacity:1; 
stroke-linecap:round; stroke-linejoin:round;">
<path style="fill:#008400; fill-opacity:1.0; 
stroke:#008400; stroke-width:0; stroke-opacity:1; 
stroke-linecap:round; stroke-linejoin:round;fill-rule:evenodd;"
d="M 6527,5705
6527,6390
6038,6390
6038,5705
6527,5705
Z" /> 
<path style="fill:#008400; fill-opacity:1.0; 
stroke:#008400; stroke-width:0; stroke-opacity:1; 
stroke-linecap:round; stroke-linejoin:round;fill-rule:evenodd;"
d="M 7038,5705
7038,6390
6550,6390
6550,5705
7038,5705
Z" /> 
</g>
<g >
</g>
<g style="fill:#008400; fill-opacity:1.0; 
stroke:#008400; stroke-width:0; stroke-opacity:1; 
stroke-linecap:round; stroke-linejoin:round;">
<path style="fill:#008400; fill-opacity:1.0; 
stroke:#008400; stroke-width:0; stroke-opacity:1; 
stroke-linecap:round; stroke-linejoin:round;fill-rule:evenodd;"
d="M 7044,6705
7044,7390
6556,7390
6556,6705
7044,6705
Z" /> 
<path style="fill:#008400; fill-opacity:1.0; 
stroke:#008400; stroke-width:0; stroke-opacity:1; 
stroke-linecap:round; stroke-linejoin:round;fill-rule:evenodd;"
d="M 6533,6705
6533,7390
6044,7390
6044,6705
6533,6705
Z" /> 
</g>
<g >
</g>
<g style="fill:#008400; fill-opacity:1.0; 
stroke:#008400; stroke-width:0; stroke-opacity:1; 
stroke-linecap:round; stroke-linejoin:round;">
<path style="fill:#008400; fill-opacity:1.0; 
stroke:#008400; stroke-width:0; stroke-opacity:1; 
stroke-linecap:round; stroke-linejoin:round;fill-rule:evenodd;"
d="M 8260,3871
8271,3873
8283,3876
8294,3880
8304,3885
8314,3891
8324,3898
8332,3905
8340,3914
8347,3923
8353,3933
8358,3944
8362,3955
8365,3966
8367,3978
8367,3990
8367,4299
8367,4311
8365,4322
8362,4333
8358,4344
8353,4355
8347,4365
8340,4374
8332,4383
8324,4391
8314,4398
8304,4404
8294,4409
8283,4413
8271,4416
8260,4417
8248,4418
7841,4418
7829,4417
7817,4416
7806,4413
7795,4409
7784,4404
7774,4398
7765,4391
7756,4383
7749,4374
7742,4365
7736,4355
7731,4344
7727,4333
7724,4322
7722,4311
7722,4299
7722,3990
7722,3978
7724,3966
7727,3955
7731,3944
7736,3933
7742,3923
7749,3914
7756,3905
7765,3898
7774,3891
7784,3885
7795,3880
7806,3876
7817,3873
7829,3871
7841,3871
8248,3871
8260,3871
Z" /> 
<path style="fill:#008400; fill-opacity:1.0; 
stroke:#008400; stroke-width:0; stroke-opacity:1; 
stroke-linecap:round; stroke-linejoin:round;fill-rule:evenodd;"
d="M 8260,4678
8271,4680
8283,4683
8294,4687
8304,4692
8314,4698
8324,4705
8332,4712
8340,4721
8347,4731
8353,4741
8358,4751
8362,4762
8365,4773
8367,4785
8367,4797
8367,5106
8367,5118
8365,5129
8362,5140
8358,5151
8353,5162
8347,5172
8340,5181
8332,5190
8324,5198
8314,5205
8304,5211
8294,5216
8283,5220
8271,5223
8260,5224
8248,5225
7841,5225
7829,5224
7817,5223
7806,5220
7795,5216
7784,5211
7774,5205
7765,5198
7756,5190
7749,5181
7742,5172
7736,5162
7731,5151
7727,5140
7724,5129
7722,5118
7722,5106
7722,4797
7722,4785
7724,4773
7727,4762
7731,4751
7736,4741
7742,4731
7749,4721
7756,4712
7765,4705
7774,4698
7784,4692
7795,4687
7806,4683
7817,4680
7829,4678
7841,4678
8248,4678
8260,4678
Z" /> 
</g>
<g >
</g>
<g style="fill:#008400; fill-opacity:1.0; 
stroke:#008400; stroke-width:0; stroke-opacity:1; 
stroke-linecap:round; stroke-linejoin:round;">
<path style="fill:#008400; fill-opacity:1.0; 
stroke:#008400; stroke-width:0; stroke-opacity:1; 
stroke-linecap:round; stroke-linejoin:round;fill-rule:evenodd;"
d="M 9260,3871
9271,3873
9283,3876
9294,3880
9304,3885
9314,3891
9324,3898
9332,3905
9340,3914
9347,3923
9353,3933
9358,3944
9362,3955
9365,3966
9367,3978
9367,3990
9367,4299
9367,4311
9365,4322
9362,4333
9358,4344
9353,4355
9347,4365
9340,4374
9332,4383
9324,4391
9314,4398
9304,4404
9294,4409
9283,4413
9271,4416
9260,4417
9248,4418
8841,4418
8829,4417
8817,4416
8806,4413
8795,4409
8784,4404
8774,4398
8765,4391
8756,4383
8749,4374
8742,4365
8736,4355
8731,4344
8727,4333
8724,4322
8722,4311
8722,4299
8722,3990
8722,3978
8724,3966
8727,3955
8731,3944
8736,3933
8742,3923
8749,3914
8756,3905
8765,3898
8774,3891
8784,3885
8795,3880
8806,3876
8817,3873
8829,3871
8841,3871
9248,3871
9260,3871
Z" /> 
<path style="fill:#008400; fill-opacity:1.0; 
stroke:#008400; stroke-width:0; stroke-opacity:1; 
stroke-linecap:round; stroke-linejoin:round;fill-rule:evenodd;"
d="M 9260,4678
9271,4680
9283,4683
9294,4687
9304,4692
9314,4698
9324,4705
9332,4712
9340,4721
9347,4731
9353,4741
9358,4751
9362,4762
9365,4773
9367,4785
9367,4797
9367,5106
9367,5118
9365,5129
9362,5140
9358,5151
9353,5162
9347,5172
9340,5181
9332,5190
9324,5198
9314,5205
9304,5211
9294,5216
9283,5220
9271,5223
9260,5224
9248,5225
8841,5225
8829,5224
8817,5223
8806,5220
8795,5216
8784,5211
8774,5205
8765,5198
8756,5190
8749,5181
8742,5172
8736,5162
8731,5151
8727,5140
8724,5129
8722,5118
8722,5106
8722,4797
8722,4785
8724,4773
8727,4762
8731,4751
8736,4741
8742,4731
8749,4721
8756,4712
8765,4705
8774,4698
8784,4692
8795,4687
8806,4683
8817,4680
8829,4678
8841,4678
9248,4678
9260,4678
Z" /> 
</g>
<g >
</g>
<g style="fill:#848400; fill-opacity:1.0; 
stroke:#848400; stroke-width:0; stroke-opacity:1; 
stroke-linecap:round; stroke-linejoin:round;">
<path style="fill:#848400; fill-opacity:1.0; 
stroke:#848400; stroke-width:0; stroke-opacity:1; 
stroke-linecap:round; stroke-linejoin:round;fill-rule:evenodd;"
d="M 14926,8680
14162,8680
14162,7916
14926,7916
14926,8680
Z" /> 
</g>
<g style="fill:#848400; fill-opacity:1.0; 
stroke:#848400; stroke-width:763.78; stroke-opacity:1; 
stroke-linecap:round; stroke-linejoin:round;">
</g>
<g style="fill:#848400; fill-opacity:0.0; 
stroke:#848400; stroke-width:763.78; stroke-opacity:1; 
stroke-linecap:round; stroke-linejoin:round;">
<path d="M13544 8298
L13544 8298
" />
<path d="M12544 8298
L12544 8298
" />
<path d="M11544 8298
L11544 8298
" />
<path d="M10544 8298
L10544 8298
" />
<path d="M9544 8298
L9544 8298
" />
<path d="M8544 8298
L8544 8298
" />
<path d="M7544 8298
L7544 8298
" />
</g>
<g >
</g>
<g style="fill:#848400; fill-opacity:0.0; 
stroke:#848400; stroke-width:763.78; stroke-opacity:1; 
stroke-linecap:round; stroke-linejoin:round;">
</g>
<g style="fill:#848400; fill-opacity:0.0; 
stroke:#848400; stroke-width:0; stroke-opacity:1; 
stroke-linecap:round; stroke-linejoin:round;">
</g>
<g style="fill:#848400; fill-opacity:1.0; 
stroke:#848400; stroke-width:0; stroke-opacity:1; 
stroke-linecap:round; stroke-linejoin:round;">
<path style="fill:#848400; fill-opacity:1.0; 
stroke:#848400; stroke-width:0; stroke-opacity:1; 
stroke-linecap:round; stroke-linejoin:round;fill-rule:evenodd;"
d="M 16162,8680
16162,7916
16926,7916
16926,8680
16162,8680
Z" /> 
</g>
<g >
</g>
<g style="fill:#848400; fill-opacity:1.0; 
stroke:#848400; stroke-width:0; stroke-opacity:1; 
stroke-linecap:round; stroke-linejoin:round;">
<path style="fill:#848400; fill-opacity:1.0; 
stroke:#848400; stroke-width:0; stroke-opacity:1; 
stroke-linecap:round; stroke-linejoin:round;fill-rule:evenodd;"
d="M 7162,1680
7162,916
7926,916
7926,1680
7162,1680
Z" /> 
</g>
<g >
</g>
<g style="fill:#848400; fill-opacity:1.0; 
stroke:#848400; stroke-width:0; stroke-opacity:1; 
stroke-linecap:round; stroke-linejoin:round;">
<path style="fill:#848400; fill-opacity:1.0; 
stroke:#848400; stroke-width:0; stroke-opacity:1; 
stroke-linecap:round; stroke-linejoin:round;fill-rule:evenodd;"
d="M 16926,1680
16162,1680
16162,916
16926,916
16926,1680
Z" /> 
</g>
<g style="fill:#848400; fill-opacity:1.0; 
stroke:#848400; stroke-width:763.78; stroke-opacity:1; 
stroke-linecap:round; stroke-linejoin:round;">
</g>
<g style="fill:#848400; fill-opacity:0.0; 
stroke:#848400; stroke-width:763.78; stroke-opacity:1; 
stroke-linecap:round; stroke-linejoin:round;">
<path d="M15544 1298
L15544 1298
" />
<path d="M14544 1298
L14544 1298
" />
<path d="M13544 1298
L13544 1298
" />
<path d="M12544 1298
L12544 1298
" />
<path d="M11544 1298
L11544 1298
" />
<path d="M10544 1298
L10544 1298
" />
<path d="M9544 1298
L9544 1298
" />
</g>
<g >
</g>
<g >
</g>
<g style="fill:#008400; fill-opacity:0.0; 
stroke:#008400; stroke-width:763.78; stroke-opacity:1; 
stroke-linecap:round; stroke-linejoin:round;">
</g>
<g style="fill:#008400; fill-opacity:0.0; 
stroke:#008400; stroke-width:0; stroke-opacity:1; 
stroke-linecap:round; stroke-linejoin:round;">
</g>
<g style="fill:#008400; fill-opacity:1.0; 
stroke:#008400; stroke-width:0; stroke-opacity:1; 
stroke-linecap:round; stroke-linejoin:round;">
<path style="fill:#008400; fill-opacity:1.0; 
stroke:#008400; stroke-width:0; stroke-opacity:1; 
stroke-linecap:round; stroke-linejoin:round;fill-rule:evenodd;"
d="M 16760,4121
16771,4123
16783,4126
16794,4130
16804,4135
16814,4141
16824,4148
16832,4155
16840,4164
16847,4173
16853,4183
16858,4194
16862,4205
16865,4216
16867,4228
16867,4240
16867,4549
16867,4561
16865,4572
16862,4583
16858,4594
16853,4605
16847,4615
16840,4624
16832,4633
16824,4641
16814,4648
16804,4654
16794,4659
16783,4663
16771,4666
16760,4667
16748,4668
16341,4668
16329,4667
16317,4666
16306,4663
16295,4659
16284,4654
16274,4648
16265,4641
16256,4633
16249,4624
16242,4615
16236,4605
16231,4594
16227,4583
16224,4572
16222,4561
16222,4549
16222,4240
16222,4228
16224,4216
16227,4205
16231,4194
16236,4183
16242,4173
16249,4164
16256,4155
16265,4148
16274,4141
16284,4135
16295,4130
16306,4126
16317,4123
16329,4121
16341,4121
16748,4121
16760,4121
Z" /> 
<path style="fill:#008400; fill-opacity:1.0; 
stroke:#008400; stroke-width:0; stroke-opacity:1; 
stroke-linecap:round; stroke-linejoin:round;fill-rule:evenodd;"
d="M 16760,4928
16771,4930
16783,4933
16794,4937
16804,4942
16814,4948
16824,4955
16832,4962
16840,4971
16847,4981
16853,4991
16858,5001
16862,5012
16865,5023
16867,5035
16867,5047
16867,5356
16867,5368
16865,5379
16862,5390
16858,5401
16853,5412
16847,5422
16840,5431
16832,5440
16824,5448
16814,5455
16804,5461
16794,5466
16783,5470
16771,5473
16760,5474
16748,5475
16341,5475
16329,5474
16317,5473
16306,5470
16295,5466
16284,5461
16274,5455
16265,5448
16256,5440
16249,5431
16242,5422
16236,5412
16231,5401
16227,5390
16224,5379
16222,5368
16222,5356
16222,5047
16222,5035
16224,5023
16227,5012
16231,5001
16236,4991
16242,4981
16249,4971
16256,4962
16265,4955
16274,4948
16284,4942
16295,4937
16306,4933
16317,4930
16329,4928
16341,4928
16748,4928
16760,4928
Z" /> 
</g>
<g >
</g>
<g style="fill:#008400; fill-opacity:1.0; 
stroke:#008400; stroke-width:0; stroke-opacity:1; 
stroke-linecap:round; stroke-linejoin:round;">
<path style="fill:#008400; fill-opacity:1.0; 
stroke:#008400; stroke-width:0; stroke-opacity:1; 
stroke-linecap:round; stroke-linejoin:round;fill-rule:evenodd;"
d="M 12807,4225
12819,4227
12830,4230
12841,4234
12852,4239
12862,4245
12871,4252
12880,4260
12887,4268
12894,4278
12900,4288
12905,4298
12909,4309
12912,4321
12914,4332
12914,4344
12914,4752
12914,4763
12912,4775
12909,4786
12905,4797
12900,4808
12894,4818
12887,4827
12880,4836
12871,4844
12862,4851
12852,4857
12841,4862
12830,4865
12819,4868
12807,4870
12795,4871
12486,4871
12475,4870
12463,4868
12452,4865
12441,4862
12430,4857
12420,4851
12411,4844
12402,4836
12394,4827
12387,4818
12381,4808
12376,4797
12372,4786
12370,4775
12368,4763
12367,4752
12367,4344
12368,4332
12370,4321
12372,4309
12376,4298
12381,4288
12387,4278
12394,4268
12402,4260
12411,4252
12420,4245
12430,4239
12441,4234
12452,4230
12463,4227
12475,4225
12486,4225
12795,4225
12807,4225
Z" /> 
<path style="fill:#008400; fill-opacity:1.0; 
stroke:#008400; stroke-width:0; stroke-opacity:1; 
stroke-linecap:round; stroke-linejoin:round;fill-rule:evenodd;"
d="M 13614,4225
13626,4227
13637,4230
13648,4234
13659,4239
13669,4245
13678,4252
13687,4260
13695,4268
13701,4278
13708,4288
13712,4298
13716,4309
13719,4321
13721,4332
13722,4344
13722,4752
13721,4763
13719,4775
13716,4786
13712,4797
13708,4808
13701,4818
13695,4827
13687,4836
13678,4844
13669,4851
13659,4857
13648,4862
13637,4865
13626,4868
13614,4870
13603,4871
13293,4871
13282,4870
13270,4868
13259,4865
13248,4862
13237,4857
13227,4851
13218,4844
13209,4836
13201,4827
13194,4818
13188,4808
13183,4797
13179,4786
13177,4775
13175,4763
13174,4752
13174,4344
13175,4332
13177,4321
13179,4309
13183,4298
13188,4288
13194,4278
13201,4268
13209,4260
13218,4252
13227,4245
13237,4239
13248,4234
13259,4230
13270,4227
13282,4225
13293,4225
13603,4225
13614,4225
Z" /> 
</g>
<g >
</g>
<g >
</g>
<g >
</g>
</g>
<g style="fill:#000000; fill-opacity:1.0; 
stroke:#000000; stroke-width:0; stroke-opacity:1; 
stroke-linecap:round; stroke-linejoin:round;">
<g >
</g>
<g style="fill:#848400; fill-opacity:1.0; 
stroke:#848400; stroke-width:0; stroke-opacity:1; 
stroke-linecap:round; stroke-linejoin:round;">
<circle cx="12544.9" cy="3298.23" r="314.961" /> 
</g>
<g style="fill:#848400; fill-opacity:1.0; 
stroke:#848400; stroke-width:39.3701; stroke-opacity:1; 
stroke-linecap:round; stroke-linejoin:round;">
</g>
<g style="fill:#848400; fill-opacity:1.0; 
stroke:#848400; stroke-width:0; stroke-opacity:1; 
stroke-linecap:round; stroke-linejoin:round;">
<circle cx="13544.9" cy="3298.23" r="314.961" /> 
</g>
<g style="fill:#848400; fill-opacity:1.0; 
stroke:#848400; stroke-width:39.3701; stroke-opacity:1; 
stroke-linecap:round; stroke-linejoin:round;">
</g>
<g style="fill:#848400; fill-opacity:1.0; 
stroke:#848400; stroke-width:0; stroke-opacity:1; 
stroke-linecap:round; stroke-linejoin:round;">
<circle cx="14544.9" cy="3298.23" r="314.961" /> 
</g>
<g style="fill:#848400; fill-opacity:1.0; 
stroke:#848400; stroke-width:39.3701; stroke-opacity:1; 
stroke-linecap:round; stroke-linejoin:round;">
</g>
<g style="fill:#848400; fill-opacity:1.0; 
stroke:#848400; stroke-width:0; stroke-opacity:1; 
stroke-linecap:round; stroke-linejoin:round;">
<circle cx="15544.9" cy="3298.23" r="314.961" /> 
</g>
<g style="fill:#848400; fill-opacity:1.0; 
stroke:#848400; stroke-width:39.3701; stroke-opacity:1; 
stroke-linecap:round; stroke-linejoin:round;">
</g>
<g style="fill:#848400; fill-opacity:1.0; 
stroke:#848400; stroke-width:0; stroke-opacity:1; 
stroke-linecap:round; stroke-linejoin:round;">
<circle cx="16544.9" cy="3298.23" r="314.961" /> 
</g>
<g style="fill:#848400; fill-opacity:1.0; 
stroke:#848400; stroke-width:39.3701; stroke-opacity:1; 
stroke-linecap:round; stroke-linejoin:round;">
</g>
<g style="fill:#848400; fill-opacity:1.0; 
stroke:#848400; stroke-width:0; stroke-opacity:1; 
stroke-linecap:round; stroke-linejoin:round;">
<circle cx="16544.9" cy="6298.23" r="314.961" /> 
</g>
<g style="fill:#848400; fill-opacity:1.0; 
stroke:#848400; stroke-width:39.3701; stroke-opacity:1; 
stroke-linecap:round; stroke-linejoin:round;">
</g>
<g style="fill:#848400; fill-opacity:1.0; 
stroke:#848400; stroke-width:0; stroke-opacity:1; 
stroke-linecap:round; stroke-linejoin:round;">
<circle cx="15544.9" cy="6298.23" r="314.961" /> 
</g>
<g style="fill:#848400; fill-opacity:1.0; 
stroke:#848400; stroke-width:39.3701; stroke-opacity:1; 
stroke-linecap:round; stroke-linejoin:round;">
</g>
<g style="fill:#848400; fill-opacity:1.0; 
stroke:#848400; stroke-width:0; stroke-opacity:1; 
stroke-linecap:round; stroke-linejoin:round;">
<circle cx="14544.9" cy="6298.23" r="314.961" /> 
</g>
<g style="fill:#848400; fill-opacity:1.0; 
stroke:#848400; stroke-width:39.3701; stroke-opacity:1; 
stroke-linecap:round; stroke-linejoin:round;">
</g>
<g style="fill:#848400; fill-opacity:1.0; 
stroke:#848400; stroke-width:0; stroke-opacity:1; 
stroke-linecap:round; stroke-linejoin:round;">
<circle cx="13544.9" cy="6298.23" r="314.961" /> 
</g>
<g style="fill:#848400; fill-opacity:1.0; 
stroke:#848400; stroke-width:39.3701; stroke-opacity:1; 
stroke-linecap:round; stroke-linejoin:round;">
</g>
<g style="fill:#848400; fill-opacity:1.0; 
stroke:#848400; stroke-width:0; stroke-opacity:1; 
stroke-linecap:round; stroke-linejoin:round;">
<path style="fill:#848400; fill-opacity:1.0; 
stroke:#848400; stroke-width:0; stroke-opacity:1; 
stroke-linecap:round; stroke-linejoin:round;fill-rule:evenodd;"
d="M 12859,6613
12229,6613
12229,5983
12859,5983
12859,6613
Z" /> 
</g>
<g >
</g>
<g style="fill:#008400; fill-opacity:1.0; 
stroke:#008400; stroke-width:0; stroke-opacity:1; 
stroke-linecap:round; stroke-linejoin:round;">
<path style="fill:#008400; fill-opacity:1.0; 
stroke:#008400; stroke-width:0; stroke-opacity:1; 
stroke-linecap:round; stroke-linejoin:round;fill-rule:evenodd;"
d="M 6479,5752
6479,6343
6086,6343
6086,5752
6479,5752
Z" /> 
<path style="fill:#008400; fill-opacity:1.0; 
stroke:#008400; stroke-width:0; stroke-opacity:1; 
stroke-linecap:round; stroke-linejoin:round;fill-rule:evenodd;"
d="M 6991,5752
6991,6343
6598,6343
6598,5752
6991,5752
Z" /> 
</g>
<g >
</g>
<g style="fill:#008400; fill-opacity:1.0; 
stroke:#008400; stroke-width:0; stroke-opacity:1; 
stroke-linecap:round; stroke-linejoin:round;">
<path style="fill:#008400; fill-opacity:1.0; 
stroke:#008400; stroke-width:0; stroke-opacity:1; 
stroke-linecap:round; stroke-linejoin:round;fill-rule:evenodd;"
d="M 6997,6752
6997,7343
6603,7343
6603,6752
6997,6752
Z" /> 
<path style="fill:#008400; fill-opacity:1.0; 
stroke:#008400; stroke-width:0; stroke-opacity:1; 
stroke-linecap:round; stroke-linejoin:round;fill-rule:evenodd;"
d="M 6485,6752
6485,7343
6092,7343
6092,6752
6485,6752
Z" /> 
</g>
<g >
</g>
<g style="fill:#008400; fill-opacity:1.0; 
stroke:#008400; stroke-width:0; stroke-opacity:1; 
stroke-linecap:round; stroke-linejoin:round;">
<path style="fill:#008400; fill-opacity:1.0; 
stroke:#008400; stroke-width:0; stroke-opacity:1; 
stroke-linecap:round; stroke-linejoin:round;fill-rule:evenodd;"
d="M 8231,3918
8241,3920
8250,3922
8259,3925
8268,3929
8276,3934
8284,3940
8291,3947
8298,3954
8303,3962
8308,3970
8312,3979
8316,3988
8318,3997
8319,4007
8320,4016
8320,4272
8319,4282
8318,4291
8316,4301
8312,4310
8308,4319
8303,4327
8298,4335
8291,4342
8284,4348
8276,4354
8268,4359
8259,4363
8250,4366
8241,4369
8231,4370
8222,4371
7867,4371
7858,4370
7848,4369
7839,4366
7830,4363
7821,4359
7813,4354
7805,4348
7798,4342
7791,4335
7785,4327
7780,4319
7776,4310
7773,4301
7771,4291
7769,4282
7769,4272
7769,4016
7769,4007
7771,3997
7773,3988
7776,3979
7780,3970
7785,3962
7791,3954
7798,3947
7805,3940
7813,3934
7821,3929
7830,3925
7839,3922
7848,3920
7858,3918
7867,3918
8222,3918
8231,3918
Z" /> 
<path style="fill:#008400; fill-opacity:1.0; 
stroke:#008400; stroke-width:0; stroke-opacity:1; 
stroke-linecap:round; stroke-linejoin:round;fill-rule:evenodd;"
d="M 8231,4725
8241,4727
8250,4729
8259,4732
8268,4737
8276,4741
8284,4747
8291,4754
8298,4761
8303,4769
8308,4777
8312,4786
8316,4795
8318,4804
8319,4814
8320,4823
8320,5079
8319,5089
8318,5098
8316,5108
8312,5117
8308,5126
8303,5134
8298,5142
8291,5149
8284,5155
8276,5161
8268,5166
8259,5170
8250,5173
8241,5176
8231,5177
8222,5178
7867,5178
7858,5177
7848,5176
7839,5173
7830,5170
7821,5166
7813,5161
7805,5155
7798,5149
7791,5142
7785,5134
7780,5126
7776,5117
7773,5108
7771,5098
7769,5089
7769,5079
7769,4823
7769,4814
7771,4804
7773,4795
7776,4786
7780,4777
7785,4769
7791,4761
7798,4754
7805,4747
7813,4741
7821,4737
7830,4732
7839,4729
7848,4727
7858,4725
7867,4725
8222,4725
8231,4725
Z" /> 
</g>
<g >
</g>
<g style="fill:#008400; fill-opacity:1.0; 
stroke:#008400; stroke-width:0; stroke-opacity:1; 
stroke-linecap:round; stroke-linejoin:round;">
<path style="fill:#008400; fill-opacity:1.0; 
stroke:#008400; stroke-width:0; stroke-opacity:1; 
stroke-linecap:round; stroke-linejoin:round;fill-rule:evenodd;"
d="M 9231,3918
9241,3920
9250,3922
9259,3925
9268,3929
9276,3934
9284,3940
9291,3947
9298,3954
9303,3962
9308,3970
9312,3979
9316,3988
9318,3997
9319,4007
9320,4016
9320,4272
9319,4282
9318,4291
9316,4301
9312,4310
9308,4319
9303,4327
9298,4335
9291,4342
9284,4348
9276,4354
9268,4359
9259,4363
9250,4366
9241,4369
9231,4370
9222,4371
8867,4371
8858,4370
8848,4369
8839,4366
8830,4363
8821,4359
8813,4354
8805,4348
8798,4342
8791,4335
8785,4327
8780,4319
8776,4310
8773,4301
8771,4291
8769,4282
8769,4272
8769,4016
8769,4007
8771,3997
8773,3988
8776,3979
8780,3970
8785,3962
8791,3954
8798,3947
8805,3940
8813,3934
8821,3929
8830,3925
8839,3922
8848,3920
8858,3918
8867,3918
9222,3918
9231,3918
Z" /> 
<path style="fill:#008400; fill-opacity:1.0; 
stroke:#008400; stroke-width:0; stroke-opacity:1; 
stroke-linecap:round; stroke-linejoin:round;fill-rule:evenodd;"
d="M 9231,4725
9241,4727
9250,4729
9259,4732
9268,4737
9276,4741
9284,4747
9291,4754
9298,4761
9303,4769
9308,4777
9312,4786
9316,4795
9318,4804
9319,4814
9320,4823
9320,5079
9319,5089
9318,5098
9316,5108
9312,5117
9308,5126
9303,5134
9298,5142
9291,5149
9284,5155
9276,5161
9268,5166
9259,5170
9250,5173
9241,5176
9231,5177
9222,5178
8867,5178
8858,5177
8848,5176
8839,5173
8830,5170
8821,5166
8813,5161
8805,5155
8798,5149
8791,5142
8785,5134
8780,5126
8776,5117
8773,5108
8771,5098
8769,5089
8769,5079
8769,4823
8769,4814
8771,4804
8773,4795
8776,4786
8780,4777
8785,4769
8791,4761
8798,4754
8805,4747
8813,4741
8821,4737
8830,4732
8839,4729
8848,4727
8858,4725
8867,4725
9222,4725
9231,4725
Z" /> 
</g>
<g >
</g>
<g style="fill:#848400; fill-opacity:1.0; 
stroke:#848400; stroke-width:0; stroke-opacity:1; 
stroke-linecap:round; stroke-linejoin:round;">
<path style="fill:#848400; fill-opacity:1.0; 
stroke:#848400; stroke-width:0; stroke-opacity:1; 
stroke-linecap:round; stroke-linejoin:round;fill-rule:evenodd;"
d="M 14879,8632
14210,8632
14210,7963
14879,7963
14879,8632
Z" /> 
</g>
<g style="fill:#848400; fill-opacity:1.0; 
stroke:#848400; stroke-width:669.291; stroke-opacity:1; 
stroke-linecap:round; stroke-linejoin:round;">
</g>
<g style="fill:#848400; fill-opacity:0.0; 
stroke:#848400; stroke-width:669.291; stroke-opacity:1; 
stroke-linecap:round; stroke-linejoin:round;">
<path d="M13544 8298
L13544 8298
" />
<path d="M12544 8298
L12544 8298
" />
<path d="M11544 8298
L11544 8298
" />
<path d="M10544 8298
L10544 8298
" />
<path d="M9544 8298
L9544 8298
" />
<path d="M8544 8298
L8544 8298
" />
<path d="M7544 8298
L7544 8298
" />
</g>
<g >
</g>
<g style="fill:#848400; fill-opacity:0.0; 
stroke:#848400; stroke-width:669.291; stroke-opacity:1; 
stroke-linecap:round; stroke-linejoin:round;">
</g>
<g style="fill:#848400; fill-opacity:0.0; 
stroke:#848400; stroke-width:0; stroke-opacity:1; 
stroke-linecap:round; stroke-linejoin:round;">
</g>
<g style="fill:#848400; fill-opacity:1.0; 
stroke:#848400; stroke-width:0; stroke-opacity:1; 
stroke-linecap:round; stroke-linejoin:round;">
<path style="fill:#848400; fill-opacity:1.0; 
stroke:#848400; stroke-width:0; stroke-opacity:1; 
stroke-linecap:round; stroke-linejoin:round;fill-rule:evenodd;"
d="M 16210,8632
16210,7963
16879,7963
16879,8632
16210,8632
Z" /> 
</g>
<g >
</g>
<g style="fill:#848400; fill-opacity:1.0; 
stroke:#848400; stroke-width:0; stroke-opacity:1; 
stroke-linecap:round; stroke-linejoin:round;">
<path style="fill:#848400; fill-opacity:1.0; 
stroke:#848400; stroke-width:0; stroke-opacity:1; 
stroke-linecap:round; stroke-linejoin:round;fill-rule:evenodd;"
d="M 7210,1632
7210,963
7879,963
7879,1632
7210,1632
Z" /> 
</g>
<g >
</g>
<g style="fill:#848400; fill-opacity:1.0; 
stroke:#848400; stroke-width:0; stroke-opacity:1; 
stroke-linecap:round; stroke-linejoin:round;">
<path style="fill:#848400; fill-opacity:1.0; 
stroke:#848400; stroke-width:0; stroke-opacity:1; 
stroke-linecap:round; stroke-linejoin:round;fill-rule:evenodd;"
d="M 16879,1632
16210,1632
16210,963
16879,963
16879,1632
Z" /> 
</g>
<g style="fill:#848400; fill-opacity:1.0; 
stroke:#848400; stroke-width:669.291; stroke-opacity:1; 
stroke-linecap:round; stroke-linejoin:round;">
</g>
<g style="fill:#848400; fill-opacity:0.0; 
stroke:#848400; stroke-width:669.291; stroke-opacity:1; 
stroke-linecap:round; stroke-linejoin:round;">
<path d="M15544 1298
L15544 1298
" />
<path d="M14544 1298
L14544 1298
" />
<path d="M13544 1298
L13544 1298
" />
<path d="M12544 1298
L12544 1298
" />
<path d="M11544 1298
L11544 1298
" />
<path d="M10544 1298
L10544 1298
" />
<path d="M9544 1298
L9544 1298
" />
</g>
<g >
</g>
<g >
</g>
<g style="fill:#008400; fill-opacity:0.0; 
stroke:#008400; stroke-width:669.291; stroke-opacity:1; 
stroke-linecap:round; stroke-linejoin:round;">
</g>
<g style="fill:#008400; fill-opacity:0.0; 
stroke:#008400; stroke-width:0; stroke-opacity:1; 
stroke-linecap:round; stroke-linejoin:round;">
</g>
<g style="fill:#008400; fill-opacity:1.0; 
stroke:#008400; stroke-width:0; stroke-opacity:1; 
stroke-linecap:round; stroke-linejoin:round;">
<path style="fill:#008400; fill-opacity:1.0; 
stroke:#008400; stroke-width:0; stroke-opacity:1; 
stroke-linecap:round; stroke-linejoin:round;fill-rule:evenodd;"
d="M 16731,4168
16741,4170
16750,4172
16759,4175
16768,4179
16776,4184
16784,4190
16791,4197
16798,4204
16803,4212
16808,4220
16812,4229
16816,4238
16818,4247
16819,4257
16820,4266
16820,4522
16819,4532
16818,4541
16816,4551
16812,4560
16808,4569
16803,4577
16798,4585
16791,4592
16784,4598
16776,4604
16768,4609
16759,4613
16750,4616
16741,4619
16731,4620
16722,4621
16367,4621
16358,4620
16348,4619
16339,4616
16330,4613
16321,4609
16313,4604
16305,4598
16298,4592
16291,4585
16285,4577
16280,4569
16276,4560
16273,4551
16271,4541
16269,4532
16269,4522
16269,4266
16269,4257
16271,4247
16273,4238
16276,4229
16280,4220
16285,4212
16291,4204
16298,4197
16305,4190
16313,4184
16321,4179
16330,4175
16339,4172
16348,4170
16358,4168
16367,4168
16722,4168
16731,4168
Z" /> 
<path style="fill:#008400; fill-opacity:1.0; 
stroke:#008400; stroke-width:0; stroke-opacity:1; 
stroke-linecap:round; stroke-linejoin:round;fill-rule:evenodd;"
d="M 16731,4975
16741,4977
16750,4979
16759,4982
16768,4987
16776,4991
16784,4997
16791,5004
16798,5011
16803,5019
16808,5027
16812,5036
16816,5045
16818,5054
16819,5064
16820,5073
16820,5329
16819,5339
16818,5348
16816,5358
16812,5367
16808,5376
16803,5384
16798,5392
16791,5399
16784,5405
16776,5411
16768,5416
16759,5420
16750,5423
16741,5426
16731,5427
16722,5428
16367,5428
16358,5427
16348,5426
16339,5423
16330,5420
16321,5416
16313,5411
16305,5405
16298,5399
16291,5392
16285,5384
16280,5376
16276,5367
16273,5358
16271,5348
16269,5339
16269,5329
16269,5073
16269,5064
16271,5054
16273,5045
16276,5036
16280,5027
16285,5019
16291,5011
16298,5004
16305,4997
16313,4991
16321,4987
16330,4982
16339,4979
16348,4977
16358,4975
16367,4975
16722,4975
16731,4975
Z" /> 
</g>
<g >
</g>
<g style="fill:#008400; fill-opacity:1.0; 
stroke:#008400; stroke-width:0; stroke-opacity:1; 
stroke-linecap:round; stroke-linejoin:round;">
<path style="fill:#008400; fill-opacity:1.0; 
stroke:#008400; stroke-width:0; stroke-opacity:1; 
stroke-linecap:round; stroke-linejoin:round;fill-rule:evenodd;"
d="M 12778,4273
12788,4274
12797,4276
12806,4280
12815,4284
12823,4289
12831,4294
12838,4301
12845,4308
12851,4316
12856,4324
12860,4333
12863,4342
12865,4351
12867,4361
12867,4371
12867,4725
12867,4735
12865,4744
12863,4753
12860,4763
12856,4771
12851,4780
12845,4787
12838,4794
12831,4801
12823,4807
12815,4812
12806,4816
12797,4819
12788,4821
12778,4823
12769,4823
12513,4823
12503,4823
12494,4821
12484,4819
12475,4816
12466,4812
12458,4807
12450,4801
12443,4794
12437,4787
12431,4780
12426,4771
12422,4763
12419,4753
12416,4744
12415,4735
12414,4725
12414,4371
12415,4361
12416,4351
12419,4342
12422,4333
12426,4324
12431,4316
12437,4308
12443,4301
12450,4294
12458,4289
12466,4284
12475,4280
12484,4276
12494,4274
12503,4273
12513,4272
12769,4272
12778,4273
Z" /> 
<path style="fill:#008400; fill-opacity:1.0; 
stroke:#008400; stroke-width:0; stroke-opacity:1; 
stroke-linecap:round; stroke-linejoin:round;fill-rule:evenodd;"
d="M 13586,4273
13595,4274
13604,4276
13614,4280
13622,4284
13631,4289
13638,4294
13645,4301
13652,4308
13658,4316
13663,4324
13667,4333
13670,4342
13672,4351
13674,4361
13674,4371
13674,4725
13674,4735
13672,4744
13670,4753
13667,4763
13663,4771
13658,4780
13652,4787
13645,4794
13638,4801
13631,4807
13622,4812
13614,4816
13604,4819
13595,4821
13586,4823
13576,4823
13320,4823
13310,4823
13301,4821
13291,4819
13282,4816
13274,4812
13265,4807
13258,4801
13250,4794
13244,4787
13238,4780
13233,4771
13229,4763
13226,4753
13223,4744
13222,4735
13222,4725
13222,4371
13222,4361
13223,4351
13226,4342
13229,4333
13233,4324
13238,4316
13244,4308
13250,4301
13258,4294
13265,4289
13274,4284
13282,4280
13291,4276
13301,4274
13310,4273
13320,4272
13576,4272
13586,4273
Z" /> 
</g>
<g >
</g>
<g style="fill:#C2C2C2; fill-opacity:1.0; 
stroke:#C2C2C2; stroke-width:0; stroke-opacity:1; 
stroke-linecap:round; stroke-linejoin:round;">
<circle cx="7544.88" cy="5548.23" r="118.11" /> 
</g>
<g style="fill:#C2C2C2; fill-opacity:1.0; 
stroke:#C2C2C2; stroke-width:39.3701; stroke-opacity:1; 
stroke-linecap:round; stroke-linejoin:round;">
</g>
<g style="fill:#C2C2C2; fill-opacity:1.0; 
stroke:#C2C2C2; stroke-width:0; stroke-opacity:1; 
stroke-linecap:round; stroke-linejoin:round;">
<circle cx="6294.88" cy="8298.23" r="118.11" /> 
</g>
<g style="fill:#C2C2C2; fill-opacity:1.0; 
stroke:#C2C2C2; stroke-width:39.3701; stroke-opacity:1; 
stroke-linecap:round; stroke-linejoin:round;">
</g>
<g style="fill:#C2C2C2; fill-opacity:1.0; 
stroke:#C2C2C2; stroke-width:0; stroke-opacity:1; 
stroke-linecap:round; stroke-linejoin:round;">
<circle cx="9044.88" cy="6750.96" r="118.11" /> 
</g>
<g style="fill:#C2C2C2; fill-opacity:1.0; 
stroke:#C2C2C2; stroke-width:39.3701; stroke-opacity:1; 
stroke-linecap:round; stroke-linejoin:round;">
</g>
<g style="fill:#C2C2C2; fill-opacity:1.0; 
stroke:#C2C2C2; stroke-width:0; stroke-opacity:1; 
stroke-linecap:round; stroke-linejoin:round;">
<circle cx="7044.88" cy="2798.23" r="118.11" /> 
</g>
<g style="fill:#C2C2C2; fill-opacity:1.0; 
stroke:#C2C2C2; stroke-width:39.3701; stroke-opacity:1; 
stroke-linecap:round; stroke-linejoin:round;">
</g>
<g style="fill:#C2C2C2; fill-opacity:1.0; 
stroke:#C2C2C2; stroke-width:0; stroke-opacity:1; 
stroke-linecap:round; stroke-linejoin:round;">
<circle cx="8294.88" cy="1298.23" r="118.11" /> 
</g>
<g style="fill:#C2C2C2; fill-opacity:1.0; 
stroke:#C2C2C2; stroke-width:39.3701; stroke-opacity:1; 
stroke-linecap:round; stroke-linejoin:round;">
</g>
<g style="fill:#C2C2C2; fill-opacity:1.0; 
stroke:#C2C2C2; stroke-width:0; stroke-opacity:1; 
stroke-linecap:round; stroke-linejoin:round;">
<circle cx="8316.04" cy="1819.39" r="118.11" /> 
</g>
<g style="fill:#C2C2C2; fill-opacity:1.0; 
stroke:#C2C2C2; stroke-width:39.3701; stroke-opacity:1; 
stroke-linecap:round; stroke-linejoin:round;">
</g>
<g style="fill:#C2C2C2; fill-opacity:1.0; 
stroke:#C2C2C2; stroke-width:0; stroke-opacity:1; 
stroke-linecap:round; stroke-linejoin:round;">
<circle cx="8244.88" cy="648.228" r="118.11" /> 
</g>
<g style="fill:#C2C2C2; fill-opacity:1.0; 
stroke:#C2C2C2; stroke-width:39.3701; stroke-opacity:1; 
stroke-linecap:round; stroke-linejoin:round;">
</g>
<g style="fill:#C2C2C2; fill-opacity:1.0; 
stroke:#C2C2C2; stroke-width:0; stroke-opacity:1; 
stroke-linecap:round; stroke-linejoin:round;">
<circle cx="9044.88" cy="3548.23" r="157.48" /> 
</g>
<g style="fill:#C2C2C2; fill-opacity:1.0; 
stroke:#C2C2C2; stroke-width:39.3701; stroke-opacity:1; 
stroke-linecap:round; stroke-linejoin:round;">
</g>
<g style="fill:#C2C2C2; fill-opacity:1.0; 
stroke:#C2C2C2; stroke-width:0; stroke-opacity:1; 
stroke-linecap:round; stroke-linejoin:round;">
<circle cx="8044.88" cy="3548.23" r="157.48" /> 
</g>
<g style="fill:#C2C2C2; fill-opacity:1.0; 
stroke:#C2C2C2; stroke-width:39.3701; stroke-opacity:1; 
stroke-linecap:round; stroke-linejoin:round;">
</g>
<g style="fill:#C2C2C2; fill-opacity:1.0; 
stroke:#C2C2C2; stroke-width:0; stroke-opacity:1; 
stroke-linecap:round; stroke-linejoin:round;">
<circle cx="6310.63" cy="4798.23" r="157.48" /> 
</g>
<g style="fill:#C2C2C2; fill-opacity:1.0; 
stroke:#C2C2C2; stroke-width:39.3701; stroke-opacity:1; 
stroke-linecap:round; stroke-linejoin:round;">
</g>
<g style="fill:#C2C2C2; fill-opacity:1.0; 
stroke:#C2C2C2; stroke-width:0; stroke-opacity:1; 
stroke-linecap:round; stroke-linejoin:round;">
<circle cx="6544.88" cy="7798.23" r="157.48" /> 
</g>
<g style="fill:#C2C2C2; fill-opacity:1.0; 
stroke:#C2C2C2; stroke-width:39.3701; stroke-opacity:1; 
stroke-linecap:round; stroke-linejoin:round;">
</g>
<g style="fill:#C2C2C2; fill-opacity:1.0; 
stroke:#C2C2C2; stroke-width:0; stroke-opacity:1; 
stroke-linecap:round; stroke-linejoin:round;">
<circle cx="10944.9" cy="4498.23" r="157.48" /> 
</g>
<g style="fill:#C2C2C2; fill-opacity:1.0; 
stroke:#C2C2C2; stroke-width:39.3701; stroke-opacity:1; 
stroke-linecap:round; stroke-linejoin:round;">
</g>
<g style="fill:#C2C2C2; fill-opacity:1.0; 
stroke:#C2C2C2; stroke-width:0; stroke-opacity:1; 
stroke-linecap:round; stroke-linejoin:round;">
<circle cx="10944.9" cy="6398.23" r="157.48" /> 
</g>
<g style="fill:#C2C2C2; fill-opacity:1.0; 
stroke:#C2C2C2; stroke-width:39.3701; stroke-opacity:1; 
stroke-linecap:round; stroke-linejoin:round;">
</g>
<g style="fill:#C2C2C2; fill-opacity:1.0; 
stroke:#C2C2C2; stroke-width:0; stroke-opacity:1; 
stroke-linecap:round; stroke-linejoin:round;">
<circle cx="10444.9" cy="2698.23" r="118.11" /> 
</g>
<g style="fill:#C2C2C2; fill-opacity:1.0; 
stroke:#C2C2C2; stroke-width:39.3701; stroke-opacity:1; 
stroke-linecap:round; stroke-linejoin:round;">
</g>
<g style="fill:#C2C2C2; fill-opacity:1.0; 
stroke:#C2C2C2; stroke-width:0; stroke-opacity:1; 
stroke-linecap:round; stroke-linejoin:round;">
<circle cx="8544.88" cy="4448.23" r="118.11" /> 
</g>
<g style="fill:#C2C2C2; fill-opacity:1.0; 
stroke:#C2C2C2; stroke-width:39.3701; stroke-opacity:1; 
stroke-linecap:round; stroke-linejoin:round;">
</g>
<g style="fill:#C2C2C2; fill-opacity:1.0; 
stroke:#C2C2C2; stroke-width:0; stroke-opacity:1; 
stroke-linecap:round; stroke-linejoin:round;">
<circle cx="15344.9" cy="1998.23" r="118.11" /> 
</g>
<g style="fill:#C2C2C2; fill-opacity:1.0; 
stroke:#C2C2C2; stroke-width:39.3701; stroke-opacity:1; 
stroke-linecap:round; stroke-linejoin:round;">
</g>
<g style="fill:#C2C2C2; fill-opacity:1.0; 
stroke:#C2C2C2; stroke-width:0; stroke-opacity:1; 
stroke-linecap:round; stroke-linejoin:round;">
<circle cx="14344.9" cy="1998.23" r="118.11" /> 
</g>
<g style="fill:#C2C2C2; fill-opacity:1.0; 
stroke:#C2C2C2; stroke-width:39.3701; stroke-opacity:1; 
stroke-linecap:round; stroke-linejoin:round;">
</g>
<g style="fill:#C2C2C2; fill-opacity:1.0; 
stroke:#C2C2C2; stroke-width:0; stroke-opacity:1; 
stroke-linecap:round; stroke-linejoin:round;">
<circle cx="13444.9" cy="1998.23" r="118.11" /> 
</g>
<g style="fill:#C2C2C2; fill-opacity:1.0; 
stroke:#C2C2C2; stroke-width:39.3701; stroke-opacity:1; 
stroke-linecap:round; stroke-linejoin:round;">
</g>
<g style="fill:#C2C2C2; fill-opacity:1.0; 
stroke:#C2C2C2; stroke-width:0; stroke-opacity:1; 
stroke-linecap:round; stroke-linejoin:round;">
<circle cx="8844.88" cy="5604.93" r="118.11" /> 
</g>
<g style="fill:#C2C2C2; fill-opacity:1.0; 
stroke:#C2C2C2; stroke-width:39.3701; stroke-opacity:1; 
stroke-linecap:round; stroke-linejoin:round;">
</g>
<g style="fill:#C2C2C2; fill-opacity:1.0; 
stroke:#C2C2C2; stroke-width:0; stroke-opacity:1; 
stroke-linecap:round; stroke-linejoin:round;">
<circle cx="8544.88" cy="5598.23" r="118.11" /> 
</g>
<g style="fill:#C2C2C2; fill-opacity:1.0; 
stroke:#C2C2C2; stroke-width:39.3701; stroke-opacity:1; 
stroke-linecap:round; stroke-linejoin:round;">
</g>
<g style="fill:#C2C2C2; fill-opacity:1.0; 
stroke:#C2C2C2; stroke-width:0; stroke-opacity:1; 
stroke-linecap:round; stroke-linejoin:round;">
<circle cx="9444.88" cy="3498.23" r="118.11" /> 
</g>
<g style="fill:#C2C2C2; fill-opacity:1.0; 
stroke:#C2C2C2; stroke-width:39.3701; stroke-opacity:1; 
stroke-linecap:round; stroke-linejoin:round;">
</g>
<g style="fill:#C2C2C2; fill-opacity:1.0; 
stroke:#C2C2C2; stroke-width:0; stroke-opacity:1; 
stroke-linecap:round; stroke-linejoin:round;">
<circle cx="8544.88" cy="6798.23" r="118.11" /> 
</g>
<g style="fill:#C2C2C2; fill-opacity:1.0; 
stroke:#C2C2C2; stroke-width:39.3701; stroke-opacity:1; 
stroke-linecap:round; stroke-linejoin:round;">
</g>
<g style="fill:#C2C2C2; fill-opacity:1.0; 
stroke:#C2C2C2; stroke-width:0; stroke-opacity:1; 
stroke-linecap:round; stroke-linejoin:round;">
<circle cx="8294.88" cy="6987.19" r="118.11" /> 
</g>
<g style="fill:#C2C2C2; fill-opacity:1.0; 
stroke:#C2C2C2; stroke-width:39.3701; stroke-opacity:1; 
stroke-linecap:round; stroke-linejoin:round;">
</g>
<g >
</g>
<g style="fill:#008400; fill-opacity:1.0; 
stroke:#008400; stroke-width:39.3701; stroke-opacity:1; 
stroke-linecap:round; stroke-linejoin:round;">
</g>
<g style="fill:#008400; fill-opacity:1.0; 
stroke:#008400; stroke-width:59.0551; stroke-opacity:1; 
stroke-linecap:round; stroke-linejoin:round;">
</g>
<g style="fill:#008400; fill-opacity:0.0; 
stroke:#008400; stroke-width:59.0551; stroke-opacity:1; 
stroke-linecap:round; stroke-linejoin:round;">
<path d="M6176 8180
L6294 8298
" />
<path d="M5926 7930
L6176 8180
" />
<path d="M5926 5717
L5926 7930
" />
<path d="M6346 5298
L5926 5717
" />
<path d="M7544 5548
L7294 5298
" />
<path d="M7294 5298
L6346 5298
" />
<path d="M16194 6648
L16544 6298
" />
<path d="M16194 7448
L16194 6648
" />
<path d="M9044 6965
L8044 7965
" />
<path d="M9044 6750
L9044 6965
" />
<path d="M8044 7965
L8044 8548
" />
<path d="M8044 8548
L8489 8993
" />
<path d="M8489 8993
L14650 8993
" />
<path d="M14650 8993
L16194 7448
" />
<path d="M15644 3298
L15544 3298
" />
<path d="M15844 3098
L15644 3298
" />
<path d="M15844 1831
L15844 3098
" />
<path d="M16044 1631
L15844 1831
" />
<path d="M8044 1798
L8044 1198
" />
<path d="M7044 2798
L8044 1798
" />
<path d="M8044 1198
L8626 616
" />
<path d="M8626 616
L15762 616
" />
<path d="M15762 616
L16044 898
" />
<path d="M16044 898
L16044 1631
" />
<path d="M14844 2998
L14544 3298
" />
<path d="M14731 734
L15044 1048
" />
<path d="M15044 1048
L15044 1548
" />
<path d="M8858 734
L14731 734
" />
<path d="M15044 1548
L14844 1748
" />
<path d="M8294 1298
L8858 734
" />
<path d="M14844 1748
L14844 2998
" />
<path d="M9282 852
L8316 1819
" />
<path d="M12849 852
L9282 852
" />
<path d="M12641 4301
L12948 3994
" />
<path d="M12641 4548
L12641 4301
" />
<path d="M12948 3994
L12948 1744
" />
<path d="M12948 1744
L13044 1648
" />
<path d="M13044 1648
L13044 1048
" />
<path d="M13044 1048
L12849 852
" />
<path d="M13244 4344
L13448 4548
" />
<path d="M13544 3298
L13244 3598
" />
<path d="M13244 3598
L13244 4344
" />
<path d="M16544 3448
L16544 4394
" />
<path d="M8362 530
L8244 648
" />
<path d="M8394 498
L8362 530
" />
<path d="M17144 4898
L17144 1069
" />
<path d="M17144 1069
L16873 798
" />
<path d="M16841 5201
L17144 4898
" />
<path d="M16873 798
L16120 798
" />
<path d="M15820 498
L8394 498
" />
<path d="M16544 5201
L16841 5201
" />
<path d="M16120 798
L15820 498
" />
<path d="M8794 4048
L9044 4298
" />
</g>
<g style="fill:#008400; fill-opacity:0.0; 
stroke:#008400; stroke-width:78.7402; stroke-opacity:1; 
stroke-linecap:round; stroke-linejoin:round;">
<path d="M9044 4144
L9044 3548
" />
<path d="M8044 4144
L8044 3548
" />
<path d="M8044 3548
L8044 3548
" />
<path d="M7822 3548
L8044 3548
" />
<path d="M7322 3548
L7822 3548
" />
<path d="M6794 3020
L7322 3548
" />
<path d="M6794 2698
L6794 3020
" />
<path d="M7544 1298
L7544 1948
" />
<path d="M7544 1948
L6794 2698
" />
<path d="M8044 4951
L7005 4951
" />
<path d="M6283 7042
L6288 7048
" />
<path d="M6283 6048
L6283 7042
" />
<path d="M8044 5217
L8044 4951
" />
<path d="M8044 5397
L8044 5217
" />
<path d="M7658 5784
L8044 5397
" />
<path d="M7281 5634
L7431 5784
" />
<path d="M6322 5634
L7281 5634
" />
<path d="M6283 5674
L6322 5634
" />
<path d="M7431 5784
L7658 5784
" />
<path d="M6283 6048
L6283 5674
" />
<path d="M8044 4951
L6464 4951
" />
<path d="M6464 4951
L6310 4798
" />
<path d="M6288 7542
L6387 7640
" />
<path d="M6387 7640
L6544 7798
" />
<path d="M6288 7048
L6288 7542
" />
<path d="M7664 9140
L6544 8020
" />
<path d="M6544 8020
L6544 7798
" />
<path d="M15288 9140
L7664 9140
" />
<path d="M16131 8298
L15288 9140
" />
<path d="M16544 8298
L16131 8298
" />
<path d="M10944 4498
L10944 6398
" />
<path d="M10944 6148
L10944 6175
" />
<path d="M10944 6175
L10944 6398
" />
</g>
<g style="fill:#008400; fill-opacity:0.0; 
stroke:#008400; stroke-width:59.0551; stroke-opacity:1; 
stroke-linecap:round; stroke-linejoin:round;">
<path d="M15144 6698
L15141 6701
" />
<path d="M15141 6104
L15141 6491
" />
<path d="M15144 6495
L15144 6698
" />
<path d="M16044 3395
L15144 4295
" />
<path d="M15144 4295
L15144 6100
" />
<path d="M16044 1798
L16044 3395
" />
<path d="M15144 6100
L15141 6104
" />
<path d="M16544 1298
L16044 1798
" />
<path d="M15141 6701
L15141 6901
" />
<path d="M15141 6491
L15144 6495
" />
<path d="M15141 6901
L14544 7498
" />
<path d="M14544 7498
L14544 8298
" />
<path d="M13879 7963
L13544 8298
" />
<path d="M15023 6819
L13879 7963
" />
<path d="M15544 1298
L15023 1819
" />
<path d="M15023 1819
L15023 6819
" />
<path d="M14210 1632
L14544 1298
" />
<path d="M14094 4148
L14094 1748
" />
<path d="M13948 6894
L13948 4294
" />
<path d="M12544 8298
L13948 6894
" />
<path d="M13948 4294
L14094 4148
" />
<path d="M14094 1748
L14210 1632
" />
<path d="M11544 7798
L12044 7298
" />
<path d="M11544 8298
L11544 7798
" />
<path d="M12044 7298
L12044 5798
" />
<path d="M13544 1548
L13544 1298
" />
<path d="M12044 5798
L13094 4748
" />
<path d="M13094 4748
L13094 1998
" />
<path d="M13094 1998
L13544 1548
" />
<path d="M12744 1498
L12544 1298
" />
<path d="M12744 1898
L12744 1498
" />
<path d="M11544 3098
L12744 1898
" />
<path d="M11544 7098
L11544 3098
" />
<path d="M10544 8298
L10544 8098
" />
<path d="M10544 8098
L11544 7098
" />
<path d="M9879 7963
L9544 8298
" />
<path d="M11244 6598
L9879 7963
" />
<path d="M11544 1298
L11244 1598
" />
<path d="M11244 1598
L11244 6598
" />
<path d="M9794 2048
L9794 5115
" />
<path d="M9311 5598
L8844 5598
" />
<path d="M10544 1298
L9794 2048
" />
<path d="M9794 5115
L9311 5598
" />
<path d="M8962 5723
L8844 5604
" />
<path d="M8962 6316
L8962 5723
" />
<path d="M9262 6616
L8962 6316
" />
<path d="M9262 6980
L9262 6616
" />
<path d="M8544 8298
L8544 7698
" />
<path d="M8544 7698
L9262 6980
" />
<path d="M7544 8298
L8794 7048
" />
<path d="M8794 5848
L8544 5598
" />
<path d="M8794 7048
L8794 5848
" />
<path d="M9676 5066
L9676 1430
" />
<path d="M8694 5398
L9344 5398
" />
<path d="M9344 5398
L9676 5066
" />
<path d="M9676 1430
L9544 1298
" />
<path d="M8544 5598
L8544 5548
" />
<path d="M8544 5548
L8694 5398
" />
<path d="M9444 3548
L9444 3498
" />
<path d="M9544 3648
L9444 3548
" />
<path d="M9544 4798
L9544 3648
" />
<path d="M9044 4951
L9391 4951
" />
<path d="M9391 4951
L9544 4798
" />
<path d="M7794 6048
L8426 6680
" />
<path d="M8426 6680
L8544 6798
" />
<path d="M6794 6048
L7794 6048
" />
<path d="M8233 7048
L8294 6987
" />
<path d="M6800 7048
L8233 7048
" />
</g>
<g >
</g>
<g style="fill:#008400; fill-opacity:0.0; 
stroke:#008400; stroke-width:59.0551; stroke-opacity:1; 
stroke-linecap:round; stroke-linejoin:round;">
</g>
<g style="fill:#008400; fill-opacity:1.0; 
stroke:#008400; stroke-width:78.7402; stroke-opacity:1; 
stroke-linecap:round; stroke-linejoin:round;">
<path style="fill:#008400; fill-opacity:1.0; 
stroke:#008400; stroke-width:78.7402; stroke-opacity:1; 
stroke-linecap:round; stroke-linejoin:round;fill-rule:evenodd;"
d="M 17887,9140
14664,9140
14664,9140
14664,9140
14707,9132
14756,9099
14764,9087
15465,8386
16013,8386
16013,8672
16043,8744
16098,8799
16171,8829
16456,8829
16505,8780
16505,8337
16584,8337
16584,8780
16633,8829
16918,8829
16991,8799
17046,8744
17076,8672
17076,8386
17027,8337
16584,8337
16505,8337
16062,8337
16013,8386
15465,8386
15927,7924
16013,7924
16013,8209
16062,8258
16505,8258
16505,7815
16584,7815
16584,8258
17027,8258
17076,8209
17076,7924
17046,7852
16991,7796
16918,7766
16633,7766
16584,7815
16505,7815
16456,7766
16171,7766
16098,7796
16043,7852
16013,7924
15927,7924
16288,7562
16301,7554
16333,7505
16342,7462
16342,7462
16345,7448
16342,7433
16342,6709
16361,6690
16458,6731
16631,6731
16790,6665
16912,6543
16977,6384
16977,6212
16912,6052
16790,5931
16631,5865
16458,5865
16299,5931
16177,6052
16111,6212
16111,6384
16152,6482
16100,6533
16088,6541
16080,6554
16080,6554
16055,6590
16044,6648
16047,6662
16047,7387
14999,8434
14999,7963
14990,7917
14964,7878
14925,7852
14879,7843
14692,7843
14692,7559
15235,7016
15247,7008
15256,6994
15280,6959
15280,6959
15288,6916
15288,6916
15291,6901
15288,6887
15288,6730
15292,6712
15292,6712
15295,6698
15292,6683
15292,6658
15299,6665
15458,6731
15631,6731
15790,6665
15912,6543
15977,6384
15977,6212
15912,6052
15790,5931
15631,5865
15458,5865
15299,5931
15292,5938
15292,4356
16138,3510
16151,3501
16156,3493
16177,3543
16299,3665
16397,3705
16397,4047
16367,4047
16283,4064
16212,4111
16165,4182
16148,4266
16148,4522
16165,4606
16212,4677
16283,4724
16367,4741
16722,4741
16805,4724
16876,4677
16924,4606
16940,4522
16940,4266
16924,4182
16876,4111
16805,4064
16722,4047
16692,4047
16692,3705
16790,3665
16912,3543
16977,3384
16977,3212
16912,3052
16790,2931
16631,2865
16458,2865
16299,2931
16192,3038
16192,1859
16298,1753
16879,1753
16925,1744
16964,1718
16990,1678
16997,1646
16997,4837
16892,4942
16876,4919
16805,4871
16722,4854
16367,4854
16283,4871
16212,4919
16165,4990
16148,5073
16148,5329
16165,5413
16212,5484
16283,5531
16367,5548
16722,5548
16805,5531
16876,5484
16924,5413
16940,5329
16940,5312
16947,5308
16956,5295
17238,5012
17251,5004
17260,4991
17283,4955
17283,4955
17292,4912
17292,4912
17295,4898
17292,4883
17292,1084
17295,1069
17292,1054
17292,1054
17283,1011
17270,991
17259,975
17251,963
17238,954
16988,704
16980,691
16931,659
16888,650
16888,650
16873,647
16859,650
16181,650
15934,404
15926,391
15877,359
15834,350
15834,350
15820,347
15805,350
8409,350
8394,347
8380,350
8380,350
8337,359
8288,391
8280,404
8272,412
8197,412
8111,447
8044,514
8008,601
8008,695
8044,782
8111,848
8163,870
7999,1034
7999,963
7990,917
7964,878
7925,852
7879,843
7210,843
7164,852
7125,878
7098,917
7089,963
7089,1632
7098,1678
7125,1718
7164,1744
7210,1753
7387,1753
7387,1882
6694,2575
6681,2584
6646,2636
6646,2636
6634,2698
6637,2713
6637,3005
6634,3020
6646,3082
6646,3082
6681,3134
6694,3143
7199,3648
7208,3661
7260,3696
7306,3705
7322,3708
7337,3705
7812,3705
7887,3780
7887,3797
7867,3797
7783,3814
7712,3861
7665,3932
7648,4016
7648,4272
7665,4356
7712,4427
7783,4474
7867,4491
8222,4491
8305,4474
8376,4427
8424,4356
8440,4272
8440,4016
8424,3932
8376,3861
8305,3814
8222,3797
8202,3797
8202,3780
8278,3704
8320,3603
8320,3493
8278,3392
8200,3314
8099,3272
7990,3272
7888,3314
7812,3390
7387,3390
7031,3034
7091,3034
7178,2998
7245,2932
7281,2845
7281,2770
8110,1941
8115,1953
8182,2019
8269,2055
8363,2055
8449,2019
8516,1953
8552,1866
8552,1791
9092,1251
9083,1298
9118,1474
9218,1624
9368,1724
9500,1750
9529,1750
9529,3277
9491,3262
9397,3262
9311,3297
9247,3361
9200,3314
9099,3272
8990,3272
8888,3314
8811,3392
8769,3493
8769,3603
8811,3704
8887,3780
8887,3797
8867,3797
8783,3814
8712,3861
8665,3932
8648,4016
8648,4025
8644,4048
8648,4070
8648,4272
8665,4356
8712,4427
8783,4474
8867,4491
9222,4491
9305,4474
9376,4427
9397,4396
9397,4699
9376,4669
9305,4621
9222,4604
8867,4604
8783,4621
8712,4669
8665,4740
8648,4823
8648,5079
8665,5163
8712,5234
8737,5250
8709,5250
8694,5247
8680,5250
8680,5250
8637,5259
8637,5259
8637,5259
8600,5283
8588,5291
8580,5304
8522,5362
8497,5362
8411,5397
8344,5464
8308,5551
8308,5645
8344,5732
8411,5798
8497,5834
8572,5834
8647,5909
8647,6584
8591,6562
8517,6562
7909,5954
7901,5941
7852,5909
7809,5900
7809,5900
7794,5897
7780,5900
7112,5900
7112,5752
7102,5706
7076,5667
7037,5641
6991,5632
6637,5632
6591,5586
6519,5556
6371,5556
6322,5605
6322,5556
6296,5556
6407,5445
7233,5445
7308,5520
7308,5595
7344,5682
7411,5748
7497,5784
7591,5784
7678,5748
7745,5682
7781,5595
7781,5501
7745,5414
7688,5357
7730,5375
7956,5375
8005,5325
8005,4991
8084,4991
8084,5325
8133,5375
8359,5375
8431,5345
8487,5289
8517,5217
8517,5040
8468,4991
8084,4991
8005,4991
7621,4991
7572,5040
7572,5217
7602,5289
7648,5335
7591,5312
7517,5312
7409,5204
7401,5191
7352,5159
7309,5150
7309,5150
7294,5147
7280,5150
6360,5150
6346,5147
6331,5150
6331,5150
6288,5159
6288,5159
6288,5159
6251,5183
6251,5183
6239,5191
6231,5204
5832,5602
5820,5611
5812,5623
5790,5655
5787,5659
5779,5702
5779,5702
5776,5717
5779,5732
5779,7915
5776,7930
5787,7987
5812,8024
5812,8024
5820,8036
5832,8044
6058,8270
6058,8345
6094,8432
6161,8498
6247,8534
6341,8534
6428,8498
6495,8432
6531,8345
6531,8251
6495,8164
6428,8097
6341,8062
6267,8062
6074,7868
6074,7540
6200,7540
6249,7491
6249,7087
6241,7087
6241,7008
6249,7008
6249,6605
6200,6556
6074,6556
6074,6540
6194,6540
6243,6491
6243,6087
6235,6087
6235,6008
6243,6008
6243,6000
6322,6000
6322,6008
6330,6008
6330,6087
6322,6087
6322,6491
6371,6540
6519,6540
6591,6510
6637,6463
6991,6463
7037,6454
7076,6428
7102,6389
7112,6343
7112,6195
7733,6195
8288,6750
8247,6750
8161,6786
8094,6853
8075,6900
7118,6900
7118,6752
7108,6706
7082,6667
7043,6641
6997,6632
6643,6632
6597,6586
6524,6556
6377,6556
6328,6605
6328,7008
6336,7008
6336,7087
6328,7087
6328,7491
6377,7540
6524,7540
6597,7510
6643,7463
6997,7463
7043,7454
7082,7428
7108,7389
7118,7343
7118,7195
8181,7195
8247,7223
8341,7223
8428,7187
8495,7120
8530,7034
8591,7034
8605,7028
7746,7888
7721,7871
7589,7845
7500,7845
7368,7871
7218,7971
7118,8121
7083,8298
7118,8474
7218,8624
7368,8724
7500,8750
7589,8750
7721,8724
7871,8624
7900,8580
7905,8605
7930,8642
7930,8642
7938,8654
7950,8662
8375,9087
8383,9099
8395,9107
8395,9107
8416,9122
8432,9132
8475,9140
8475,9140
8475,9140
5702,9140
5702,4686
7572,4686
7572,4863
7621,4912
8005,4912
8005,4577
8084,4577
8084,4912
8468,4912
8517,4863
8517,4686
8487,4613
8431,4558
8359,4528
8133,4528
8084,4577
8005,4577
7956,4528
7730,4528
7657,4558
7602,4613
7572,4686
5702,4686
5702,255
17887,255
17887,9140
Z" /> 
<path style="fill:#008400; fill-opacity:1.0; 
stroke:#008400; stroke-width:78.7402; stroke-opacity:1; 
stroke-linecap:round; stroke-linejoin:round;fill-rule:evenodd;"
d="M 11118,1121
11083,1298
11118,1474
11134,1498
11130,1504
11108,1536
11105,1540
11097,1583
11097,1583
11094,1598
11097,1612
11097,6537
9785,7848
9785,7848
9746,7888
9721,7871
9589,7845
9500,7845
9368,7871
9218,7971
9118,8121
9083,8298
9118,8474
9218,8624
9368,8724
9500,8750
9589,8750
9721,8724
9871,8624
9971,8474
10006,8298
9971,8121
9954,8096
9994,8057
9994,8057
11338,6712
11351,6704
11367,6680
11383,6655
11383,6655
11383,6655
11392,6612
11392,6612
11395,6598
11392,6583
11392,1729
11500,1750
11589,1750
11721,1724
11871,1624
11971,1474
12006,1298
11971,1121
11890,1000
12199,1000
12118,1121
12083,1298
12118,1474
12218,1624
12368,1724
12500,1750
12589,1750
12597,1749
12597,1837
11450,2983
11438,2991
11430,3004
11430,3004
11405,3040
11394,3098
11397,3112
11397,7037
10588,7845
10500,7845
10368,7871
10218,7971
10118,8121
10083,8298
10118,8474
10218,8624
10368,8724
10500,8750
10589,8750
10721,8724
10871,8624
10971,8474
11006,8298
10971,8121
10874,7977
11638,7212
11651,7204
11659,7191
11683,7155
11683,7155
11683,7155
11692,7112
11692,7112
11695,7098
11692,7083
11692,3159
12800,2051
12800,2941
12790,2931
12631,2865
12458,2865
12299,2931
12177,3052
12111,3212
12111,3384
12177,3543
12299,3665
12458,3731
12631,3731
12790,3665
12800,3654
12800,3933
12582,4152
12513,4152
12429,4168
12358,4216
12311,4287
12294,4371
12294,4725
12311,4809
12358,4880
12429,4927
12513,4944
12690,4944
11950,5683
11938,5691
11930,5704
11930,5704
11905,5740
11894,5798
11897,5812
11897,7237
11450,7683
11438,7691
11430,7704
11430,7704
11405,7740
11394,7798
11397,7812
11397,7865
11368,7871
11218,7971
11118,8121
11083,8298
11118,8474
11218,8624
11368,8724
11500,8750
11589,8750
11721,8724
11871,8624
11971,8474
12006,8298
11971,8121
11871,7971
11721,7871
11692,7865
11692,7859
12138,7412
12151,7404
12159,7392
12159,7392
12183,7355
12183,7355
12183,7355
12192,7312
12192,7312
12195,7298
12192,7283
12192,6726
12229,6733
12859,6733
12905,6724
12944,6698
12971,6659
12980,6613
12980,5983
12971,5937
12944,5898
12905,5872
12859,5862
12229,5862
12192,5870
12192,5859
13169,4882
13236,4927
13320,4944
13576,4944
13660,4927
13731,4880
13778,4809
13795,4725
13795,4371
13778,4287
13731,4216
13660,4168
13576,4152
13392,4152
13392,3703
13458,3731
13631,3731
13790,3665
13912,3543
13947,3458
13947,4087
13854,4180
13841,4188
13833,4200
13833,4200
13809,4237
13797,4294
13800,4309
13800,5941
13790,5931
13631,5865
13458,5865
13299,5931
13177,6052
13111,6212
13111,6384
13177,6543
13299,6665
13458,6731
13631,6731
13790,6665
13800,6654
13800,6833
12746,7888
12721,7871
12589,7845
12500,7845
12368,7871
12218,7971
12118,8121
12083,8298
12118,8474
12218,8624
12368,8724
12500,8750
12589,8750
12721,8724
12871,8624
12971,8474
13006,8298
12971,8121
12954,8096
14042,7009
14054,7001
14064,6987
14078,6965
14087,6952
14096,6909
14096,6909
14098,6894
14096,6880
14096,4355
14188,4262
14201,4254
14212,4238
14233,4205
14233,4205
14233,4205
14242,4162
14242,4162
14245,4148
14242,4133
14242,3608
14299,3665
14458,3731
14631,3731
14790,3665
14875,3579
14875,6016
14790,5931
14631,5865
14458,5865
14299,5931
14177,6052
14111,6212
14111,6384
14177,6543
14299,6665
14458,6731
14631,6731
14790,6665
14875,6579
14875,6758
13785,7848
13785,7848
13746,7888
13721,7871
13589,7845
13500,7845
13368,7871
13218,7971
13118,8121
13083,8298
13118,8474
13218,8624
13368,8724
13500,8750
13589,8750
13721,8724
13871,8624
13971,8474
14006,8298
13971,8121
13954,8096
13994,8057
13994,8057
14090,7961
14089,7963
14089,8632
14098,8678
14125,8718
14164,8744
14210,8753
14681,8753
14588,8845
8550,8845
8445,8740
8500,8750
8589,8750
8721,8724
8871,8624
8971,8474
9006,8298
8971,8121
8871,7971
8721,7871
8692,7865
8692,7759
9357,7094
9369,7086
9379,7071
9401,7037
9401,7037
9410,6994
9410,6994
9413,6980
9410,6965
9410,6630
9413,6616
9410,6601
9410,6601
9401,6558
9389,6540
9377,6522
9377,6522
9369,6509
9357,6501
9110,6255
9110,5745
9297,5745
9311,5748
9326,5745
9326,5745
9369,5737
9418,5704
9426,5692
9888,5229
9901,5221
9933,5172
9942,5129
9942,5129
9945,5115
9942,5100
9942,2109
10343,1708
10368,1724
10500,1750
10589,1750
10721,1724
10871,1624
10971,1474
11006,1298
10971,1121
10890,1000
11199,1000
11118,1121
Z" /> 
<path style="fill:#008400; fill-opacity:1.0; 
stroke:#008400; stroke-width:78.7402; stroke-opacity:1; 
stroke-linecap:round; stroke-linejoin:round;fill-rule:evenodd;"
d="M 14218,971
14118,1121
14083,1298
14118,1474
14134,1499
14116,1518
14116,1518
14000,1633
13988,1641
13980,1654
13980,1654
13955,1690
13944,1748
13947,1762
13947,3137
13912,3052
13790,2931
13631,2865
13458,2865
13299,2931
13242,2988
13242,2059
13550,1750
13589,1750
13721,1724
13871,1624
13971,1474
14006,1298
13971,1121
13871,971
13737,882
14352,882
14218,971
Z" /> 
<path style="fill:#008400; fill-opacity:1.0; 
stroke:#008400; stroke-width:78.7402; stroke-opacity:1; 
stroke-linecap:round; stroke-linejoin:round;fill-rule:evenodd;"
d="M 15750,1716
15738,1724
15730,1737
15706,1771
15705,1773
15697,1816
15697,1816
15694,1831
15697,1845
15697,2892
15631,2865
15458,2865
15299,2931
15177,3052
15170,3069
15170,1881
15343,1708
15368,1724
15500,1750
15589,1750
15721,1724
15784,1682
15750,1716
Z" /> 
<path style="fill:#008400; fill-opacity:1.0; 
stroke:#008400; stroke-width:78.7402; stroke-opacity:1; 
stroke-linecap:round; stroke-linejoin:round;fill-rule:evenodd;"
d="M 14368,1724
14500,1750
14589,1750
14698,1729
14697,1733
14697,1733
14694,1748
14697,1762
14697,2892
14631,2865
14458,2865
14299,2931
14242,2988
14242,1809
14324,1726
14324,1726
14343,1708
14368,1724
Z" /> 
</g>
</g>
<g style="fill:#FFFFFF; fill-opacity:1.0; 
stroke:#FFFFFF; stroke-width:78.7402; stroke-opacity:1; 
stroke-linecap:round; stroke-linejoin:round;">
</g>
<g style="fill:#FFFFFF; fill-opacity:1.0; 
stroke:#FFFFFF; stroke-width:0; stroke-opacity:1; 
stroke-linecap:round; stroke-linejoin:round;">
<circle cx="7544.88" cy="5548.23" r="59.0551" /> 
</g>
<g style="fill:#FFFFFF; fill-opacity:1.0; 
stroke:#FFFFFF; stroke-width:39.3701; stroke-opacity:1; 
stroke-linecap:round; stroke-linejoin:round;">
</g>
<g style="fill:#FFFFFF; fill-opacity:1.0; 
stroke:#FFFFFF; stroke-width:0; stroke-opacity:1; 
stroke-linecap:round; stroke-linejoin:round;">
<circle cx="6294.88" cy="8298.23" r="59.0551" /> 
</g>
<g style="fill:#FFFFFF; fill-opacity:1.0; 
stroke:#FFFFFF; stroke-width:39.3701; stroke-opacity:1; 
stroke-linecap:round; stroke-linejoin:round;">
</g>
<g style="fill:#FFFFFF; fill-opacity:1.0; 
stroke:#FFFFFF; stroke-width:0; stroke-opacity:1; 
stroke-linecap:round; stroke-linejoin:round;">
<circle cx="9044.88" cy="6750.96" r="59.0551" /> 
</g>
<g style="fill:#FFFFFF; fill-opacity:1.0; 
stroke:#FFFFFF; stroke-width:39.3701; stroke-opacity:1; 
stroke-linecap:round; stroke-linejoin:round;">
</g>
<g style="fill:#FFFFFF; fill-opacity:1.0; 
stroke:#FFFFFF; stroke-width:0; stroke-opacity:1; 
stroke-linecap:round; stroke-linejoin:round;">
<circle cx="7044.88" cy="2798.23" r="59.0551" /> 
</g>
<g style="fill:#FFFFFF; fill-opacity:1.0; 
stroke:#FFFFFF; stroke-width:39.3701; stroke-opacity:1; 
stroke-linecap:round; stroke-linejoin:round;">
</g>
<g style="fill:#FFFFFF; fill-opacity:1.0; 
stroke:#FFFFFF; stroke-width:0; stroke-opacity:1; 
stroke-linecap:round; stroke-linejoin:round;">
<circle cx="8294.88" cy="1298.23" r="59.0551" /> 
</g>
<g style="fill:#FFFFFF; fill-opacity:1.0; 
stroke:#FFFFFF; stroke-width:39.3701; stroke-opacity:1; 
stroke-linecap:round; stroke-linejoin:round;">
</g>
<g style="fill:#FFFFFF; fill-opacity:1.0; 
stroke:#FFFFFF; stroke-width:0; stroke-opacity:1; 
stroke-linecap:round; stroke-linejoin:round;">
<circle cx="8316.04" cy="1819.39" r="59.0551" /> 
</g>
<g style="fill:#FFFFFF; fill-opacity:1.0; 
stroke:#FFFFFF; stroke-width:39.3701; stroke-opacity:1; 
stroke-linecap:round; stroke-linejoin:round;">
</g>
<g style="fill:#FFFFFF; fill-opacity:1.0; 
stroke:#FFFFFF; stroke-width:0; stroke-opacity:1; 
stroke-linecap:round; stroke-linejoin:round;">
<circle cx="8244.88" cy="648.228" r="59.0551" /> 
</g>
<g style="fill:#FFFFFF; fill-opacity:1.0; 
stroke:#FFFFFF; stroke-width:39.3701; stroke-opacity:1; 
stroke-linecap:round; stroke-linejoin:round;">
</g>
<g style="fill:#FFFFFF; fill-opacity:1.0; 
stroke:#FFFFFF; stroke-width:0; stroke-opacity:1; 
stroke-linecap:round; stroke-linejoin:round;">
<circle cx="9044.88" cy="3548.23" r="78.7402" /> 
</g>
<g style="fill:#FFFFFF; fill-opacity:1.0; 
stroke:#FFFFFF; stroke-width:39.3701; stroke-opacity:1; 
stroke-linecap:round; stroke-linejoin:round;">
</g>
<g style="fill:#FFFFFF; fill-opacity:1.0; 
stroke:#FFFFFF; stroke-width:0; stroke-opacity:1; 
stroke-linecap:round; stroke-linejoin:round;">
<circle cx="8044.88" cy="3548.23" r="78.7402" /> 
</g>
<g style="fill:#FFFFFF; fill-opacity:1.0; 
stroke:#FFFFFF; stroke-width:39.3701; stroke-opacity:1; 
stroke-linecap:round; stroke-linejoin:round;">
</g>
<g style="fill:#FFFFFF; fill-opacity:1.0; 
stroke:#FFFFFF; stroke-width:0; stroke-opacity:1; 
stroke-linecap:round; stroke-linejoin:round;">
<circle cx="6310.63" cy="4798.23" r="78.7402" /> 
</g>
<g style="fill:#FFFFFF; fill-opacity:1.0; 
stroke:#FFFFFF; stroke-width:39.3701; stroke-opacity:1; 
stroke-linecap:round; stroke-linejoin:round;">
</g>
<g style="fill:#FFFFFF; fill-opacity:1.0; 
stroke:#FFFFFF; stroke-width:0; stroke-opacity:1; 
stroke-linecap:round; stroke-linejoin:round;">
<circle cx="6544.88" cy="7798.23" r="78.7402" /> 
</g>
<g style="fill:#FFFFFF; fill-opacity:1.0; 
stroke:#FFFFFF; stroke-width:39.3701; stroke-opacity:1; 
stroke-linecap:round; stroke-linejoin:round;">
</g>
<g style="fill:#FFFFFF; fill-opacity:1.0; 
stroke:#FFFFFF; stroke-width:0; stroke-opacity:1; 
stroke-linecap:round; stroke-linejoin:round;">
<circle cx="10944.9" cy="4498.23" r="78.7402" /> 
</g>
<g style="fill:#FFFFFF; fill-opacity:1.0; 
stroke:#FFFFFF; stroke-width:39.3701; stroke-opacity:1; 
stroke-linecap:round; stroke-linejoin:round;">
</g>
<g style="fill:#FFFFFF; fill-opacity:1.0; 
stroke:#FFFFFF; stroke-width:0; stroke-opacity:1; 
stroke-linecap:round; stroke-linejoin:round;">
<circle cx="10944.9" cy="6398.23" r="78.7402" /> 
</g>
<g style="fill:#FFFFFF; fill-opacity:1.0; 
stroke:#FFFFFF; stroke-width:39.3701; stroke-opacity:1; 
stroke-linecap:round; stroke-linejoin:round;">
</g>
<g style="fill:#FFFFFF; fill-opacity:1.0; 
stroke:#FFFFFF; stroke-width:0; stroke-opacity:1; 
stroke-linecap:round; stroke-linejoin:round;">
<circle cx="10444.9" cy="2698.23" r="59.0551" /> 
</g>
<g style="fill:#FFFFFF; fill-opacity:1.0; 
stroke:#FFFFFF; stroke-width:39.3701; stroke-opacity:1; 
stroke-linecap:round; stroke-linejoin:round;">
</g>
<g style="fill:#FFFFFF; fill-opacity:1.0; 
stroke:#FFFFFF; stroke-width:0; stroke-opacity:1; 
stroke-linecap:round; stroke-linejoin:round;">
<circle cx="8544.88" cy="4448.23" r="59.0551" /> 
</g>
<g style="fill:#FFFFFF; fill-opacity:1.0; 
stroke:#FFFFFF; stroke-width:39.3701; stroke-opacity:1; 
stroke-linecap:round; stroke-linejoin:round;">
</g>
<g style="fill:#FFFFFF; fill-opacity:1.0; 
stroke:#FFFFFF; stroke-width:0; stroke-opacity:1; 
stroke-linecap:round; stroke-linejoin:round;">
<circle cx="15344.9" cy="1998.23" r="59.0551" /> 
</g>
<g style="fill:#FFFFFF; fill-opacity:1.0; 
stroke:#FFFFFF; stroke-width:39.3701; stroke-opacity:1; 
stroke-linecap:round; stroke-linejoin:round;">
</g>
<g style="fill:#FFFFFF; fill-opacity:1.0; 
stroke:#FFFFFF; stroke-width:0; stroke-opacity:1; 
stroke-linecap:round; stroke-linejoin:round;">
<circle cx="14344.9" cy="1998.23" r="59.0551" /> 
</g>
<g style="fill:#FFFFFF; fill-opacity:1.0; 
stroke:#FFFFFF; stroke-width:39.3701; stroke-opacity:1; 
stroke-linecap:round; stroke-linejoin:round;">
</g>
<g style="fill:#FFFFFF; fill-opacity:1.0; 
stroke:#FFFFFF; stroke-width:0; stroke-opacity:1; 
stroke-linecap:round; stroke-linejoin:round;">
<circle cx="13444.9" cy="1998.23" r="59.0551" /> 
</g>
<g style="fill:#FFFFFF; fill-opacity:1.0; 
stroke:#FFFFFF; stroke-width:39.3701; stroke-opacity:1; 
stroke-linecap:round; stroke-linejoin:round;">
</g>
<g style="fill:#FFFFFF; fill-opacity:1.0; 
stroke:#FFFFFF; stroke-width:0; stroke-opacity:1; 
stroke-linecap:round; stroke-linejoin:round;">
<circle cx="8844.88" cy="5604.93" r="59.0551" /> 
</g>
<g style="fill:#FFFFFF; fill-opacity:1.0; 
stroke:#FFFFFF; stroke-width:39.3701; stroke-opacity:1; 
stroke-linecap:round; stroke-linejoin:round;">
</g>
<g style="fill:#FFFFFF; fill-opacity:1.0; 
stroke:#FFFFFF; stroke-width:0; stroke-opacity:1; 
stroke-linecap:round; stroke-linejoin:round;">
<circle cx="8544.88" cy="5598.23" r="59.0551" /> 
</g>
<g style="fill:#FFFFFF; fill-opacity:1.0; 
stroke:#FFFFFF; stroke-width:39.3701; stroke-opacity:1; 
stroke-linecap:round; stroke-linejoin:round;">
</g>
<g style="fill:#FFFFFF; fill-opacity:1.0; 
stroke:#FFFFFF; stroke-width:0; stroke-opacity:1; 
stroke-linecap:round; stroke-linejoin:round;">
<circle cx="9444.88" cy="3498.23" r="59.0551" /> 
</g>
<g style="fill:#FFFFFF; fill-opacity:1.0; 
stroke:#FFFFFF; stroke-width:39.3701; stroke-opacity:1; 
stroke-linecap:round; stroke-linejoin:round;">
</g>
<g style="fill:#FFFFFF; fill-opacity:1.0; 
stroke:#FFFFFF; stroke-width:0; stroke-opacity:1; 
stroke-linecap:round; stroke-linejoin:round;">
<circle cx="8544.88" cy="6798.23" r="59.0551" /> 
</g>
<g style="fill:#FFFFFF; fill-opacity:1.0; 
stroke:#FFFFFF; stroke-width:39.3701; stroke-opacity:1; 
stroke-linecap:round; stroke-linejoin:round;">
</g>
<g style="fill:#FFFFFF; fill-opacity:1.0; 
stroke:#FFFFFF; stroke-width:0; stroke-opacity:1; 
stroke-linecap:round; stroke-linejoin:round;">
<circle cx="8294.88" cy="6987.19" r="59.0551" /> 
</g>
<g style="fill:#FFFFFF; fill-opacity:1.0; 
stroke:#FFFFFF; stroke-width:39.3701; stroke-opacity:1; 
stroke-linecap:round; stroke-linejoin:round;">
</g>
<g style="fill:#FFFFFF; fill-opacity:1.0; 
stroke:#FFFFFF; stroke-width:0; stroke-opacity:1; 
stroke-linecap:round; stroke-linejoin:round;">
<circle cx="12544.9" cy="3298.23" r="157.48" /> 
</g>
<g style="fill:#FFFFFF; fill-opacity:1.0; 
stroke:#FFFFFF; stroke-width:39.3701; stroke-opacity:1; 
stroke-linecap:round; stroke-linejoin:round;">
</g>
<g style="fill:#FFFFFF; fill-opacity:1.0; 
stroke:#FFFFFF; stroke-width:0; stroke-opacity:1; 
stroke-linecap:round; stroke-linejoin:round;">
<circle cx="13544.9" cy="3298.23" r="157.48" /> 
</g>
<g style="fill:#FFFFFF; fill-opacity:1.0; 
stroke:#FFFFFF; stroke-width:39.3701; stroke-opacity:1; 
stroke-linecap:round; stroke-linejoin:round;">
</g>
<g style="fill:#FFFFFF; fill-opacity:1.0; 
stroke:#FFFFFF; stroke-width:0; stroke-opacity:1; 
stroke-linecap:round; stroke-linejoin:round;">
<circle cx="14544.9" cy="3298.23" r="157.48" /> 
</g>
<g style="fill:#FFFFFF; fill-opacity:1.0; 
stroke:#FFFFFF; stroke-width:39.3701; stroke-opacity:1; 
stroke-linecap:round; stroke-linejoin:round;">
</g>
<g style="fill:#FFFFFF; fill-opacity:1.0; 
stroke:#FFFFFF; stroke-width:0; stroke-opacity:1; 
stroke-linecap:round; stroke-linejoin:round;">
<circle cx="15544.9" cy="3298.23" r="157.48" /> 
</g>
<g style="fill:#FFFFFF; fill-opacity:1.0; 
stroke:#FFFFFF; stroke-width:39.3701; stroke-opacity:1; 
stroke-linecap:round; stroke-linejoin:round;">
</g>
<g style="fill:#FFFFFF; fill-opacity:1.0; 
stroke:#FFFFFF; stroke-width:0; stroke-opacity:1; 
stroke-linecap:round; stroke-linejoin:round;">
<circle cx="16544.9" cy="3298.23" r="157.48" /> 
</g>
<g style="fill:#FFFFFF; fill-opacity:1.0; 
stroke:#FFFFFF; stroke-width:39.3701; stroke-opacity:1; 
stroke-linecap:round; stroke-linejoin:round;">
</g>
<g style="fill:#FFFFFF; fill-opacity:1.0; 
stroke:#FFFFFF; stroke-width:0; stroke-opacity:1; 
stroke-linecap:round; stroke-linejoin:round;">
<circle cx="16544.9" cy="6298.23" r="157.48" /> 
</g>
<g style="fill:#FFFFFF; fill-opacity:1.0; 
stroke:#FFFFFF; stroke-width:39.3701; stroke-opacity:1; 
stroke-linecap:round; stroke-linejoin:round;">
</g>
<g style="fill:#FFFFFF; fill-opacity:1.0; 
stroke:#FFFFFF; stroke-width:0; stroke-opacity:1; 
stroke-linecap:round; stroke-linejoin:round;">
<circle cx="15544.9" cy="6298.23" r="157.48" /> 
</g>
<g style="fill:#FFFFFF; fill-opacity:1.0; 
stroke:#FFFFFF; stroke-width:39.3701; stroke-opacity:1; 
stroke-linecap:round; stroke-linejoin:round;">
</g>
<g style="fill:#FFFFFF; fill-opacity:1.0; 
stroke:#FFFFFF; stroke-width:0; stroke-opacity:1; 
stroke-linecap:round; stroke-linejoin:round;">
<circle cx="14544.9" cy="6298.23" r="157.48" /> 
</g>
<g style="fill:#FFFFFF; fill-opacity:1.0; 
stroke:#FFFFFF; stroke-width:39.3701; stroke-opacity:1; 
stroke-linecap:round; stroke-linejoin:round;">
</g>
<g style="fill:#FFFFFF; fill-opacity:1.0; 
stroke:#FFFFFF; stroke-width:0; stroke-opacity:1; 
stroke-linecap:round; stroke-linejoin:round;">
<circle cx="13544.9" cy="6298.23" r="157.48" /> 
</g>
<g style="fill:#FFFFFF; fill-opacity:1.0; 
stroke:#FFFFFF; stroke-width:39.3701; stroke-opacity:1; 
stroke-linecap:round; stroke-linejoin:round;">
</g>
<g style="fill:#FFFFFF; fill-opacity:1.0; 
stroke:#FFFFFF; stroke-width:0; stroke-opacity:1; 
stroke-linecap:round; stroke-linejoin:round;">
<circle cx="12544.9" cy="6298.23" r="157.48" /> 
</g>
<g style="fill:#FFFFFF; fill-opacity:1.0; 
stroke:#FFFFFF; stroke-width:39.3701; stroke-opacity:1; 
stroke-linecap:round; stroke-linejoin:round;">
</g>
<g style="fill:#FFFFFF; fill-opacity:1.0; 
stroke:#FFFFFF; stroke-width:0; stroke-opacity:1; 
stroke-linecap:round; stroke-linejoin:round;">
<circle cx="14544.9" cy="8298.23" r="196.85" /> 
</g>
<g style="fill:#FFFFFF; fill-opacity:1.0; 
stroke:#FFFFFF; stroke-width:39.3701; stroke-opacity:1; 
stroke-linecap:round; stroke-linejoin:round;">
</g>
<g style="fill:#FFFFFF; fill-opacity:1.0; 
stroke:#FFFFFF; stroke-width:0; stroke-opacity:1; 
stroke-linecap:round; stroke-linejoin:round;">
<circle cx="13544.9" cy="8298.23" r="196.85" /> 
</g>
<g style="fill:#FFFFFF; fill-opacity:1.0; 
stroke:#FFFFFF; stroke-width:39.3701; stroke-opacity:1; 
stroke-linecap:round; stroke-linejoin:round;">
</g>
<g style="fill:#FFFFFF; fill-opacity:1.0; 
stroke:#FFFFFF; stroke-width:0; stroke-opacity:1; 
stroke-linecap:round; stroke-linejoin:round;">
<circle cx="12544.9" cy="8298.23" r="196.85" /> 
</g>
<g style="fill:#FFFFFF; fill-opacity:1.0; 
stroke:#FFFFFF; stroke-width:39.3701; stroke-opacity:1; 
stroke-linecap:round; stroke-linejoin:round;">
</g>
<g style="fill:#FFFFFF; fill-opacity:1.0; 
stroke:#FFFFFF; stroke-width:0; stroke-opacity:1; 
stroke-linecap:round; stroke-linejoin:round;">
<circle cx="11544.9" cy="8298.23" r="196.85" /> 
</g>
<g style="fill:#FFFFFF; fill-opacity:1.0; 
stroke:#FFFFFF; stroke-width:39.3701; stroke-opacity:1; 
stroke-linecap:round; stroke-linejoin:round;">
</g>
<g style="fill:#FFFFFF; fill-opacity:1.0; 
stroke:#FFFFFF; stroke-width:0; stroke-opacity:1; 
stroke-linecap:round; stroke-linejoin:round;">
<circle cx="10544.9" cy="8298.23" r="196.85" /> 
</g>
<g style="fill:#FFFFFF; fill-opacity:1.0; 
stroke:#FFFFFF; stroke-width:39.3701; stroke-opacity:1; 
stroke-linecap:round; stroke-linejoin:round;">
</g>
<g style="fill:#FFFFFF; fill-opacity:1.0; 
stroke:#FFFFFF; stroke-width:0; stroke-opacity:1; 
stroke-linecap:round; stroke-linejoin:round;">
<circle cx="9544.88" cy="8298.23" r="196.85" /> 
</g>
<g style="fill:#FFFFFF; fill-opacity:1.0; 
stroke:#FFFFFF; stroke-width:39.3701; stroke-opacity:1; 
stroke-linecap:round; stroke-linejoin:round;">
</g>
<g style="fill:#FFFFFF; fill-opacity:1.0; 
stroke:#FFFFFF; stroke-width:0; stroke-opacity:1; 
stroke-linecap:round; stroke-linejoin:round;">
<circle cx="8544.88" cy="8298.23" r="196.85" /> 
</g>
<g style="fill:#FFFFFF; fill-opacity:1.0; 
stroke:#FFFFFF; stroke-width:39.3701; stroke-opacity:1; 
stroke-linecap:round; stroke-linejoin:round;">
</g>
<g style="fill:#FFFFFF; fill-opacity:1.0; 
stroke:#FFFFFF; stroke-width:0; stroke-opacity:1; 
stroke-linecap:round; stroke-linejoin:round;">
<circle cx="7544.88" cy="8298.23" r="196.85" /> 
</g>
<g style="fill:#FFFFFF; fill-opacity:1.0; 
stroke:#FFFFFF; stroke-width:39.3701; stroke-opacity:1; 
stroke-linecap:round; stroke-linejoin:round;">
</g>
<g style="fill:#FFFFFF; fill-opacity:1.0; 
stroke:#FFFFFF; stroke-width:0; stroke-opacity:1; 
stroke-linecap:round; stroke-linejoin:round;">
<circle cx="16544.9" cy="8298.23" r="196.85" /> 
</g>
<g style="fill:#FFFFFF; fill-opacity:1.0; 
stroke:#FFFFFF; stroke-width:39.3701; stroke-opacity:1; 
stroke-linecap:round; stroke-linejoin:round;">
</g>
<g style="fill:#FFFFFF; fill-opacity:1.0; 
stroke:#FFFFFF; stroke-width:0; stroke-opacity:1; 
stroke-linecap:round; stroke-linejoin:round;">
<circle cx="7544.88" cy="1298.23" r="196.85" /> 
</g>
<g style="fill:#FFFFFF; fill-opacity:1.0; 
stroke:#FFFFFF; stroke-width:39.3701; stroke-opacity:1; 
stroke-linecap:round; stroke-linejoin:round;">
</g>
<g style="fill:#FFFFFF; fill-opacity:1.0; 
stroke:#FFFFFF; stroke-width:0; stroke-opacity:1; 
stroke-linecap:round; stroke-linejoin:round;">
<circle cx="16544.9" cy="1298.23" r="196.85" /> 
</g>
<g style="fill:#FFFFFF; fill-opacity:1.0; 
stroke:#FFFFFF; stroke-width:39.3701; stroke-opacity:1; 
stroke-linecap:round; stroke-linejoin:round;">
</g>
<g style="fill:#FFFFFF; fill-opacity:1.0; 
stroke:#FFFFFF; stroke-width:0; stroke-opacity:1; 
stroke-linecap:round; stroke-linejoin:round;">
<circle cx="15544.9" cy="1298.23" r="196.85" /> 
</g>
<g style="fill:#FFFFFF; fill-opacity:1.0; 
stroke:#FFFFFF; stroke-width:39.3701; stroke-opacity:1; 
stroke-linecap:round; stroke-linejoin:round;">
</g>
<g style="fill:#FFFFFF; fill-opacity:1.0; 
stroke:#FFFFFF; stroke-width:0; stroke-opacity:1; 
stroke-linecap:round; stroke-linejoin:round;">
<circle cx="14544.9" cy="1298.23" r="196.85" /> 
</g>
<g style="fill:#FFFFFF; fill-opacity:1.0; 
stroke:#FFFFFF; stroke-width:39.3701; stroke-opacity:1; 
stroke-linecap:round; stroke-linejoin:round;">
</g>
<g style="fill:#FFFFFF; fill-opacity:1.0; 
stroke:#FFFFFF; stroke-width:0; stroke-opacity:1; 
stroke-linecap:round; stroke-linejoin:round;">
<circle cx="13544.9" cy="1298.23" r="196.85" /> 
</g>
<g style="fill:#FFFFFF; fill-opacity:1.0; 
stroke:#FFFFFF; stroke-width:39.3701; stroke-opacity:1; 
stroke-linecap:round; stroke-linejoin:round;">
</g>
<g style="fill:#FFFFFF; fill-opacity:1.0; 
stroke:#FFFFFF; stroke-width:0; stroke-opacity:1; 
stroke-linecap:round; stroke-linejoin:round;">
<circle cx="12544.9" cy="1298.23" r="196.85" /> 
</g>
<g style="fill:#FFFFFF; fill-opacity:1.0; 
stroke:#FFFFFF; stroke-width:39.3701; stroke-opacity:1; 
stroke-linecap:round; stroke-linejoin:round;">
</g>
<g style="fill:#FFFFFF; fill-opacity:1.0; 
stroke:#FFFFFF; stroke-width:0; stroke-opacity:1; 
stroke-linecap:round; stroke-linejoin:round;">
<circle cx="11544.9" cy="1298.23" r="196.85" /> 
</g>
<g style="fill:#FFFFFF; fill-opacity:1.0; 
stroke:#FFFFFF; stroke-width:39.3701; stroke-opacity:1; 
stroke-linecap:round; stroke-linejoin:round;">
</g>
<g style="fill:#FFFFFF; fill-opacity:1.0; 
stroke:#FFFFFF; stroke-width:0; stroke-opacity:1; 
stroke-linecap:round; stroke-linejoin:round;">
<circle cx="10544.9" cy="1298.23" r="196.85" /> 
</g>
<g style="fill:#FFFFFF; fill-opacity:1.0; 
stroke:#FFFFFF; stroke-width:39.3701; stroke-opacity:1; 
stroke-linecap:round; stroke-linejoin:round;">
</g>
<g style="fill:#FFFFFF; fill-opacity:1.0; 
stroke:#FFFFFF; stroke-width:0; stroke-opacity:1; 
stroke-linecap:round; stroke-linejoin:round;">
<circle cx="9544.88" cy="1298.23" r="196.85" /> 
</g>
<g style="fill:#FFFFFF; fill-opacity:1.0; 
stroke:#FFFFFF; stroke-width:39.3701; stroke-opacity:1; 
stroke-linecap:round; stroke-linejoin:round;">
</g>
<g style="fill:#000000; fill-opacity:1.0; 
stroke:#000000; stroke-width:39.3701; stroke-opacity:1; 
stroke-linecap:round; stroke-linejoin:round;">
<g >
</g>
<g >
</g>
<g >
</g>
<g >
</g>
<g >
</g>
<g >
</g>
<g >
</g>
<g >
</g>
<g >
</g>
<g >
</g>
<g >
</g>
<g >
</g>
<g >
</g>
</g>
<g style="fill:#000000; fill-opacity:1.0; 
stroke:#000000; stroke-width:39.3701; stroke-opacity:1; 
stroke-linecap:round; stroke-linejoin:round;">
</g>
<g style="fill:#C2C200; fill-opacity:1.0; 
stroke:#C2C200; stroke-width:39.3701; stroke-opacity:1; 
stroke-linecap:round; stroke-linejoin:round;">
</g>
<g style="fill:#C2C200; fill-opacity:1.0; 
stroke:#C2C200; stroke-width:78.7402; stroke-opacity:1; 
stroke-linecap:round; stroke-linejoin:round;">
</g>
<g style="fill:#C2C200; fill-opacity:0.0; 
stroke:#C2C200; stroke-width:78.7402; stroke-opacity:1; 
stroke-linecap:round; stroke-linejoin:round;">
<path d="M18044 9298
L5544 9298
" />
<path d="M18044 98
L18044 9298
" />
<path d="M5544 98
L18044 98
" />
<path d="M5544 9298
L5544 98
" />
<g >
</g>
<g >
</g>
<g >
</g>
<g >
</g>
<g >
</g>
<g >
</g>
<g >
</g>
<g >
</g>
<g >
</g>
<g >
</g>
<g >
</g>
<g >
</g>
<g >
</g>
</g> 
</svg>
